<svg width="33" height="33" viewBox="0 0 33 33" fill="none" xmlns="http://www.w3.org/2000/svg">
<path fill-rule="evenodd" clip-rule="evenodd" d="M16.5 6.1875C17.0695 6.1875 17.5312 6.64921 17.5312 7.21875V15.4688H25.7812C26.3508 15.4688 26.8125 15.9305 26.8125 16.5C26.8125 17.0695 26.3508 17.5312 25.7812 17.5312H17.5312V25.7812C17.5312 26.3508 17.0695 26.8125 16.5 26.8125C15.9305 26.8125 15.4688 26.3508 15.4688 25.7812V17.5312H7.21875C6.64921 17.5312 6.1875 17.0695 6.1875 16.5C6.1875 15.9305 6.64921 15.4688 7.21875 15.4688H15.4688V7.21875C15.4688 6.64921 15.9305 6.1875 16.5 6.1875Z" fill="#0074D9" stroke="#0074D9" stroke-width="0.235714" stroke-linecap="round" stroke-linejoin="round"/>
</svg>
