<svg width="49" height="49" viewBox="0 0 49 49" fill="none" xmlns="http://www.w3.org/2000/svg">
<path d="M13.8584 5.69146H36.9973C39.2524 5.69146 41.0806 7.51963 41.0806 9.77479V32.9137H43.8028V9.77479C43.8028 6.01619 40.7559 2.96924 36.9973 2.96924H13.8584V5.69146Z" fill="white"/>
<path d="M27.4695 22.0248C28.9729 22.0248 30.1917 20.806 30.1917 19.3026C30.1917 17.7991 28.9729 16.5803 27.4695 16.5803C25.966 16.5803 24.7473 17.7991 24.7473 19.3026C24.7473 20.806 25.966 22.0248 27.4695 22.0248Z" fill="white"/>
<path fill-rule="evenodd" clip-rule="evenodd" d="M9.77504 8.41368C6.01643 8.41368 2.96948 11.4606 2.96948 15.2192V36.997C2.96948 40.7556 6.01643 43.8026 9.77504 43.8026H31.5528C35.3114 43.8026 38.3584 40.7556 38.3584 36.997V15.2192C38.3584 11.4606 35.3114 8.41368 31.5528 8.41368H9.77504ZM5.6917 15.2192C5.6917 12.9641 7.51988 11.1359 9.77504 11.1359H31.5528C33.808 11.1359 35.6362 12.9641 35.6362 15.2192V34.1108L32.3454 29.5038C31.2958 28.0344 29.1326 27.9754 28.0045 29.3855L24.8199 33.3662L17.2649 22.5733C16.2942 21.1866 14.3068 21.0126 13.1099 22.2095L5.6917 29.6277V15.2192ZM30.1302 31.086L35.377 38.4316C34.7963 39.979 33.3032 41.0804 31.5528 41.0804H9.77504C7.51988 41.0804 5.6917 39.2522 5.6917 36.997V33.4775L15.0348 24.1344L22.5898 34.9273C23.6315 36.4155 25.8108 36.4853 26.9456 35.0668L30.1302 31.086Z" fill="white"/>
<path d="M13.8584 5.69146H36.9973C39.2524 5.69146 41.0806 7.51963 41.0806 9.77479V32.9137H43.8028V9.77479C43.8028 6.01619 40.7559 2.96924 36.9973 2.96924H13.8584V5.69146Z" stroke="white" stroke-width="1.36111"/>
<path d="M27.4695 22.0248C28.9729 22.0248 30.1917 20.806 30.1917 19.3026C30.1917 17.7991 28.9729 16.5803 27.4695 16.5803C25.966 16.5803 24.7473 17.7991 24.7473 19.3026C24.7473 20.806 25.966 22.0248 27.4695 22.0248Z" stroke="white" stroke-width="1.36111"/>
<path fill-rule="evenodd" clip-rule="evenodd" d="M9.77504 8.41368C6.01643 8.41368 2.96948 11.4606 2.96948 15.2192V36.997C2.96948 40.7556 6.01643 43.8026 9.77504 43.8026H31.5528C35.3114 43.8026 38.3584 40.7556 38.3584 36.997V15.2192C38.3584 11.4606 35.3114 8.41368 31.5528 8.41368H9.77504ZM5.6917 15.2192C5.6917 12.9641 7.51988 11.1359 9.77504 11.1359H31.5528C33.808 11.1359 35.6362 12.9641 35.6362 15.2192V34.1108L32.3454 29.5038C31.2958 28.0344 29.1326 27.9754 28.0045 29.3855L24.8199 33.3662L17.2649 22.5733C16.2942 21.1866 14.3068 21.0126 13.1099 22.2095L5.6917 29.6277V15.2192ZM30.1302 31.086L35.377 38.4316C34.7963 39.979 33.3032 41.0804 31.5528 41.0804H9.77504C7.51988 41.0804 5.6917 39.2522 5.6917 36.997V33.4775L15.0348 24.1344L22.5898 34.9273C23.6315 36.4155 25.8108 36.4853 26.9456 35.0668L30.1302 31.086Z" stroke="white" stroke-width="1.36111"/>
</svg>
