<svg width="21" height="21" viewBox="0 0 21 21" fill="none" xmlns="http://www.w3.org/2000/svg">
<path d="M5.95053 2.61196H15.5454C16.4805 2.61196 17.2386 3.37004 17.2386 4.30517V13.9H18.3674V4.30517C18.3674 2.74661 17.1039 1.48315 15.5454 1.48315H5.95053V2.61196Z" fill="#0074D9"/>
<path d="M11.5946 9.38479C12.218 9.38479 12.7234 8.87941 12.7234 8.25599C12.7234 7.63257 12.218 7.12718 11.5946 7.12718C10.9711 7.12718 10.4657 7.63257 10.4657 8.25599C10.4657 8.87941 10.9711 9.38479 11.5946 9.38479Z" fill="#0074D9"/>
<path fill-rule="evenodd" clip-rule="evenodd" d="M4.25732 3.74077C2.69876 3.74077 1.4353 5.00422 1.4353 6.56278V15.5932C1.4353 17.1518 2.69876 18.4152 4.25732 18.4152H13.2878C14.8463 18.4152 16.1098 17.1518 16.1098 15.5932V6.56278C16.1098 5.00422 14.8463 3.74077 13.2878 3.74077H4.25732ZM2.56411 6.56278C2.56411 5.62765 3.32218 4.86957 4.25732 4.86957H13.2878C14.2229 4.86957 14.981 5.62765 14.981 6.56278V14.3964L13.6164 12.4861C13.1812 11.8767 12.2842 11.8523 11.8164 12.437L10.4959 14.0877L7.36309 9.61225C6.96058 9.03724 6.13646 8.96508 5.64015 9.46139L2.56411 12.5374V6.56278ZM12.6979 13.1422L14.8735 16.1881C14.6327 16.8298 14.0136 17.2864 13.2878 17.2864H4.25732C3.32218 17.2864 2.56411 16.5284 2.56411 15.5932V14.1338L6.43833 10.2596L9.57113 14.735C10.0031 15.3521 10.9068 15.381 11.3773 14.7928L12.6979 13.1422Z" fill="#0074D9"/>
<path d="M5.95053 2.61196H15.5454C16.4805 2.61196 17.2386 3.37004 17.2386 4.30517V13.9H18.3674V4.30517C18.3674 2.74661 17.1039 1.48315 15.5454 1.48315H5.95053V2.61196Z" stroke="#0074D9" stroke-width="0.564403"/>
<path d="M11.5946 9.38479C12.218 9.38479 12.7234 8.87941 12.7234 8.25599C12.7234 7.63257 12.218 7.12718 11.5946 7.12718C10.9711 7.12718 10.4657 7.63257 10.4657 8.25599C10.4657 8.87941 10.9711 9.38479 11.5946 9.38479Z" stroke="#0074D9" stroke-width="0.564403"/>
<path fill-rule="evenodd" clip-rule="evenodd" d="M4.25732 3.74077C2.69876 3.74077 1.4353 5.00422 1.4353 6.56278V15.5932C1.4353 17.1518 2.69876 18.4152 4.25732 18.4152H13.2878C14.8463 18.4152 16.1098 17.1518 16.1098 15.5932V6.56278C16.1098 5.00422 14.8463 3.74077 13.2878 3.74077H4.25732ZM2.56411 6.56278C2.56411 5.62765 3.32218 4.86957 4.25732 4.86957H13.2878C14.2229 4.86957 14.981 5.62765 14.981 6.56278V14.3964L13.6164 12.4861C13.1812 11.8767 12.2842 11.8523 11.8164 12.437L10.4959 14.0877L7.36309 9.61225C6.96058 9.03724 6.13646 8.96508 5.64015 9.46139L2.56411 12.5374V6.56278ZM12.6979 13.1422L14.8735 16.1881C14.6327 16.8298 14.0136 17.2864 13.2878 17.2864H4.25732C3.32218 17.2864 2.56411 16.5284 2.56411 15.5932V14.1338L6.43833 10.2596L9.57113 14.735C10.0031 15.3521 10.9068 15.381 11.3773 14.7928L12.6979 13.1422Z" stroke="#0074D9" stroke-width="0.564403"/>
</svg>
