<svg width="16" height="16" viewBox="0 0 16 16" fill="none" xmlns="http://www.w3.org/2000/svg">
<path fill-rule="evenodd" clip-rule="evenodd" d="M7.97821 2.20037C8.15498 2.12473 8.35983 2.16177 8.49892 2.29454L13.7835 7.33895C13.8785 7.42961 13.9322 7.55518 13.9322 7.68647C13.9322 7.81776 13.8785 7.94333 13.7835 8.03398L8.49892 13.0784C8.35983 13.2112 8.15498 13.2482 7.97821 13.1726C7.80143 13.0969 7.68678 12.9232 7.68678 12.7309V10.3357C6.2499 10.3787 5.26889 10.619 4.5018 11.0156C3.65213 11.4548 3.01598 12.1103 2.30036 13.0266C2.17414 13.1882 1.95926 13.2519 1.76536 13.1851C1.57147 13.1184 1.44131 12.9359 1.44131 12.7309C1.44131 10.9032 1.7417 8.98542 2.75185 7.51339C3.72136 6.10057 5.29789 5.16481 7.68678 5.055V2.64205C7.68678 2.44977 7.80143 2.27601 7.97821 2.20037ZM8.64762 3.76479V5.52458C8.64762 5.78991 8.43253 6.005 8.1672 6.005C5.76985 6.005 4.36942 6.85435 3.54409 8.05705C2.92024 8.96616 2.59635 10.1183 2.46864 11.3613C2.93712 10.8849 3.44685 10.4793 4.06053 10.162C5.09489 9.62729 6.37566 9.36794 8.1672 9.36794C8.43253 9.36794 8.64762 9.58303 8.64762 9.84836V11.6081L12.756 7.68647L8.64762 3.76479Z" fill="#00729D" stroke="#00729D" stroke-width="0.484061" stroke-linejoin="round"/>
</svg>
