<svg xmlns="http://www.w3.org/2000/svg" width="29" height="29" viewBox="0 0 29 29" fill="none">
  <path d="M21.5573 18.8586C21.0735 18.8584 20.5947 18.9563 20.1498 19.1464C19.7048 19.3364 19.303 19.6147 18.9687 19.9643L10.6615 15.2905C10.8224 14.6862 10.8224 14.0503 10.6615 13.4461L18.9687 8.77218C19.5736 9.39934 20.3864 9.78443 21.2549 9.8553C22.1233 9.92617 22.9878 9.67797 23.6864 9.1572C24.385 8.63642 24.8698 7.8788 25.0499 7.02626C25.2299 6.17373 25.093 5.28479 24.6647 4.52596C24.2365 3.76714 23.5462 3.1905 22.7233 2.90408C21.9003 2.61765 21.0012 2.6411 20.1943 2.97002C19.3875 3.29894 18.7282 3.91077 18.34 4.69089C17.9519 5.471 17.8615 6.36588 18.0857 7.20786L9.77862 11.8817C9.28241 11.3644 8.64275 11.0073 7.94193 10.8564C7.24111 10.7056 6.51118 10.7679 5.84604 11.0353C5.18091 11.3027 4.611 11.763 4.20962 12.3569C3.80824 12.9509 3.59375 13.6514 3.59375 14.3683C3.59375 15.0851 3.80824 15.7856 4.20962 16.3796C4.611 16.9736 5.18091 17.4339 5.84604 17.7013C6.51118 17.9687 7.24111 18.031 7.94193 17.8801C8.64275 17.7293 9.28241 17.3722 9.77862 16.8548L18.0857 21.5287C17.8931 22.2538 17.9324 23.021 18.198 23.7227C18.4636 24.4243 18.9423 25.0252 19.5668 25.441C20.1913 25.8568 20.9303 26.0666 21.6801 26.0411C22.43 26.0155 23.153 25.7557 23.7477 25.2983C24.3424 24.8409 24.7789 24.2088 24.9961 23.4907C25.2133 22.7725 25.2001 22.0044 24.9586 21.2941C24.717 20.5838 24.259 19.967 23.649 19.5302C23.039 19.0934 22.3076 18.8585 21.5573 18.8586Z" fill="#293137"/>
</svg>