<svg xmlns="http://www.w3.org/2000/svg" width="22" height="23" viewBox="0 0 22 23" fill="none">
  <path d="M6.53125 11.5C8.23988 11.5 9.625 10.1149 9.625 8.40625C9.625 6.69762 8.23988 5.3125 6.53125 5.3125C4.82262 5.3125 3.4375 6.69762 3.4375 8.40625C3.4375 10.1149 4.82262 11.5 6.53125 11.5Z" fill="#003D72"/>
  <path d="M10.0547 13.2188C8.84469 12.6043 7.50922 12.3594 6.53125 12.3594C4.6157 12.3594 0.6875 13.5341 0.6875 15.8828V17.6875H7.13281V16.997C7.13281 16.1806 7.47656 15.362 8.07812 14.6797C8.55809 14.1348 9.23012 13.6291 10.0547 13.2188Z" fill="#003D72"/>
  <path d="M14.6094 12.875C12.372 12.875 7.90625 14.2569 7.90625 17V19.0625H21.3125V17C21.3125 14.2569 16.8468 12.875 14.6094 12.875Z" fill="#003D72"/>
  <path d="M14.6094 11.5C16.6977 11.5 18.3906 9.80708 18.3906 7.71875C18.3906 5.63042 16.6977 3.9375 14.6094 3.9375C12.521 3.9375 10.8281 5.63042 10.8281 7.71875C10.8281 9.80708 12.521 11.5 14.6094 11.5Z" fill="#003D72"/>
</svg>