<svg xmlns="http://www.w3.org/2000/svg" width="25" height="25" viewBox="0 0 25 25" fill="none">
  <path d="M7.42188 12.4999C9.3635 12.4999 10.9375 10.9259 10.9375 8.98425C10.9375 7.04263 9.3635 5.46863 7.42188 5.46863C5.48025 5.46863 3.90625 7.04263 3.90625 8.98425C3.90625 10.9259 5.48025 12.4999 7.42188 12.4999Z" fill="black"/>
  <path d="M11.4258 14.4531C10.0508 13.7549 8.5332 13.4766 7.42187 13.4766C5.24512 13.4766 0.78125 14.8115 0.78125 17.4805V19.5313H8.10547V18.7466C8.10547 17.8188 8.49609 16.8887 9.17969 16.1133C9.7251 15.4941 10.4888 14.9194 11.4258 14.4531Z" fill="black"/>
  <path d="M16.6016 14.0625C14.0591 14.0625 8.98438 15.6328 8.98438 18.75V21.0937H24.2188V18.75C24.2188 15.6328 19.144 14.0625 16.6016 14.0625Z" fill="black"/>
  <path d="M16.6016 12.5001C18.9747 12.5001 20.8984 10.5763 20.8984 8.20325C20.8984 5.83015 18.9747 3.90637 16.6016 3.90637C14.2285 3.90637 12.3047 5.83015 12.3047 8.20325C12.3047 10.5763 14.2285 12.5001 16.6016 12.5001Z" fill="black"/>
</svg>