<svg xmlns="http://www.w3.org/2000/svg" width="22" height="22" viewBox="0 0 22 22" fill="none">
  <path d="M8.71538 12.8186C8.29681 13.1146 7.93106 13.4389 7.6279 13.7831C6.94668 14.5559 6.53281 15.5109 6.53281 16.497V16.5875H1.2875V15.3828C1.2875 14.5799 1.96971 13.849 3.15103 13.2811C4.29307 12.732 5.66532 12.4594 6.53125 12.4594C7.14582 12.4594 7.92501 12.5667 8.71538 12.8186ZM9.025 7.90625C9.025 9.28351 7.90851 10.4 6.53125 10.4C5.15399 10.4 4.0375 9.28351 4.0375 7.90625C4.0375 6.52899 5.15399 5.4125 6.53125 5.4125C7.90851 5.4125 9.025 6.52899 9.025 7.90625ZM8.50625 16.5C8.50625 15.4914 9.3352 14.6121 10.6841 13.947C11.9991 13.2986 13.5842 12.975 14.6094 12.975C15.6345 12.975 17.2196 13.2986 18.5346 13.947C19.8835 14.6121 20.7125 15.4914 20.7125 16.5V17.9625H8.50625V16.5ZM17.7906 7.21875C17.7906 8.97571 16.3663 10.4 14.6094 10.4C12.8524 10.4 11.4281 8.97571 11.4281 7.21875C11.4281 5.46179 12.8524 4.0375 14.6094 4.0375C16.3663 4.0375 17.7906 5.46179 17.7906 7.21875Z" stroke="#0074D9" stroke-width="1.2"/>
</svg>