<svg xmlns="http://www.w3.org/2000/svg" width="26" height="27" viewBox="0 0 26 27" fill="none">
  <path d="M9.98868 15.4247C9.58071 15.7339 9.21846 16.0669 8.90928 16.4179C8.09309 17.3437 7.58921 18.4915 7.57982 19.6847H1.6625V18.4019C1.6625 17.5401 2.39833 16.7117 3.785 16.045C5.11603 15.4051 6.71695 15.0878 7.71875 15.0878C8.36199 15.0878 9.16287 15.1895 9.98868 15.4247ZM10.525 9.56592C10.525 11.1158 9.2686 12.3722 7.71875 12.3722C6.1689 12.3722 4.9125 11.1158 4.9125 9.56592C4.9125 8.01607 6.1689 6.75967 7.71875 6.75967C9.2686 6.75967 10.525 8.01607 10.525 9.56592ZM10.1938 19.7222C10.1938 18.6154 11.1059 17.6119 12.689 16.8313C14.224 16.0745 16.0761 15.6972 17.2656 15.6972C18.4552 15.6972 20.3072 16.0745 21.8422 16.8313C23.4253 17.6119 24.3375 18.6154 24.3375 19.7222V21.3097H10.1938V19.7222ZM20.8844 8.75342C20.8844 10.752 19.2642 12.3722 17.2656 12.3722C15.267 12.3722 13.6469 10.752 13.6469 8.75342C13.6469 6.75484 15.267 5.13467 17.2656 5.13467C19.2642 5.13467 20.8844 6.75484 20.8844 8.75342Z" stroke="black" stroke-width="1.7"/>
</svg>