<svg xmlns="http://www.w3.org/2000/svg" width="21" height="24" viewBox="0 0 21 24" fill="none">
  <path fill-rule="evenodd" clip-rule="evenodd" d="M14.4022 0.804986C15.0786 0.957753 15.718 1.24327 16.2833 1.64499C16.8485 2.04671 17.3284 2.55663 17.6952 3.14521C18.0619 3.73378 18.3082 4.3893 18.4197 5.07375C18.5312 5.75821 18.5057 6.45798 18.3447 7.13252C18.1842 7.8051 17.8922 8.43925 17.4855 8.99842L10.6593 18.5898L10.6549 18.5959C10.1108 19.3364 9.29739 19.8333 8.39018 19.9794C7.48297 20.1255 6.55469 19.909 5.80567 19.3767C5.05665 18.8444 4.54694 18.039 4.38654 17.1342C4.22615 16.2294 4.42792 15.2978 4.94832 14.5405L4.95279 14.534L10.1592 7.20775C10.4788 6.7581 11.1024 6.65264 11.552 6.97218C12.0016 7.29173 12.1071 7.91528 11.7876 8.36493L6.59082 15.6775C6.37026 16.0016 6.28503 16.3993 6.3535 16.7855C6.42237 17.174 6.64123 17.5199 6.96285 17.7484C7.28447 17.977 7.68306 18.0699 8.0726 18.0072C8.45997 17.9448 8.80751 17.7335 9.0411 17.4185L15.8644 7.83106L15.8678 7.82644C16.1206 7.47971 16.3021 7.08624 16.4017 6.66885C16.5013 6.25146 16.517 5.81846 16.448 5.39494C16.379 4.97141 16.2267 4.5658 15.9997 4.2016C15.7728 3.83741 15.4759 3.52188 15.1261 3.2733C14.7763 3.02473 14.3807 2.84806 13.9621 2.75353C13.5435 2.659 13.1104 2.6485 12.6877 2.72262C12.2651 2.79675 11.8613 2.95404 11.4999 3.18536C11.1385 3.41669 10.8266 3.71745 10.5823 4.07022L10.5788 4.0752L3.70687 13.745L3.7026 13.7508C3.3138 14.2815 3.03437 14.8841 2.88055 15.5238C2.72674 16.1634 2.70161 16.8272 2.80662 17.4766C2.91164 18.126 3.1447 18.7481 3.49227 19.3067C3.83984 19.8652 4.29497 20.3491 4.8312 20.7302C5.36744 21.1112 5.97408 21.3819 6.61586 21.5265C7.25764 21.671 7.92175 21.6865 8.56958 21.5721C9.21741 21.4577 9.83604 21.2157 10.3895 20.8601C10.943 20.5045 11.4202 20.0424 11.7935 19.5007L11.7976 19.4947L18.2162 10.4629C18.5357 10.0132 19.1593 9.90778 19.6089 10.2273C20.0586 10.5469 20.164 11.1704 19.8445 11.6201L13.4341 20.6404C12.9112 21.3974 12.2434 22.0433 11.4693 22.5407C10.6931 23.0394 9.82553 23.3789 8.91697 23.5393C8.00841 23.6998 7.07701 23.678 6.17694 23.4753C5.27687 23.2726 4.42608 22.8929 3.67402 22.3585C2.92197 21.824 2.28366 21.1454 1.79621 20.3621C1.30877 19.5787 0.981896 18.7063 0.834616 17.7955C0.687337 16.8847 0.722583 15.9537 0.938303 15.0567C1.15344 14.1621 1.5438 13.319 2.08677 12.5763L8.94367 2.92764C9.33795 2.35979 9.84072 1.87556 10.423 1.50286C11.0071 1.12902 11.6596 0.874834 12.3426 0.755037C13.0257 0.635241 13.7257 0.652219 14.4022 0.804986Z" fill="#93A3B1"/>
</svg>