<svg width="31" height="31" viewBox="0 0 31 31" fill="none" xmlns="http://www.w3.org/2000/svg">
<circle cx="15.1807" cy="15.1807" r="14.6747" fill="#F7F7F7" stroke="#93A3B1" stroke-width="1.01205"/>
<path d="M20.7867 18.7401C20.7867 18.9425 20.7417 19.1505 20.6461 19.353C20.5505 19.5554 20.4268 19.7465 20.2638 19.9264C19.9883 20.2301 19.6847 20.4493 19.3417 20.5899C19.0044 20.7305 18.6389 20.8036 18.2453 20.8036C17.6718 20.8036 17.059 20.6686 16.4124 20.3931C15.7658 20.1176 15.1192 19.7465 14.4783 19.2799C13.8317 18.8076 13.2188 18.2847 12.6341 17.7056C12.055 17.1208 11.5321 16.508 11.0654 15.867C10.6044 15.2261 10.2333 14.5851 9.96341 13.9497C9.69353 13.3088 9.55859 12.6959 9.55859 12.1112C9.55859 11.7289 9.62606 11.3634 9.761 11.0261C9.89594 10.6831 10.1096 10.3682 10.4076 10.0871C10.7674 9.73289 11.161 9.55859 11.5771 9.55859C11.7345 9.55859 11.8919 9.59233 12.0325 9.6598C12.1787 9.72727 12.308 9.82847 12.4092 9.97466L13.7136 11.8132C13.8148 11.9538 13.8879 12.0831 13.9385 12.2068C13.9891 12.3249 14.0172 12.4429 14.0172 12.5498C14.0172 12.6847 13.9779 12.8196 13.8991 12.9489C13.8261 13.0783 13.7192 13.2132 13.5843 13.3481L13.157 13.7923C13.0951 13.8542 13.067 13.9273 13.067 14.0172C13.067 14.0622 13.0726 14.1016 13.0839 14.1465C13.1008 14.1915 13.1176 14.2253 13.1289 14.259C13.2301 14.4445 13.4044 14.6863 13.6518 14.9787C13.9048 15.271 14.1746 15.569 14.467 15.867C14.7706 16.165 15.063 16.4405 15.361 16.6935C15.6534 16.9409 15.8951 17.1096 16.0863 17.2108C16.1144 17.222 16.1481 17.2389 16.1875 17.2558C16.2325 17.2726 16.2775 17.2783 16.3281 17.2783C16.4236 17.2783 16.4967 17.2445 16.5586 17.1827L16.9859 16.761C17.1265 16.6204 17.2614 16.5136 17.3907 16.4461C17.52 16.3674 17.6493 16.3281 17.7899 16.3281C17.8967 16.3281 18.0092 16.3505 18.1329 16.4012C18.2566 16.4518 18.3859 16.5248 18.5264 16.6204L20.3875 17.9417C20.5337 18.0429 20.6349 18.161 20.6967 18.3015C20.7529 18.4421 20.7867 18.5827 20.7867 18.7401Z" stroke="#343D45" stroke-width="1.26506" stroke-miterlimit="10"/>
</svg>
