<svg width="16" height="16" viewBox="0 0 16 16" fill="none" xmlns="http://www.w3.org/2000/svg">
<path fill-rule="evenodd" clip-rule="evenodd" d="M2.98599 7.27592C2.98599 7.20959 3.03976 7.15582 3.10609 7.15582H4.30714C4.37347 7.15582 4.42725 7.20959 4.42725 7.27592V11.8399C4.42725 11.9062 4.37347 11.96 4.30714 11.96H3.10609C3.03976 11.96 2.98599 11.9062 2.98599 11.8399V7.27592ZM3.10609 6.19497C2.5091 6.19497 2.02515 6.67893 2.02515 7.27592V11.8399C2.02515 12.4369 2.5091 12.9209 3.10609 12.9209H4.30714C4.90413 12.9209 5.38809 12.4369 5.38809 11.8399V7.27592C5.38809 6.67893 4.90413 6.19497 4.30714 6.19497H3.10609ZM7.42988 5.71455C7.36354 5.71455 7.30977 5.76833 7.30977 5.83466V11.8399C7.30977 11.9062 7.36354 11.96 7.42988 11.96H8.63093C8.69726 11.96 8.75103 11.9062 8.75103 11.8399V5.83466C8.75103 5.76833 8.69726 5.71455 8.63093 5.71455H7.42988ZM6.34893 5.83466C6.34893 5.23767 6.83289 4.75371 7.42988 4.75371H8.63093C9.22792 4.75371 9.71187 5.23767 9.71187 5.83466V11.8399C9.71187 12.4369 9.22792 12.9209 8.63093 12.9209H7.42988C6.83289 12.9209 6.34893 12.4369 6.34893 11.8399V5.83466ZM11.6228 3.91298C11.6228 3.84665 11.6765 3.79287 11.7429 3.79287H12.9439C13.0103 3.79287 13.064 3.84665 13.064 3.91298V11.8399C13.064 11.9062 13.0103 11.96 12.9439 11.96H11.7429C11.6765 11.96 11.6228 11.9062 11.6228 11.8399V3.91298ZM11.7429 2.83203C11.1459 2.83203 10.6619 3.31599 10.6619 3.91298V11.8399C10.6619 12.4369 11.1459 12.9209 11.7429 12.9209H12.9439C13.5409 12.9209 14.0249 12.4369 14.0249 11.8399V3.91298C14.0249 3.31599 13.5409 2.83203 12.9439 2.83203H11.7429Z" fill="#00729D" stroke="#00729D" stroke-width="0.3" stroke-linecap="round" stroke-linejoin="round"/>
</svg>
