<svg width="24" height="24" viewBox="0 0 24 24" fill="none" xmlns="http://www.w3.org/2000/svg">
<path d="M13.875 12C14.4963 12 15 11.4963 15 10.875C15 10.2537 14.4963 9.75 13.875 9.75C13.2537 9.75 12.75 10.2537 12.75 10.875C12.75 11.4963 13.2537 12 13.875 12Z" fill="#0074D9"/>
<path d="M17.625 12C18.2463 12 18.75 11.4963 18.75 10.875C18.75 10.2537 18.2463 9.75 17.625 9.75C17.0037 9.75 16.5 10.2537 16.5 10.875C16.5 11.4963 17.0037 12 17.625 12Z" fill="#0074D9"/>
<path d="M13.875 15.75C14.4963 15.75 15 15.2463 15 14.625C15 14.0037 14.4963 13.5 13.875 13.5C13.2537 13.5 12.75 14.0037 12.75 14.625C12.75 15.2463 13.2537 15.75 13.875 15.75Z" fill="#0074D9"/>
<path d="M17.625 15.75C18.2463 15.75 18.75 15.2463 18.75 14.625C18.75 14.0037 18.2463 13.5 17.625 13.5C17.0037 13.5 16.5 14.0037 16.5 14.625C16.5 15.2463 17.0037 15.75 17.625 15.75Z" fill="#0074D9"/>
<path d="M6.375 15.75C6.99632 15.75 7.5 15.2463 7.5 14.625C7.5 14.0037 6.99632 13.5 6.375 13.5C5.75368 13.5 5.25 14.0037 5.25 14.625C5.25 15.2463 5.75368 15.75 6.375 15.75Z" fill="#0074D9"/>
<path d="M10.125 15.75C10.7463 15.75 11.25 15.2463 11.25 14.625C11.25 14.0037 10.7463 13.5 10.125 13.5C9.50368 13.5 9 14.0037 9 14.625C9 15.2463 9.50368 15.75 10.125 15.75Z" fill="#0074D9"/>
<path d="M6.375 19.5C6.99632 19.5 7.5 18.9963 7.5 18.375C7.5 17.7537 6.99632 17.25 6.375 17.25C5.75368 17.25 5.25 17.7537 5.25 18.375C5.25 18.9963 5.75368 19.5 6.375 19.5Z" fill="#0074D9"/>
<path d="M10.125 19.5C10.7463 19.5 11.25 18.9963 11.25 18.375C11.25 17.7537 10.7463 17.25 10.125 17.25C9.50368 17.25 9 17.7537 9 18.375C9 18.9963 9.50368 19.5 10.125 19.5Z" fill="#0074D9"/>
<path d="M13.875 19.5C14.4963 19.5 15 18.9963 15 18.375C15 17.7537 14.4963 17.25 13.875 17.25C13.2537 17.25 12.75 17.7537 12.75 18.375C12.75 18.9963 13.2537 19.5 13.875 19.5Z" fill="#0074D9"/>
<path fill-rule="evenodd" clip-rule="evenodd" d="M6.75 2.25C6.75 1.83579 6.41421 1.5 6 1.5C5.58579 1.5 5.25 1.83579 5.25 2.25V3H4.5C2.84315 3 1.5 4.34315 1.5 6V19.5C1.5 21.1569 2.84315 22.5 4.5 22.5H19.5C21.1569 22.5 22.5 21.1569 22.5 19.5V6C22.5 4.34315 21.1569 3 19.5 3H18.75V2.25C18.75 1.83579 18.4142 1.5 18 1.5C17.5858 1.5 17.25 1.83579 17.25 2.25V3H6.75V2.25ZM19.5 4.5C20.3284 4.5 21 5.17157 21 6V6.75H3V6C3 5.17157 3.67157 4.5 4.5 4.5H19.5ZM3 8.25V19.5C3 20.3284 3.67157 21 4.5 21H19.5C20.3284 21 21 20.3284 21 19.5V8.25H3Z" fill="#0074D9"/>
<path d="M5.25 3V3.35C5.4433 3.35 5.6 3.1933 5.6 3H5.25ZM18.75 3H18.4C18.4 3.1933 18.5567 3.35 18.75 3.35V3ZM17.25 3V3.35C17.4433 3.35 17.6 3.1933 17.6 3H17.25ZM6.75 3H6.4C6.4 3.1933 6.5567 3.35 6.75 3.35V3ZM21 6.75V7.1C21.1933 7.1 21.35 6.9433 21.35 6.75H21ZM3 6.75H2.65C2.65 6.9433 2.8067 7.1 3 7.1V6.75ZM3 8.25V7.9C2.8067 7.9 2.65 8.0567 2.65 8.25H3ZM21 8.25H21.35C21.35 8.0567 21.1933 7.9 21 7.9V8.25ZM13.875 12.35C14.6896 12.35 15.35 11.6896 15.35 10.875H14.65C14.65 11.303 14.303 11.65 13.875 11.65V12.35ZM15.35 10.875C15.35 10.0604 14.6896 9.4 13.875 9.4V10.1C14.303 10.1 14.65 10.447 14.65 10.875H15.35ZM13.875 9.4C13.0604 9.4 12.4 10.0604 12.4 10.875H13.1C13.1 10.447 13.447 10.1 13.875 10.1V9.4ZM12.4 10.875C12.4 11.6896 13.0604 12.35 13.875 12.35V11.65C13.447 11.65 13.1 11.303 13.1 10.875H12.4ZM17.625 12.35C18.4396 12.35 19.1 11.6896 19.1 10.875H18.4C18.4 11.303 18.053 11.65 17.625 11.65V12.35ZM19.1 10.875C19.1 10.0604 18.4396 9.4 17.625 9.4V10.1C18.053 10.1 18.4 10.447 18.4 10.875H19.1ZM17.625 9.4C16.8104 9.4 16.15 10.0604 16.15 10.875H16.85C16.85 10.447 17.197 10.1 17.625 10.1V9.4ZM16.15 10.875C16.15 11.6896 16.8104 12.35 17.625 12.35V11.65C17.197 11.65 16.85 11.303 16.85 10.875H16.15ZM13.875 16.1C14.6896 16.1 15.35 15.4396 15.35 14.625H14.65C14.65 15.053 14.303 15.4 13.875 15.4V16.1ZM15.35 14.625C15.35 13.8104 14.6896 13.15 13.875 13.15V13.85C14.303 13.85 14.65 14.197 14.65 14.625H15.35ZM13.875 13.15C13.0604 13.15 12.4 13.8104 12.4 14.625H13.1C13.1 14.197 13.447 13.85 13.875 13.85V13.15ZM12.4 14.625C12.4 15.4396 13.0604 16.1 13.875 16.1V15.4C13.447 15.4 13.1 15.053 13.1 14.625H12.4ZM17.625 16.1C18.4396 16.1 19.1 15.4396 19.1 14.625H18.4C18.4 15.053 18.053 15.4 17.625 15.4V16.1ZM19.1 14.625C19.1 13.8104 18.4396 13.15 17.625 13.15V13.85C18.053 13.85 18.4 14.197 18.4 14.625H19.1ZM17.625 13.15C16.8104 13.15 16.15 13.8104 16.15 14.625H16.85C16.85 14.197 17.197 13.85 17.625 13.85V13.15ZM16.15 14.625C16.15 15.4396 16.8104 16.1 17.625 16.1V15.4C17.197 15.4 16.85 15.053 16.85 14.625H16.15ZM6.375 16.1C7.18962 16.1 7.85 15.4396 7.85 14.625H7.15C7.15 15.053 6.80302 15.4 6.375 15.4V16.1ZM7.85 14.625C7.85 13.8104 7.18962 13.15 6.375 13.15V13.85C6.80302 13.85 7.15 14.197 7.15 14.625H7.85ZM6.375 13.15C5.56038 13.15 4.9 13.8104 4.9 14.625H5.6C5.6 14.197 5.94698 13.85 6.375 13.85V13.15ZM4.9 14.625C4.9 15.4396 5.56038 16.1 6.375 16.1V15.4C5.94698 15.4 5.6 15.053 5.6 14.625H4.9ZM10.125 16.1C10.9396 16.1 11.6 15.4396 11.6 14.625H10.9C10.9 15.053 10.553 15.4 10.125 15.4V16.1ZM11.6 14.625C11.6 13.8104 10.9396 13.15 10.125 13.15V13.85C10.553 13.85 10.9 14.197 10.9 14.625H11.6ZM10.125 13.15C9.31038 13.15 8.65 13.8104 8.65 14.625H9.35C9.35 14.197 9.69698 13.85 10.125 13.85V13.15ZM8.65 14.625C8.65 15.4396 9.31038 16.1 10.125 16.1V15.4C9.69698 15.4 9.35 15.053 9.35 14.625H8.65ZM6.375 19.85C7.18962 19.85 7.85 19.1896 7.85 18.375H7.15C7.15 18.803 6.80302 19.15 6.375 19.15V19.85ZM7.85 18.375C7.85 17.5604 7.18962 16.9 6.375 16.9V17.6C6.80302 17.6 7.15 17.947 7.15 18.375H7.85ZM6.375 16.9C5.56038 16.9 4.9 17.5604 4.9 18.375H5.6C5.6 17.947 5.94698 17.6 6.375 17.6V16.9ZM4.9 18.375C4.9 19.1896 5.56038 19.85 6.375 19.85V19.15C5.94698 19.15 5.6 18.803 5.6 18.375H4.9ZM10.125 19.85C10.9396 19.85 11.6 19.1896 11.6 18.375H10.9C10.9 18.803 10.553 19.15 10.125 19.15V19.85ZM11.6 18.375C11.6 17.5604 10.9396 16.9 10.125 16.9V17.6C10.553 17.6 10.9 17.947 10.9 18.375H11.6ZM10.125 16.9C9.31038 16.9 8.65 17.5604 8.65 18.375H9.35C9.35 17.947 9.69698 17.6 10.125 17.6V16.9ZM8.65 18.375C8.65 19.1896 9.31038 19.85 10.125 19.85V19.15C9.69698 19.15 9.35 18.803 9.35 18.375H8.65ZM13.875 19.85C14.6896 19.85 15.35 19.1896 15.35 18.375H14.65C14.65 18.803 14.303 19.15 13.875 19.15V19.85ZM15.35 18.375C15.35 17.5604 14.6896 16.9 13.875 16.9V17.6C14.303 17.6 14.65 17.947 14.65 18.375H15.35ZM13.875 16.9C13.0604 16.9 12.4 17.5604 12.4 18.375H13.1C13.1 17.947 13.447 17.6 13.875 17.6V16.9ZM12.4 18.375C12.4 19.1896 13.0604 19.85 13.875 19.85V19.15C13.447 19.15 13.1 18.803 13.1 18.375H12.4ZM6 1.85C6.22091 1.85 6.4 2.02909 6.4 2.25H7.1C7.1 1.64249 6.60751 1.15 6 1.15V1.85ZM5.6 2.25C5.6 2.02909 5.77909 1.85 6 1.85V1.15C5.39249 1.15 4.9 1.64249 4.9 2.25H5.6ZM5.6 3V2.25H4.9V3H5.6ZM4.5 3.35H5.25V2.65H4.5V3.35ZM1.85 6C1.85 4.53645 3.03645 3.35 4.5 3.35V2.65C2.64985 2.65 1.15 4.14985 1.15 6H1.85ZM1.85 19.5V6H1.15V19.5H1.85ZM4.5 22.15C3.03645 22.15 1.85 20.9636 1.85 19.5H1.15C1.15 21.3502 2.64985 22.85 4.5 22.85V22.15ZM19.5 22.15H4.5V22.85H19.5V22.15ZM22.15 19.5C22.15 20.9636 20.9636 22.15 19.5 22.15V22.85C21.3502 22.85 22.85 21.3502 22.85 19.5H22.15ZM22.15 6V19.5H22.85V6H22.15ZM19.5 3.35C20.9636 3.35 22.15 4.53645 22.15 6H22.85C22.85 4.14985 21.3502 2.65 19.5 2.65V3.35ZM18.75 3.35H19.5V2.65H18.75V3.35ZM18.4 2.25V3H19.1V2.25H18.4ZM18 1.85C18.2209 1.85 18.4 2.02909 18.4 2.25H19.1C19.1 1.64249 18.6075 1.15 18 1.15V1.85ZM17.6 2.25C17.6 2.02909 17.7791 1.85 18 1.85V1.15C17.3925 1.15 16.9 1.64249 16.9 2.25H17.6ZM17.6 3V2.25H16.9V3H17.6ZM6.75 3.35H17.25V2.65H6.75V3.35ZM6.4 2.25V3H7.1V2.25H6.4ZM21.35 6C21.35 4.97827 20.5217 4.15 19.5 4.15V4.85C20.1351 4.85 20.65 5.36487 20.65 6H21.35ZM21.35 6.75V6H20.65V6.75H21.35ZM3 7.1H21V6.4H3V7.1ZM2.65 6V6.75H3.35V6H2.65ZM4.5 4.15C3.47827 4.15 2.65 4.97827 2.65 6H3.35C3.35 5.36487 3.86487 4.85 4.5 4.85V4.15ZM2.65 8.25V19.5H3.35V8.25H2.65ZM2.65 19.5C2.65 20.5217 3.47827 21.35 4.5 21.35V20.65C3.86487 20.65 3.35 20.1351 3.35 19.5H2.65ZM4.5 21.35H19.5V20.65H4.5V21.35ZM19.5 21.35C20.5217 21.35 21.35 20.5217 21.35 19.5H20.65C20.65 20.1351 20.1351 20.65 19.5 20.65V21.35ZM21.35 19.5V8.25H20.65V19.5H21.35ZM21 7.9H3V8.6H21V7.9ZM19.5 4.15H4.5V4.85H19.5V4.15Z" fill="#0074D9"/>
</svg>
