<svg width="18" height="19" viewBox="0 0 18 19" fill="none" xmlns="http://www.w3.org/2000/svg">
<path fill-rule="evenodd" clip-rule="evenodd" d="M4.81112 1.87457C4.92905 1.96719 5.06149 2.0918 5.21387 2.24231C5.54034 2.56362 5.91908 3.0784 6.24407 3.5726C6.57271 4.07234 6.87723 4.59842 7.04791 4.96458L7.04802 4.96481L7.04813 4.96504C7.14488 5.17309 7.23207 5.36162 7.29337 5.52685C7.35561 5.69466 7.40734 5.87923 7.40767 6.08064C7.40837 6.50225 7.17953 6.82765 6.9591 7.12778C6.89577 7.21399 6.84197 7.28465 6.79559 7.34554C6.69563 7.47681 6.6301 7.56286 6.57763 7.66238C6.52646 7.75945 6.51153 7.82954 6.53575 7.94237C6.57067 8.10506 6.72251 8.46119 7.01735 8.92708C7.30249 9.37764 7.69289 9.88583 8.15934 10.3508C8.62569 10.8157 9.12581 11.1958 9.56738 11.4708C10.0224 11.7542 10.3728 11.8997 10.5402 11.9354C10.6567 11.9603 10.7294 11.9447 10.8267 11.8941C10.9293 11.8407 11.0206 11.771 11.1625 11.6626C11.2183 11.62 11.2819 11.5715 11.3571 11.5156L11.3572 11.5155L11.3629 11.5113C11.6641 11.2875 11.9987 11.0389 12.4228 11.0394C12.6323 11.0396 12.8204 11.0987 12.986 11.1663C13.1442 11.2309 13.326 11.3225 13.5254 11.4229L13.5421 11.4313C13.8915 11.6076 14.4112 11.9061 14.9142 12.2315C15.4084 12.5513 15.9298 12.9244 16.2544 13.2516L16.2549 13.2521C16.4058 13.4045 16.5308 13.5369 16.6236 13.6548C16.7135 13.7689 16.8121 13.9166 16.8537 14.1002C16.9006 14.307 16.8581 14.4791 16.8146 14.5984C16.7949 14.6522 16.7718 14.7039 16.7551 14.7408C16.7525 14.7466 16.75 14.7522 16.7475 14.7577C16.7321 14.792 16.7186 14.8219 16.7043 14.8561L16.704 14.857L16.7036 14.8578C16.5567 15.2062 16.3779 15.5404 16.1697 15.856L16.169 15.857L16.1684 15.8579C15.7614 16.4693 15.3786 16.8688 14.7835 17.146C14.4742 17.29 14.0324 17.4355 13.3457 17.3499C12.6852 17.2675 11.8259 16.9751 10.6532 16.3183L10.6529 16.3181C8.77621 15.2656 7.47403 14.3582 5.79425 12.6831C4.1194 11.0129 3.29617 9.92288 2.14296 7.8279C0.982005 5.71884 0.983669 4.41825 1.31521 3.70978C1.59358 3.11494 1.99706 2.73386 2.60642 2.32902L2.60762 2.32822L2.60882 2.32743C2.9248 2.11982 3.25914 1.94159 3.60763 1.79496L3.60878 1.79448L3.60993 1.794C3.64442 1.77967 3.67458 1.76615 3.70907 1.75069C3.71448 1.74826 3.72 1.74579 3.72565 1.74326C3.76271 1.72667 3.81439 1.70362 3.86816 1.68409C3.98735 1.64079 4.15909 1.5985 4.36554 1.64505C4.54909 1.68644 4.69676 1.78476 4.81112 1.87457ZM4.04287 2.83236C3.7585 2.95208 3.48567 3.09752 3.22776 3.26687C2.71298 3.60902 2.4923 3.84868 2.33416 4.18662C2.22906 4.41121 2.03455 5.29804 3.12851 7.28539C4.23022 9.28681 4.98903 10.2914 6.58863 11.8865C8.18322 13.4766 9.39889 14.3249 11.2029 15.3367C12.3069 15.955 13.0226 16.1759 13.4849 16.2335C13.921 16.2879 14.1498 16.2001 14.3085 16.1262C14.649 15.9676 14.8898 15.7484 15.2313 15.2354C15.4011 14.978 15.5469 14.7054 15.6667 14.4213C15.6829 14.3826 15.6988 14.3469 15.7122 14.3171C15.6597 14.2548 15.5794 14.1687 15.4558 14.0439C15.2221 13.8085 14.7884 13.4901 14.3031 13.1761C13.8266 12.8678 13.3423 12.5906 13.0357 12.436C12.8144 12.3245 12.6727 12.2536 12.5608 12.2079C12.452 12.1635 12.4203 12.1644 12.4216 12.1644C12.4318 12.1644 12.397 12.1445 12.0281 12.4185C11.9905 12.4465 11.9497 12.4778 11.9066 12.5108C11.7423 12.6368 11.5433 12.7894 11.3461 12.892C11.0515 13.0454 10.7132 13.1226 10.3055 13.0357C9.94871 12.9596 9.4675 12.734 8.97259 12.4257C8.46424 12.1091 7.89614 11.6769 7.36511 11.1476C6.83418 10.6183 6.39243 10.0433 6.06672 9.52869C5.75072 9.02936 5.51303 8.53822 5.43581 8.17849C5.34788 7.7689 5.42804 7.43065 5.58245 7.13775C5.68195 6.94901 5.83068 6.75399 5.9531 6.59348C5.98912 6.54626 6.02286 6.50202 6.05239 6.46181C6.28886 6.13984 6.28331 6.08852 6.28271 6.08292C6.28269 6.08273 6.28267 6.0826 6.28267 6.08251C6.28265 6.07167 6.28015 6.03014 6.2386 5.91812C6.1961 5.80355 6.12994 5.65857 6.02809 5.43953C5.88899 5.14122 5.61634 4.66553 5.30411 4.19074C4.98827 3.71045 4.6625 3.27802 4.42445 3.04383L4.42405 3.04344L4.42365 3.04304C4.29804 2.91897 4.21165 2.83856 4.14928 2.78622C4.11898 2.79976 4.08246 2.81589 4.04287 2.83236Z" fill="#0074D9" stroke="#0074D9" stroke-width="0.378947" stroke-miterlimit="10"/>
</svg>
