<svg xmlns="http://www.w3.org/2000/svg" width="25" height="23" viewBox="0 0 25 23" fill="none">
  <g clip-path="url(#clip0_3761_37496)">
    <path d="M7.06911 21.3331C6.87176 21.3331 6.68249 21.2547 6.54294 21.1152C6.4034 20.9756 6.325 20.7864 6.325 20.589V17.6126H5.20884C4.32107 17.6116 3.46994 17.2585 2.84219 16.6308C2.21444 16.003 1.86134 15.1519 1.86035 14.2641V5.33481C1.86134 4.44704 2.21444 3.59591 2.84219 2.96816C3.46994 2.34042 4.32107 1.98731 5.20884 1.98633H19.3469C20.2347 1.98731 21.0858 2.34042 21.7135 2.96816C22.3413 3.59591 22.6944 4.44704 22.6954 5.33481V14.2641C22.6944 15.1519 22.3413 16.003 21.7135 16.6308C21.0858 17.2585 20.2347 17.6116 19.3469 17.6126H11.8007L7.5458 21.1606C7.4119 21.272 7.24327 21.333 7.06911 21.3331V21.3331Z" stroke="#293137" stroke-width="1.8"/>
  </g>
  <defs>
    <clipPath id="clip0_3761_37496">
      <rect width="24" height="22.6667" fill="white" transform="translate(0.618164)"/>
    </clipPath>
  </defs>
</svg>