<svg width="24" height="24" viewBox="0 0 24 24" fill="none" xmlns="http://www.w3.org/2000/svg">
<path fill-rule="evenodd" clip-rule="evenodd" d="M4.87287 2.25L4.875 2.25H19.125V3L19.1271 2.25C20.0209 2.25255 20.8773 2.60872 21.5093 3.2407C22.1413 3.87268 22.4975 4.72911 22.5 5.62287L22.5 5.625V14.625L22.5 14.6271C22.4975 15.5209 22.1413 16.3773 21.5093 17.0093C20.8773 17.6413 20.0209 17.9975 19.1271 18L19.125 18H11.5193L7.23028 21.576C7.00674 21.7624 6.69555 21.8026 6.43197 21.6792C6.16838 21.5558 6 21.291 6 21V18H4.875L4.87287 18C3.97911 17.9975 3.12268 17.6413 2.4907 17.0093C1.85872 16.3773 1.50255 15.5209 1.5 14.6271L1.5 14.625V5.625L1.5 5.62287C1.50255 4.72911 1.85872 3.87268 2.4907 3.2407C3.12268 2.60872 3.97911 2.25255 4.87287 2.25ZM11.6239 17.9128C11.6237 17.913 11.6236 17.9131 11.6234 17.9132L11.6239 17.9128ZM19.1238 3.75H4.87615C4.3791 3.75167 3.90285 3.94987 3.55136 4.30136C3.19987 4.65285 3.00167 5.1291 3 5.62615V14.6238C3.00167 15.1209 3.19987 15.5971 3.55136 15.9486C3.90287 16.3001 4.37913 16.4983 4.87621 16.5H6.75C7.16421 16.5 7.5 16.8358 7.5 17.25V19.3982L10.6623 16.7616C10.6625 16.7614 10.6627 16.7613 10.6628 16.7611C10.8651 16.5924 11.1202 16.5 11.3836 16.5H19.1238C19.6209 16.4983 20.0971 16.3001 20.4486 15.9486C20.8001 15.5971 20.9983 15.1209 21 14.6238V5.62621C20.9983 5.12913 20.8001 4.65287 20.4486 4.30136C20.0971 3.94987 19.6209 3.75167 19.1238 3.75Z" fill="#0074D9"/>
<path d="M7.5 11.625C8.32843 11.625 9 10.9534 9 10.125C9 9.29657 8.32843 8.625 7.5 8.625C6.67157 8.625 6 9.29657 6 10.125C6 10.9534 6.67157 11.625 7.5 11.625Z" fill="#0074D9"/>
<path d="M12 11.625C12.8284 11.625 13.5 10.9534 13.5 10.125C13.5 9.29657 12.8284 8.625 12 8.625C11.1716 8.625 10.5 9.29657 10.5 10.125C10.5 10.9534 11.1716 11.625 12 11.625Z" fill="#0074D9"/>
<path d="M16.5 11.625C17.3284 11.625 18 10.9534 18 10.125C18 9.29657 17.3284 8.625 16.5 8.625C15.6716 8.625 15 9.29657 15 10.125C15 10.9534 15.6716 11.625 16.5 11.625Z" fill="#0074D9"/>
<path d="M4.875 2.25V1.9L4.8745 1.9L4.875 2.25ZM4.87287 2.25L4.87237 1.9L4.87187 1.9L4.87287 2.25ZM19.125 2.25H19.475C19.475 2.0567 19.3183 1.9 19.125 1.9V2.25ZM19.125 3H18.775C18.775 3.19311 18.9314 3.34972 19.1245 3.35C19.3176 3.35027 19.4744 3.1941 19.475 3.001L19.125 3ZM19.1271 2.25L19.1281 1.9C18.9348 1.89945 18.7777 2.05571 18.7771 2.24901L19.1271 2.25ZM21.5093 3.2407L21.7568 2.99321V2.99321L21.5093 3.2407ZM22.5 5.62287L22.85 5.6224V5.62187L22.5 5.62287ZM22.5 5.625H22.85V5.62453L22.5 5.625ZM22.5 14.625L22.85 14.6255V14.625H22.5ZM22.5 14.6271L22.85 14.6281V14.6276L22.5 14.6271ZM21.5093 17.0093L21.7568 17.2568V17.2568L21.5093 17.0093ZM19.1271 18L19.1276 18.35H19.1281L19.1271 18ZM19.125 18V18.35H19.1255L19.125 18ZM11.5193 18V17.65C11.4374 17.65 11.3581 17.6787 11.2952 17.7312L11.5193 18ZM7.23028 21.576L7.45442 21.8449L7.45442 21.8449L7.23028 21.576ZM6 18H6.35C6.35 17.8067 6.1933 17.65 6 17.65V18ZM4.875 18L4.87453 18.35H4.875V18ZM4.87287 18L4.87187 18.35H4.8724L4.87287 18ZM2.4907 17.0093L2.24321 17.2568L2.24321 17.2568L2.4907 17.0093ZM1.5 14.6271L1.15 14.6276L1.15 14.6281L1.5 14.6271ZM1.5 14.625H1.15L1.15 14.6255L1.5 14.625ZM1.5 5.625L1.15 5.6245V5.625H1.5ZM1.5 5.62287L1.15 5.62187L1.15 5.62237L1.5 5.62287ZM11.6239 17.9128L11.8483 18.1814C11.9966 18.0576 12.0164 17.8369 11.8926 17.6885C11.7688 17.5402 11.5481 17.5202 11.3997 17.644L11.6239 17.9128ZM11.6234 17.9132L11.399 17.6446C11.2507 17.7685 11.2309 17.9891 11.3547 18.1375C11.4785 18.2859 11.6992 18.3058 11.8476 18.182L11.6234 17.9132ZM4.87615 3.75V3.4L4.87498 3.4L4.87615 3.75ZM19.1238 3.75L19.125 3.4H19.1238V3.75ZM3.55136 4.30136L3.79885 4.54885L3.55136 4.30136ZM3 5.62615L2.65 5.62498V5.62615H3ZM3 14.6238H2.65L2.65 14.625L3 14.6238ZM3.55136 15.9486L3.79885 15.7012V15.7011L3.55136 15.9486ZM4.87621 16.5L4.87504 16.85H4.87621V16.5ZM7.5 19.3982H7.15C7.15 19.534 7.22858 19.6576 7.35159 19.7152C7.47459 19.7728 7.61981 19.754 7.72413 19.667L7.5 19.3982ZM10.6623 16.7616L10.8865 17.0304L10.8865 17.0303L10.6623 16.7616ZM10.6628 16.7611L10.887 17.0299L10.8871 17.0299L10.6628 16.7611ZM11.3836 16.5L11.3836 16.85H11.3836V16.5ZM19.1238 16.5V16.85L19.125 16.85L19.1238 16.5ZM21 14.6238L21.35 14.625V14.6238H21ZM21 5.62621H21.35L21.35 5.62504L21 5.62621ZM20.4486 4.30136L20.2012 4.54885L20.4486 4.30136ZM4.8745 1.9L4.87237 1.9L4.87337 2.6L4.8755 2.6L4.8745 1.9ZM19.125 1.9H4.875V2.6H19.125V1.9ZM19.475 3V2.25H18.775V3H19.475ZM18.7771 2.24901L18.775 2.999L19.475 3.001L19.4771 2.251L18.7771 2.24901ZM21.7568 2.99321C21.0594 2.29584 20.1144 1.90281 19.1281 1.9L19.1261 2.6C19.9274 2.60228 20.6952 2.9216 21.2618 3.48819L21.7568 2.99321ZM22.85 5.62187C22.8472 4.63563 22.4542 3.69059 21.7568 2.99321L21.2618 3.48819C21.8284 4.05478 22.1477 4.82259 22.15 5.62386L22.85 5.62187ZM22.85 5.62453L22.85 5.6224L22.15 5.62334L22.15 5.62547L22.85 5.62453ZM22.85 14.625V5.625H22.15V14.625H22.85ZM22.85 14.6276L22.85 14.6255L22.15 14.6245L22.15 14.6267L22.85 14.6276ZM21.7568 17.2568C22.4542 16.5594 22.8472 15.6144 22.85 14.6281L22.15 14.6261C22.1477 15.4274 21.8284 16.1952 21.2618 16.7618L21.7568 17.2568ZM19.1281 18.35C20.1144 18.3472 21.0594 17.9542 21.7568 17.2568L21.2618 16.7618C20.6952 17.3284 19.9274 17.6477 19.1261 17.65L19.1281 18.35ZM19.1255 18.35L19.1276 18.35L19.1267 17.65L19.1245 17.65L19.1255 18.35ZM11.5193 18.35H19.125V17.65H11.5193V18.35ZM7.45442 21.8449L11.7435 18.2688L11.2952 17.7312L7.00615 21.3072L7.45442 21.8449ZM6.28355 21.9962C6.67015 22.1772 7.12655 22.1182 7.45442 21.8449L7.00615 21.3072C6.88693 21.4066 6.72096 21.4281 6.58038 21.3623L6.28355 21.9962ZM5.65 21C5.65 21.4269 5.89696 21.8152 6.28355 21.9962L6.58038 21.3623C6.43981 21.2964 6.35 21.1552 6.35 21H5.65ZM5.65 18V21H6.35V18H5.65ZM4.875 18.35H6V17.65H4.875V18.35ZM4.8724 18.35L4.87453 18.35L4.87547 17.65L4.87334 17.65L4.8724 18.35ZM2.24321 17.2568C2.94059 17.9542 3.88563 18.3472 4.87187 18.35L4.87386 17.65C4.07259 17.6477 3.30478 17.3284 2.73819 16.7618L2.24321 17.2568ZM1.15 14.6281C1.15281 15.6144 1.54584 16.5594 2.24321 17.2568L2.73819 16.7618C2.1716 16.1952 1.85228 15.4274 1.85 14.6261L1.15 14.6281ZM1.15 14.6255L1.15 14.6276L1.85 14.6266L1.85 14.6245L1.15 14.6255ZM1.15 5.625V14.625H1.85V5.625H1.15ZM1.15 5.62237L1.15 5.6245L1.85 5.6255L1.85 5.62337L1.15 5.62237ZM2.24321 2.99321C1.54584 3.69059 1.15281 4.63563 1.15 5.62187L1.85 5.62386C1.85228 4.82259 2.1716 4.05478 2.73819 3.48819L2.24321 2.99321ZM4.87187 1.9C3.88563 1.90281 2.94059 2.29584 2.24321 2.99321L2.73819 3.48819C3.30478 2.9216 4.07259 2.60228 4.87386 2.6L4.87187 1.9ZM11.3997 17.644L11.3992 17.6444L11.8476 18.182L11.8481 18.1816L11.3997 17.644ZM11.8478 18.1819L11.8483 18.1814L11.3995 17.6442L11.399 17.6446L11.8478 18.1819ZM4.87615 4.1H19.1238V3.4H4.87615V4.1ZM3.79885 4.54885C4.08499 4.2627 4.47269 4.10136 4.87733 4.1L4.87498 3.4C4.2855 3.40199 3.72072 3.63703 3.30387 4.05387L3.79885 4.54885ZM3.35 5.62733C3.35136 5.22269 3.5127 4.83499 3.79885 4.54885L3.30387 4.05387C2.88703 4.47072 2.65199 5.0355 2.65 5.62498L3.35 5.62733ZM3.35 14.6238V5.62615H2.65V14.6238H3.35ZM3.79885 15.7011C3.5127 15.415 3.35136 15.0273 3.35 14.6227L2.65 14.625C2.65199 15.2145 2.88703 15.7793 3.30387 16.1961L3.79885 15.7011ZM4.87738 16.15C4.47272 16.1487 4.085 15.9873 3.79885 15.7012L3.30387 16.1961C3.72073 16.613 4.28554 16.848 4.87504 16.85L4.87738 16.15ZM6.75 16.15H4.87621V16.85H6.75V16.15ZM7.85 17.25C7.85 16.6425 7.35751 16.15 6.75 16.15V16.85C6.97091 16.85 7.15 17.0291 7.15 17.25H7.85ZM7.85 19.3982V17.25H7.15V19.3982H7.85ZM10.4382 16.4927L7.27587 19.1294L7.72413 19.667L10.8865 17.0304L10.4382 16.4927ZM10.4387 16.4924L10.4382 16.4928L10.8865 17.0303L10.887 17.0299L10.4387 16.4924ZM11.3836 16.15C11.0383 16.15 10.7038 16.2711 10.4386 16.4924L10.8871 17.0299C11.0264 16.9137 11.2021 16.85 11.3836 16.85L11.3836 16.15ZM20.2012 15.7012C19.915 15.9873 19.5273 16.1487 19.1226 16.15L19.125 16.85C19.7145 16.848 20.2793 16.613 20.6961 16.1961L20.2012 15.7012ZM20.65 14.6226C20.6487 15.0273 20.4873 15.415 20.2012 15.7012L20.6961 16.1961C21.113 15.7793 21.348 15.2145 21.35 14.625L20.65 14.6226ZM20.65 5.62621V14.6238H21.35V5.62621H20.65ZM20.2012 4.54885C20.4873 4.835 20.6487 5.22272 20.65 5.62738L21.35 5.62504C21.348 5.03554 21.113 4.47073 20.6961 4.05387L20.2012 4.54885ZM19.1227 4.1C19.5273 4.10136 19.915 4.2627 20.2012 4.54885L20.6961 4.05387C20.2793 3.63703 19.7145 3.40199 19.125 3.4L19.1227 4.1ZM7.5 11.975C8.52173 11.975 9.35 11.1467 9.35 10.125H8.65C8.65 10.7601 8.13513 11.275 7.5 11.275V11.975ZM9.35 10.125C9.35 9.10327 8.52173 8.275 7.5 8.275V8.975C8.13513 8.975 8.65 9.48987 8.65 10.125H9.35ZM7.5 8.275C6.47827 8.275 5.65 9.10327 5.65 10.125H6.35C6.35 9.48987 6.86487 8.975 7.5 8.975V8.275ZM5.65 10.125C5.65 11.1467 6.47827 11.975 7.5 11.975V11.275C6.86487 11.275 6.35 10.7601 6.35 10.125H5.65ZM12 11.975C13.0217 11.975 13.85 11.1467 13.85 10.125H13.15C13.15 10.7601 12.6351 11.275 12 11.275V11.975ZM13.85 10.125C13.85 9.10327 13.0217 8.275 12 8.275V8.975C12.6351 8.975 13.15 9.48987 13.15 10.125H13.85ZM12 8.275C10.9783 8.275 10.15 9.10327 10.15 10.125H10.85C10.85 9.48987 11.3649 8.975 12 8.975V8.275ZM10.15 10.125C10.15 11.1467 10.9783 11.975 12 11.975V11.275C11.3649 11.275 10.85 10.7601 10.85 10.125H10.15ZM16.5 11.975C17.5217 11.975 18.35 11.1467 18.35 10.125H17.65C17.65 10.7601 17.1351 11.275 16.5 11.275V11.975ZM18.35 10.125C18.35 9.10327 17.5217 8.275 16.5 8.275V8.975C17.1351 8.975 17.65 9.48987 17.65 10.125H18.35ZM16.5 8.275C15.4783 8.275 14.65 9.10327 14.65 10.125H15.35C15.35 9.48987 15.8649 8.975 16.5 8.975V8.275ZM14.65 10.125C14.65 11.1467 15.4783 11.975 16.5 11.975V11.275C15.8649 11.275 15.35 10.7601 15.35 10.125H14.65ZM19.1238 16.15H11.3836V16.85H19.1238V16.15Z" fill="#0074D9"/>
</svg>
