<svg width="28" height="29" viewBox="0 0 28 29" fill="none" xmlns="http://www.w3.org/2000/svg">
<path d="M7.20472 20.6732H5.93127C5.06786 20.6723 4.24008 20.3289 3.62955 19.7183C3.0191 19.1079 2.6757 18.2802 2.67466 17.4169V7.22491C2.6757 6.3616 3.0191 5.53395 3.62955 4.9235C4.24001 4.31305 5.06766 3.96964 5.93096 3.9686H22.0687C22.932 3.96964 23.7596 4.31305 24.3701 4.9235C24.9806 5.53403 25.324 6.3618 25.325 7.22522V17.4166C25.324 18.28 24.9806 19.1078 24.3701 19.7183C23.7596 20.3289 22.9318 20.6723 22.0684 20.6732H13.4552H13.25L13.0925 20.8046L8.23616 24.8541C8.1849 24.8967 8.12034 24.9201 8.05365 24.9202L8.05411 25.4864V24.9202C7.97902 24.9202 7.907 24.8903 7.85391 24.8372C7.80081 24.7841 7.77098 24.7121 7.77098 24.637V21.2395V20.6732H7.20472Z" fill="white" stroke="white" stroke-width="1.13252"/>
</svg>
