<svg width="16" height="16" viewBox="0 0 16 16" fill="none" xmlns="http://www.w3.org/2000/svg">
<path fill-rule="evenodd" clip-rule="evenodd" d="M3.14502 1.45215L3.1464 1.45215H12.3436V1.93621L12.3449 1.45215C12.9218 1.45379 13.4745 1.68367 13.8824 2.09156C14.2903 2.49945 14.5202 3.0522 14.5218 3.62905L14.5218 3.63042V9.43916L14.5218 9.44054C14.5202 10.0174 14.2903 10.5701 13.8824 10.978C13.4745 11.3859 12.9218 11.6158 12.3449 11.6174L12.3436 11.6174H7.43476L4.66654 13.9255C4.52226 14.0458 4.32141 14.0717 4.15129 13.9921C3.98117 13.9124 3.87249 13.7415 3.87249 13.5537V11.6174H3.1464L3.14502 11.6174C2.56818 11.6158 2.01543 11.3859 1.60754 10.978C1.19965 10.5701 0.969767 10.0174 0.968126 9.44054L0.968124 9.43916V3.63042L0.968126 3.62905C0.969767 3.0522 1.19965 2.49945 1.60754 2.09156C2.01543 1.68367 2.56818 1.45379 3.14502 1.45215ZM7.50225 11.5612C7.50214 11.5613 7.50203 11.5613 7.50193 11.5614L7.50225 11.5612ZM12.3428 2.42027H3.14715C2.82634 2.42135 2.51896 2.54927 2.2921 2.77613C2.06524 3.00299 1.93733 3.31036 1.93625 3.63117V9.43842C1.93733 9.75922 2.06524 10.0666 2.2921 10.2935C2.51897 10.5203 2.82636 10.6482 3.14718 10.6493H4.35655C4.62389 10.6493 4.84062 10.866 4.84062 11.1334V12.5199L6.88164 10.8181C6.88174 10.818 6.88185 10.818 6.88196 10.8179C7.01251 10.709 7.17713 10.6493 7.34715 10.6493C7.34718 10.6493 7.34721 10.6493 7.34724 10.6493H12.3428C12.6636 10.6482 12.971 10.5203 13.1979 10.2935C13.4247 10.0666 13.5527 9.7592 13.5537 9.43838V3.6312C13.5527 3.31038 13.4247 3.003 13.1979 2.77613C12.971 2.54927 12.6636 2.42135 12.3428 2.42027Z" fill="#00729D" stroke="#00729D" stroke-width="0.484061" stroke-linejoin="round"/>
</svg>
