<svg xmlns="http://www.w3.org/2000/svg" width="30" height="30" viewBox="0 0 30 30" fill="none">
  <rect width="30" height="30" fill="#EAF0F2"/>
  <path fill-rule="evenodd" clip-rule="evenodd" d="M6.09157 2.8125L6.09424 2.8125H23.9067V3.75L23.9094 2.8125C25.0266 2.81568 26.0971 3.2609 26.8871 4.05088C27.6771 4.84086 28.1223 5.91139 28.1255 7.02858L28.1255 7.03125V18.2813L28.1255 18.2839C28.1223 19.4011 27.6771 20.4716 26.8871 21.2616C26.0971 22.0516 25.0266 22.4968 23.9094 22.5L23.9067 22.5H14.3997L9.03834 26.9701C8.75892 27.203 8.36993 27.2533 8.04045 27.099C7.71097 26.9448 7.50049 26.6138 7.50049 26.25V22.5H6.09424L6.09157 22.5C4.97437 22.4968 3.90384 22.0516 3.11386 21.2616C2.32388 20.4716 1.87867 19.4011 1.87549 18.2839L1.87549 18.2813V7.03125L1.87549 7.02858C1.87867 5.91139 2.32388 4.84086 3.11386 4.05088C3.90384 3.2609 4.97438 2.81568 6.09157 2.8125ZM14.5304 22.391C14.5302 22.3912 14.53 22.3914 14.5297 22.3915L14.5304 22.391ZM23.9053 4.6875H6.09568C5.47436 4.68959 4.87906 4.93733 4.43969 5.3767C4.00032 5.81607 3.75258 6.41137 3.75049 7.03269V18.2798C3.75258 18.9011 4.00032 19.4964 4.43969 19.9358C4.87907 20.3752 5.4744 20.6229 6.09575 20.625H8.43799C8.95576 20.625 9.37549 21.0447 9.37549 21.5625V24.2477L13.3284 20.952C13.3286 20.9518 13.3288 20.9516 13.329 20.9514C13.5819 20.7405 13.9007 20.625 14.23 20.625H23.9052C24.5266 20.6229 25.1219 20.3752 25.5613 19.9358C26.0007 19.4964 26.2484 18.9011 26.2505 18.2797V7.03276C26.2484 6.41141 26.0007 5.81609 25.5613 5.3767C25.1219 4.93733 24.5266 4.68959 23.9053 4.6875Z" fill="#343D45"/>
  <path d="M9.37549 14.5313C10.411 14.5313 11.2505 13.6918 11.2505 12.6563C11.2505 11.6207 10.411 10.7813 9.37549 10.7813C8.33995 10.7813 7.50049 11.6207 7.50049 12.6563C7.50049 13.6918 8.33995 14.5313 9.37549 14.5313Z" fill="#343D45"/>
  <path d="M15.0005 14.5313C16.036 14.5313 16.8755 13.6918 16.8755 12.6563C16.8755 11.6207 16.036 10.7813 15.0005 10.7813C13.965 10.7813 13.1255 11.6207 13.1255 12.6563C13.1255 13.6918 13.965 14.5313 15.0005 14.5313Z" fill="#343D45"/>
  <path d="M20.6255 14.5313C21.661 14.5313 22.5005 13.6918 22.5005 12.6563C22.5005 11.6207 21.661 10.7813 20.6255 10.7813C19.59 10.7813 18.7505 11.6207 18.7505 12.6563C18.7505 13.6918 19.59 14.5313 20.6255 14.5313Z" fill="#343D45"/>
</svg>