<svg xmlns="http://www.w3.org/2000/svg" width="23" height="25" viewBox="0 0 23 25" fill="none">
  <g clip-path="url(#clip0_3256_66960)">
    <path d="M11.2828 2.30139L11.2879 2.30137C11.8062 2.3029 12.2838 2.53568 12.6225 2.91642C12.9588 3.29453 13.1366 3.79124 13.1377 4.2949L13.1377 4.29652L13.1377 4.33449C14.9859 4.72857 16.6834 5.72481 18.0181 7.19064C18.8674 8.11316 19.5393 9.21343 19.9979 10.4243C20.4568 11.6358 20.6937 12.9361 20.6964 14.2487L20.6964 14.2501L20.6964 14.2503V14.2506V14.2509V14.2512V14.2515V14.2518V14.252V14.2523V14.2526V14.2529V14.2532V14.2535V14.2537V14.254V14.2543V14.2546V14.2549V14.2552V14.2555V14.2558V14.2561V14.2564V14.2567V14.257V14.2573V14.2575V14.2578V14.2581V14.2584V14.2587V14.259V14.2593V14.2596V14.26V14.2603V14.2606V14.2609V14.2612V14.2615V14.2618V14.2621V14.2624V14.2627V14.263V14.2633V14.2636V14.264V14.2643V14.2646V14.2649V14.2652V14.2655V14.2658V14.2662V14.2665V14.2668V14.2671V14.2674V14.2678V14.2681V14.2684V14.2687V14.2691V14.2694V14.2697V14.27V14.2704V14.2707V14.271V14.2713V14.2717V14.272V14.2723V14.2727V14.273V14.2733V14.2737V14.274V14.2743V14.2747V14.275V14.2754V14.2757V14.276V14.2764V14.2767V14.2771V14.2774V14.2777V14.2781V14.2784V14.2788V14.2791V14.2795V14.2798V14.2802V14.2805V14.2809V14.2812V14.2816V14.2819V14.2823V14.2826V14.283V14.2833V14.2837V14.2841V14.2844V14.2848V14.2851V14.2855V14.2859V14.2862V14.2866V14.2869V14.2873V14.2877V14.288V14.2884V14.2888V14.2891V14.2895V14.2899V14.2902V14.2906V14.291V14.2914V14.2917V14.2921V14.2925V14.2928V14.2932V14.2936V14.294V14.2944V14.2947V14.2951V14.2955V14.2959V14.2963V14.2966V14.297V14.2974V14.2978V14.2982V14.2986V14.2989V14.2993V14.2997V14.3001V14.3005V14.3009V14.3013V14.3017V14.3021V14.3025V14.3029V14.3033V14.3036V14.304V14.3044V14.3048V14.3052V14.3056V14.306V14.3064V14.3068V14.3072V14.3076V14.3081V14.3085V14.3089V14.3093V14.3097V14.3101V14.3105V14.3109V14.3113V14.3117V14.3121V14.3125V14.313V14.3134V14.3138V14.3142V14.3146V14.315V14.3155V14.3159V14.3163V14.3167V14.3171V14.3176V14.318V14.3184V14.3188V14.3192V14.3197V14.3201V14.3205V14.321V14.3214V14.3218V14.3222V14.3227V14.3231V14.3235V14.324V14.3244V14.3248V14.3253V14.3257V14.3261V14.3266V14.327V14.3275V14.3279V14.3283V14.3288V14.3292V14.3297V14.3301V14.3305V14.331V14.3314V14.3319V14.3323V14.3328V14.3332V14.3337V14.3341V14.3346V14.335V14.3355V14.3359V14.3364V14.3368V14.3373V14.3377V14.3382V14.3387V14.3391V14.3396V14.34V14.3405V14.341V14.3414V14.3419V14.3424V14.3428V14.3433V14.3437V14.3442V14.3447V14.3451V14.3456V14.3461V14.3466V14.347V14.3475V14.348V14.3484V14.3489V14.3494V14.3499V14.3503V14.3508V14.3513V14.3518V14.3523V14.3527V14.3532V14.3537V14.3542V14.3547V14.3552V14.3556V14.3561V14.3566V14.3571V14.3576V14.3581V14.3586V14.3591V14.3595V14.36V14.3605V14.361V14.3615V14.362V14.3625V14.363V14.3635V14.364V14.3645V14.365V14.3655V14.366V14.3665V14.367V14.3675V14.368V14.3685V14.369V14.3695V14.37V14.3705V14.371V14.3715V14.3721V14.3726V14.3731V14.3736V14.3741V14.3746V14.3751V14.3756V14.3762V14.3767V14.3772V14.3777V14.3782V14.3788V14.3793V14.3798V14.3803V14.3808V14.3814V14.3819V14.3824V14.3829V14.3835V14.384V14.3845V14.3851V14.3856V14.3861V14.3866V14.3872V14.3877V14.3882V14.3888V14.3893V14.3898V14.3904V14.3909V14.3915V14.392V14.3925V14.3931V14.3936V14.3942V14.3947V14.3952V14.3958V14.3963V14.3969V14.3974V14.398V14.3985V14.3991V14.3996V14.4002V14.4007V14.4013V14.4018V14.4024V14.4029V14.4035V14.404V14.4046V14.4052V14.4057V14.4063V14.4068V14.4074V14.408V14.4085V14.4091V14.4096V14.4102V14.4108V14.4113V14.4119V14.4125V14.413V14.4136V14.4142V14.4147V14.4153V14.4159V14.4165V14.417V14.4176V14.4182V14.4188V14.4193V14.4199V14.4205V14.4211V14.4216V14.4222V14.4228V14.4234V14.424V14.4246V14.4251V14.4257V14.4263V14.4269V14.4275V14.4281V14.4287V14.4292V14.4298V14.4304V14.431V14.4316V14.4322V14.4328V14.4334V14.434V14.4346V14.4352V14.4358V14.4364V14.437V14.4376V14.4382V14.4388V14.4394V14.44V14.4406V14.4412V14.4418V14.4424V14.443V14.4436V14.4442V14.4448V14.4454V14.4461V14.4467V14.4473V14.4479V14.4485V14.4491V14.4497V14.4504V14.451V14.4516V14.4522V14.4528V14.4534V14.4541V14.4547V14.4553V14.4559V14.4566V14.4572V14.4578V14.4584V14.4591V14.4597V14.4603V14.4609V14.4616V14.4622V14.4628V14.4635V14.4641V14.4647V14.4654V14.466V14.4666V14.4673V14.4679V14.4686V14.4692V14.4698V14.4705V14.4711V14.4718V14.4724V14.4731V14.4737V14.4743V14.475V14.4756V14.4763V14.4769V14.4776V14.4782V14.4789V14.4795V14.4802V14.4808V14.4815V14.4821V14.4828V14.4835V14.4841V14.4848V14.4854V14.4861V14.4868V14.4874V14.4881V14.4887V14.4894V14.4901V14.4907V14.4989L20.6962 14.5071L20.6239 17.5952C20.6287 17.6314 20.6316 17.6678 20.6327 17.7043L21.2193 22.4718C21.2365 22.594 21.2327 22.7186 21.2077 22.8398C21.1822 22.9635 21.1345 23.0842 21.0645 23.1943C20.9952 23.3043 20.9042 23.4035 20.7932 23.4828L20.7932 23.4828C20.6805 23.5634 20.5501 23.6214 20.4089 23.6491C20.2675 23.6769 20.1222 23.673 19.9828 23.6379L11.2828 2.30139ZM11.2828 2.30139C10.765 2.30366 10.2881 2.53651 9.94973 2.91691L10.4193 3.33458L9.94973 2.91691C9.61369 3.2947 9.43576 3.79083 9.43402 4.2941H9.43401V4.29652V4.32848C7.5195 4.72585 5.75778 5.74733 4.36925 7.2573L4.36924 7.25729L4.36738 7.25933C2.74942 9.03279 1.72613 11.4291 1.72613 14.0958C1.72613 14.2877 1.73268 14.4855 1.74374 14.6881C1.74375 14.6881 1.74375 14.6881 1.74375 14.6881L1.9062 17.6689C1.90599 17.6772 1.90588 17.6855 1.90586 17.6939L1.30937 22.4869L1.30935 22.4869L1.30874 22.4922C1.27937 22.7438 1.33804 23.0063 1.48676 23.2245C1.63686 23.4447 1.87583 23.6121 2.16581 23.6556L2.16819 23.656M11.2828 2.30139L2.16819 23.656M2.16819 23.656C2.4513 23.6974 2.72717 23.6125 2.93683 23.4415C4.84295 21.9179 8.00279 21.0991 11.2542 21.0991C14.5059 21.0991 17.6685 21.9164 19.6093 23.4531M2.16819 23.656L19.6093 23.4531M19.6093 23.4531C19.7172 23.5385 19.8437 23.6029 19.9828 23.6379L19.6093 23.4531Z" stroke="black" stroke-width="1.39724"/>
    <path d="M18.4262 16.0648C16.0568 15.0522 13.532 14.554 10.9874 14.6026L10.9855 14.6027C8.60195 14.656 6.29745 15.2044 4.06362 16.1148L3.97303 14.4496L3.97246 14.439L3.97151 14.4285C3.96086 14.3101 3.96036 14.1698 3.96035 13.9945C3.96747 13.0093 4.15121 12.0372 4.49916 11.137C4.84734 10.2362 5.35186 9.42808 5.9793 8.75925L5.97932 8.75927L5.98289 8.7554C7.28324 7.34466 8.97364 6.51081 10.7486 6.38122L10.7573 6.38059L10.7659 6.37971C10.896 6.36642 11.0351 6.36587 11.219 6.36587H11.5435C13.3508 6.41922 15.0887 7.23804 16.4043 8.68317L16.4043 8.68317L16.4064 8.68543C17.0517 9.38702 17.5687 10.2308 17.9236 11.1685C18.2784 12.1061 18.4632 13.1162 18.4656 14.1387V14.1388V14.1394V14.14V14.1406V14.1412V14.1418V14.1424V14.143V14.1436V14.1442V14.1448V14.1454V14.146V14.1466V14.1472V14.1478V14.1484V14.149V14.1495V14.1501V14.1507V14.1513V14.1519V14.1525V14.1531V14.1537V14.1543V14.1548V14.1554V14.156V14.1566V14.1572V14.1578V14.1583V14.1589V14.1595V14.1601V14.1607V14.1612V14.1618V14.1624V14.163V14.1635V14.1641V14.1647V14.1653V14.1658V14.1664V14.167V14.1675V14.1681V14.1687V14.1692V14.1698V14.1704V14.1709V14.1715V14.1721V14.1726V14.1732V14.1738V14.1743V14.1749V14.1754V14.176V14.1766V14.1771V14.1777V14.1782V14.1788V14.1793V14.1799V14.1804V14.181V14.1815V14.1821V14.1826V14.1832V14.1837V14.1843V14.1848V14.1854V14.1859V14.1865V14.187V14.1876V14.1881V14.1886V14.1892V14.1897V14.1903V14.1908V14.1913V14.1919V14.1924V14.1929V14.1935V14.194V14.1945V14.1951V14.1956V14.1961V14.1967V14.1972V14.1977V14.1983V14.1988V14.1993V14.1998V14.2004V14.2009V14.2014V14.2019V14.2025V14.203V14.2035V14.204V14.2045V14.2051V14.2056V14.2061V14.2066V14.2071V14.2076V14.2082V14.2087V14.2092V14.2097V14.2102V14.2107V14.2112V14.2117V14.2122V14.2128V14.2133V14.2138V14.2143V14.2148V14.2153V14.2158V14.2163V14.2168V14.2173V14.2178V14.2183V14.2188V14.2193V14.2198V14.2203V14.2208V14.2213V14.2218V14.2223V14.2228V14.2233V14.2238V14.2242V14.2247V14.2252V14.2257V14.2262V14.2267V14.2272V14.2277V14.2281V14.2286V14.2291V14.2296V14.2301V14.2306V14.231V14.2315V14.232V14.2325V14.233V14.2334V14.2339V14.2344V14.2349V14.2353V14.2358V14.2363V14.2368V14.2372V14.2377V14.2382V14.2386V14.2391V14.2396V14.2401V14.2405V14.241V14.2414V14.2419V14.2424V14.2428V14.2433V14.2438V14.2442V14.2447V14.2451V14.2456V14.2461V14.2465V14.247V14.2474V14.2479V14.2483V14.2488V14.2492V14.2497V14.2502V14.2506V14.2511V14.2515V14.252V14.2524V14.2528V14.2533V14.2537V14.2542V14.2546V14.2551V14.2555V14.256V14.2564V14.2568V14.2573V14.2577V14.2582V14.2586V14.259V14.2595V14.2599V14.2603V14.2608V14.2612V14.2616V14.2621V14.2625V14.2629V14.2634V14.2638V14.2642V14.2646V14.2651V14.2655V14.2659V14.2664V14.2668V14.2672V14.2676V14.268V14.2685V14.2689V14.2693V14.2697V14.2701V14.2706V14.271V14.2714V14.2718V14.2722V14.2726V14.2731V14.2735V14.2739V14.2743V14.2747V14.2751V14.2755V14.2759V14.2763V14.2767V14.2772V14.2776V14.278V14.2784V14.2788V14.2792V14.2796V14.28V14.2804V14.2808V14.2812V14.2816V14.282V14.2824V14.2828V14.2832V14.2836V14.2839V14.2843V14.2847V14.2851V14.2855V14.2859V14.2863V14.2867V14.2871V14.2875V14.2878V14.2882V14.2886V14.289V14.2894V14.2898V14.2902V14.2905V14.2909V14.2913V14.2917V14.2921V14.2924V14.2928V14.2932V14.2936V14.2939V14.2943V14.2947V14.2951V14.2954V14.2958V14.2962V14.2966V14.2969V14.2973V14.2977V14.298V14.2984V14.2988V14.2991V14.2995V14.2999V14.3002V14.3006V14.3009V14.3013V14.3017V14.302V14.3024V14.3027V14.3031V14.3035V14.3038V14.3042V14.3045V14.3049V14.3052V14.3056V14.3059V14.3063V14.3066V14.307V14.3073V14.3077V14.308V14.3084V14.3087V14.3091V14.3094V14.3098V14.3101V14.3105V14.3108V14.3111V14.3115V14.3118V14.3122V14.3125V14.3128V14.3132V14.3135V14.3138V14.3142V14.3145V14.3148V14.3152V14.3155V14.3158V14.3162V14.3165V14.3168V14.3172V14.3175V14.3178V14.3181V14.3185V14.3188V14.3191V14.3194V14.3198V14.3201V14.3204V14.3207V14.321V14.3214V14.3217V14.322V14.3223V14.3226V14.323V14.3233V14.3236V14.3239V14.3242V14.3245V14.3248V14.3251V14.3255V14.3258V14.3261V14.3264V14.3267V14.327V14.3273V14.3276V14.3279V14.3282V14.3285V14.3288V14.3291V14.3294V14.3297V14.33V14.3303V14.3306V14.3309V14.3312V14.3315V14.3318V14.3321V14.3324V14.3327V14.333V14.3333V14.3336V14.3339V14.3341V14.3344V14.3347V14.335V14.3353V14.3356V14.3359V14.3362V14.3364V14.3367V14.337V14.3373V14.3376V14.3379V14.3381V14.3384V14.3387V14.339V14.3392V14.3395V14.3398V14.3401V14.3403V14.3406V14.3409V14.3412V14.3414V14.3417V14.342V14.3422V14.3425V14.3428V14.3431V14.3433V14.3436V14.3439V14.3441V14.3444V14.3446V14.3449V14.3452V14.3454V14.3457V14.3459V14.3462V14.3465V14.3467V14.347L18.4262 16.0648Z" stroke="black" stroke-width="1.2"/>
    <path fill-rule="evenodd" clip-rule="evenodd" d="M19.49 21.8125L19.0241 18.0179C16.2579 16.662 13.5971 16.0993 11.0087 16.1638C8.42033 16.2282 5.93898 16.8976 3.51038 18.0196L3.04004 21.8023C5.15055 20.3889 8.20024 19.6771 11.2514 19.6771C14.3026 19.6771 17.3614 20.3855 19.49 21.8125Z" fill="white"/>
    <path d="M11.5017 8.46901L11.617 8.46925C11.9782 8.49045 12.3281 8.60747 12.63 8.80918C12.9646 9.03278 13.2254 9.3504 13.3794 9.72185C13.5333 10.0933 13.5736 10.502 13.4952 10.8963C13.4174 11.2878 13.2259 11.6477 12.9447 11.9313L12.9076 11.9656L12.9075 11.9656L12.9017 11.9711C12.5185 12.3381 12.0063 12.5403 11.4752 12.5341C10.9442 12.5279 10.4369 12.3138 10.0623 11.938L10.0614 11.9371C9.87255 11.7486 9.72274 11.5248 9.62054 11.2785C9.51834 11.0322 9.46575 10.7682 9.46575 10.5016C9.46575 10.235 9.51834 9.97099 9.62054 9.72468C9.72274 9.47838 9.87255 9.25458 10.0614 9.0661L10.0625 9.06504C10.251 8.87567 10.4753 8.72548 10.7223 8.62317C10.9693 8.52086 11.2342 8.46846 11.5017 8.46901Z" stroke="black" stroke-width="0.93149"/>
  </g>
  <defs>
    <clipPath id="clip0_3256_66960">
      <rect width="23" height="23.92" fill="white" transform="matrix(-1 0 0 1 23 0.540039)"/>
    </clipPath>
  </defs>
</svg>