<svg xmlns="http://www.w3.org/2000/svg" width="19" height="21" viewBox="0 0 19 21" fill="none">
  <g clip-path="url(#clip0_3431_140182)">
    <path fill-rule="evenodd" clip-rule="evenodd" d="M9.73723 2.90161C10.0033 2.90235 10.2583 3.01543 10.4465 3.21613C10.6346 3.41683 10.7406 3.68882 10.7413 3.97265V4.48787C12.4035 4.70865 13.9521 5.50434 15.1501 6.75315C15.8352 7.45897 16.3805 8.30434 16.7537 9.23914C17.1268 10.1739 17.3202 11.1791 17.3224 12.1951C17.3224 12.2343 17.3224 12.3002 17.3224 12.394L17.258 15.0008C17.2651 15.0287 17.2682 15.0575 17.2672 15.0863L17.7831 19.0638C17.789 19.1005 17.788 19.1381 17.7801 19.1744C17.7722 19.2107 17.7576 19.245 17.7371 19.2752C17.7168 19.3061 17.691 19.3325 17.6611 19.3528C17.6313 19.373 17.5979 19.3868 17.5631 19.3933C17.5282 19.3998 17.4924 19.3989 17.4579 19.3907C17.4234 19.3824 17.3907 19.367 17.3617 19.3452C15.5242 17.9648 12.6156 17.2759 9.70967 17.2759C6.80372 17.2759 3.89383 17.9662 2.08516 19.3396C2.02817 19.3844 1.95716 19.404 1.88696 19.3942C1.81598 19.3841 1.75166 19.3444 1.70811 19.2837C1.66455 19.2231 1.64532 19.1465 1.65464 19.0708L2.17966 15.0681C2.1783 15.0508 2.1783 15.0335 2.17966 15.0162L2.03659 12.5256C2.0274 12.366 2.02215 12.2133 2.02215 12.0677C2.02215 10.0153 2.85168 8.1728 4.1629 6.80915C5.40832 5.52414 7.01307 4.70809 8.73314 4.48507V3.97265C8.73418 3.68893 8.8403 3.41715 9.02838 3.21653C9.21646 3.01591 9.47125 2.90272 9.73723 2.90161Z" fill="#00B127" stroke="#00B127" stroke-width="1.27574"/>
    <path fill-rule="evenodd" clip-rule="evenodd" d="M16.4584 14.4535L16.5109 12.2806C16.5109 12.247 16.5109 12.1882 16.5109 12.1028C16.5088 11.1993 16.3368 10.3055 16.0052 9.47415C15.6736 8.64282 15.189 7.89088 14.5802 7.2628C13.3441 5.97453 11.6968 5.23279 9.96922 5.18652H9.67915C9.52428 5.18652 9.37596 5.18652 9.23158 5.20052C7.54516 5.31734 5.95224 6.06843 4.73615 7.3202C4.14196 7.92116 3.6675 8.64379 3.34117 9.44486C3.01484 10.2459 2.84333 11.109 2.83691 11.9824C2.83691 12.1224 2.83691 12.2624 2.84873 12.387L2.96817 14.4703C5.07872 13.5714 7.24703 13.0296 9.48752 12.982C11.8832 12.9386 14.2598 13.4417 16.4584 14.4577V14.4535Z" fill="#00B127"/>
    <path fill-rule="evenodd" clip-rule="evenodd" d="M16.88 18.4424L16.4744 15.3077C14.0659 14.1877 11.7493 13.7229 9.49567 13.7761C7.24205 13.8293 5.08162 14.3823 2.96713 15.3091L2.55762 18.434C4.39516 17.2664 7.05042 16.6784 9.70699 16.6784C12.3636 16.6784 15.0267 17.2636 16.88 18.4424Z" fill="white"/>
    <path d="M9.57702 7.34553L9.66729 7.34572C9.94213 7.36338 10.2103 7.45869 10.444 7.62542C10.7042 7.81105 10.9109 8.07773 11.034 8.3948C11.1571 8.71201 11.1897 9.06245 11.1267 9.40081C11.0642 9.73641 10.9112 10.0415 10.6904 10.2794L10.6612 10.3083L10.6612 10.3082L10.656 10.3135C10.3559 10.6204 9.9607 10.7842 9.55687 10.7792C9.153 10.7741 8.76113 10.6004 8.46736 10.2857L8.46657 10.2848C8.31824 10.1268 8.19923 9.93759 8.11759 9.72749C8.03593 9.51736 7.99361 9.29127 7.99361 9.06236C7.99361 8.83345 8.03593 8.60735 8.11759 8.39723C8.19923 8.18713 8.31824 7.99796 8.46657 7.8399L8.46657 7.8399L8.4675 7.8389C8.61553 7.68015 8.79006 7.55586 8.98023 7.47176C9.17032 7.3877 9.37306 7.34507 9.57702 7.34553Z" fill="white" stroke="white" stroke-width="0.850491"/>
  </g>
  <defs>
    <clipPath id="clip0_3431_140182">
      <rect width="19" height="19.76" fill="white" transform="matrix(-1 0 0 1 19 0.869507)"/>
    </clipPath>
  </defs>
</svg>