<svg xmlns="http://www.w3.org/2000/svg" width="23" height="25" viewBox="0 0 23 25" fill="none">
  <path fill-rule="evenodd" clip-rule="evenodd" d="M11.787 3C12.1091 3.00089 12.4177 3.13778 12.6455 3.38073C12.8733 3.62368 13.0016 3.95294 13.0024 4.29652V4.92021C15.0146 5.18747 16.8892 6.15067 18.3394 7.66239C19.1688 8.51681 19.8289 9.54015 20.2806 10.6718C20.7323 11.8034 20.9664 13.0202 20.969 14.2501C20.969 14.2975 20.969 14.3772 20.969 14.4907L20.8911 17.6464C20.8996 17.6801 20.9033 17.715 20.9022 17.7498L21.5267 22.5648C21.5338 22.6092 21.5326 22.6547 21.523 22.6987C21.5135 22.7426 21.4958 22.7841 21.4711 22.8207C21.4465 22.8581 21.4152 22.89 21.379 22.9145C21.3429 22.9391 21.3025 22.9558 21.2603 22.9636C21.2181 22.9715 21.1749 22.9704 21.133 22.9604C21.0912 22.9504 21.0517 22.9317 21.0166 22.9054C18.7922 21.2343 15.2713 20.4005 11.7536 20.4005C8.23587 20.4005 4.71338 21.236 2.52393 22.8986C2.45495 22.9529 2.36898 22.9765 2.28401 22.9647C2.19809 22.9525 2.12022 22.9044 2.0675 22.831C2.01478 22.7576 1.9915 22.6649 2.00279 22.5732L2.63833 17.7278C2.63668 17.7069 2.63668 17.686 2.63833 17.6651L2.46514 14.65C2.45402 14.4568 2.44767 14.2721 2.44767 14.0958C2.44767 11.6113 3.45182 9.38092 5.03909 7.73018C6.54671 6.17464 8.4893 5.18679 10.5715 4.91682V4.29652C10.5727 3.95307 10.7012 3.62408 10.9289 3.38122C11.1566 3.13837 11.465 3.00134 11.787 3Z" fill="black" stroke="black" stroke-width="1.39724"/>
  <path fill-rule="evenodd" clip-rule="evenodd" d="M19.9228 16.9837L19.9863 14.3534C19.9863 14.3127 19.9863 14.2416 19.9863 14.1382C19.9837 13.0445 19.7756 11.9625 19.3741 10.9562C18.9727 9.94981 18.3861 9.03956 17.6491 8.27926C16.1528 6.71977 14.1588 5.82187 12.0674 5.76587H11.7163C11.5288 5.76587 11.3493 5.76587 11.1745 5.78282C9.13304 5.92423 7.20478 6.83344 5.73267 8.34874C5.01338 9.07622 4.43904 9.95098 4.04401 10.9207C3.64897 11.8904 3.44136 12.9351 3.43359 13.9924C3.43359 14.1619 3.43359 14.3314 3.44789 14.4822L3.59248 17.0041C6.14736 15.916 8.77215 15.2601 11.4843 15.2025C14.3843 15.15 17.2614 15.759 19.9228 16.9888V16.9837Z" fill="black"/>
  <path fill-rule="evenodd" clip-rule="evenodd" d="M20.4333 21.8125L19.9424 18.0179C17.0268 16.662 14.2225 16.0993 11.4944 16.1638C8.76633 16.2282 6.15107 16.8976 3.59143 18.0196L3.0957 21.8023C5.3201 20.3889 8.53436 19.6771 11.7502 19.6771C14.9661 19.6771 18.1898 20.3855 20.4333 21.8125Z" fill="white"/>
  <path d="M11.5928 8.33034L11.7036 8.33058C12.0461 8.35229 12.38 8.47093 12.6706 8.67827C12.9937 8.90874 13.2498 9.2394 13.4021 9.63179C13.5545 10.0243 13.5948 10.4578 13.5168 10.8763C13.4394 11.2918 13.2498 11.6699 12.9757 11.965L12.9396 12.0007L12.9395 12.0007L12.9339 12.0064C12.5615 12.3872 12.0704 12.5912 11.5677 12.5849C11.0649 12.5786 10.5779 12.3624 10.2136 11.9719L10.2127 11.971C10.0287 11.775 9.88134 11.5406 9.78029 11.2806C9.67922 11.0205 9.62688 10.7408 9.62688 10.4576C9.62688 10.1745 9.67922 9.8948 9.78029 9.63472C9.88134 9.37467 10.0287 9.14029 10.2127 8.94427L10.2137 8.94318C10.3973 8.74628 10.614 8.59189 10.8504 8.48734C11.0867 8.38283 11.3389 8.32978 11.5928 8.33034Z" fill="white" stroke="white" stroke-width="0.93149"/>
</svg>