<svg width="18" height="21" viewBox="0 0 18 21" fill="none" xmlns="http://www.w3.org/2000/svg">
<g clip-path="url(#clip0_204_757)">
<path d="M11.4656 15.9351C11.7657 16.2352 12.1777 16.3604 12.5796 16.2985V19.4245C12.5796 20.0699 12.0564 20.5931 11.4109 20.5931C10.7655 20.5931 10.2422 20.0699 10.2422 19.4245V14.7117L11.4656 15.9351Z" fill="#003D72"/>
<path d="M10.6341 6.61119L10.2539 5.9196L10.6267 5.24157C10.6717 5.15981 10.6336 5.05357 10.5385 5.02393H12.6104C13.8242 5.02393 14.915 5.9868 14.915 7.37597V11.6987C14.915 12.2366 14.479 12.6726 13.9411 12.6726C13.4033 12.6726 12.9672 12.2366 12.9672 11.6987C12.9672 11.6546 12.9672 7.39843 12.9672 7.32697C12.9676 7.31691 12.9677 7.30709 12.9677 7.29756C12.9677 7.19075 12.8811 7.10415 12.7743 7.10415C12.6674 7.10415 12.5808 7.19075 12.5808 7.29756V8.2943L12.4005 8.11402C11.8952 7.6087 11.0773 7.60865 10.5719 8.11402L10.4056 8.28032C10.4356 8.12542 10.6478 7.03403 10.6765 6.88593C10.6952 6.7922 10.6802 6.69492 10.6341 6.61119Z" fill="#003D72"/>
<path d="M9.9917 4.38086C8.96547 4.38086 8.13354 3.54894 8.13354 2.52271C8.13354 1.49647 8.96547 0.664551 9.9917 0.664551C11.0179 0.664551 11.8499 1.49647 11.8499 2.52271C11.8499 3.54894 11.0179 4.38086 9.9917 4.38086Z" fill="#003D72"/>
<path d="M8.59522 11.2349L11.144 8.68617C11.3329 8.49721 11.6393 8.49716 11.8284 8.68617L12.5925 9.45032V15.4552C12.4058 15.5462 12.1844 15.5085 12.0386 15.3627L8.59522 11.9193C8.40626 11.7303 8.40626 11.4239 8.59522 11.2349Z" fill="#003D72"/>
<path d="M9.29014 6.90356C9.29033 6.90474 9.29033 6.90474 9.29014 6.90356V6.90356Z" fill="#003D72"/>
<path d="M9.29004 6.90382C9.28992 6.90348 9.28981 6.90279 9.28969 6.9021C9.28981 6.9029 9.28992 6.90336 9.29004 6.90382Z" fill="#003D72"/>
<path d="M9.28833 6.90049C9.28823 6.89976 9.28802 6.89893 9.28791 6.89819C9.28802 6.89893 9.28812 6.89976 9.28833 6.90049Z" fill="#003D72"/>
<path d="M2.00403 5.54227C2.96858 5.54227 3.75046 6.32419 3.75046 7.2887C3.75046 7.69635 3.60724 8.10875 3.31699 8.43957C3.51629 8.4242 3.72196 8.46869 3.90483 8.58226L5.05747 9.13806C5.06068 8.49499 5.06322 7.98805 5.06657 7.31705C5.07294 6.05262 6.10685 5.02393 7.37129 5.02393H9.42393C9.32924 5.05353 9.29073 5.15948 9.3358 5.24152C9.61542 5.7501 9.50833 5.55535 9.70787 5.91822C9.47456 6.34254 9.56044 6.18634 9.32838 6.60846C9.28148 6.69382 9.26673 6.7932 9.28695 6.88852C9.28742 6.89072 9.28781 6.89254 9.28814 6.89417L9.28853 6.89594L9.289 6.89815L9.28929 6.89929C9.28958 6.90059 9.28982 6.90203 9.28982 6.90203L9.29006 6.90303C9.30112 6.9562 9.36995 7.28626 9.71979 8.96582L8.02294 10.6627C7.51762 11.168 7.51752 11.986 8.02294 12.4913L9.73704 14.2055C9.73713 15.7925 9.73828 18.3021 9.73828 19.4242C9.73828 20.0696 9.21505 20.5928 8.56964 20.5928C7.92422 20.5928 7.40089 20.0696 7.40089 19.4242C7.40089 19.4123 7.42154 15.1859 7.42207 7.28884C7.42207 7.1759 7.33053 7.08437 7.21764 7.08427C7.1047 7.08423 7.00809 7.17576 7.00809 7.2887C7.00809 7.30087 7.00713 7.31361 7.00809 7.32673C6.99046 10.8342 7.00991 10.5241 7.00809 10.8885C7.00421 11.6544 6.15006 12.109 5.50905 11.711L2.87753 10.237C2.43951 9.96505 2.29342 9.40235 2.53185 8.95375C2.36536 9.00648 2.18805 9.03513 2.00407 9.03513C1.0434 9.03513 0.257645 8.25632 0.257645 7.2887C0.257597 6.32419 1.03947 5.54227 2.00403 5.54227Z" fill="#003D72"/>
<path d="M9.28833 6.89669C9.28819 6.89599 9.28805 6.8953 9.28784 6.89453C9.28791 6.89488 9.28805 6.89565 9.28833 6.89669Z" fill="#003D72"/>
</g>
<defs>
<clipPath id="clip0_204_757">
<rect width="18" height="20.0571" fill="white" transform="matrix(-1 0 0 1 18 0.471436)"/>
</clipPath>
</defs>
</svg>
