<svg width="18" height="18" viewBox="0 0 18 18" fill="none" xmlns="http://www.w3.org/2000/svg">
<path fill-rule="evenodd" clip-rule="evenodd" d="M11.3933 2.28662H5.74926V1.34595H11.3933V2.28662ZM3.86791 4.16796H1.98657V3.22729H15.156V4.16796H13.2751V14.045C13.2751 15.3438 12.2222 16.3967 10.9234 16.3967H6.21959C4.9208 16.3967 3.86791 15.3438 3.86791 14.045V4.16796ZM4.80859 4.16796V14.045C4.80859 14.8243 5.44032 15.456 6.21959 15.456H10.9234C11.7027 15.456 12.3344 14.8243 12.3344 14.045V4.16796H4.80859ZM6.68993 13.5747V6.0493H7.6306V13.5747H6.68993ZM9.51194 13.5747V6.0493H10.4526V13.5747H9.51194Z" fill="#0074D9" stroke="#0074D9" stroke-width="0.564403"/>
</svg>
