<svg width="19" height="19" viewBox="0 0 19 19" fill="none" xmlns="http://www.w3.org/2000/svg">
<path fill-rule="evenodd" clip-rule="evenodd" d="M16.2799 2.86151C16.7334 3.31492 16.7334 4.05005 16.2799 4.50347L13.7781 7.0053L11.2293 4.45645L13.7312 1.95465C14.1846 1.50125 14.9197 1.50125 15.3731 1.95466L16.2799 2.86151ZM10.6819 5.00376L13.2308 7.55262L6.26455 14.5189L3.71521 14.5189V11.9703L10.6819 5.00376ZM16.8273 5.05079C17.583 4.2951 17.583 3.06988 16.8273 2.31419L15.9204 1.40734C15.1647 0.651663 13.9395 0.651652 13.1838 1.40732L2.94118 11.6496L2.94118 15.293L6.58518 15.2929L16.8273 5.05079ZM1.39355 17.6147H18.4221V16.8407H1.39355V17.6147Z" fill="#0074D9"/>
<path d="M16.2799 4.50347L15.8936 4.11712V4.11712L16.2799 4.50347ZM16.2799 2.86151L16.6663 2.47517L16.6663 2.47517L16.2799 2.86151ZM13.7781 7.0053L13.3918 7.39164L13.7781 7.77798L14.1645 7.39164L13.7781 7.0053ZM11.2293 4.45645L10.8429 4.0701L10.4566 4.45645L10.8429 4.8428L11.2293 4.45645ZM13.7312 1.95465L14.1175 2.341V2.341L13.7312 1.95465ZM15.3731 1.95466L14.9868 2.34101V2.34101L15.3731 1.95466ZM13.2308 7.55262L13.6171 7.93896L14.0035 7.55262L13.6171 7.16628L13.2308 7.55262ZM10.6819 5.00376L11.0683 4.61742L10.6819 4.23108L10.2956 4.61741L10.6819 5.00376ZM6.26455 14.5189L6.26457 15.0652L6.49088 15.0652L6.6509 14.9052L6.26455 14.5189ZM3.71521 14.5189H3.16884L3.16883 15.0653L3.71523 15.0653L3.71521 14.5189ZM3.71521 11.9703L3.32887 11.5839L3.16884 11.7439V11.9703H3.71521ZM16.8273 2.31419L17.2136 1.92785V1.92785L16.8273 2.31419ZM13.1838 1.40732L12.7975 1.02097V1.02097L13.1838 1.40732ZM2.94118 11.6496L2.55484 11.2633L2.39481 11.4233L2.39481 11.6496H2.94118ZM2.94118 15.293H2.39481V15.8394L2.9412 15.8394L2.94118 15.293ZM6.58518 15.2929L6.5852 15.8392L6.8115 15.8392L6.97152 15.6792L6.58518 15.2929ZM18.4221 17.6147V18.1611H18.9685V17.6147H18.4221ZM1.39355 17.6147H0.847183V18.1611H1.39355V17.6147ZM18.4221 16.8407H18.9685V16.2943H18.4221V16.8407ZM1.39355 16.8407V16.2943H0.847183V16.8407H1.39355ZM16.6663 4.88981C17.3331 4.22302 17.3331 3.14195 16.6663 2.47517L15.8936 3.24785C16.1336 3.48789 16.1336 3.87708 15.8936 4.11712L16.6663 4.88981ZM14.1645 7.39164L16.6663 4.88981L15.8936 4.11712L13.3918 6.61896L14.1645 7.39164ZM10.8429 4.8428L13.3918 7.39164L14.1645 6.61896L11.6156 4.07011L10.8429 4.8428ZM13.3448 1.5683L10.8429 4.0701L11.6156 4.8428L14.1175 2.341L13.3448 1.5683ZM15.7594 1.56832C15.0927 0.901543 14.0116 0.901532 13.3448 1.5683L14.1175 2.341C14.3575 2.10096 14.7467 2.10097 14.9868 2.34101L15.7594 1.56832ZM16.6663 2.47517L15.7594 1.56832L14.9868 2.34101L15.8936 3.24785L16.6663 2.47517ZM13.6171 7.16628L11.0683 4.61742L10.2956 5.39011L12.8444 7.93896L13.6171 7.16628ZM6.6509 14.9052L13.6171 7.93896L12.8444 7.16628L5.87821 14.1325L6.6509 14.9052ZM3.71523 15.0653L6.26457 15.0652L6.26453 13.9725L3.71519 13.9726L3.71523 15.0653ZM3.16884 11.9703L3.16884 14.5189H4.26158L4.26158 11.9703H3.16884ZM10.2956 4.61741L3.32887 11.5839L4.10154 12.3566L11.0683 5.39011L10.2956 4.61741ZM16.4409 2.70053C16.9832 3.24285 16.9832 4.12212 16.4409 4.66444L17.2136 5.43713C18.1827 4.46807 18.1827 2.89691 17.2136 1.92785L16.4409 2.70053ZM15.5341 1.79369L16.4409 2.70053L17.2136 1.92785L16.3068 1.021L15.5341 1.79369ZM13.5702 1.79367C14.1125 1.25137 14.9918 1.25137 15.5341 1.79369L16.3068 1.021C15.3377 0.0519513 13.7666 0.0519377 12.7975 1.02097L13.5702 1.79367ZM3.32752 12.036L13.5702 1.79367L12.7975 1.02097L2.55484 11.2633L3.32752 12.036ZM3.48755 15.293L3.48755 11.6496H2.39481L2.39481 15.293H3.48755ZM6.58516 14.7465L2.94116 14.7466L2.9412 15.8394L6.5852 15.8392L6.58516 14.7465ZM16.4409 4.66444L6.19883 14.9065L6.97152 15.6792L17.2136 5.43713L16.4409 4.66444ZM18.4221 17.0683H1.39355V18.1611H18.4221V17.0683ZM17.8758 16.8407V17.6147H18.9685V16.8407H17.8758ZM1.39355 17.3871H18.4221V16.2943H1.39355V17.3871ZM1.93993 17.6147V16.8407H0.847183V17.6147H1.93993Z" fill="#0074D9"/>
</svg>
