<svg width="99" height="37" viewBox="0 0 99 37" fill="none" xmlns="http://www.w3.org/2000/svg">
<rect x="0.5" y="0.5" width="98" height="36" rx="18" stroke="#293137"/>
<g clip-path="url(#clip0_3220_58369)">
<path fill-rule="evenodd" clip-rule="evenodd" d="M36.4342 13.2377C36.8491 13.6527 36.8491 14.3254 36.4342 14.7403L34.1447 17.0298L31.8121 14.6973L34.1017 12.4078C34.5166 11.9929 35.1893 11.9929 35.6043 12.4078L36.4342 13.2377ZM31.3113 15.1982L33.6438 17.5307L27.2688 23.9057L24.9358 23.9058L24.9358 21.5734L31.3113 15.1982ZM36.935 15.2412C37.6266 14.5496 37.6266 13.4284 36.935 12.7369L36.1051 11.907C35.4136 11.2154 34.2924 11.2154 33.6008 11.9069L24.2275 21.28L24.2275 24.6141L27.5622 24.614L36.935 15.2412ZM22.8115 26.7389H38.3949V26.0306H22.8115V26.7389Z" fill="#293137"/>
<path d="M36.4342 13.2377L36.6109 13.0609V13.0609L36.4342 13.2377ZM34.1447 17.0298L33.9679 17.2066L34.1447 17.3834L34.3214 17.2066L34.1447 17.0298ZM31.8121 14.6973L31.6354 14.5205L31.4586 14.6973L31.6354 14.8741L31.8121 14.6973ZM34.1017 12.4078L34.2785 12.5846V12.5846L34.1017 12.4078ZM35.6043 12.4078L35.7811 12.2311V12.2311L35.6043 12.4078ZM33.6438 17.5307L33.8206 17.7075L33.9973 17.5307L33.8206 17.3539L33.6438 17.5307ZM31.3113 15.1982L31.488 15.0214L31.3113 14.8446L31.1345 15.0214L31.3113 15.1982ZM27.2688 23.9057L27.2688 24.1557L27.3723 24.1557L27.4456 24.0825L27.2688 23.9057ZM24.9358 23.9058H24.6858V24.1558L24.9358 24.1558L24.9358 23.9058ZM24.9358 21.5734L24.759 21.3966L24.6858 21.4698V21.5734H24.9358ZM36.935 12.7369L36.7582 12.9136V12.9136L36.935 12.7369ZM36.935 15.2412L37.1118 15.418L36.935 15.2412ZM36.1051 11.907L35.9284 12.0837V12.0837L36.1051 11.907ZM33.6008 11.9069L33.7776 12.0837L33.6008 11.9069ZM24.2275 21.28L24.0507 21.1032L23.9775 21.1764V21.28H24.2275ZM24.2275 24.6141H23.9775V24.8641L24.2275 24.8641L24.2275 24.6141ZM27.5622 24.614L27.5622 24.864L27.6658 24.864L27.739 24.7908L27.5622 24.614ZM38.3949 26.7389V26.9889H38.6449V26.7389H38.3949ZM22.8115 26.7389H22.5615V26.9889H22.8115V26.7389ZM38.3949 26.0306H38.6449V25.7806H38.3949V26.0306ZM22.8115 26.0306V25.7806H22.5615V26.0306H22.8115ZM36.6109 14.9171C37.1235 14.4045 37.1235 13.5735 36.6109 13.0609L36.2574 13.4145C36.5747 13.7318 36.5747 14.2462 36.2574 14.5635L36.6109 14.9171ZM34.3214 17.2066L36.6109 14.9171L36.2574 14.5635L33.9679 16.853L34.3214 17.2066ZM31.6354 14.8741L33.9679 17.2066L34.3214 16.853L31.9889 14.5205L31.6354 14.8741ZM33.9249 12.231L31.6354 14.5205L31.9889 14.8741L34.2785 12.5846L33.9249 12.231ZM35.7811 12.2311C35.2685 11.7185 34.4375 11.7185 33.9249 12.231L34.2785 12.5846C34.5958 12.2673 35.1102 12.2673 35.4275 12.5846L35.7811 12.2311ZM36.6109 13.0609L35.7811 12.2311L35.4275 12.5846L36.2574 13.4145L36.6109 13.0609ZM33.8206 17.3539L31.488 15.0214L31.1345 15.3749L33.467 17.7075L33.8206 17.3539ZM27.4456 24.0825L33.8206 17.7075L33.467 17.3539L27.092 23.7289L27.4456 24.0825ZM24.9358 24.1558L27.2688 24.1557L27.2688 23.6557L24.9358 23.6558L24.9358 24.1558ZM24.6858 21.5734L24.6858 23.9058H25.1858L25.1858 21.5734H24.6858ZM31.1345 15.0214L24.759 21.3966L25.1126 21.7502L31.488 15.3749L31.1345 15.0214ZM36.7582 12.9136C37.3522 13.5076 37.3522 14.4705 36.7582 15.0644L37.1118 15.418C37.901 14.6288 37.901 13.3493 37.1118 12.5601L36.7582 12.9136ZM35.9284 12.0837L36.7582 12.9136L37.1118 12.5601L36.2819 11.7302L35.9284 12.0837ZM33.7776 12.0837C34.3715 11.4898 35.3344 11.4898 35.9284 12.0837L36.2819 11.7302C35.4927 10.941 34.2132 10.941 33.4241 11.7302L33.7776 12.0837ZM24.4042 21.4568L33.7776 12.0837L33.4241 11.7302L24.0507 21.1032L24.4042 21.4568ZM24.4775 24.6141L24.4775 21.28H23.9775L23.9775 24.6141H24.4775ZM27.5622 24.364L24.2275 24.3641L24.2275 24.8641L27.5622 24.864L27.5622 24.364ZM36.7582 15.0644L27.3854 24.4372L27.739 24.7908L37.1118 15.418L36.7582 15.0644ZM38.3949 26.4889H22.8115V26.9889H38.3949V26.4889ZM38.1449 26.0306V26.7389H38.6449V26.0306H38.1449ZM22.8115 26.2806H38.3949V25.7806H22.8115V26.2806ZM23.0615 26.7389V26.0306H22.5615V26.7389H23.0615Z" fill="#293137"/>
</g>
<path d="M50.3443 15.1439V18.6639H55.0803V20.0719H50.3443V23.5919H56.1042V24.9999H48.6803V13.7359H56.1042V15.1439H50.3443ZM65.323 24.9999H63.787V24.3119C63.787 24.0239 63.8403 23.7359 63.947 23.4479C63.9897 23.3625 64.011 23.2932 64.011 23.2399C64.011 23.1759 63.979 23.1385 63.915 23.1279H63.883C63.8297 23.1279 63.787 23.1759 63.755 23.2719C63.563 23.8479 63.2163 24.3012 62.715 24.6319C62.2243 24.9625 61.6537 25.1279 61.003 25.1279C60.3097 25.1279 59.6857 24.9465 59.131 24.5839C58.587 24.2212 58.1603 23.7199 57.851 23.0799C57.5417 22.4292 57.387 21.7039 57.387 20.9039C57.387 20.1039 57.5417 19.3839 57.851 18.7439C58.1603 18.0932 58.587 17.5865 59.131 17.2239C59.6857 16.8612 60.3097 16.6799 61.003 16.6799C61.6537 16.6799 62.2297 16.8452 62.731 17.1759C63.2323 17.5065 63.5737 17.9492 63.755 18.5039C63.7977 18.6425 63.8617 18.6959 63.947 18.6639C64.0003 18.6532 64.027 18.6212 64.027 18.5679C64.027 18.5252 64.0163 18.4825 63.995 18.4399C63.9737 18.3865 63.9577 18.3492 63.947 18.3279C63.8403 18.0505 63.787 17.7572 63.787 17.4479V13.4799H65.323V24.9999ZM61.323 23.7199C61.7923 23.7199 62.2137 23.5919 62.587 23.3359C62.971 23.0799 63.2643 22.7385 63.467 22.3119C63.6803 21.8745 63.787 21.4052 63.787 20.9039C63.787 20.4025 63.6803 19.9385 63.467 19.5119C63.2643 19.0745 62.971 18.7279 62.587 18.4719C62.2137 18.2159 61.7923 18.0879 61.323 18.0879C60.555 18.0879 59.963 18.3599 59.547 18.9039C59.131 19.4372 58.923 20.1039 58.923 20.9039C58.923 21.7039 59.131 22.3759 59.547 22.9199C59.963 23.4532 60.555 23.7199 61.323 23.7199ZM67.1788 13.4799H68.8428V15.2719H67.1788V13.4799ZM67.2428 16.8079H68.7788V24.9999H67.2428V16.8079ZM72.8749 18.1519V22.4399C72.8749 22.9092 72.9442 23.2292 73.0829 23.3999C73.2322 23.5705 73.5255 23.6559 73.9629 23.6559H75.1789V24.9999H73.8349C72.9709 24.9999 72.3362 24.8185 71.9309 24.4559C71.5362 24.0932 71.3389 23.4745 71.3389 22.5999V18.1519H69.8029V16.8079H71.3389V14.5039H72.8749V16.8079H75.1789V18.1519H72.8749Z" fill="#293137"/>
<defs>
<clipPath id="clip0_3220_58369">
<rect width="17" height="17" fill="white" transform="translate(21.6562 9.99988)"/>
</clipPath>
</defs>
</svg>
