<svg width="50" height="50" viewBox="0 0 50 50" fill="none" xmlns="http://www.w3.org/2000/svg">
<circle cx="25" cy="25" r="24.5455" fill="white" stroke="#94AEC5" stroke-width="0.909091"/>
<g clip-path="url(#clip0_735_2447)">
<path fill-rule="evenodd" clip-rule="evenodd" d="M32.9945 17.3802C33.5558 17.9416 33.5558 18.8517 32.9945 19.4131L29.8969 22.5107L26.7411 19.3549L29.8388 16.2574C30.4001 15.696 31.3103 15.696 31.8717 16.2574L32.9945 17.3802ZM26.0635 20.0326L29.2193 23.1883L20.5942 31.8133L17.4379 31.8134L17.4379 28.6579L26.0635 20.0326ZM33.6721 20.0908C34.6077 19.1551 34.6077 17.6382 33.6721 16.7026L32.5493 15.5798C31.6137 14.6442 30.0968 14.6441 29.1611 15.5797L16.4795 28.2609L16.4795 32.7718L20.9912 32.7717L33.6721 20.0908ZM14.5637 35.6467H35.647V34.6884H14.5637V35.6467Z" fill="#0074D9"/>
<path d="M32.9945 19.4131L33.4728 19.8915L32.9945 19.4131ZM32.9945 17.3802L32.5161 17.8585V17.8585L32.9945 17.3802ZM29.8969 22.5107L29.4186 22.989L29.8969 23.4674L30.3752 22.989L29.8969 22.5107ZM26.7411 19.3549L26.2628 18.8766L25.7845 19.3549L26.2628 19.8333L26.7411 19.3549ZM29.8388 16.2574L30.3171 16.7357L30.3171 16.7357L29.8388 16.2574ZM31.8717 16.2574L32.35 15.7791V15.7791L31.8717 16.2574ZM29.2193 23.1883L29.6976 23.6667L30.1759 23.1883L29.6976 22.71L29.2193 23.1883ZM26.0635 20.0326L26.5418 19.5542L26.0635 19.0759L25.5852 19.5542L26.0635 20.0326ZM20.5942 31.8133L20.5943 32.4898L20.8745 32.4898L21.0726 32.2917L20.5942 31.8133ZM17.4379 31.8134H16.7614L16.7614 32.4899L17.4379 32.4899L17.4379 31.8134ZM17.4379 28.6579L16.9595 28.1795L16.7614 28.3777V28.6579H17.4379ZM33.6721 16.7026L34.1504 16.2242V16.2242L33.6721 16.7026ZM33.6721 20.0908L34.1504 20.5691V20.5691L33.6721 20.0908ZM32.5493 15.5798L32.071 16.0581V16.0581L32.5493 15.5798ZM29.1611 15.5797L28.6828 15.1014V15.1014L29.1611 15.5797ZM16.4795 28.2609L16.0012 27.7826L15.8031 27.9807L15.8031 28.2609H16.4795ZM16.4795 32.7718H15.8031L15.8031 33.4483L16.4796 33.4483L16.4795 32.7718ZM20.9912 32.7717L20.9912 33.4481L21.2714 33.4481L21.4696 33.25L20.9912 32.7717ZM35.647 35.6467V36.3232H36.3235V35.6467H35.647ZM14.5637 35.6467H13.8872V36.3232H14.5637V35.6467ZM35.647 34.6884H36.3235V34.0119H35.647V34.6884ZM14.5637 34.6884V34.0119H13.8872V34.6884H14.5637ZM33.4728 19.8915C34.2984 19.0659 34.2984 17.7274 33.4728 16.9019L32.5161 17.8585C32.8133 18.1557 32.8133 18.6376 32.5161 18.9348L33.4728 19.8915ZM30.3752 22.989L33.4728 19.8915L32.5161 18.9348L29.4186 22.0323L30.3752 22.989ZM26.2628 19.8333L29.4186 22.989L30.3752 22.0323L27.2195 18.8766L26.2628 19.8333ZM29.3604 15.7791L26.2628 18.8766L27.2195 19.8333L30.3171 16.7357L29.3604 15.7791ZM32.35 15.7791C31.5245 14.9535 30.186 14.9535 29.3604 15.7791L30.3171 16.7357C30.6143 16.4386 31.0961 16.4386 31.3933 16.7358L32.35 15.7791ZM33.4728 16.9019L32.35 15.7791L31.3933 16.7358L32.5161 17.8585L33.4728 16.9019ZM29.6976 22.71L26.5418 19.5542L25.5851 20.5109L28.7409 23.6667L29.6976 22.71ZM21.0726 32.2917L29.6976 23.6667L28.7409 22.71L20.1159 31.335L21.0726 32.2917ZM17.4379 32.4899L20.5943 32.4898L20.5942 31.1369L17.4378 31.137L17.4379 32.4899ZM16.7614 28.6579L16.7614 31.8134H18.1143L18.1143 28.6579H16.7614ZM25.5852 19.5542L16.9595 28.1795L17.9162 29.1362L26.5418 20.5109L25.5852 19.5542ZM33.1938 17.1809C33.8652 17.8523 33.8652 18.941 33.1938 19.6124L34.1504 20.5691C35.3502 19.3693 35.3502 17.424 34.1504 16.2242L33.1938 17.1809ZM32.071 16.0581L33.1938 17.1809L34.1504 16.2242L33.0277 15.1014L32.071 16.0581ZM29.6395 16.0581C30.3109 15.3867 31.3995 15.3867 32.071 16.0581L33.0277 15.1014C31.8279 13.9016 29.8826 13.9016 28.6828 15.1014L29.6395 16.0581ZM16.9579 28.7393L29.6395 16.0581L28.6828 15.1014L16.0012 27.7826L16.9579 28.7393ZM17.156 32.7718L17.156 28.2609H15.8031L15.8031 32.7718H17.156ZM20.9912 32.0952L16.4795 32.0953L16.4796 33.4483L20.9912 33.4481L20.9912 32.0952ZM33.1938 19.6124L20.5129 32.2933L21.4696 33.25L34.1504 20.5691L33.1938 19.6124ZM35.647 34.9703H14.5637V36.3232H35.647V34.9703ZM34.9705 34.6884V35.6467H36.3235V34.6884H34.9705ZM14.5637 35.3649H35.647V34.0119H14.5637V35.3649ZM15.2401 35.6467V34.6884H13.8872V35.6467H15.2401Z" fill="#0074D9"/>
</g>
<defs>
<clipPath id="clip0_735_2447">
<rect width="23" height="23" fill="white" transform="translate(12.9998 13)"/>
</clipPath>
</defs>
</svg>
