<svg width="46" height="45" viewBox="0 0 46 45" fill="none" xmlns="http://www.w3.org/2000/svg">
<g filter="url(#filter0_d_294_695)">
<circle cx="23" cy="18" r="18" fill="white"/>
<g clip-path="url(#clip0_294_695)">
<path fill-rule="evenodd" clip-rule="evenodd" d="M28.5636 11.8768C28.9653 12.2785 28.9653 12.9298 28.5636 13.3315L26.3472 15.5478L24.0892 13.2898L26.3056 11.0734C26.7073 10.6718 27.3585 10.6718 27.7602 11.0735L28.5636 11.8768ZM23.6043 13.7747L25.8623 16.0327L19.6909 22.2042L17.4324 22.2042L17.4324 19.9463L23.6043 13.7747ZM29.0485 13.8163C29.7179 13.1469 29.7179 12.0614 29.0485 11.392L28.2451 10.5886C27.5756 9.91912 26.4902 9.91912 25.8207 10.5886L16.7467 19.6623L16.7467 22.89L19.9749 22.8899L29.0485 13.8163ZM15.3759 24.9468H30.4616V24.2611H15.3759V24.9468Z" fill="#0074D9"/>
<path d="M28.5636 13.3315L28.2213 12.9892V12.9892L28.5636 13.3315ZM28.5636 11.8768L28.9059 11.5346L28.5636 11.8768ZM26.3472 15.5478L26.0049 15.8901L26.3472 16.2324L26.6895 15.8901L26.3472 15.5478ZM24.0892 13.2898L23.7469 12.9475L23.4046 13.2898L23.7469 13.6321L24.0892 13.2898ZM26.3056 11.0734L26.6479 11.4157V11.4157L26.3056 11.0734ZM27.7602 11.0735L27.4179 11.4157V11.4157L27.7602 11.0735ZM25.8623 16.0327L26.2046 16.375L26.5469 16.0327L26.2046 15.6905L25.8623 16.0327ZM23.6043 13.7747L23.9465 13.4324L23.6043 13.0902L23.262 13.4324L23.6043 13.7747ZM19.6909 22.2042L19.6909 22.6882L19.8914 22.6882L20.0332 22.5464L19.6909 22.2042ZM17.4324 22.2042H16.9484L16.9484 22.6883L17.4324 22.6883L17.4324 22.2042ZM17.4324 19.9463L17.0902 19.6041L16.9484 19.7458V19.9463H17.4324ZM29.0485 11.392L29.3907 11.0497V11.0497L29.0485 11.392ZM29.0485 13.8163L29.3907 14.1586V14.1586L29.0485 13.8163ZM28.2451 10.5886L27.9028 10.9309V10.9309L28.2451 10.5886ZM25.8207 10.5886L25.4785 10.2463V10.2463L25.8207 10.5886ZM16.7467 19.6623L16.4044 19.32L16.2627 19.4618L16.2627 19.6623H16.7467ZM16.7467 22.89H16.2627L16.2627 23.374L16.7467 23.374L16.7467 22.89ZM19.9749 22.8899L19.975 23.3739L20.1754 23.3739L20.3172 23.2321L19.9749 22.8899ZM30.4616 24.9468V25.4308H30.9457V24.9468H30.4616ZM15.3759 24.9468H14.8919V25.4308H15.3759V24.9468ZM30.4616 24.2611H30.9457V23.7771H30.4616V24.2611ZM15.3759 24.2611V23.7771H14.8919V24.2611H15.3759ZM28.9059 13.6737C29.4966 13.083 29.4966 12.1253 28.9059 11.5346L28.2213 12.2191C28.434 12.4318 28.434 12.7765 28.2213 12.9892L28.9059 13.6737ZM26.6895 15.8901L28.9059 13.6737L28.2213 12.9892L26.0049 15.2056L26.6895 15.8901ZM23.7469 13.6321L26.0049 15.8901L26.6895 15.2056L24.4314 12.9475L23.7469 13.6321ZM25.9633 10.7312L23.7469 12.9475L24.4314 13.6321L26.6479 11.4157L25.9633 10.7312ZM28.1025 10.7312C27.5118 10.1405 26.5541 10.1405 25.9633 10.7312L26.6479 11.4157C26.8605 11.2031 27.2053 11.2031 27.4179 11.4157L28.1025 10.7312ZM28.9059 11.5346L28.1025 10.7312L27.4179 11.4157L28.2213 12.2191L28.9059 11.5346ZM26.2046 15.6905L23.9465 13.4324L23.262 14.1169L25.5201 16.375L26.2046 15.6905ZM20.0332 22.5464L26.2046 16.375L25.5201 15.6905L19.3486 21.8619L20.0332 22.5464ZM17.4324 22.6883L19.6909 22.6882L19.6909 21.7201L17.4324 21.7202L17.4324 22.6883ZM16.9484 19.9463L16.9484 22.2042H17.9164L17.9164 19.9463H16.9484ZM23.262 13.4324L17.0902 19.6041L17.7747 20.2886L23.9465 14.1169L23.262 13.4324ZM28.7062 11.7342C29.1866 12.2147 29.1866 12.9936 28.7062 13.4741L29.3907 14.1586C30.2492 13.3001 30.2492 11.9082 29.3907 11.0497L28.7062 11.7342ZM27.9028 10.9309L28.7062 11.7342L29.3907 11.0497L28.5873 10.2463L27.9028 10.9309ZM26.163 10.9308C26.6434 10.4504 27.4224 10.4504 27.9028 10.9309L28.5873 10.2463C27.7289 9.38784 26.337 9.38782 25.4785 10.2463L26.163 10.9308ZM17.089 20.0046L26.163 10.9308L25.4785 10.2463L16.4044 19.32L17.089 20.0046ZM17.2307 22.89L17.2307 19.6623H16.2627L16.2627 22.89H17.2307ZM19.9749 22.4058L16.7467 22.4059L16.7467 23.374L19.975 23.3739L19.9749 22.4058ZM28.7062 13.4741L19.6327 22.5476L20.3172 23.2321L29.3907 14.1586L28.7062 13.4741ZM30.4616 24.4628H15.3759V25.4308H30.4616V24.4628ZM29.9776 24.2611V24.9468H30.9457V24.2611H29.9776ZM15.3759 24.7451H30.4616V23.7771H15.3759V24.7451ZM15.86 24.9468V24.2611H14.8919V24.9468H15.86Z" fill="#0074D9"/>
</g>
</g>
<defs>
<filter id="filter0_d_294_695" x="0.885714" y="0" width="44.2286" height="44.2286" filterUnits="userSpaceOnUse" color-interpolation-filters="sRGB">
<feFlood flood-opacity="0" result="BackgroundImageFix"/>
<feColorMatrix in="SourceAlpha" type="matrix" values="0 0 0 0 0 0 0 0 0 0 0 0 0 0 0 0 0 0 127 0" result="hardAlpha"/>
<feOffset dy="4.11429"/>
<feGaussianBlur stdDeviation="2.05714"/>
<feComposite in2="hardAlpha" operator="out"/>
<feColorMatrix type="matrix" values="0 0 0 0 0 0 0 0 0 0 0 0 0 0 0 0 0 0 0.25 0"/>
<feBlend mode="normal" in2="BackgroundImageFix" result="effect1_dropShadow_294_695"/>
<feBlend mode="normal" in="SourceGraphic" in2="effect1_dropShadow_294_695" result="shape"/>
</filter>
<clipPath id="clip0_294_695">
<rect width="16.4571" height="16.4571" fill="white" transform="translate(14.2568 8.74316)"/>
</clipPath>
</defs>
</svg>
