<svg width="104" height="45" viewBox="0 0 104 45" fill="none" xmlns="http://www.w3.org/2000/svg">
<rect y="7" width="102" height="38" rx="19" fill="#0074D9"/>
<g clip-path="url(#clip0_330_979)">
<path fill-rule="evenodd" clip-rule="evenodd" d="M40.7784 20.7378C41.1933 21.1528 41.1933 21.8255 40.7784 22.2404L38.4889 24.5299L36.1564 22.1974L38.4459 19.9079C38.8609 19.493 39.5336 19.493 39.9485 19.908L40.7784 20.7378ZM35.6555 22.6983L37.988 25.0308L31.613 31.4058L29.28 31.4059L29.28 29.0735L35.6555 22.6983ZM41.2793 22.7413C41.9708 22.0498 41.9708 20.9285 41.2793 20.237L40.4494 19.4071C39.7578 18.7155 38.6366 18.7155 37.9451 19.4071L28.5717 28.7801L28.5717 32.1143L31.9064 32.1141L41.2793 22.7413ZM27.1558 34.2391H42.7391V33.5307H27.1558V34.2391Z" fill="white"/>
<path d="M40.7784 20.7378L40.9552 20.5611V20.5611L40.7784 20.7378ZM38.4889 24.5299L38.3121 24.7067L38.4889 24.8835L38.6657 24.7067L38.4889 24.5299ZM36.1564 22.1974L35.9796 22.0206L35.8028 22.1974L35.9796 22.3742L36.1564 22.1974ZM38.4459 19.9079L38.6227 20.0847V20.0847L38.4459 19.9079ZM39.9485 19.908L40.1253 19.7312V19.7312L39.9485 19.908ZM37.988 25.0308L38.1648 25.2076L38.3416 25.0308L38.1648 24.854L37.988 25.0308ZM35.6555 22.6983L35.8323 22.5215L35.6555 22.3447L35.4787 22.5215L35.6555 22.6983ZM31.613 31.4058L31.613 31.6558L31.7166 31.6558L31.7898 31.5826L31.613 31.4058ZM29.28 31.4059H29.03V31.6559L29.2801 31.6559L29.28 31.4059ZM29.28 29.0735L29.1033 28.8967L29.03 28.97V29.0735H29.28ZM41.2793 20.237L41.1025 20.4138L41.2793 20.237ZM41.2793 22.7413L41.456 22.9181L41.2793 22.7413ZM40.4494 19.4071L40.2726 19.5839V19.5839L40.4494 19.4071ZM37.9451 19.4071L38.1218 19.5839L37.9451 19.4071ZM28.5717 28.7801L28.3949 28.6033L28.3217 28.6766V28.7801H28.5717ZM28.5717 32.1143H28.3217V32.3643L28.5717 32.3643L28.5717 32.1143ZM31.9064 32.1141L31.9064 32.3641L32.01 32.3641L32.0832 32.2909L31.9064 32.1141ZM42.7391 34.2391V34.4891H42.9891V34.2391H42.7391ZM27.1558 34.2391H26.9058V34.4891H27.1558V34.2391ZM42.7391 33.5307H42.9891V33.2807H42.7391V33.5307ZM27.1558 33.5307V33.2807H26.9058V33.5307H27.1558ZM40.9552 22.4172C41.4677 21.9047 41.4677 21.0736 40.9552 20.5611L40.6016 20.9146C40.9189 21.2319 40.9189 21.7464 40.6016 22.0637L40.9552 22.4172ZM38.6657 24.7067L40.9552 22.4172L40.6016 22.0637L38.3121 24.3532L38.6657 24.7067ZM35.9796 22.3742L38.3121 24.7067L38.6657 24.3532L36.3332 22.0206L35.9796 22.3742ZM38.2691 19.7312L35.9796 22.0206L36.3331 22.3742L38.6227 20.0847L38.2691 19.7312ZM40.1253 19.7312C39.6127 19.2186 38.7817 19.2186 38.2691 19.7312L38.6227 20.0847C38.94 19.7674 39.4544 19.7674 39.7717 20.0847L40.1253 19.7312ZM40.9552 20.5611L40.1253 19.7312L39.7717 20.0847L40.6016 20.9146L40.9552 20.5611ZM38.1648 24.854L35.8323 22.5215L35.4787 22.8751L37.8113 25.2076L38.1648 24.854ZM31.7898 31.5826L38.1648 25.2076L37.8113 24.854L31.4362 31.229L31.7898 31.5826ZM29.2801 31.6559L31.613 31.6558L31.613 31.1558L29.28 31.1559L29.2801 31.6559ZM29.03 29.0735L29.03 31.4059H29.53L29.53 29.0735H29.03ZM35.4787 22.5215L29.1033 28.8967L29.4568 29.2503L35.8323 22.8751L35.4787 22.5215ZM41.1025 20.4138C41.6964 21.0077 41.6964 21.9706 41.1025 22.5645L41.456 22.9181C42.2452 22.1289 42.2452 20.8494 41.456 20.0602L41.1025 20.4138ZM40.2726 19.5839L41.1025 20.4138L41.456 20.0602L40.6262 19.2303L40.2726 19.5839ZM38.1218 19.5839C38.7158 18.9899 39.6787 18.99 40.2726 19.5839L40.6262 19.2303C39.837 18.4411 38.5575 18.4411 37.7683 19.2303L38.1218 19.5839ZM28.7485 28.9569L38.1218 19.5839L37.7683 19.2303L28.3949 28.6033L28.7485 28.9569ZM28.8217 32.1143L28.8217 28.7801H28.3217L28.3217 32.1143H28.8217ZM31.9064 31.8641L28.5717 31.8643L28.5717 32.3643L31.9064 32.3641L31.9064 31.8641ZM41.1025 22.5645L31.7297 31.9374L32.0832 32.2909L41.456 22.9181L41.1025 22.5645ZM42.7391 33.9891H27.1558V34.4891H42.7391V33.9891ZM42.4891 33.5307V34.2391H42.9891V33.5307H42.4891ZM27.1558 33.7807H42.7391V33.2807H27.1558V33.7807ZM27.4058 34.2391V33.5307H26.9058V34.2391H27.4058Z" fill="white"/>
</g>
<path d="M54.184 22.901V25.93H57.486V26.905H54.184V30.025H57.876V31H53.001V21.926H57.876V22.901H54.184ZM59.224 27.412C59.224 26.684 59.3714 26.047 59.666 25.501C59.9607 24.9463 60.3637 24.5173 60.875 24.214C61.395 23.9107 61.9757 23.759 62.617 23.759C63.1717 23.759 63.6874 23.889 64.164 24.149C64.6407 24.4003 65.0047 24.734 65.256 25.15V21.38H66.452V31H65.256V29.661C65.022 30.0857 64.6754 30.4367 64.216 30.714C63.7567 30.9827 63.2194 31.117 62.604 31.117C61.9714 31.117 61.395 30.961 60.875 30.649C60.3637 30.337 59.9607 29.8993 59.666 29.336C59.3714 28.7727 59.224 28.1313 59.224 27.412ZM65.256 27.425C65.256 26.8877 65.1477 26.4197 64.931 26.021C64.7144 25.6223 64.4197 25.319 64.047 25.111C63.683 24.8943 63.28 24.786 62.838 24.786C62.396 24.786 61.993 24.89 61.629 25.098C61.265 25.306 60.9747 25.6093 60.758 26.008C60.5414 26.4067 60.433 26.8747 60.433 27.412C60.433 27.958 60.5414 28.4347 60.758 28.842C60.9747 29.2407 61.265 29.5483 61.629 29.765C61.993 29.973 62.396 30.077 62.838 30.077C63.28 30.077 63.683 29.973 64.047 29.765C64.4197 29.5483 64.7144 29.2407 64.931 28.842C65.1477 28.4347 65.256 27.9623 65.256 27.425ZM69.0622 22.719C68.8369 22.719 68.6462 22.641 68.4902 22.485C68.3342 22.329 68.2562 22.1383 68.2562 21.913C68.2562 21.6877 68.3342 21.497 68.4902 21.341C68.6462 21.185 68.8369 21.107 69.0622 21.107C69.2789 21.107 69.4609 21.185 69.6082 21.341C69.7642 21.497 69.8422 21.6877 69.8422 21.913C69.8422 22.1383 69.7642 22.329 69.6082 22.485C69.4609 22.641 69.2789 22.719 69.0622 22.719ZM69.6342 23.876V31H68.4512V23.876H69.6342ZM73.0934 24.851V29.05C73.0934 29.3967 73.1671 29.6437 73.3144 29.791C73.4617 29.9297 73.7174 29.999 74.0814 29.999H74.9524V31H73.8864C73.2277 31 72.7337 30.8483 72.4044 30.545C72.0751 30.2417 71.9104 29.7433 71.9104 29.05V24.851H70.9874V23.876H71.9104V22.082H73.0934V23.876H74.9524V24.851H73.0934Z" fill="white"/>
<circle cx="95" cy="9" r="7.5" fill="#00B127" stroke="white" stroke-width="3"/>
<defs>
<clipPath id="clip0_330_979">
<rect width="17" height="17" fill="white" transform="translate(26 17.5)"/>
</clipPath>
</defs>
</svg>
