<svg width="46" height="45" viewBox="0 0 46 45" fill="none" xmlns="http://www.w3.org/2000/svg">
<rect x="0.470215" y="0.133667" width="44.8663" height="44.8663" rx="22.4332" fill="black" fill-opacity="0.5"/>
<g clip-path="url(#clip0_2880_20115)">
<path fill-rule="evenodd" clip-rule="evenodd" d="M29.5562 14.706C30.078 15.2278 30.078 16.0738 29.5562 16.5955L26.6772 19.4746L23.744 16.5414L26.6231 13.6624C27.1449 13.1407 27.9909 13.1407 28.5127 13.6624L29.5562 14.706ZM23.1142 17.1713L26.0473 20.1045L18.0307 28.1211L15.097 28.1212L15.097 25.1882L23.1142 17.1713ZM30.1861 17.2254C31.0557 16.3558 31.0557 14.9458 30.1861 14.0762L29.1425 13.0326C28.2729 12.163 26.863 12.163 25.9933 13.0326L14.2063 24.8192L14.2063 29.0119L18.3997 29.0118L30.1861 17.2254ZM12.4248 31.6843H32.0209V30.7936H12.4248V31.6843Z" fill="white"/>
<path d="M29.5562 16.5955L29.3339 16.3733L29.5562 16.5955ZM29.5562 14.706L29.7785 14.4837V14.4837L29.5562 14.706ZM26.6772 19.4746L26.4549 19.6969L26.6772 19.9192L26.8995 19.6969L26.6772 19.4746ZM23.744 16.5414L23.5217 16.3191L23.2994 16.5414L23.5217 16.7637L23.744 16.5414ZM26.6231 13.6624L26.8454 13.8847L26.6231 13.6624ZM28.5127 13.6624L28.735 13.4401V13.4401L28.5127 13.6624ZM26.0473 20.1045L26.2696 20.3267L26.4919 20.1045L26.2696 19.8822L26.0473 20.1045ZM23.1142 17.1713L23.3365 16.949L23.1142 16.7267L22.8919 16.949L23.1142 17.1713ZM18.0307 28.1211L18.0307 28.4354L18.161 28.4354L18.253 28.3434L18.0307 28.1211ZM15.097 28.1212H14.7826V28.4355L15.097 28.4355L15.097 28.1212ZM15.097 25.1882L14.8747 24.9659L14.7826 25.058V25.1882H15.097ZM30.1861 14.0762L29.9638 14.2985L30.1861 14.0762ZM30.1861 17.2254L29.9638 17.0031L30.1861 17.2254ZM29.1425 13.0326L28.9202 13.2549V13.2549L29.1425 13.0326ZM25.9933 13.0326L26.2156 13.2549L25.9933 13.0326ZM14.2063 24.8192L13.984 24.5969L13.8919 24.689V24.8192H14.2063ZM14.2063 29.0119H13.8919V29.3263L14.2063 29.3263L14.2063 29.0119ZM18.3997 29.0118L18.3997 29.3262L18.5299 29.3261L18.622 29.2341L18.3997 29.0118ZM32.0209 31.6843V31.9987H32.3353V31.6843H32.0209ZM12.4248 31.6843H12.1104V31.9987H12.4248V31.6843ZM32.0209 30.7936H32.3353V30.4792H32.0209V30.7936ZM12.4248 30.7936V30.4792H12.1104V30.7936H12.4248ZM29.7785 16.8178C30.4231 16.1733 30.4231 15.1283 29.7785 14.4837L29.3339 14.9283C29.733 15.3273 29.733 15.9742 29.3339 16.3733L29.7785 16.8178ZM26.8995 19.6969L29.7785 16.8178L29.3339 16.3733L26.4549 19.2523L26.8995 19.6969ZM23.5217 16.7637L26.4549 19.6969L26.8995 19.2523L23.9663 16.3191L23.5217 16.7637ZM26.4009 13.4401L23.5217 16.3191L23.9663 16.7637L26.8454 13.8847L26.4009 13.4401ZM28.735 13.4401C28.0904 12.7956 27.0454 12.7956 26.4009 13.4401L26.8454 13.8847C27.2445 13.4857 27.8914 13.4857 28.2904 13.8847L28.735 13.4401ZM29.7785 14.4837L28.735 13.4401L28.2904 13.8847L29.3339 14.9283L29.7785 14.4837ZM26.2696 19.8822L23.3365 16.949L22.8919 17.3936L25.825 20.3267L26.2696 19.8822ZM18.253 28.3434L26.2696 20.3267L25.825 19.8822L17.8084 27.8988L18.253 28.3434ZM15.097 28.4355L18.0307 28.4354L18.0307 27.8067L15.097 27.8068L15.097 28.4355ZM14.7826 25.1882L14.7826 28.1212H15.4114L15.4114 25.1882H14.7826ZM22.8919 16.949L14.8747 24.9659L15.3193 25.4105L23.3365 17.3936L22.8919 16.949ZM29.9638 14.2985C30.7106 15.0453 30.7106 16.2562 29.9638 17.0031L30.4084 17.4477C31.4008 16.4553 31.4008 14.8463 30.4084 13.8539L29.9638 14.2985ZM28.9202 13.2549L29.9638 14.2985L30.4084 13.8539L29.3648 12.8103L28.9202 13.2549ZM26.2156 13.2549C26.9625 12.508 28.1734 12.508 28.9202 13.2549L29.3648 12.8103C28.3724 11.8179 26.7634 11.8179 25.771 12.8103L26.2156 13.2549ZM14.4286 25.0415L26.2156 13.2549L25.771 12.8103L13.984 24.5969L14.4286 25.0415ZM14.5206 29.0119L14.5206 24.8192H13.8919L13.8919 29.0119H14.5206ZM18.3997 28.6974L14.2063 28.6975L14.2063 29.3263L18.3997 29.3262L18.3997 28.6974ZM29.9638 17.0031L18.1774 28.7895L18.622 29.2341L30.4084 17.4477L29.9638 17.0031ZM32.0209 31.3699H12.4248V31.9987H32.0209V31.3699ZM31.7066 30.7936V31.6843H32.3353V30.7936H31.7066ZM12.4248 31.108H32.0209V30.4792H12.4248V31.108ZM12.7392 31.6843V30.7936H12.1104V31.6843H12.7392Z" fill="white"/>
</g>
<circle cx="37.223" cy="36.8858" r="5.25032" fill="#00B127"/>
<defs>
<clipPath id="clip0_2880_20115">
<rect width="21.3776" height="21.3776" fill="white" transform="translate(10.9707 10.6343)"/>
</clipPath>
</defs>
</svg>
