<svg width="512" height="41" viewBox="0 0 512 41" fill="none" xmlns="http://www.w3.org/2000/svg">
<rect x="270.747" y="17.8169" width="203.758" height="5.58242" fill="#C8C8C8"/>
<rect x="28" y="18" width="213.062" height="5" fill="#00B127"/>
<path fill-rule="evenodd" clip-rule="evenodd" d="M15.3516 35.4946C23.8301 35.4946 30.7033 28.6214 30.7033 20.1429C30.7033 11.6644 23.8301 4.79126 15.3516 4.79126C6.87317 4.79126 0 11.6644 0 20.1429C0 28.6214 6.87317 35.4946 15.3516 35.4946ZM15 31C21.0751 31 26 26.0751 26 20C26 13.9249 21.0751 9 15 9C8.92487 9 4 13.9249 4 20C4 26.0751 8.92487 31 15 31Z" fill="#00B127"/>
<path d="M20.8103 16.3282C19.8984 14.9884 18.51 14.0021 16.8921 13.6006C16.3759 13.4736 15.8403 13.3975 15.286 13.3975C14.5678 13.3975 13.8771 13.5145 13.2285 13.7252C11.661 14.2339 10.3505 15.3086 9.5281 16.7057C9.07622 17.4755 8.77243 18.3417 8.66005 19.2683C8.62727 19.5341 8.6062 19.8027 8.6062 20.0767C8.6062 21.5546 9.09437 22.9178 9.90973 24.0253C10.7175 25.1216 11.8478 25.9633 13.1636 26.4052C13.832 26.63 14.5432 26.7576 15.286 26.7576C16.2892 26.7576 17.2381 26.5282 18.0921 26.1313C19.021 25.6982 19.8358 25.0643 20.4726 24.2776C21.405 23.128 21.9658 21.6682 21.9658 20.0767C21.9658 19.959 21.9541 19.8431 21.9476 19.7249C21.8826 18.4711 21.4764 17.3063 20.8103 16.3282ZM20.5932 19.7255L19.2188 22.1031L20.1231 23.6712C19.515 24.4883 18.7072 25.1468 17.7695 25.5729L17.0806 24.3788H14.3337L13.4896 25.8404C12.1779 25.4313 11.057 24.5843 10.299 23.4722L11.3532 21.6465L9.97938 19.2683H9.30977C9.43678 18.3294 9.77335 17.4567 10.2808 16.7069H12.2019L13.5756 14.3275L13.5587 14.2959C14.106 14.132 14.6848 14.0407 15.2854 14.0407C15.7221 14.0407 16.147 14.0899 16.5573 14.1783L16.4719 14.327L17.845 16.7046H20.2911C20.8794 17.5761 21.2388 18.6116 21.3032 19.7243L20.5932 19.7255Z" fill="#00B127"/>
<path d="M13.9115 17.6182L12.5383 19.9969L13.9115 22.3757H16.6585L18.0322 19.9969L16.6585 17.6182H13.9115Z" fill="#00B127"/>
<path fill-rule="evenodd" clip-rule="evenodd" d="M249.77 14.731H262.609C264.102 14.731 265.311 15.9408 265.311 17.4332V18.2363L261.577 19.0656C260.488 19.1113 259.61 20.0212 259.61 21.1163C259.61 22.2114 260.488 23.1214 261.577 23.1669L265.311 23.9963V24.7995C265.311 26.292 264.102 27.5018 262.609 27.5018H256.874V23.0513C257.67 22.7688 258.242 22.0084 258.242 21.1165C258.242 20.2246 257.67 19.4641 256.874 19.1817V14.731H255.506V19.1817C254.709 19.4641 254.137 20.2245 254.137 21.1165C254.137 22.0084 254.709 22.7688 255.506 23.0513V27.5018H249.77C248.277 27.5018 247.067 26.292 247.067 24.7995V17.4332C247.067 15.9408 248.277 14.731 249.77 14.731ZM265.311 22.5946V19.6379L261.842 20.4083C261.78 20.423 261.715 20.431 261.65 20.4322C261.28 20.439 260.979 20.7459 260.979 21.1163C260.979 21.4867 261.28 21.7935 261.65 21.8004C261.715 21.8015 261.779 21.8095 261.842 21.8242L265.311 22.5946ZM247.067 18.2362L250.803 19.0656C251.891 19.1112 252.769 20.0211 252.769 21.1163C252.769 22.2113 251.891 23.1213 250.803 23.1669L247.067 23.9963V22.5947L250.538 21.8241C250.6 21.8095 250.664 21.8015 250.729 21.8003C251.099 21.7935 251.4 21.4867 251.4 21.1163C251.4 20.7459 251.099 20.439 250.729 20.4322C250.664 20.431 250.599 20.423 250.537 20.4083L247.067 19.6379V18.2362ZM256.19 21.8006C255.812 21.8006 255.506 21.4937 255.506 21.1165C255.506 20.7392 255.812 20.4323 256.19 20.4323C256.567 20.4323 256.874 20.7392 256.874 21.1165C256.874 21.4937 256.567 21.8006 256.19 21.8006Z" fill="#00B127"/>
<path fill-rule="evenodd" clip-rule="evenodd" d="M255.506 38.8633C265.727 38.8633 274.013 30.5777 274.013 20.357C274.013 10.1362 265.727 1.85059 255.506 1.85059C245.286 1.85059 237 10.1362 237 20.357C237 30.5777 245.286 38.8633 255.506 38.8633ZM255.618 34C263.074 34 269.118 27.9558 269.118 20.5C269.118 13.0442 263.074 7 255.618 7C248.162 7 242.118 13.0442 242.118 20.5C242.118 27.9558 248.162 34 255.618 34Z" fill="#00B127"/>
<path d="M491.435 26.3861L492.192 23.014V18.8849L497.566 15.341C497.669 15.2943 497.757 15.2188 497.818 15.1238C497.879 15.0287 497.912 14.918 497.912 14.8048C497.912 14.6917 497.879 14.581 497.818 14.4859C497.757 14.3908 497.669 14.3154 497.566 14.2687L491.09 11.3247C491 11.284 490.902 11.2664 490.803 11.2735C490.705 11.2807 490.61 11.3124 490.527 11.3658C490.445 11.4191 490.376 11.4924 490.329 11.5789C490.282 11.6654 490.257 11.7624 490.257 11.8609V17.7363C490.257 17.7447 490.257 17.7536 490.257 17.762V26.3861C490.454 26.375 490.65 26.3694 490.846 26.3692C491.042 26.3689 491.239 26.3746 491.435 26.3861Z" fill="#C8C8C8"/>
<path d="M498.476 27.519C498.161 25.9421 497.184 24.6214 495.65 23.6992C494.454 22.9798 492.976 22.5474 491.435 22.4591V25.3938C491.435 25.55 491.373 25.6997 491.263 25.8102C491.152 25.9206 491.002 25.9826 490.846 25.9826C490.69 25.9826 490.54 25.9206 490.43 25.8102C490.319 25.6997 490.257 25.55 490.257 25.3938V22.4591C488.716 22.5474 487.238 22.9798 486.042 23.6992C484.509 24.6214 483.532 25.9421 483.217 27.519C483.18 27.6923 483.182 27.8716 483.223 28.0439C483.264 28.2162 483.343 28.3773 483.454 28.5155C483.675 28.7885 484.002 28.9357 484.37 28.9357H497.323C497.691 28.9357 498.018 28.7867 498.239 28.5155C498.35 28.3773 498.429 28.2162 498.47 28.0439C498.511 27.8715 498.513 27.6922 498.476 27.519Z" fill="#C8C8C8"/>
<path fill-rule="evenodd" clip-rule="evenodd" d="M490.761 40.714C502.004 40.714 511.118 31.5999 511.118 20.357C511.118 9.11415 502.004 0 490.761 0C479.518 0 470.404 9.11415 470.404 20.357C470.404 31.5999 479.518 40.714 490.761 40.714ZM490.618 36C499.179 36 506.118 29.0604 506.118 20.5C506.118 11.9396 499.179 5 490.618 5C482.058 5 475.118 11.9396 475.118 20.5C475.118 29.0604 482.058 36 490.618 36Z" fill="#C8C8C8"/>
</svg>
