<svg xmlns="http://www.w3.org/2000/svg" width="25" height="23" viewBox="0 0 25 23" fill="none">
  <path d="M21.3999 19.0255H3.69224C3.10327 19.0248 2.53864 18.7905 2.12218 18.374C1.70572 17.9576 1.47144 17.3929 1.4707 16.804V7.21824C1.47144 6.62928 1.70572 6.06465 2.12218 5.64819C2.53864 5.23173 3.10327 4.99744 3.69224 4.9967H21.3999C21.9889 4.99744 22.5535 5.23173 22.97 5.64819C23.3864 6.06465 23.6207 6.62928 23.6214 7.21824V16.804C23.6207 17.3929 23.3864 17.9576 22.97 18.374C22.5535 18.7905 21.9889 19.0248 21.3999 19.0255Z" fill="black"/>
  <path fill-rule="evenodd" clip-rule="evenodd" d="M5.90085 20.5022C5.90085 20.0944 6.23142 19.7639 6.63921 19.7639H18.4529C18.8607 19.7639 19.1913 20.0944 19.1913 20.5022C19.1913 20.91 18.8607 21.2406 18.4529 21.2406H6.63921C6.23142 21.2406 5.90085 20.91 5.90085 20.5022Z" fill="black"/>
  <path fill-rule="evenodd" clip-rule="evenodd" d="M10.2206 8.16723C10.444 8.02185 10.7425 7.99465 11.0059 8.15197L16.1726 11.2442C16.4154 11.3895 16.5243 11.6457 16.5243 11.8803C16.5243 12.115 16.4154 12.3711 16.1727 12.5164L11.0062 15.6085C10.7428 15.7658 10.444 15.7388 10.2206 15.5934C10.0001 15.4499 9.85547 15.1956 9.85547 14.9022V8.85841C9.85547 8.56505 10.0001 8.31078 10.2206 8.16723Z" fill="white" stroke="white" stroke-width="0.211765" stroke-miterlimit="10"/>
</svg>