<svg xmlns="http://www.w3.org/2000/svg" width="22" height="20" viewBox="0 0 22 20" fill="none">
  <path d="M18.8326 16.6227H3.24987C2.73158 16.622 2.23471 16.4159 1.86823 16.0494C1.50174 15.6829 1.29557 15.186 1.29492 14.6677V6.23229C1.29557 5.71401 1.50174 5.21713 1.86823 4.85065C2.23471 4.48416 2.73158 4.27799 3.24987 4.27734H18.8326C19.3509 4.27799 19.8478 4.48416 20.2143 4.85065C20.5807 5.21713 20.7869 5.71401 20.7876 6.23229V14.6677C20.7869 15.186 20.5807 15.6829 20.2143 16.0494C19.8478 16.4159 19.3509 16.622 18.8326 16.6227Z" fill="#003D72"/>
  <path fill-rule="evenodd" clip-rule="evenodd" d="M5.19345 17.9222C5.19345 17.5633 5.48436 17.2724 5.84321 17.2724H16.2393C16.5981 17.2724 16.889 17.5633 16.889 17.9222C16.889 18.281 16.5981 18.572 16.2393 18.572H5.84321C5.48436 18.572 5.19345 18.281 5.19345 17.9222Z" fill="#003D72"/>
  <path fill-rule="evenodd" clip-rule="evenodd" d="M8.99519 7.06803C9.19175 6.9401 9.4544 6.91616 9.68624 7.0546L9.68637 7.05468L14.2329 9.7758C14.2329 9.77582 14.2329 9.77583 14.2329 9.77584C14.4466 9.90368 14.5424 10.129 14.5424 10.3356C14.5424 10.5421 14.4466 10.7674 14.2329 10.8953C14.2329 10.8953 14.2329 10.8953 14.2329 10.8953L9.6865 13.6164L9.68637 13.6164L9.68624 13.6165C9.4544 13.7549 9.19175 13.731 8.99519 13.6031C8.8011 13.4768 8.67383 13.253 8.67383 12.9948V7.67627C8.67383 7.41812 8.8011 7.19435 8.99519 7.06803ZM9.31531 7.55991C9.28932 7.57682 9.2607 7.61458 9.2607 7.67627V12.9948C9.2607 13.0565 9.28932 13.0943 9.31531 13.1112C9.32852 13.1198 9.34052 13.1229 9.34981 13.1232C9.358 13.1235 9.36955 13.1221 9.38536 13.1126L13.9316 10.3917C13.9402 10.3865 13.9555 10.3705 13.9555 10.3356C13.9555 10.3006 13.9402 10.2846 13.9316 10.2794L9.38536 7.55848C9.38533 7.55847 9.38531 7.55845 9.38528 7.55844C9.36951 7.54903 9.35799 7.54757 9.34981 7.54788C9.34052 7.54823 9.32852 7.55131 9.31531 7.55991Z" fill="white" stroke="white" stroke-width="0.211765" stroke-miterlimit="10"/>
</svg>