<svg xmlns="http://www.w3.org/2000/svg" width="25" height="23" viewBox="0 0 25 23" fill="none">
  <g clip-path="url(#clip0_1784_13225)">
    <path d="M22.4851 18.9083H2.60653C2.60631 18.9083 2.60609 18.9083 2.60587 18.9083C2.16783 18.9076 1.74792 18.7333 1.43817 18.4235L0.842758 19.019L1.43817 18.4235C1.12837 18.1137 0.954036 17.6938 0.953366 17.2557V6.49473C0.954036 6.05662 1.12837 5.63664 1.43817 5.32684C1.74797 5.01704 2.16795 4.84271 2.60606 4.84204H22.4856C22.9237 4.84271 23.3437 5.01704 23.6535 5.32684C23.9634 5.63675 24.1378 6.05692 24.1383 6.4952V17.2552C24.1378 17.6935 23.9634 18.1136 23.6535 18.4235C23.3438 18.7333 22.9238 18.9076 22.4858 18.9083C22.4856 18.9083 22.4854 18.9083 22.4851 18.9083Z" stroke="black" stroke-width="1.68408" stroke-miterlimit="10" stroke-linecap="round"/>
    <path d="M16.0412 11.4791L16.041 11.4792M16.0412 11.4791L16.0414 11.479L16.041 11.4792M16.0412 11.4791C16.0412 11.4791 16.0411 11.4792 16.041 11.4792M16.0412 11.4791L16.041 11.4792M10.6481 8.74981L15.6247 11.7284L10.6481 14.7069V8.74981Z" fill="black" stroke="black" stroke-width="2.24543" stroke-miterlimit="10"/>
  </g>
  <defs>
    <clipPath id="clip0_1784_13225">
      <rect width="25" height="22.2222" fill="white" transform="translate(0 0.388916)"/>
    </clipPath>
  </defs>
</svg>