<svg xmlns="http://www.w3.org/2000/svg" width="22" height="20" viewBox="0 0 22 20" fill="none">
  <path d="M18.8312 16.1227H3.2497C2.86381 16.1222 2.49385 15.9687 2.22099 15.6958L1.86743 16.0494L2.22099 15.6958C1.94818 15.423 1.79468 15.0532 1.79413 14.6674V6.23263C1.79468 5.84684 1.94818 5.477 2.22099 5.2042C2.49379 4.9314 2.86362 4.7779 3.24941 4.77734H18.8315C19.2173 4.7779 19.5871 4.9314 19.8599 5.2042C20.1328 5.47707 20.2863 5.84702 20.2868 6.23292V14.6671C20.2863 15.053 20.1328 15.423 19.8599 15.6958C19.587 15.9687 19.2171 16.1222 18.8312 16.1227ZM5.69266 17.9222C5.69266 17.8395 5.75971 17.7724 5.84241 17.7724H16.2385C16.3212 17.7724 16.3882 17.8395 16.3882 17.9222C16.3882 18.0049 16.3212 18.072 16.2385 18.072H5.84241C5.75971 18.072 5.69266 18.0049 5.69266 17.9222Z" stroke="#0074D9" stroke-miterlimit="10" stroke-linecap="round"/>
  <mask id="path-2-inside-1_2657_14957" fill="white">
    <path fill-rule="evenodd" clip-rule="evenodd" d="M8.99375 7.06803C9.19032 6.9401 9.45296 6.91616 9.68481 7.0546L9.68494 7.05468L14.2315 9.7758C14.2315 9.77582 14.2315 9.77583 14.2315 9.77584C14.4452 9.90368 14.541 10.129 14.541 10.3356C14.541 10.5421 14.4452 10.7674 14.2315 10.8953C14.2315 10.8953 14.2315 10.8953 14.2315 10.8953L9.68506 13.6164L9.68494 13.6164L9.68481 13.6165C9.45296 13.7549 9.19032 13.731 8.99375 13.6031C8.79966 13.4768 8.67239 13.253 8.67239 12.9948V7.67627C8.67239 7.41812 8.79966 7.19435 8.99375 7.06803ZM9.31388 7.55991C9.28789 7.57682 9.25927 7.61458 9.25927 7.67627V12.9948C9.25927 13.0565 9.28789 13.0943 9.31388 13.1112C9.32708 13.1198 9.33909 13.1229 9.34838 13.1232C9.35656 13.1235 9.36811 13.1221 9.38392 13.1126L13.9302 10.3917C13.9388 10.3865 13.9541 10.3705 13.9541 10.3356C13.9541 10.3006 13.9388 10.2846 13.9302 10.2794L9.38392 7.55848C9.3839 7.55847 9.38388 7.55845 9.38385 7.55844C9.36808 7.54903 9.35655 7.54757 9.34838 7.54788C9.33909 7.54823 9.32708 7.55131 9.31388 7.55991Z"/>
  </mask>
  <path fill-rule="evenodd" clip-rule="evenodd" d="M8.99375 7.06803C9.19032 6.9401 9.45296 6.91616 9.68481 7.0546L9.68494 7.05468L14.2315 9.7758C14.2315 9.77582 14.2315 9.77583 14.2315 9.77584C14.4452 9.90368 14.541 10.129 14.541 10.3356C14.541 10.5421 14.4452 10.7674 14.2315 10.8953C14.2315 10.8953 14.2315 10.8953 14.2315 10.8953L9.68506 13.6164L9.68494 13.6164L9.68481 13.6165C9.45296 13.7549 9.19032 13.731 8.99375 13.6031C8.79966 13.4768 8.67239 13.253 8.67239 12.9948V7.67627C8.67239 7.41812 8.79966 7.19435 8.99375 7.06803ZM9.31388 7.55991C9.28789 7.57682 9.25927 7.61458 9.25927 7.67627V12.9948C9.25927 13.0565 9.28789 13.0943 9.31388 13.1112C9.32708 13.1198 9.33909 13.1229 9.34838 13.1232C9.35656 13.1235 9.36811 13.1221 9.38392 13.1126L13.9302 10.3917C13.9388 10.3865 13.9541 10.3705 13.9541 10.3356C13.9541 10.3006 13.9388 10.2846 13.9302 10.2794L9.38392 7.55848C9.3839 7.55847 9.38388 7.55845 9.38385 7.55844C9.36808 7.54903 9.35655 7.54757 9.34838 7.54788C9.33909 7.54823 9.32708 7.55131 9.31388 7.55991Z" fill="#0074D9"/>
  <path d="M9.68481 7.0546L9.17212 7.91318L9.17227 7.91327L9.68481 7.0546ZM8.99375 7.06803L9.53923 7.90616H9.53923L8.99375 7.06803ZM9.68494 7.05468L10.1985 6.19662L10.1975 6.19602L9.68494 7.05468ZM14.2315 9.7758L13.7179 10.6339L13.7187 10.6343L14.2315 9.7758ZM14.2315 9.77584L14.745 8.91772L14.7443 8.9173L14.2315 9.77584ZM14.2315 10.8953L14.7443 11.7538L14.745 11.7534L14.2315 10.8953ZM14.2315 10.8953L13.7187 10.0368L13.7179 10.0372L14.2315 10.8953ZM9.68506 13.6164L9.17151 12.7583L9.16966 12.7594L9.68506 13.6164ZM9.68494 13.6164L10.1971 14.4753L10.2003 14.4734L9.68494 13.6164ZM9.68481 13.6165L9.17262 12.7576L9.17212 12.7579L9.68481 13.6165ZM8.99375 13.6031L9.53923 12.7649L9.53923 12.7649L8.99375 13.6031ZM9.31388 7.55991L8.7684 6.72178L8.7684 6.72178L9.31388 7.55991ZM9.31388 13.1112L9.85937 12.2731L9.85935 12.2731L9.31388 13.1112ZM9.34838 13.1232L9.38642 12.124L9.38637 12.124L9.34838 13.1232ZM9.38392 13.1126L9.89663 13.9712L9.89748 13.9707L9.38392 13.1126ZM13.9302 10.3917L13.4168 9.5335L13.4166 9.5336L13.9302 10.3917ZM13.9302 10.2794L13.4166 11.1375L13.4168 11.1376L13.9302 10.2794ZM9.38392 7.55848L9.89748 6.70042L9.8968 6.70002L9.38392 7.55848ZM9.38385 7.55844L9.89637 6.69976L9.89587 6.69946L9.38385 7.55844ZM9.34838 7.54788L9.31034 6.5486L9.31033 6.5486L9.34838 7.54788ZM10.1975 6.19603C9.61159 5.84616 8.93821 5.91104 8.44827 6.22991L9.53923 7.90616C9.49183 7.93701 9.43263 7.95802 9.3652 7.96066C9.29385 7.96346 9.22529 7.94493 9.17212 7.91318L10.1975 6.19603ZM10.1975 6.19602L10.1974 6.19594L9.17227 7.91327L9.17239 7.91334L10.1975 6.19602ZM14.7443 8.9173L14.7442 8.91726L13.7187 10.6343L13.7188 10.6344L14.7443 8.9173ZM15.541 10.3356C15.541 9.83964 15.3103 9.25597 14.745 8.91772L13.7181 10.634C13.58 10.5514 13.541 10.4184 13.541 10.3356H15.541ZM14.745 11.7534C15.3103 11.4151 15.541 10.8315 15.541 10.3356H13.541C13.541 10.2527 13.58 10.1197 13.7181 10.0371L14.745 11.7534ZM14.7442 11.7538L14.7443 11.7538L13.7188 10.0367L13.7187 10.0368L14.7442 11.7538ZM10.1986 14.4744L14.745 11.7534L13.7179 10.0372L9.17151 12.7583L10.1986 14.4744ZM10.2003 14.4734L10.2005 14.4733L9.16966 12.7594L9.16954 12.7595L10.2003 14.4734ZM10.197 14.4754L10.1971 14.4753L9.17274 12.7576L9.17262 12.7576L10.197 14.4754ZM8.44827 14.4412C8.93821 14.7601 9.61159 14.8249 10.1975 14.4751L9.17212 12.7579C9.22529 12.7262 9.29385 12.7077 9.3652 12.7104C9.43263 12.7131 9.49183 12.7341 9.53923 12.7649L8.44827 14.4412ZM7.67239 12.9948C7.67239 13.5876 7.96763 14.1284 8.44827 14.4412L9.53923 12.7649C9.63169 12.8251 9.67239 12.9184 9.67239 12.9948H7.67239ZM7.67239 7.67627V12.9948H9.67239V7.67627H7.67239ZM8.44827 6.22991C7.96763 6.54272 7.67239 7.08349 7.67239 7.67627H9.67239C9.67239 7.75274 9.63169 7.84598 9.53923 7.90616L8.44827 6.22991ZM10.2593 7.67627C10.2593 7.95014 10.1191 8.22895 9.85936 8.39803L8.7684 6.72178C8.45664 6.92469 8.25927 7.27903 8.25927 7.67627H10.2593ZM10.2593 12.9948V7.67627H8.25927V12.9948H10.2593ZM9.85935 12.2731C10.1191 12.4421 10.2593 12.721 10.2593 12.9948H8.25927C8.25927 13.3921 8.45663 13.7464 8.76841 13.9493L9.85935 12.2731ZM9.38637 12.124C9.56691 12.1308 9.729 12.1882 9.85937 12.2731L8.76839 13.9493C8.92517 14.0514 9.11126 14.1149 9.31038 14.1225L9.38637 12.124ZM8.87122 12.2541C8.9367 12.215 9.01825 12.1777 9.11492 12.1529C9.21432 12.1274 9.30703 12.1209 9.38642 12.124L9.31033 14.1225C9.51304 14.1302 9.71574 14.0792 9.89663 13.9712L8.87122 12.2541ZM12.9541 10.3356C12.9541 10.0465 13.1005 9.72274 13.4168 9.5335L14.4436 11.2498C14.7771 11.0503 14.9541 10.6944 14.9541 10.3356H12.9541ZM13.4168 11.1376C13.1005 10.9484 12.9541 10.6246 12.9541 10.3356H14.9541C14.9541 9.97666 14.7771 9.6208 14.4436 9.42129L13.4168 11.1376ZM8.87133 8.41711L8.87105 8.41694L9.8968 6.70002L9.89637 6.69976L8.87133 8.41711ZM9.38642 8.54715C9.30716 8.55017 9.21459 8.54369 9.11535 8.5183C9.01882 8.49359 8.93733 8.45645 8.87183 8.41741L9.89587 6.69946C9.71508 6.5917 9.51266 6.5409 9.31034 6.5486L9.38642 8.54715ZM9.85936 8.39803C9.72898 8.48289 9.56691 8.54028 9.38642 8.54715L9.31033 6.5486C9.11126 6.55618 8.92519 6.61974 8.7684 6.72178L9.85936 8.39803ZM14.745 8.91775L10.1985 6.19662L9.17138 7.91274L13.7179 10.6339L14.745 8.91775ZM13.4166 9.5336L8.87037 12.2546L9.89748 13.9707L14.4437 11.2497L13.4166 9.5336ZM8.87037 8.41654L13.4166 11.1375L14.4437 9.42139L9.89748 6.70042L8.87037 8.41654Z" fill="#0074D9" mask="url(#path-2-inside-1_2657_14957)"/>
</svg>