<svg width="18" height="17" viewBox="0 0 18 17" fill="none" xmlns="http://www.w3.org/2000/svg">
<path d="M15.4076 13.9181H2.6581C2.23405 13.9176 1.82751 13.7489 1.52766 13.4491C1.22781 13.1492 1.05912 12.7427 1.05859 12.3186V5.41689C1.05912 4.99283 1.22781 4.5863 1.52766 4.28645C1.82751 3.9866 2.23405 3.81791 2.6581 3.81738H15.4076C15.8317 3.81791 16.2382 3.9866 16.5381 4.28645C16.8379 4.5863 17.0066 4.99283 17.0071 5.41689V12.3186C17.0066 12.7427 16.8379 13.1492 16.5381 13.4491C16.2382 13.7489 15.8317 13.9176 15.4076 13.9181Z" fill="#003D72"/>
<path fill-rule="evenodd" clip-rule="evenodd" d="M4.2483 14.9814C4.2483 14.6877 4.48631 14.4497 4.77992 14.4497H13.2858C13.5794 14.4497 13.8174 14.6877 13.8174 14.9814C13.8174 15.275 13.5794 15.513 13.2858 15.513H4.77992C4.48631 15.513 4.2483 15.275 4.2483 14.9814Z" fill="#003D72"/>
<path fill-rule="evenodd" clip-rule="evenodd" d="M7.35814 6.10032C7.51897 5.99565 7.73386 5.97606 7.92356 6.08933L7.92366 6.08939L11.6435 8.31577C11.6436 8.31578 11.6436 8.31579 11.6436 8.3158C11.8184 8.42039 11.8968 8.60478 11.8968 8.77374C11.8968 8.94271 11.8184 9.1271 11.6436 9.23169C11.6436 9.2317 11.6436 9.23171 11.6435 9.23172L7.92376 11.458L7.92366 11.4581L7.92356 11.4582C7.73386 11.5714 7.51897 11.5518 7.35814 11.4472C7.19934 11.3438 7.09521 11.1607 7.09521 10.9495V6.59797C7.09521 6.38675 7.19934 6.20367 7.35814 6.10032ZM7.62007 6.50276C7.5988 6.5166 7.57539 6.5475 7.57539 6.59797V10.9495C7.57539 11 7.5988 11.0309 7.62007 11.0447C7.63087 11.0518 7.64069 11.0543 7.64829 11.0546C7.65499 11.0548 7.66444 11.0536 7.67738 11.0459L11.397 8.81965C11.4041 8.81545 11.4166 8.80231 11.4166 8.77374C11.4166 8.74518 11.4041 8.73204 11.397 8.72784L7.67738 6.50159C7.67736 6.50158 7.67734 6.50157 7.67732 6.50156C7.66441 6.49387 7.65498 6.49266 7.64829 6.49292C7.64069 6.49321 7.63087 6.49573 7.62007 6.50276Z" fill="white" stroke="white" stroke-width="0.211765" stroke-miterlimit="10"/>
</svg>
