<svg width="17" height="17" viewBox="0 0 17 17" fill="none" xmlns="http://www.w3.org/2000/svg">
<mask id="path-1-inside-1_204_820" fill="white">
<path d="M8.4247 6.72475C8.44693 6.74017 8.47334 6.74844 8.5004 6.74844C8.52746 6.74844 8.55387 6.74017 8.5761 6.72475C9.19242 6.30308 9.8947 6.02356 10.6322 5.90636C11.3697 5.78917 12.124 5.83723 12.8407 6.04707C12.861 6.05319 12.8825 6.05435 12.9033 6.05048C12.9241 6.0466 12.9437 6.0378 12.9605 6.0248C12.9772 6.0118 12.9906 5.99498 12.9995 5.97575C13.0084 5.95652 13.0126 5.93544 13.0117 5.91426C12.9098 3.515 10.9242 1.59387 8.5004 1.59387C6.07657 1.59387 4.09102 3.515 3.98909 5.91526C3.98819 5.93643 3.99237 5.95752 4.00128 5.97675C4.01019 5.99598 4.02358 6.01279 4.04031 6.02579C4.05705 6.03879 4.07666 6.0476 4.0975 6.05147C4.11833 6.05535 4.13979 6.05418 4.16009 6.04807C4.87676 5.83823 5.63109 5.79017 6.36859 5.90736C7.1061 6.02456 7.80838 6.30308 8.4247 6.72475Z"/>
<path d="M13.458 7.05778C13.3087 7.8298 12.9817 8.55646 12.5029 9.1802C12.0241 9.80394 11.4067 10.3076 10.6994 10.6514C10.6764 10.6623 10.657 10.6797 10.6435 10.7015C10.6301 10.7232 10.6232 10.7483 10.6237 10.7739C10.6237 10.8127 10.6254 10.8516 10.6254 10.8907C10.6257 11.5736 10.4871 12.2493 10.218 12.8769C9.94882 13.5044 9.5548 14.0707 9.05987 14.5411C9.04507 14.5551 9.03368 14.5722 9.02657 14.5913C9.01947 14.6104 9.01684 14.6308 9.0189 14.6511C9.02095 14.6713 9.02763 14.6908 9.03842 14.7081C9.04921 14.7254 9.06382 14.7399 9.08112 14.7506C9.78636 15.1803 10.5964 15.4072 11.4223 15.4064C13.8152 15.4064 15.8748 13.4049 15.9379 11.0123C15.9595 10.1943 15.7585 9.38576 15.3564 8.67308C14.9543 7.9604 14.3662 7.37031 13.6549 6.96581C13.6364 6.95519 13.6156 6.94919 13.5943 6.94829C13.573 6.94739 13.5518 6.95163 13.5325 6.96065C13.5132 6.96967 13.4964 6.98321 13.4834 7.00011C13.4704 7.01702 13.4617 7.03679 13.458 7.05778Z"/>
<path d="M12.9685 6.7626C12.9733 6.73163 12.9669 6.69997 12.9506 6.67324C12.9342 6.6465 12.909 6.62641 12.8792 6.61651C12.2543 6.40341 11.5903 6.33009 10.9339 6.40175C10.2776 6.47341 9.64498 6.68829 9.08079 7.03122C9.0636 7.04194 9.0491 7.05646 9.03839 7.07366C9.02768 7.09086 9.02104 7.11028 9.01899 7.13043C9.01694 7.15059 9.01953 7.17095 9.02656 7.18995C9.03358 7.20895 9.04487 7.22609 9.05954 7.24006C9.82144 7.96502 10.3377 8.90999 10.5361 9.9428C10.54 9.96369 10.5489 9.98332 10.562 10.0001C10.5751 10.0168 10.592 10.0302 10.6113 10.039C10.6306 10.0479 10.6518 10.0519 10.673 10.0509C10.6943 10.0499 10.7149 10.0438 10.7333 10.0331C11.3295 9.69316 11.8406 9.22205 12.2278 8.65544C12.6151 8.08883 12.8684 7.44155 12.9685 6.7626Z"/>
<path d="M6.3754 10.8907C6.3754 10.8516 6.3754 10.8127 6.37706 10.7739C6.37756 10.7483 6.37068 10.7232 6.35726 10.7015C6.34383 10.6797 6.32442 10.6623 6.30136 10.6514C5.59414 10.3076 4.97668 9.80394 4.49789 9.1802C4.01909 8.55646 3.69211 7.8298 3.54284 7.05778C3.53902 7.03704 3.53031 7.0175 3.51744 7.00079C3.50457 6.98408 3.48791 6.97068 3.46883 6.96169C3.44974 6.9527 3.4288 6.94839 3.40772 6.9491C3.38664 6.94982 3.36603 6.95554 3.34761 6.96581C2.63629 7.37031 2.04818 7.9604 1.64608 8.67308C1.24398 9.38576 1.04299 10.1943 1.06456 11.0123C1.12931 13.4049 3.1879 15.4064 5.58018 15.4064C6.40546 15.4069 7.21492 15.18 7.91968 14.7506C7.93698 14.7399 7.95159 14.7254 7.96238 14.7081C7.97317 14.6908 7.97985 14.6713 7.9819 14.6511C7.98395 14.6308 7.98133 14.6104 7.97422 14.5913C7.96712 14.5722 7.95573 14.5551 7.94093 14.5411C7.446 14.0707 7.05198 13.5044 6.78284 12.8769C6.5137 12.2493 6.37507 11.5736 6.3754 10.8907Z"/>
<path d="M5.57852 6.37512C5.08288 6.37469 4.59059 6.45625 4.12157 6.61651C4.09184 6.62641 4.06657 6.6465 4.05023 6.67324C4.03388 6.69997 4.02751 6.73163 4.03225 6.7626C4.13244 7.44155 4.38574 8.08883 4.77299 8.65544C5.16024 9.22205 5.6713 9.69316 6.26749 10.0331C6.28587 10.0438 6.30654 10.0499 6.32777 10.0509C6.349 10.0519 6.37016 10.0479 6.38948 10.039C6.40881 10.0302 6.42572 10.0168 6.43882 10.0001C6.45191 9.98332 6.46079 9.96369 6.46472 9.9428C6.66311 8.90999 7.17936 7.96502 7.94126 7.24006C7.95593 7.22609 7.96721 7.20895 7.97424 7.18995C7.98127 7.17095 7.98386 7.15059 7.98181 7.13043C7.97975 7.11028 7.97312 7.09086 7.96241 7.07366C7.9517 7.05646 7.93719 7.04194 7.92001 7.03122C7.21475 6.60123 6.40452 6.3742 5.57852 6.37512Z"/>
<path d="M8.5004 11.1564C8.02031 11.1567 7.54265 11.0883 7.08196 10.9532C7.06167 10.9471 7.04021 10.9459 7.01937 10.9498C6.99853 10.9536 6.97893 10.9624 6.96219 10.9754C6.94545 10.9884 6.93207 11.0053 6.92316 11.0245C6.91424 11.0437 6.91006 11.0648 6.91096 11.086C6.93671 11.6874 7.08273 12.2776 7.34038 12.8216C7.59803 13.3657 7.9621 13.8526 8.41108 14.2536C8.43553 14.2758 8.46737 14.2881 8.5004 14.2881C8.53343 14.2881 8.56527 14.2758 8.58972 14.2536C9.0387 13.8526 9.40277 13.3657 9.66042 12.8216C9.91807 12.2776 10.0641 11.6874 10.0898 11.086C10.0907 11.0648 10.0866 11.0437 10.0776 11.0245C10.0687 11.0053 10.0553 10.9884 10.0386 10.9754C10.0219 10.9624 10.0023 10.9536 9.98143 10.9498C9.96059 10.9459 9.93913 10.9471 9.91884 10.9532C9.45815 11.0883 8.98049 11.1567 8.5004 11.1564Z"/>
<path d="M10.0467 10.2376C9.8932 9.19206 9.37771 8.23347 8.59005 7.52893C8.56536 7.50695 8.53346 7.4948 8.5004 7.4948C8.46734 7.4948 8.43544 7.50695 8.41075 7.52893C7.62308 8.23347 7.1076 9.19206 6.95413 10.2376C6.94939 10.2686 6.95576 10.3003 6.9721 10.327C6.98844 10.3537 7.01372 10.3738 7.04345 10.3837C7.98809 10.7056 9.01271 10.7056 9.95735 10.3837C9.98708 10.3738 10.0124 10.3537 10.0287 10.327C10.045 10.3003 10.0514 10.2686 10.0467 10.2376Z"/>
</mask>
<path d="M8.4247 6.72475C8.44693 6.74017 8.47334 6.74844 8.5004 6.74844C8.52746 6.74844 8.55387 6.74017 8.5761 6.72475C9.19242 6.30308 9.8947 6.02356 10.6322 5.90636C11.3697 5.78917 12.124 5.83723 12.8407 6.04707C12.861 6.05319 12.8825 6.05435 12.9033 6.05048C12.9241 6.0466 12.9437 6.0378 12.9605 6.0248C12.9772 6.0118 12.9906 5.99498 12.9995 5.97575C13.0084 5.95652 13.0126 5.93544 13.0117 5.91426C12.9098 3.515 10.9242 1.59387 8.5004 1.59387C6.07657 1.59387 4.09102 3.515 3.98909 5.91526C3.98819 5.93643 3.99237 5.95752 4.00128 5.97675C4.01019 5.99598 4.02358 6.01279 4.04031 6.02579C4.05705 6.03879 4.07666 6.0476 4.0975 6.05147C4.11833 6.05535 4.13979 6.05418 4.16009 6.04807C4.87676 5.83823 5.63109 5.79017 6.36859 5.90736C7.1061 6.02456 7.80838 6.30308 8.4247 6.72475Z" fill="#003D72"/>
<path d="M13.458 7.05778C13.3087 7.8298 12.9817 8.55646 12.5029 9.1802C12.0241 9.80394 11.4067 10.3076 10.6994 10.6514C10.6764 10.6623 10.657 10.6797 10.6435 10.7015C10.6301 10.7232 10.6232 10.7483 10.6237 10.7739C10.6237 10.8127 10.6254 10.8516 10.6254 10.8907C10.6257 11.5736 10.4871 12.2493 10.218 12.8769C9.94882 13.5044 9.5548 14.0707 9.05987 14.5411C9.04507 14.5551 9.03368 14.5722 9.02657 14.5913C9.01947 14.6104 9.01684 14.6308 9.0189 14.6511C9.02095 14.6713 9.02763 14.6908 9.03842 14.7081C9.04921 14.7254 9.06382 14.7399 9.08112 14.7506C9.78636 15.1803 10.5964 15.4072 11.4223 15.4064C13.8152 15.4064 15.8748 13.4049 15.9379 11.0123C15.9595 10.1943 15.7585 9.38576 15.3564 8.67308C14.9543 7.9604 14.3662 7.37031 13.6549 6.96581C13.6364 6.95519 13.6156 6.94919 13.5943 6.94829C13.573 6.94739 13.5518 6.95163 13.5325 6.96065C13.5132 6.96967 13.4964 6.98321 13.4834 7.00011C13.4704 7.01702 13.4617 7.03679 13.458 7.05778Z" fill="#003D72"/>
<path d="M12.9685 6.7626C12.9733 6.73163 12.9669 6.69997 12.9506 6.67324C12.9342 6.6465 12.909 6.62641 12.8792 6.61651C12.2543 6.40341 11.5903 6.33009 10.9339 6.40175C10.2776 6.47341 9.64498 6.68829 9.08079 7.03122C9.0636 7.04194 9.0491 7.05646 9.03839 7.07366C9.02768 7.09086 9.02104 7.11028 9.01899 7.13043C9.01694 7.15059 9.01953 7.17095 9.02656 7.18995C9.03358 7.20895 9.04487 7.22609 9.05954 7.24006C9.82144 7.96502 10.3377 8.90999 10.5361 9.9428C10.54 9.96369 10.5489 9.98332 10.562 10.0001C10.5751 10.0168 10.592 10.0302 10.6113 10.039C10.6306 10.0479 10.6518 10.0519 10.673 10.0509C10.6943 10.0499 10.7149 10.0438 10.7333 10.0331C11.3295 9.69316 11.8406 9.22205 12.2278 8.65544C12.6151 8.08883 12.8684 7.44155 12.9685 6.7626Z" fill="#003D72"/>
<path d="M6.3754 10.8907C6.3754 10.8516 6.3754 10.8127 6.37706 10.7739C6.37756 10.7483 6.37068 10.7232 6.35726 10.7015C6.34383 10.6797 6.32442 10.6623 6.30136 10.6514C5.59414 10.3076 4.97668 9.80394 4.49789 9.1802C4.01909 8.55646 3.69211 7.8298 3.54284 7.05778C3.53902 7.03704 3.53031 7.0175 3.51744 7.00079C3.50457 6.98408 3.48791 6.97068 3.46883 6.96169C3.44974 6.9527 3.4288 6.94839 3.40772 6.9491C3.38664 6.94982 3.36603 6.95554 3.34761 6.96581C2.63629 7.37031 2.04818 7.9604 1.64608 8.67308C1.24398 9.38576 1.04299 10.1943 1.06456 11.0123C1.12931 13.4049 3.1879 15.4064 5.58018 15.4064C6.40546 15.4069 7.21492 15.18 7.91968 14.7506C7.93698 14.7399 7.95159 14.7254 7.96238 14.7081C7.97317 14.6908 7.97985 14.6713 7.9819 14.6511C7.98395 14.6308 7.98133 14.6104 7.97422 14.5913C7.96712 14.5722 7.95573 14.5551 7.94093 14.5411C7.446 14.0707 7.05198 13.5044 6.78284 12.8769C6.5137 12.2493 6.37507 11.5736 6.3754 10.8907Z" fill="#003D72"/>
<path d="M5.57852 6.37512C5.08288 6.37469 4.59059 6.45625 4.12157 6.61651C4.09184 6.62641 4.06657 6.6465 4.05023 6.67324C4.03388 6.69997 4.02751 6.73163 4.03225 6.7626C4.13244 7.44155 4.38574 8.08883 4.77299 8.65544C5.16024 9.22205 5.6713 9.69316 6.26749 10.0331C6.28587 10.0438 6.30654 10.0499 6.32777 10.0509C6.349 10.0519 6.37016 10.0479 6.38948 10.039C6.40881 10.0302 6.42572 10.0168 6.43882 10.0001C6.45191 9.98332 6.46079 9.96369 6.46472 9.9428C6.66311 8.90999 7.17936 7.96502 7.94126 7.24006C7.95593 7.22609 7.96721 7.20895 7.97424 7.18995C7.98127 7.17095 7.98386 7.15059 7.98181 7.13043C7.97975 7.11028 7.97312 7.09086 7.96241 7.07366C7.9517 7.05646 7.93719 7.04194 7.92001 7.03122C7.21475 6.60123 6.40452 6.3742 5.57852 6.37512Z" fill="#003D72"/>
<path d="M8.5004 11.1564C8.02031 11.1567 7.54265 11.0883 7.08196 10.9532C7.06167 10.9471 7.04021 10.9459 7.01937 10.9498C6.99853 10.9536 6.97893 10.9624 6.96219 10.9754C6.94545 10.9884 6.93207 11.0053 6.92316 11.0245C6.91424 11.0437 6.91006 11.0648 6.91096 11.086C6.93671 11.6874 7.08273 12.2776 7.34038 12.8216C7.59803 13.3657 7.9621 13.8526 8.41108 14.2536C8.43553 14.2758 8.46737 14.2881 8.5004 14.2881C8.53343 14.2881 8.56527 14.2758 8.58972 14.2536C9.0387 13.8526 9.40277 13.3657 9.66042 12.8216C9.91807 12.2776 10.0641 11.6874 10.0898 11.086C10.0907 11.0648 10.0866 11.0437 10.0776 11.0245C10.0687 11.0053 10.0553 10.9884 10.0386 10.9754C10.0219 10.9624 10.0023 10.9536 9.98143 10.9498C9.96059 10.9459 9.93913 10.9471 9.91884 10.9532C9.45815 11.0883 8.98049 11.1567 8.5004 11.1564Z" fill="#003D72"/>
<path d="M10.0467 10.2376C9.8932 9.19206 9.37771 8.23347 8.59005 7.52893C8.56536 7.50695 8.53346 7.4948 8.5004 7.4948C8.46734 7.4948 8.43544 7.50695 8.41075 7.52893C7.62308 8.23347 7.1076 9.19206 6.95413 10.2376C6.94939 10.2686 6.95576 10.3003 6.9721 10.327C6.98844 10.3537 7.01372 10.3738 7.04345 10.3837C7.98809 10.7056 9.01271 10.7056 9.95735 10.3837C9.98708 10.3738 10.0124 10.3537 10.0287 10.327C10.045 10.3003 10.0514 10.2686 10.0467 10.2376Z" fill="#003D72"/>
<path d="M8.4247 6.72475C8.44693 6.74017 8.47334 6.74844 8.5004 6.74844C8.52746 6.74844 8.55387 6.74017 8.5761 6.72475C9.19242 6.30308 9.8947 6.02356 10.6322 5.90636C11.3697 5.78917 12.124 5.83723 12.8407 6.04707C12.861 6.05319 12.8825 6.05435 12.9033 6.05048C12.9241 6.0466 12.9437 6.0378 12.9605 6.0248C12.9772 6.0118 12.9906 5.99498 12.9995 5.97575C13.0084 5.95652 13.0126 5.93544 13.0117 5.91426C12.9098 3.515 10.9242 1.59387 8.5004 1.59387C6.07657 1.59387 4.09102 3.515 3.98909 5.91526C3.98819 5.93643 3.99237 5.95752 4.00128 5.97675C4.01019 5.99598 4.02358 6.01279 4.04031 6.02579C4.05705 6.03879 4.07666 6.0476 4.0975 6.05147C4.11833 6.05535 4.13979 6.05418 4.16009 6.04807C4.87676 5.83823 5.63109 5.79017 6.36859 5.90736C7.1061 6.02456 7.80838 6.30308 8.4247 6.72475Z" stroke="white" stroke-width="0.4" mask="url(#path-1-inside-1_204_820)"/>
<path d="M13.458 7.05778C13.3087 7.8298 12.9817 8.55646 12.5029 9.1802C12.0241 9.80394 11.4067 10.3076 10.6994 10.6514C10.6764 10.6623 10.657 10.6797 10.6435 10.7015C10.6301 10.7232 10.6232 10.7483 10.6237 10.7739C10.6237 10.8127 10.6254 10.8516 10.6254 10.8907C10.6257 11.5736 10.4871 12.2493 10.218 12.8769C9.94882 13.5044 9.5548 14.0707 9.05987 14.5411C9.04507 14.5551 9.03368 14.5722 9.02657 14.5913C9.01947 14.6104 9.01684 14.6308 9.0189 14.6511C9.02095 14.6713 9.02763 14.6908 9.03842 14.7081C9.04921 14.7254 9.06382 14.7399 9.08112 14.7506C9.78636 15.1803 10.5964 15.4072 11.4223 15.4064C13.8152 15.4064 15.8748 13.4049 15.9379 11.0123C15.9595 10.1943 15.7585 9.38576 15.3564 8.67308C14.9543 7.9604 14.3662 7.37031 13.6549 6.96581C13.6364 6.95519 13.6156 6.94919 13.5943 6.94829C13.573 6.94739 13.5518 6.95163 13.5325 6.96065C13.5132 6.96967 13.4964 6.98321 13.4834 7.00011C13.4704 7.01702 13.4617 7.03679 13.458 7.05778Z" stroke="white" stroke-width="0.4" mask="url(#path-1-inside-1_204_820)"/>
<path d="M12.9685 6.7626C12.9733 6.73163 12.9669 6.69997 12.9506 6.67324C12.9342 6.6465 12.909 6.62641 12.8792 6.61651C12.2543 6.40341 11.5903 6.33009 10.9339 6.40175C10.2776 6.47341 9.64498 6.68829 9.08079 7.03122C9.0636 7.04194 9.0491 7.05646 9.03839 7.07366C9.02768 7.09086 9.02104 7.11028 9.01899 7.13043C9.01694 7.15059 9.01953 7.17095 9.02656 7.18995C9.03358 7.20895 9.04487 7.22609 9.05954 7.24006C9.82144 7.96502 10.3377 8.90999 10.5361 9.9428C10.54 9.96369 10.5489 9.98332 10.562 10.0001C10.5751 10.0168 10.592 10.0302 10.6113 10.039C10.6306 10.0479 10.6518 10.0519 10.673 10.0509C10.6943 10.0499 10.7149 10.0438 10.7333 10.0331C11.3295 9.69316 11.8406 9.22205 12.2278 8.65544C12.6151 8.08883 12.8684 7.44155 12.9685 6.7626Z" stroke="white" stroke-width="0.4" mask="url(#path-1-inside-1_204_820)"/>
<path d="M6.3754 10.8907C6.3754 10.8516 6.3754 10.8127 6.37706 10.7739C6.37756 10.7483 6.37068 10.7232 6.35726 10.7015C6.34383 10.6797 6.32442 10.6623 6.30136 10.6514C5.59414 10.3076 4.97668 9.80394 4.49789 9.1802C4.01909 8.55646 3.69211 7.8298 3.54284 7.05778C3.53902 7.03704 3.53031 7.0175 3.51744 7.00079C3.50457 6.98408 3.48791 6.97068 3.46883 6.96169C3.44974 6.9527 3.4288 6.94839 3.40772 6.9491C3.38664 6.94982 3.36603 6.95554 3.34761 6.96581C2.63629 7.37031 2.04818 7.9604 1.64608 8.67308C1.24398 9.38576 1.04299 10.1943 1.06456 11.0123C1.12931 13.4049 3.1879 15.4064 5.58018 15.4064C6.40546 15.4069 7.21492 15.18 7.91968 14.7506C7.93698 14.7399 7.95159 14.7254 7.96238 14.7081C7.97317 14.6908 7.97985 14.6713 7.9819 14.6511C7.98395 14.6308 7.98133 14.6104 7.97422 14.5913C7.96712 14.5722 7.95573 14.5551 7.94093 14.5411C7.446 14.0707 7.05198 13.5044 6.78284 12.8769C6.5137 12.2493 6.37507 11.5736 6.3754 10.8907Z" stroke="white" stroke-width="0.4" mask="url(#path-1-inside-1_204_820)"/>
<path d="M5.57852 6.37512C5.08288 6.37469 4.59059 6.45625 4.12157 6.61651C4.09184 6.62641 4.06657 6.6465 4.05023 6.67324C4.03388 6.69997 4.02751 6.73163 4.03225 6.7626C4.13244 7.44155 4.38574 8.08883 4.77299 8.65544C5.16024 9.22205 5.6713 9.69316 6.26749 10.0331C6.28587 10.0438 6.30654 10.0499 6.32777 10.0509C6.349 10.0519 6.37016 10.0479 6.38948 10.039C6.40881 10.0302 6.42572 10.0168 6.43882 10.0001C6.45191 9.98332 6.46079 9.96369 6.46472 9.9428C6.66311 8.90999 7.17936 7.96502 7.94126 7.24006C7.95593 7.22609 7.96721 7.20895 7.97424 7.18995C7.98127 7.17095 7.98386 7.15059 7.98181 7.13043C7.97975 7.11028 7.97312 7.09086 7.96241 7.07366C7.9517 7.05646 7.93719 7.04194 7.92001 7.03122C7.21475 6.60123 6.40452 6.3742 5.57852 6.37512Z" stroke="white" stroke-width="0.4" mask="url(#path-1-inside-1_204_820)"/>
<path d="M8.5004 11.1564C8.02031 11.1567 7.54265 11.0883 7.08196 10.9532C7.06167 10.9471 7.04021 10.9459 7.01937 10.9498C6.99853 10.9536 6.97893 10.9624 6.96219 10.9754C6.94545 10.9884 6.93207 11.0053 6.92316 11.0245C6.91424 11.0437 6.91006 11.0648 6.91096 11.086C6.93671 11.6874 7.08273 12.2776 7.34038 12.8216C7.59803 13.3657 7.9621 13.8526 8.41108 14.2536C8.43553 14.2758 8.46737 14.2881 8.5004 14.2881C8.53343 14.2881 8.56527 14.2758 8.58972 14.2536C9.0387 13.8526 9.40277 13.3657 9.66042 12.8216C9.91807 12.2776 10.0641 11.6874 10.0898 11.086C10.0907 11.0648 10.0866 11.0437 10.0776 11.0245C10.0687 11.0053 10.0553 10.9884 10.0386 10.9754C10.0219 10.9624 10.0023 10.9536 9.98143 10.9498C9.96059 10.9459 9.93913 10.9471 9.91884 10.9532C9.45815 11.0883 8.98049 11.1567 8.5004 11.1564Z" stroke="white" stroke-width="0.4" mask="url(#path-1-inside-1_204_820)"/>
<path d="M10.0467 10.2376C9.8932 9.19206 9.37771 8.23347 8.59005 7.52893C8.56536 7.50695 8.53346 7.4948 8.5004 7.4948C8.46734 7.4948 8.43544 7.50695 8.41075 7.52893C7.62308 8.23347 7.1076 9.19206 6.95413 10.2376C6.94939 10.2686 6.95576 10.3003 6.9721 10.327C6.98844 10.3537 7.01372 10.3738 7.04345 10.3837C7.98809 10.7056 9.01271 10.7056 9.95735 10.3837C9.98708 10.3738 10.0124 10.3537 10.0287 10.327C10.045 10.3003 10.0514 10.2686 10.0467 10.2376Z" stroke="white" stroke-width="0.4" mask="url(#path-1-inside-1_204_820)"/>
</svg>
