<svg xmlns="http://www.w3.org/2000/svg" width="24" height="25" viewBox="0 0 24 25" fill="none">
  <path fill-rule="evenodd" clip-rule="evenodd" d="M11.662 5.12936H13.3818V2.54956H11.662V5.12936ZM8.83021 2.80152L10.7651 4.73637L9.54912 5.95232L7.61427 4.01747L8.83021 2.80152ZM16.2136 2.80152L17.4295 4.01747L15.462 5.98929L14.2461 4.76991L16.2136 2.80152ZM17.641 23.2196L22.6105 21.6717L22.1006 20.031L20.4332 20.547L19.7452 18.3472C20.6043 17.8817 21.2778 17.1358 21.6533 16.2337C22.0289 15.3317 22.0839 14.3282 21.8091 13.3906L21.6371 12.8686H14.2468L13.4213 15.4003L13.5374 15.7442C13.8069 16.7197 14.4132 17.5682 15.2488 18.1391C16.0844 18.7101 17.0952 18.9666 18.1019 18.8632L18.7899 21.0612L17.1302 21.5772L17.641 23.2196ZM7.9805 6.94367L11.2938 7.86724C11.6247 7.9594 11.9338 8.1167 12.2031 8.32991C12.4723 8.54312 12.6963 8.80796 12.8619 9.10888C13.0274 9.4098 13.1313 9.74075 13.1672 10.0823C13.2032 10.4239 13.1706 10.7692 13.0713 11.098L13.0541 11.1487H3.98955L4.82712 8.65494C5.02944 8.01729 5.47093 7.48282 6.0589 7.16374C6.64688 6.84466 7.33561 6.76579 7.9805 6.94367ZM3.39472 16.2486C3.01976 15.357 2.95873 14.3644 3.22163 13.4336L3.41167 12.8686H12.4745L11.4899 15.7855C11.2311 16.6785 10.6897 17.4635 9.94711 18.0229C9.20448 18.5823 8.30054 18.8859 7.37081 18.8881C7.22421 18.886 7.07782 18.8762 6.93224 18.8589L6.22795 21.0612L7.88161 21.5772L7.37167 23.2196L2.40039 21.6717L2.90861 20.0336L4.5829 20.5495L5.28547 18.3412C4.43633 17.878 3.76968 17.1402 3.39472 16.2486ZM21.0575 11.1487H14.8058C15.0017 10.1705 14.8467 9.15452 14.3681 8.27915C14.2677 8.10806 14.1553 7.94427 14.0318 7.78899L17.0648 6.94367C17.7145 6.76784 18.4069 6.85078 18.9967 7.17507C19.5864 7.49935 20.0273 8.0397 20.2268 8.68246L21.0575 11.1487Z" fill="#00B127"/>
</svg>