<svg width="508" height="41" viewBox="0 0 508 41" fill="none" xmlns="http://www.w3.org/2000/svg">
<rect x="269.268" y="16.6558" width="202.645" height="5" fill="#00B127"/>
<rect x="28.6846" y="16.6558" width="211.898" height="5" fill="#00B127"/>
<path fill-rule="evenodd" clip-rule="evenodd" d="M15.2678 35.1622C23.6999 35.1622 30.5355 28.3266 30.5355 19.8945C30.5355 11.4623 23.6999 4.62671 15.2678 4.62671C6.83561 4.62671 0 11.4623 0 19.8945C0 28.3266 6.83561 35.1622 15.2678 35.1622ZM15 31C21.0751 31 26 26.0751 26 20C26 13.9249 21.0751 9 15 9C8.92487 9 4 13.9249 4 20C4 26.0751 8.92487 31 15 31Z" fill="#00B127"/>
<path d="M20.6965 16.1005C19.7896 14.768 18.4087 13.7871 16.7997 13.3878C16.2863 13.2615 15.7536 13.1858 15.2024 13.1858C14.4881 13.1858 13.8012 13.3022 13.1562 13.5118C11.5972 14.0177 10.2938 15.0864 9.47594 16.476C9.02653 17.2415 8.72441 18.1031 8.61264 19.0246C8.58004 19.2889 8.55908 19.5561 8.55908 19.8285C8.55908 21.2984 9.04458 22.6542 9.85549 23.7555C10.6588 24.8459 11.7829 25.683 13.0916 26.1225C13.7563 26.346 14.4636 26.4729 15.2024 26.4729C16.2001 26.4729 17.1438 26.2447 17.9931 25.8501C18.9169 25.4193 19.7273 24.7888 20.3606 24.0064C21.288 22.8631 21.8456 21.4113 21.8456 19.8285C21.8456 19.7115 21.834 19.5962 21.8276 19.4786C21.763 18.2317 21.359 17.0733 20.6965 16.1005ZM20.4805 19.4792L19.1137 21.8438L20.0131 23.4034C19.4083 24.216 18.6049 24.8709 17.6723 25.2947L16.9872 24.1072H14.2552L13.4158 25.5607C12.1112 25.1538 10.9965 24.3115 10.2426 23.2054L11.291 21.3898L9.92476 19.0246H9.2588C9.38513 18.0908 9.71985 17.2229 10.2246 16.4772H12.1351L13.5014 14.1108L13.4845 14.0794C14.0288 13.9164 14.6045 13.8256 15.2018 13.8256C15.636 13.8256 16.0587 13.8745 16.4668 13.9624L16.3818 14.1102L17.7474 16.4748H20.1802C20.7652 17.3416 21.1226 18.3714 21.1867 19.478L20.4805 19.4792Z" fill="#00B127"/>
<path d="M13.8359 17.3833L12.4702 19.7491L13.8359 22.1149H16.5678L17.9341 19.7491L16.5678 17.3833H13.8359Z" fill="#00B127"/>
<path fill-rule="evenodd" clip-rule="evenodd" d="M249.651 14.731H262.491C263.983 14.731 265.193 15.9408 265.193 17.4332V18.2363L261.458 19.0656C260.37 19.1113 259.492 20.0212 259.492 21.1163C259.492 22.2114 260.37 23.1214 261.458 23.1669L265.193 23.9963V24.7995C265.193 26.292 263.983 27.5018 262.491 27.5018H256.755V23.0513C257.552 22.7688 258.124 22.0084 258.124 21.1165C258.124 20.2246 257.552 19.4641 256.755 19.1817V14.731H255.387V19.1817C254.591 19.4641 254.019 20.2245 254.019 21.1165C254.019 22.0084 254.591 22.7688 255.387 23.0513V27.5018H249.651C248.159 27.5018 246.949 26.292 246.949 24.7995V17.4332C246.949 15.9408 248.159 14.731 249.651 14.731ZM265.193 22.5946V19.6379L261.724 20.4083C261.661 20.423 261.597 20.431 261.532 20.4322C261.161 20.439 260.86 20.7459 260.86 21.1163C260.86 21.4867 261.161 21.7935 261.531 21.8004C261.597 21.8015 261.661 21.8095 261.723 21.8242L265.193 22.5946ZM246.949 18.2362L250.684 19.0656C251.773 19.1112 252.65 20.0211 252.65 21.1163C252.65 22.2113 251.773 23.1213 250.684 23.1669L246.949 23.9963V22.5947L250.419 21.8241C250.481 21.8095 250.546 21.8015 250.611 21.8003C250.981 21.7935 251.282 21.4867 251.282 21.1163C251.282 20.7459 250.981 20.439 250.611 20.4322C250.546 20.431 250.481 20.423 250.419 20.4083L246.949 19.6379V18.2362ZM256.071 21.8006C255.694 21.8006 255.387 21.4937 255.387 21.1165C255.387 20.7392 255.694 20.4323 256.071 20.4323C256.449 20.4323 256.755 20.7392 256.755 21.1165C256.755 21.4937 256.449 21.8006 256.071 21.8006Z" fill="#00B127"/>
<path fill-rule="evenodd" clip-rule="evenodd" d="M255.388 38.8633C265.609 38.8633 273.894 30.5777 273.894 20.357C273.894 10.1362 265.609 1.85059 255.388 1.85059C245.167 1.85059 236.882 10.1362 236.882 20.357C236.882 30.5777 245.167 38.8633 255.388 38.8633ZM255.5 34C262.956 34 269 27.9558 269 20.5C269 13.0442 262.956 7 255.5 7C248.044 7 242 13.0442 242 20.5C242 27.9558 248.044 34 255.5 34Z" fill="#00B127"/>
<path d="M488.316 26.3861L489.074 23.014V18.8849L494.448 15.341C494.551 15.2943 494.638 15.2188 494.7 15.1238C494.761 15.0287 494.793 14.918 494.793 14.8048C494.793 14.6917 494.761 14.581 494.7 14.4859C494.638 14.3908 494.551 14.3154 494.448 14.2687L487.971 11.3247C487.882 11.284 487.783 11.2664 487.685 11.2735C487.587 11.2807 487.492 11.3124 487.409 11.3658C487.326 11.4191 487.258 11.4924 487.211 11.5789C487.164 11.6654 487.139 11.7624 487.139 11.8609V17.7363C487.139 17.7447 487.139 17.7536 487.139 17.762V26.3861C487.335 26.375 487.531 26.3694 487.728 26.3692C487.924 26.3689 488.12 26.3746 488.316 26.3861Z" fill="#00B127"/>
<path d="M495.357 27.519C495.042 25.9421 494.065 24.6214 492.532 23.6992C491.336 22.9798 489.858 22.5474 488.316 22.4591V25.3938C488.316 25.55 488.254 25.6997 488.144 25.8102C488.034 25.9206 487.884 25.9826 487.728 25.9826C487.572 25.9826 487.422 25.9206 487.311 25.8102C487.201 25.6997 487.139 25.55 487.139 25.3938V22.4591C485.598 22.5474 484.12 22.9798 482.924 23.6992C481.39 24.6214 480.413 25.9421 480.098 27.519C480.061 27.6923 480.063 27.8716 480.104 28.0439C480.145 28.2162 480.224 28.3773 480.335 28.5155C480.557 28.7885 480.883 28.9357 481.251 28.9357H494.204C494.572 28.9357 494.899 28.7867 495.121 28.5155C495.231 28.3773 495.31 28.2162 495.351 28.0439C495.392 27.8715 495.394 27.6922 495.357 27.519Z" fill="#00B127"/>
<path fill-rule="evenodd" clip-rule="evenodd" d="M487.643 40.714C498.886 40.714 508 31.5999 508 20.357C508 9.11415 498.886 0 487.643 0C476.4 0 467.286 9.11415 467.286 20.357C467.286 31.5999 476.4 40.714 487.643 40.714ZM487.5 36C496.06 36 503 29.0604 503 20.5C503 11.9396 496.06 5 487.5 5C478.939 5 472 11.9396 472 20.5C472 29.0604 478.939 36 487.5 36Z" fill="#00B127"/>
</svg>
