<svg width="26" height="27" viewBox="0 0 26 27" fill="none" xmlns="http://www.w3.org/2000/svg">
<path d="M13.0004 22.9766C12.6769 22.9762 12.3609 22.8784 12.0937 22.696C8.13454 20.0084 6.42021 18.1656 5.47464 17.0135C3.45956 14.5576 2.49484 12.0362 2.52204 9.30579C2.55378 6.17688 5.06406 3.63184 8.11791 3.63184C10.3385 3.63184 11.8765 4.8827 12.7722 5.92449C12.8006 5.95716 12.8357 5.98336 12.875 6.00131C12.9144 6.01926 12.9572 6.02855 13.0004 6.02855C13.0437 6.02855 13.0865 6.01926 13.1259 6.00131C13.1652 5.98336 13.2003 5.95716 13.2287 5.92449C14.1244 4.88169 15.6624 3.63184 17.883 3.63184C20.9368 3.63184 23.4471 6.17688 23.4788 9.30629C23.5061 12.0372 22.5403 14.5586 20.5263 17.014C19.5807 18.1661 17.8664 20.0089 13.9072 22.6965C13.6399 22.8787 13.324 22.9763 13.0004 22.9766Z" fill="white"/>
</svg>
