<svg width="16" height="16" viewBox="0 0 16 16" fill="none" xmlns="http://www.w3.org/2000/svg">
<path d="M7.74493 13.5538C7.55433 13.5538 7.36676 13.4963 7.20036 13.3843C6.06282 12.6129 4.41096 11.4178 3.22501 9.9717C2.01485 8.49834 1.43398 6.98262 1.45213 5.34286C1.47029 3.4641 2.97995 1.93628 4.81334 1.93628C6.26854 1.93628 7.23364 2.82877 7.74493 3.47922C8.25622 2.82877 9.22132 1.93628 10.6765 1.93628C12.5099 1.93628 14.0166 3.4641 14.0377 5.34286C14.0529 6.98262 13.475 8.49834 12.2649 9.9717C11.0789 11.4178 9.42704 12.6129 8.2895 13.3843C8.1231 13.4993 7.93553 13.5538 7.74493 13.5538ZM4.81334 2.9044C3.50939 2.9044 2.43538 4.00262 2.42026 5.35496C2.38698 8.51951 5.0947 10.7886 7.74493 12.5856C10.3952 10.7855 13.1029 8.51951 13.0696 5.35496C13.0545 4.00564 11.9835 2.9044 10.6765 2.9044C9.04282 2.9044 8.18361 4.55626 8.17756 4.57441C8.09588 4.73778 7.92948 4.84065 7.74493 4.84065C7.56038 4.84065 7.39399 4.73778 7.3123 4.57139C7.30323 4.55626 6.44402 2.9044 4.81334 2.9044Z" fill="#00729D" stroke="#00729D" stroke-width="0.484061"/>
</svg>
