<svg width="22" height="22" viewBox="0 0 22 22" fill="none" xmlns="http://www.w3.org/2000/svg">
<path fill-rule="evenodd" clip-rule="evenodd" d="M2.75001 5.49976C2.75001 4.74036 3.36562 4.12476 4.12501 4.12476H17.875C18.6344 4.12476 19.25 4.74036 19.25 5.49976V14.3437L17.2175 12.6486L17.2167 12.648C16.821 12.3189 16.3165 12.1497 15.8024 12.1735C15.2885 12.1974 14.802 12.4125 14.4384 12.7766L14.4382 12.7769L13.4107 13.8044L9.65304 10.0538L9.65272 10.0535L9.65264 10.0534C9.28085 9.68189 8.78126 9.46633 8.25589 9.45077C7.73033 9.43519 7.21867 9.62092 6.82548 9.97L6.82511 9.97033L2.75001 13.5935V5.49976ZM12.4384 14.7766L8.68128 11.0266L8.68088 11.0262C8.55694 10.9023 8.39035 10.8304 8.21516 10.8252C8.04001 10.82 7.86949 10.8819 7.73844 10.9982L7.73836 10.9982L2.75001 15.4334V16.4998C2.75001 17.2591 3.36562 17.8748 4.12501 17.8748H9.34028L12.4384 14.7766ZM9.61751 19.2498C9.62251 19.2498 9.62751 19.2498 9.63251 19.2498H17.875C19.3938 19.2498 20.625 18.0185 20.625 16.4998V15.8174C20.625 15.8142 20.625 15.8111 20.625 15.8079V5.49976C20.625 3.98097 19.3938 2.74976 17.875 2.74976H4.12501C2.60622 2.74976 1.37501 3.98097 1.37501 5.49976V15.1218C1.375 15.1239 1.375 15.1261 1.37501 15.1282V16.4998C1.37501 18.0185 2.60622 19.2498 4.12501 19.2498H9.61751ZM19.25 16.1341V16.4998C19.25 17.2591 18.6344 17.8748 17.875 17.8748H11.2848L15.4109 13.7487L15.4114 13.7482C15.5326 13.6267 15.6948 13.555 15.8662 13.5471C16.0374 13.5391 16.2054 13.5954 16.3373 13.705L16.3376 13.7052L19.25 16.1341ZM13.75 7.56226C13.75 7.18256 14.0578 6.87476 14.4375 6.87476C14.8172 6.87476 15.125 7.18256 15.125 7.56226C15.125 7.94195 14.8172 8.24976 14.4375 8.24976C14.0578 8.24976 13.75 7.94195 13.75 7.56226ZM14.4375 5.49976C13.2984 5.49976 12.375 6.42317 12.375 7.56226C12.375 8.70134 13.2984 9.62476 14.4375 9.62476C15.5766 9.62476 16.5 8.70134 16.5 7.56226C16.5 6.42317 15.5766 5.49976 14.4375 5.49976Z" fill="#0074D9" stroke="#0074D9" stroke-width="0.5" stroke-linecap="round" stroke-linejoin="round"/>
</svg>
