<svg width="44" height="38" viewBox="0 0 44 38" fill="none" xmlns="http://www.w3.org/2000/svg">
<path fill-rule="evenodd" clip-rule="evenodd" d="M3.24983 6.49951C3.24983 4.77362 4.64894 3.37451 6.37483 3.37451H37.6248C39.3507 3.37451 40.7498 4.77362 40.7498 6.49951V26.5994L36.1305 22.7469L36.1287 22.7455C35.2294 21.9976 34.0829 21.613 32.9144 21.6672C31.7463 21.7214 30.6406 22.2103 29.8144 23.0378L29.8138 23.0384L27.4786 25.3736L18.9385 16.8496L18.9378 16.8489L18.9376 16.8487C18.0927 16.0044 16.9572 15.5145 15.7632 15.4791C14.5688 15.4437 13.4059 15.8658 12.5123 16.6592L12.5114 16.6599L3.24983 24.8945V6.49951ZM25.2689 27.5833L16.73 19.0605L16.7291 19.0595C16.4474 18.7779 16.0688 18.6145 15.6706 18.6027C15.2726 18.5909 14.885 18.7316 14.5872 18.9959L14.587 18.9961L3.24983 29.076V31.4995C3.24983 33.2254 4.64894 34.6245 6.37483 34.6245H18.2277L25.2689 27.5833ZM18.8578 37.7495C18.8692 37.7496 18.8805 37.7496 18.8919 37.7495H37.6248C41.0766 37.7495 43.8748 34.9513 43.8748 31.4995V29.9487C43.8749 29.9415 43.8749 29.9344 43.8748 29.9272V6.49951C43.8748 3.04773 41.0766 0.249512 37.6248 0.249512H6.37483C2.92305 0.249512 0.124834 3.04773 0.124834 6.49951V28.3678C0.124811 28.3726 0.124811 28.3775 0.124834 28.3823V31.4995C0.124834 34.9513 2.92305 37.7495 6.37483 37.7495H18.8578ZM40.7498 30.6686V31.4995C40.7498 33.2254 39.3507 34.6245 37.6248 34.6245H22.6471L32.0246 25.247L32.0257 25.2459C32.3011 24.97 32.6698 24.8069 33.0593 24.7889C33.4484 24.7708 33.8303 24.8988 34.13 25.1477L34.1307 25.1483L40.7498 30.6686ZM28.2498 11.187C28.2498 10.3241 28.9494 9.62451 29.8123 9.62451C30.6753 9.62451 31.3748 10.3241 31.3748 11.187C31.3748 12.05 30.6753 12.7495 29.8123 12.7495C28.9494 12.7495 28.2498 12.05 28.2498 11.187ZM29.8123 6.49951C27.2235 6.49951 25.1248 8.59818 25.1248 11.187C25.1248 13.7758 27.2235 15.8745 29.8123 15.8745C32.4012 15.8745 34.4998 13.7758 34.4998 11.187C34.4998 8.59818 32.4012 6.49951 29.8123 6.49951Z" fill="#737070"/>
</svg>
