<svg width="19" height="19" viewBox="0 0 19 19" fill="none" xmlns="http://www.w3.org/2000/svg">
<path fill-rule="evenodd" clip-rule="evenodd" d="M9.49988 6.5625C7.87754 6.5625 6.56238 7.87766 6.56238 9.5C6.56238 11.1223 7.87754 12.4375 9.49988 12.4375C11.1222 12.4375 12.4374 11.1223 12.4374 9.5C12.4374 7.87766 11.1222 6.5625 9.49988 6.5625ZM4.93738 9.5C4.93738 6.9802 6.98008 4.9375 9.49988 4.9375C12.0197 4.9375 14.0624 6.9802 14.0624 9.5C14.0624 12.0198 12.0197 14.0625 9.49988 14.0625C6.98008 14.0625 4.93738 12.0198 4.93738 9.5Z" fill="#0074D9"/>
<path fill-rule="evenodd" clip-rule="evenodd" d="M14.1649 5.97363C14.7862 5.97363 15.2899 5.46995 15.2899 4.84863C15.2899 4.22731 14.7862 3.72363 14.1649 3.72363C13.5436 3.72363 13.0399 4.22731 13.0399 4.84863C13.0399 5.46995 13.5436 5.97363 14.1649 5.97363Z" fill="#0074D9"/>
<path fill-rule="evenodd" clip-rule="evenodd" d="M0.75 5.5C0.75 2.87665 2.87665 0.75 5.5 0.75H13.5C16.1233 0.75 18.25 2.87665 18.25 5.5V13.5C18.25 16.1233 16.1234 18.25 13.5 18.25H5.5C2.87665 18.25 0.75 16.1234 0.75 13.5V5.5ZM5.5 2.25C3.70508 2.25 2.25 3.70508 2.25 5.5V13.5C2.25 15.2949 3.70508 16.75 5.5 16.75H13.5C15.2949 16.75 16.75 15.2949 16.75 13.5V5.5C16.75 3.70508 15.2949 2.25 13.5 2.25H5.5Z" fill="#0074D9"/>
</svg>
