<svg width="17" height="17" viewBox="0 0 17 17" fill="none" xmlns="http://www.w3.org/2000/svg">
<path fill-rule="evenodd" clip-rule="evenodd" d="M0.25 1.625C0.25 0.865609 0.865608 0.25 1.625 0.25H15.375C16.1344 0.25 16.75 0.865608 16.75 1.625V15.375C16.75 16.1344 16.1344 16.75 15.375 16.75H1.625C0.865609 16.75 0.25 16.1344 0.25 15.375V1.625ZM9.0261 6.43628H6.68035V14.31H9.12464V10.4151C9.12464 9.38749 9.31898 8.39336 10.5927 8.39336C11.8467 8.39336 11.8646 9.56807 11.8646 10.4811V14.31H14.3093V9.99111C14.3093 7.8704 13.8514 6.24011 11.3751 6.24011C10.1848 6.24011 9.38635 6.89278 9.06002 7.51199H9.0261V6.43628ZM3.92002 2.52168C4.70331 2.52168 5.3381 3.15785 5.3381 3.94023C5.3381 4.72352 4.70331 5.35923 3.92002 5.35923C3.13398 5.35923 2.5001 4.72352 2.5001 3.94023C2.5001 3.15785 3.13398 2.52168 3.92002 2.52168ZM5.14441 14.3098H2.69461V6.43606H5.14441V14.3098Z" fill="#0074D9"/>
</svg>
