<svg width="18" height="19" viewBox="0 0 18 19" fill="none" xmlns="http://www.w3.org/2000/svg">
<g clip-path="url(#clip0_330_967)">
<path fill-rule="evenodd" clip-rule="evenodd" d="M7.9697 4.74954C7.57911 4.69812 7.18221 4.72413 6.80167 4.8261C6.42113 4.92807 6.06439 5.10399 5.75184 5.34382C5.43929 5.58365 5.17703 5.88269 4.98005 6.22388C4.78307 6.56506 4.65521 6.9417 4.60379 7.3323C4.55237 7.72289 4.57838 8.11979 4.68035 8.50033C4.78231 8.88088 4.95823 9.23761 5.19807 9.55016C5.4379 9.86271 5.73694 10.125 6.07812 10.322C6.41931 10.5189 6.79595 10.6468 7.18655 10.6982C7.57714 10.7496 7.97404 10.7236 8.35458 10.6217C8.73512 10.5197 9.09186 10.3438 9.40441 10.1039C9.71696 9.86411 9.97922 9.56506 10.1762 9.22388C10.3732 8.88269 10.501 8.50605 10.5525 8.11546C10.6039 7.72486 10.5779 7.32796 10.4759 6.94742C10.3739 6.56688 10.198 6.21015 9.95819 5.89759C9.71835 5.58504 9.41931 5.32278 9.07812 5.1258C8.73694 4.92882 8.3603 4.80097 7.9697 4.74954ZM6.99578 5.55054C7.28119 5.47407 7.57886 5.45456 7.87181 5.49313C8.16476 5.53169 8.44724 5.62758 8.70312 5.77532C8.95901 5.92306 9.1833 6.11975 9.36317 6.35416C9.54304 6.58858 9.67498 6.85613 9.75146 7.14153C9.82793 7.42694 9.84744 7.72461 9.80888 8.01756C9.77031 8.31051 9.67442 8.59299 9.52668 8.84888C9.37895 9.10477 9.18225 9.32905 8.94784 9.50892C8.71342 9.6888 8.44587 9.82074 8.16047 9.89721C7.87506 9.97368 7.57739 9.99319 7.28444 9.95463C6.99149 9.91606 6.70901 9.82017 6.45312 9.67243C6.19724 9.5247 5.97295 9.32801 5.79308 9.09359C5.61321 8.85917 5.48127 8.59163 5.40479 8.30622C5.32832 8.02081 5.30881 7.72314 5.34737 7.43019C5.38594 7.13725 5.48183 6.85476 5.62957 6.59888C5.77731 6.34299 5.974 6.1187 6.20841 5.93883C6.44283 5.75896 6.71038 5.62702 6.99578 5.55054Z" fill="#0074D9"/>
<path fill-rule="evenodd" clip-rule="evenodd" d="M7.57812 1.72388C6.5249 1.72388 5.49024 2.00111 4.57812 2.52772C3.66601 3.05434 2.90858 3.81176 2.38197 4.72388C1.85536 5.63599 1.57812 6.67066 1.57812 7.72388C1.57812 8.7771 1.85536 9.81176 2.38197 10.7239L2.38798 10.7343L7.57812 18.5253L12.7683 10.7343L12.7743 10.7239C13.3009 9.81176 13.5781 8.7771 13.5781 7.72388C13.5781 6.67066 13.3009 5.63599 12.7743 4.72388C12.2477 3.81176 11.4902 3.05433 10.5781 2.52772C9.66601 2.00111 8.63134 1.72388 7.57812 1.72388ZM4.95312 3.17724C5.75123 2.71646 6.65656 2.47388 7.57812 2.47388C8.49969 2.47388 9.40502 2.71646 10.2031 3.17724C11.0012 3.63803 11.664 4.30078 12.1248 5.09888C12.5855 5.89698 12.8281 6.80231 12.8281 7.72388C12.8281 8.64151 12.5876 9.54304 12.1306 10.3386L7.57812 17.1725L3.0256 10.3386C2.56864 9.54304 2.32813 8.64151 2.32812 7.72388C2.32812 6.80231 2.57071 5.89698 3.03149 5.09888C3.49227 4.30078 4.15502 3.63803 4.95312 3.17724Z" fill="#0074D9"/>
<path fill-rule="evenodd" clip-rule="evenodd" d="M7.9697 4.74954C7.57911 4.69812 7.18221 4.72413 6.80167 4.8261C6.42113 4.92807 6.06439 5.10399 5.75184 5.34382C5.43929 5.58365 5.17703 5.88269 4.98005 6.22388C4.78307 6.56506 4.65521 6.9417 4.60379 7.3323C4.55237 7.72289 4.57838 8.11979 4.68035 8.50033C4.78231 8.88088 4.95823 9.23761 5.19807 9.55016C5.4379 9.86271 5.73694 10.125 6.07812 10.322C6.41931 10.5189 6.79595 10.6468 7.18655 10.6982C7.57714 10.7496 7.97404 10.7236 8.35458 10.6217C8.73512 10.5197 9.09186 10.3438 9.40441 10.1039C9.71696 9.86411 9.97922 9.56506 10.1762 9.22388C10.3732 8.88269 10.501 8.50605 10.5525 8.11546C10.6039 7.72486 10.5779 7.32796 10.4759 6.94742C10.3739 6.56688 10.198 6.21015 9.95819 5.89759C9.71835 5.58504 9.41931 5.32278 9.07812 5.1258C8.73694 4.92882 8.3603 4.80097 7.9697 4.74954ZM6.99578 5.55054C7.28119 5.47407 7.57886 5.45456 7.87181 5.49313C8.16476 5.53169 8.44724 5.62758 8.70312 5.77532C8.95901 5.92306 9.1833 6.11975 9.36317 6.35416C9.54304 6.58858 9.67498 6.85613 9.75146 7.14153C9.82793 7.42694 9.84744 7.72461 9.80888 8.01756C9.77031 8.31051 9.67442 8.59299 9.52668 8.84888C9.37895 9.10477 9.18225 9.32905 8.94784 9.50892C8.71342 9.6888 8.44587 9.82074 8.16047 9.89721C7.87506 9.97368 7.57739 9.99319 7.28444 9.95463C6.99149 9.91606 6.70901 9.82017 6.45312 9.67243C6.19724 9.5247 5.97295 9.32801 5.79308 9.09359C5.61321 8.85917 5.48127 8.59163 5.40479 8.30622C5.32832 8.02081 5.30881 7.72314 5.34737 7.43019C5.38594 7.13725 5.48183 6.85476 5.62957 6.59888C5.77731 6.34299 5.974 6.1187 6.20841 5.93883C6.44283 5.75896 6.71038 5.62702 6.99578 5.55054Z" stroke="#0074D9" stroke-width="0.9"/>
<path fill-rule="evenodd" clip-rule="evenodd" d="M7.57812 1.72388C6.5249 1.72388 5.49024 2.00111 4.57812 2.52772C3.66601 3.05434 2.90858 3.81176 2.38197 4.72388C1.85536 5.63599 1.57812 6.67066 1.57812 7.72388C1.57812 8.7771 1.85536 9.81176 2.38197 10.7239L2.38798 10.7343L7.57812 18.5253L12.7683 10.7343L12.7743 10.7239C13.3009 9.81176 13.5781 8.7771 13.5781 7.72388C13.5781 6.67066 13.3009 5.63599 12.7743 4.72388C12.2477 3.81176 11.4902 3.05433 10.5781 2.52772C9.66601 2.00111 8.63134 1.72388 7.57812 1.72388ZM4.95312 3.17724C5.75123 2.71646 6.65656 2.47388 7.57812 2.47388C8.49969 2.47388 9.40502 2.71646 10.2031 3.17724C11.0012 3.63803 11.664 4.30078 12.1248 5.09888C12.5855 5.89698 12.8281 6.80231 12.8281 7.72388C12.8281 8.64151 12.5876 9.54304 12.1306 10.3386L7.57812 17.1725L3.0256 10.3386C2.56864 9.54304 2.32813 8.64151 2.32812 7.72388C2.32812 6.80231 2.57071 5.89698 3.03149 5.09888C3.49227 4.30078 4.15502 3.63803 4.95312 3.17724Z" stroke="#0074D9" stroke-width="0.9"/>
</g>
<defs>
<clipPath id="clip0_330_967">
<rect width="18" height="18" fill="white" transform="translate(0 0.5)"/>
</clipPath>
</defs>
</svg>
