<svg width="138" height="46" viewBox="0 0 138 46" fill="none" xmlns="http://www.w3.org/2000/svg">
<g clip-path="url(#clip0)">
<path fill-rule="evenodd" clip-rule="evenodd" d="M0 45.9998V12.4404L31.1632 35.4404L22.1042 42.0552L11.7164 34.2874V45.9998H0Z" fill="#BF2942"/>
<path fill-rule="evenodd" clip-rule="evenodd" d="M45.1142 45.9998V12.4404L24.4595 27.6726L33.3374 34.2874V45.9998H45.1142Z" fill="#542437"/>
<path fill-rule="evenodd" clip-rule="evenodd" d="M5.79812 0C8.9386 0 11.4751 2.54881 11.4751 5.70448C11.4751 8.86016 8.9386 11.409 5.79812 11.409C2.65764 11.409 0.121094 8.86016 0.121094 5.70448C0.121094 2.54881 2.65764 0 5.79812 0Z" fill="#D85B43"/>
<path fill-rule="evenodd" clip-rule="evenodd" d="M39.3164 0C42.4569 0 44.9935 2.54881 44.9935 5.70448C44.9935 8.86016 42.4569 11.409 39.3164 11.409C36.1759 11.409 33.6394 8.86016 33.6394 5.70448C33.6394 2.54881 36.1759 0 39.3164 0Z" fill="#BF2942"/>
<path d="M70.1174 12.4404V28.1581H66.9769V16.0209H66.6145L63.5344 27.4299H60.394L57.3139 16.0209H56.9515V28.1581H53.811V12.4404H59.1861L61.9642 23.8494L64.7423 12.4404H70.1174Z" fill="black"/>
<path d="M77.606 28.4011C75.7942 28.4011 74.526 27.9156 73.7408 27.066C72.9557 26.2164 72.533 24.6992 72.533 22.6359C72.533 20.5119 72.9557 18.934 73.8012 17.9024C74.6467 16.8707 75.915 16.3245 77.6664 16.3245C79.2971 16.3245 80.5049 16.7494 81.3505 17.599C82.196 18.4486 82.6187 19.7837 82.6187 21.5435L82.3772 23.6676H75.613C75.613 24.2137 75.7338 24.6385 75.915 24.8813C76.0962 25.1847 76.3378 25.3668 76.7001 25.4881C77.0625 25.6095 77.5457 25.6702 78.21 25.6702C78.6931 25.6702 79.2971 25.6702 80.0218 25.6095C80.7465 25.5488 81.2297 25.5488 81.5316 25.4881L82.196 25.4275L82.2564 27.7335C80.5049 28.219 78.9951 28.4011 77.606 28.4011ZM79.599 21.3615C79.599 20.4512 79.4783 19.7837 79.1763 19.4195C78.8743 19.0554 78.3912 18.8734 77.6664 18.8734C76.9417 18.8734 76.3982 19.0554 76.0962 19.4195C75.7942 19.7837 75.613 20.4512 75.613 21.3615H79.599ZM89.3225 28.4011C87.5106 28.4011 86.2424 27.9156 85.4572 27.066C84.6721 26.2164 84.2494 24.6992 84.2494 22.6359C84.2494 20.5119 84.6721 18.934 85.5176 17.9024C86.3632 16.8707 87.6314 16.3245 89.3828 16.3245C91.0135 16.3245 92.2214 16.7494 93.0669 17.599C93.9124 18.4486 94.3351 19.7837 94.3351 21.5435L94.0936 23.6676H87.3295C87.3295 24.2137 87.4502 24.6385 87.6314 24.8813C87.8126 25.1847 88.0542 25.3668 88.4165 25.4881C88.7789 25.6095 89.2621 25.6702 89.9264 25.6702C90.4095 25.6702 91.0135 25.6702 91.7382 25.6095C92.4629 25.5488 92.9461 25.5488 93.2481 25.4881L93.9124 25.4275L93.9728 27.7335C92.2818 28.219 90.7115 28.4011 89.3225 28.4011ZM91.3155 21.3615C91.3155 20.4512 91.1947 19.7837 90.8927 19.4195C90.5907 19.0554 90.1076 18.8734 89.3828 18.8734C88.6581 18.8734 88.1146 19.0554 87.8126 19.4195C87.5106 19.7837 87.3295 20.4512 87.3295 21.3615H91.3155ZM100.435 28.4011C99.529 28.4011 98.8647 28.2797 98.3815 27.9763C97.8984 27.6728 97.536 27.248 97.2945 26.6412C97.0529 26.0343 96.9925 25.124 96.9925 24.0317V19.2375H95.6638V16.628H96.9925V13.4116H100.073V16.628H102.911V19.2375H100.073V23.971C100.073 24.5778 100.133 25.0026 100.254 25.2454C100.375 25.5488 100.616 25.6702 101.039 25.6095L102.79 25.5488L102.911 28.037C102.307 28.1583 101.824 28.2797 101.462 28.3404C101.099 28.4011 100.797 28.4011 100.435 28.4011Z" fill="black"/>
<path d="M70.1174 29.979V45.6967H66.9769V33.5595H66.6145L63.5344 45.0291H60.394L57.3139 33.5595H56.9515V45.6967H53.811V29.979H59.1861L61.9642 41.4487L64.7423 29.979H70.1174Z" fill="black"/>
<path d="M77.606 45.9998C75.7942 45.9998 74.526 45.5144 73.7408 44.6647C72.9557 43.8151 72.533 42.298 72.533 40.2347C72.533 38.1107 72.9557 36.5328 73.8012 35.5012C74.6467 34.4695 75.915 33.9233 77.6664 33.9233C79.2971 33.9233 80.5049 34.3481 81.3505 35.1977C82.196 36.0473 82.6187 37.3824 82.6187 39.1423L82.3772 41.2663H75.613C75.613 41.8125 75.7338 42.2373 75.915 42.4801C76.0962 42.7835 76.3378 42.9655 76.7001 43.0869C77.0625 43.2083 77.5457 43.269 78.21 43.269C78.6931 43.269 79.2971 43.269 80.0218 43.2083C80.7465 43.1476 81.2297 43.1476 81.5316 43.0869L82.196 43.0262L82.2564 45.3323C80.5049 45.7571 78.9951 45.9998 77.606 45.9998ZM79.599 38.8996C79.599 37.9893 79.4783 37.3217 79.1763 36.9576C78.8743 36.5935 78.3912 36.4114 77.6664 36.4114C76.9417 36.4114 76.3982 36.5935 76.0962 36.9576C75.7942 37.3217 75.613 37.9893 75.613 38.8996H79.599ZM84.8533 34.1661H87.9334V34.8336C88.5373 34.4695 89.0205 34.2268 89.5036 34.1054C89.9264 33.984 90.4096 33.9233 90.9531 33.9233C92.3422 33.9233 93.3689 34.4088 93.9728 35.2584C94.5767 36.108 94.8787 37.5645 94.8787 39.4458V45.6964H91.7986V39.5064C91.7986 38.4141 91.6778 37.6859 91.4362 37.2611C91.1947 36.8363 90.7115 36.5935 89.9868 36.5935C89.5036 36.5935 88.8997 36.7149 88.2354 36.8969L87.9334 37.0183V45.6357H84.8533V34.1661ZM101.462 45.9998C100.556 45.9998 99.8914 45.8785 99.4082 45.575C98.9251 45.2716 98.5627 44.8468 98.3211 44.2399C98.0796 43.6331 98.0192 42.7228 98.0192 41.6304V36.8363H96.6301V34.2268H97.9588V30.9497H101.039V34.1661H103.877V36.7756H101.039V41.5091C101.039 42.1159 101.099 42.5407 101.22 42.7835C101.341 43.0869 101.582 43.2083 102.005 43.1476L103.757 43.0869L103.877 45.575C103.273 45.6964 102.79 45.8178 102.428 45.8785C102.066 45.9392 101.824 45.9998 101.462 45.9998ZM110.4 45.9998C108.588 45.9998 107.32 45.5144 106.535 44.6647C105.75 43.8151 105.327 42.298 105.327 40.2347C105.327 38.1107 105.75 36.5328 106.595 35.5012C107.441 34.4695 108.709 33.9233 110.46 33.9233C112.091 33.9233 113.299 34.3481 114.144 35.1977C114.99 36.0473 115.413 37.3824 115.413 39.1423L115.171 41.2663H108.407C108.407 41.8125 108.528 42.2373 108.709 42.4801C108.89 42.7835 109.132 42.9655 109.494 43.0869C109.856 43.2083 110.34 43.269 111.004 43.269C111.487 43.269 112.091 43.269 112.816 43.2083C113.54 43.1476 114.024 43.1476 114.326 43.0869L114.99 43.0262L115.05 45.3323C113.359 45.7571 111.789 45.9998 110.4 45.9998ZM112.393 38.8996C112.393 37.9893 112.272 37.3217 111.97 36.9576C111.668 36.5935 111.185 36.4114 110.46 36.4114C109.736 36.4114 109.192 36.5935 108.89 36.9576C108.588 37.3217 108.407 37.9893 108.407 38.8996H112.393ZM122.116 45.9998C120.305 45.9998 119.036 45.5144 118.251 44.6647C117.466 43.8151 117.043 42.298 117.043 40.2347C117.043 38.1107 117.466 36.5328 118.312 35.5012C119.157 34.4695 120.425 33.9233 122.177 33.9233C123.807 33.9233 125.015 34.3481 125.861 35.1977C126.706 36.0473 127.129 37.3824 127.129 39.1423L126.887 41.2663H120.184C120.184 41.8125 120.305 42.2373 120.486 42.4801C120.667 42.7835 120.908 42.9655 121.271 43.0869C121.633 43.2083 122.116 43.269 122.781 43.269C123.264 43.269 123.868 43.269 124.592 43.2083C125.317 43.1476 125.8 43.1476 126.102 43.0869L126.767 43.0262L126.827 45.3323C125.076 45.7571 123.505 45.9998 122.116 45.9998ZM124.109 38.8996C124.109 37.9893 123.989 37.3217 123.687 36.9576C123.385 36.5935 122.901 36.4114 122.177 36.4114C121.452 36.4114 120.908 36.5935 120.606 36.9576C120.305 37.3217 120.123 37.9893 120.123 38.8996H124.109ZM133.35 45.9998C132.323 45.9998 131.115 45.8785 129.666 45.575L128.941 45.4537L129.062 42.8442C130.934 43.0869 132.263 43.2083 133.108 43.2083C133.712 43.2083 134.135 43.1476 134.437 43.0262C134.739 42.9049 134.92 42.6621 134.92 42.3587C134.92 42.0553 134.739 41.8125 134.437 41.6911C134.135 41.5698 133.591 41.3877 132.866 41.327C132.564 41.327 132.383 41.2663 132.263 41.2056C131.477 41.0843 130.873 40.9022 130.39 40.6595C129.907 40.4167 129.484 40.1133 129.182 39.6885C128.88 39.2637 128.699 38.5961 128.699 37.8072C128.699 36.4721 129.062 35.5012 129.907 34.8943C130.753 34.2874 131.779 33.9233 133.168 33.9233C134.014 33.9233 135.222 34.0447 136.852 34.3481L137.638 34.4695L137.577 37.0183C135.705 36.7756 134.376 36.6542 133.47 36.6542C132.927 36.6542 132.564 36.7149 132.263 36.8363C131.961 36.9576 131.779 37.1397 131.779 37.4431C131.779 37.7465 131.961 37.9893 132.263 38.1107C132.564 38.232 133.048 38.4141 133.772 38.4748L134.557 38.5961C135.765 38.8389 136.671 39.203 137.154 39.6885C137.698 40.174 137.94 40.9629 137.94 42.0553C137.94 43.3903 137.577 44.3613 136.792 44.9682C136.007 45.575 134.92 45.9998 133.35 45.9998Z" fill="black"/>
</g>
<defs>
<clipPath id="clip0">
<rect width="138" height="46" fill="white"/>
</clipPath>
</defs>
</svg>
