<svg width="18" height="19" viewBox="0 0 18 19" fill="none" xmlns="http://www.w3.org/2000/svg">
<path fill-rule="evenodd" clip-rule="evenodd" d="M3.09375 4.4375C2.62776 4.4375 2.25 4.81526 2.25 5.28125V13.7188C2.25 14.1847 2.62776 14.5625 3.09375 14.5625H14.9063C15.3722 14.5625 15.75 14.1847 15.75 13.7188V5.28125C15.75 4.81526 15.3722 4.4375 14.9063 4.4375H3.09375ZM1.125 5.28125C1.125 4.19394 2.00644 3.3125 3.09375 3.3125H14.9063C15.9936 3.3125 16.875 4.19394 16.875 5.28125V13.7188C16.875 14.8061 15.9936 15.6875 14.9063 15.6875H3.09375C2.00644 15.6875 1.125 14.8061 1.125 13.7188V5.28125Z" fill="#0074D9"/>
<path fill-rule="evenodd" clip-rule="evenodd" d="M3.49349 5.77966C3.68422 5.53444 4.03762 5.49026 4.28284 5.68099L9 9.34989L13.7172 5.68099C13.9624 5.49026 14.3158 5.53444 14.5065 5.77966C14.6972 6.02488 14.6531 6.37828 14.4078 6.56901L9.34534 10.5065C9.14222 10.6645 8.85778 10.6645 8.65466 10.5065L3.59216 6.56901C3.34694 6.37828 3.30276 6.02488 3.49349 5.77966Z" fill="#0074D9"/>
<path fill-rule="evenodd" clip-rule="evenodd" d="M3.09375 4.4375C2.62776 4.4375 2.25 4.81526 2.25 5.28125V13.7188C2.25 14.1847 2.62776 14.5625 3.09375 14.5625H14.9063C15.3722 14.5625 15.75 14.1847 15.75 13.7188V5.28125C15.75 4.81526 15.3722 4.4375 14.9063 4.4375H3.09375ZM1.125 5.28125C1.125 4.19394 2.00644 3.3125 3.09375 3.3125H14.9063C15.9936 3.3125 16.875 4.19394 16.875 5.28125V13.7188C16.875 14.8061 15.9936 15.6875 14.9063 15.6875H3.09375C2.00644 15.6875 1.125 14.8061 1.125 13.7188V5.28125Z" stroke="#0074D9" stroke-width="0.473684" stroke-linecap="round" stroke-linejoin="round"/>
<path fill-rule="evenodd" clip-rule="evenodd" d="M3.49349 5.77966C3.68422 5.53444 4.03762 5.49026 4.28284 5.68099L9 9.34989L13.7172 5.68099C13.9624 5.49026 14.3158 5.53444 14.5065 5.77966C14.6972 6.02488 14.6531 6.37828 14.4078 6.56901L9.34534 10.5065C9.14222 10.6645 8.85778 10.6645 8.65466 10.5065L3.59216 6.56901C3.34694 6.37828 3.30276 6.02488 3.49349 5.77966Z" stroke="#0074D9" stroke-width="0.473684" stroke-linecap="round" stroke-linejoin="round"/>
</svg>
