<svg width="83" height="52" viewBox="0 0 83 52" fill="none" xmlns="http://www.w3.org/2000/svg">
<path d="M0 0H79C81.2091 0 83 1.79086 83 4V48C83 50.2091 81.2091 52 79 52H0V0Z" fill="#0074D9"/>
<g clip-path="url(#clip0_204_380)">
<path d="M28.2373 18.7969C29.838 18.7969 31.1357 17.4992 31.1357 15.8984C31.1357 14.2977 29.838 13 28.2373 13C26.6365 13 25.3388 14.2977 25.3388 15.8984C25.3388 17.4992 26.6365 18.7969 28.2373 18.7969Z" fill="white"/>
<path d="M35.4254 27.3835L34.8907 25.6025C34.8907 25.6025 34.8907 25.5989 34.8907 25.5968L33.7283 21.7222H33.7257L33.5958 21.2849C33.4531 20.8053 33.1595 20.3846 32.7584 20.0854C32.3574 19.7862 31.8705 19.6246 31.3702 19.6245H25.1592C24.6588 19.6243 24.1718 19.7859 23.7707 20.0851C23.3697 20.3843 23.076 20.8052 22.9336 21.2849L22.8037 21.7222H22.8006L21.6381 25.5968C21.6381 25.5968 21.6381 25.6004 21.6381 25.6025L21.1014 27.3835C20.9399 27.9213 21.2205 28.5046 21.752 28.6847C21.8837 28.7295 22.0231 28.7473 22.1618 28.7371C22.3005 28.7269 22.4358 28.6888 22.5594 28.6251C22.6831 28.5614 22.7927 28.4735 22.8816 28.3665C22.9705 28.2595 23.037 28.1357 23.077 28.0025L24.5133 23.216C24.5461 23.1245 24.61 23.0475 24.6938 22.9984C24.7777 22.9493 24.8761 22.9313 24.9719 22.9474C25.0677 22.9636 25.1548 23.0129 25.2179 23.0868C25.281 23.1607 25.3161 23.2544 25.3171 23.3516C25.3171 23.3796 25.3141 23.4075 25.3083 23.4349L23.0449 30.9807C23.0078 31.1043 23.0001 31.2349 23.0225 31.3621C23.0448 31.4892 23.0965 31.6094 23.1736 31.7129C23.2506 31.8165 23.3508 31.9007 23.4661 31.9586C23.5815 32.0166 23.7088 32.0468 23.8379 32.0469H25.3388V37.983C25.3388 38.8349 25.8838 39.5 26.581 39.5C27.2782 39.5 27.8232 38.8349 27.8232 37.983V32.0469H28.6513V37.983C28.6513 38.8349 29.1963 39.5 29.8935 39.5C30.5907 39.5 31.1357 38.8349 31.1357 37.983V32.0469H32.6884C32.8176 32.0469 32.9449 32.0168 33.0603 31.9588C33.1757 31.9009 33.276 31.8167 33.3531 31.7131C33.4302 31.6095 33.482 31.4894 33.5043 31.3622C33.5267 31.235 33.519 31.1043 33.4819 30.9807L31.218 23.4339C31.2123 23.4068 31.2095 23.3792 31.2097 23.3516C31.2102 23.2541 31.2451 23.16 31.3082 23.0857C31.3713 23.0114 31.4586 22.9618 31.5547 22.9455C31.6508 22.9293 31.7495 22.9474 31.8335 22.9968C31.9176 23.0462 31.9815 23.1236 32.014 23.2154L33.4498 28.002C33.49 28.135 33.5565 28.2586 33.6455 28.3654C33.7345 28.4721 33.844 28.5599 33.9676 28.6234C34.0912 28.6869 34.2263 28.7249 34.3649 28.735C34.5035 28.7452 34.6427 28.7274 34.7743 28.6826C35.3058 28.5046 35.5864 27.9213 35.4254 27.3835Z" fill="white"/>
</g>
<g clip-path="url(#clip1_204_380)">
<path d="M54.75 18.7969C56.3508 18.7969 57.6484 17.4992 57.6484 15.8984C57.6484 14.2977 56.3508 13 54.75 13C53.1492 13 51.8516 14.2977 51.8516 15.8984C51.8516 17.4992 53.1492 18.7969 54.75 18.7969Z" fill="white"/>
<path d="M57.2344 19.625H52.2656C51.3879 19.6276 50.5469 19.9774 49.9262 20.5981C49.3055 21.2187 48.9557 22.0598 48.9531 22.9375V28.5025C48.9531 29.0641 49.3894 29.5418 49.9505 29.562C50.0895 29.5671 50.2282 29.5441 50.3581 29.4943C50.4881 29.4446 50.6067 29.3692 50.7068 29.2727C50.807 29.1761 50.8866 29.0603 50.941 28.9322C50.9954 28.8042 51.0235 28.6665 51.0234 28.5273V23.3655C51.0221 23.2587 51.0612 23.1553 51.1329 23.0761C51.2046 22.997 51.3036 22.9478 51.4101 22.9385C51.4667 22.9348 51.5235 22.9427 51.577 22.9618C51.6304 22.9809 51.6794 23.0108 51.7208 23.0497C51.7622 23.0885 51.7951 23.1354 51.8176 23.1875C51.8401 23.2397 51.8517 23.2958 51.8516 23.3526V38.3096C51.8516 38.6253 51.977 38.9281 52.2002 39.1513C52.4235 39.3746 52.7263 39.5 53.042 39.5C53.3577 39.5 53.6605 39.3746 53.8838 39.1513C54.107 38.9281 54.2324 38.6253 54.2324 38.3096V30.9258C54.2306 30.7921 54.2793 30.6627 54.3689 30.5635C54.4584 30.4642 54.5822 30.4025 54.7153 30.3906C54.7862 30.3859 54.8572 30.3957 54.9241 30.4196C54.9909 30.4435 55.0521 30.4808 55.1039 30.5294C55.1557 30.5779 55.197 30.6366 55.2251 30.7018C55.2533 30.767 55.2677 30.8372 55.2676 30.9082V38.3096C55.2676 38.6253 55.393 38.9281 55.6163 39.1513C55.8395 39.3746 56.1423 39.5 56.458 39.5C56.7737 39.5 57.0765 39.3746 57.2998 39.1513C57.523 38.9281 57.6484 38.6253 57.6484 38.3096V23.3655C57.6471 23.2587 57.6862 23.1553 57.758 23.0761C57.8297 22.997 57.9287 22.9478 58.0351 22.9385C58.0917 22.9348 58.1485 22.9427 58.202 22.9618C58.2554 22.9809 58.3044 23.0108 58.3458 23.0497C58.3872 23.0885 58.4201 23.1354 58.4426 23.1875C58.4652 23.2397 58.4767 23.2958 58.4766 23.3526V28.5035C58.4766 29.0651 58.9129 29.5428 59.4739 29.563C59.6131 29.5681 59.7518 29.5451 59.8818 29.4953C60.0118 29.4455 60.1305 29.37 60.2307 29.2733C60.3308 29.1766 60.4105 29.0607 60.4648 28.9326C60.5191 28.8044 60.5471 28.6666 60.5469 28.5273V22.9375C60.5443 22.0598 60.1945 21.2187 59.5738 20.5981C58.9532 19.9774 58.1121 19.6276 57.2344 19.625Z" fill="white"/>
</g>
<defs>
<clipPath id="clip0_204_380">
<rect width="26.5" height="26.5" fill="white" transform="translate(15 13)"/>
</clipPath>
<clipPath id="clip1_204_380">
<rect width="26.5" height="26.5" fill="white" transform="translate(41.5 13)"/>
</clipPath>
</defs>
</svg>
