<svg xmlns="http://www.w3.org/2000/svg" width="22" height="21" viewBox="0 0 22 21" fill="none">
  <path d="M17.5312 1.5625H4.46875C3.64852 1.56341 2.86214 1.88965 2.28214 2.46964C1.70215 3.04964 1.37591 3.83602 1.375 4.65625V12.9062C1.37591 13.7265 1.70215 14.5129 2.28214 15.0929C2.86214 15.6728 3.64852 15.9991 4.46875 16H5.5V18.75C5.49996 18.8807 5.5372 19.0087 5.60733 19.119C5.67747 19.2294 5.7776 19.3174 5.89599 19.3728C6.01437 19.4282 6.14611 19.4488 6.27575 19.432C6.40539 19.4152 6.52756 19.3618 6.62793 19.2781L10.5591 16H17.5312C18.3515 15.9991 19.1379 15.6728 19.7179 15.0929C20.2978 14.5129 20.6241 13.7265 20.625 12.9062V4.65625C20.6241 3.83602 20.2978 3.04964 19.7179 2.46964C19.1379 1.88965 18.3515 1.56341 17.5312 1.5625ZM6.875 10.1562C6.60305 10.1562 6.33721 10.0756 6.11109 9.92452C5.88497 9.77343 5.70874 9.55869 5.60467 9.30744C5.5006 9.05619 5.47337 8.77972 5.52642 8.513C5.57947 8.24628 5.71043 8.00127 5.90273 7.80898C6.09503 7.61668 6.34003 7.48572 6.60675 7.43267C6.87347 7.37961 7.14994 7.40684 7.40119 7.51091C7.65244 7.61498 7.86718 7.79122 8.01827 8.01734C8.16936 8.24346 8.25 8.5093 8.25 8.78125C8.25 9.14592 8.10513 9.49566 7.84727 9.75352C7.58941 10.0114 7.23967 10.1562 6.875 10.1562ZM11 10.1562C10.7281 10.1562 10.4622 10.0756 10.2361 9.92452C10.01 9.77343 9.83374 9.55869 9.72967 9.30744C9.6256 9.05619 9.59837 8.77972 9.65142 8.513C9.70447 8.24628 9.83543 8.00127 10.0277 7.80898C10.22 7.61668 10.465 7.48572 10.7318 7.43267C10.9985 7.37961 11.2749 7.40684 11.5262 7.51091C11.7774 7.61498 11.9922 7.79122 12.1433 8.01734C12.2944 8.24346 12.375 8.5093 12.375 8.78125C12.375 9.14592 12.2301 9.49566 11.9723 9.75352C11.7144 10.0114 11.3647 10.1562 11 10.1562ZM15.125 10.1562C14.8531 10.1562 14.5872 10.0756 14.3611 9.92452C14.135 9.77343 13.9587 9.55869 13.8547 9.30744C13.7506 9.05619 13.7234 8.77972 13.7764 8.513C13.8295 8.24628 13.9604 8.00127 14.1527 7.80898C14.345 7.61668 14.59 7.48572 14.8568 7.43267C15.1235 7.37961 15.3999 7.40684 15.6512 7.51091C15.9024 7.61498 16.1172 7.79122 16.2683 8.01734C16.4194 8.24346 16.5 8.5093 16.5 8.78125C16.5 9.14592 16.3551 9.49566 16.0973 9.75352C15.8394 10.0114 15.4897 10.1562 15.125 10.1562Z" fill="#003D72"/>
</svg>