<svg xmlns="http://www.w3.org/2000/svg" width="24" height="25" viewBox="0 0 24 25" fill="none">
  <path d="M21.128 3H3.53024C2.68511 3 2 3.68511 2 4.53024V16.0434C2 16.8886 2.68511 17.5737 3.53024 17.5737H3.85444C4.69957 17.5737 5.38468 18.2588 5.38468 19.1039V21.2833C5.38468 21.7498 5.76283 22.128 6.2293 22.128C6.41332 22.128 6.59231 22.0679 6.73904 21.9568L12.1204 17.8838C12.3863 17.6826 12.7105 17.5737 13.0439 17.5737H21.128C21.9731 17.5737 22.6582 16.8886 22.6582 16.0435V4.53024C22.6582 3.68511 21.9731 3 21.128 3Z" stroke="black" stroke-width="1.7"/>
  <path d="M7.78516 8.78442H17.2879" stroke="black" stroke-width="1.7" stroke-linecap="round"/>
  <path d="M7.78516 11.8451H17.2879" stroke="black" stroke-width="1.7" stroke-linecap="round"/>
</svg>