<svg xmlns="http://www.w3.org/2000/svg" width="15" height="16" viewBox="0 0 15 16" fill="none">
  <path d="M7.25125 9.17138C7.25125 9.17159 7.25133 9.1718 7.25148 9.17195L7.48993 9.4263C7.83859 9.7982 8.42891 9.7982 8.77757 9.4263L12.9546 4.97075C13.2094 4.69906 13.6406 4.69906 13.8954 4.97075C14.1279 5.21875 14.1279 5.60466 13.8954 5.85266L9.59282 10.442C8.80268 11.2849 7.46482 11.2849 6.67468 10.442L4.56965 8.19667C4.33715 7.94867 4.33715 7.56275 4.56965 7.31475C4.82436 7.04306 5.25564 7.04306 5.51035 7.31475L6.36812 8.22971L7.25102 9.1708C7.25117 9.17095 7.25125 9.17116 7.25125 9.17138ZM7.66468 7.72604C7.43286 7.47876 7.43284 7.09397 7.66464 6.84667L9.87848 4.48476C10.1325 4.21379 10.5626 4.21377 10.8166 4.48471C11.0484 4.73199 11.0484 5.11678 10.8166 5.36408L8.60277 7.72599C8.34878 7.99696 7.91869 7.99698 7.66468 7.72604ZM5.07252 10.6157C5.30486 10.8636 5.30486 11.2492 5.07252 11.497C4.81799 11.7685 4.38701 11.7685 4.13248 11.497L1.0384 8.19667C0.805897 7.94867 0.806077 7.56256 1.03858 7.31456C1.29308 7.04309 1.72421 7.04287 1.97872 7.31434L2.39156 7.75471C2.39174 7.7549 2.39174 7.75519 2.39156 7.75537C2.39139 7.75556 2.39139 7.75585 2.39156 7.75604L5.07252 10.6157Z" fill="#00B127"/>
</svg>