<svg xmlns="http://www.w3.org/2000/svg" width="22" height="22" viewBox="0 0 22 22" fill="none">
  <path d="M6.10072 15.8993V16.5V19.25V19.2502C6.10072 19.2667 6.10542 19.2828 6.11427 19.2967C6.12313 19.3107 6.13576 19.3218 6.1507 19.3288C6.16565 19.3358 6.18228 19.3384 6.19864 19.3362C6.215 19.3341 6.23042 19.3274 6.24309 19.3168L6.24321 19.3167L10.1744 16.0386L10.3415 15.8993H10.5591H17.5306C18.1917 15.8985 18.8256 15.6356 19.2931 15.1681C19.7604 14.7007 20.0234 14.0672 20.0243 13.4062M6.10072 15.8993L20.0243 13.4056M6.10072 15.8993H5.5H4.46942H6.10072ZM20.0243 13.4062C20.0243 13.406 20.0243 13.4058 20.0243 13.4056M20.0243 13.4062L20.0243 13.4056M20.0243 13.4062L20.0243 5.15692M20.0243 13.4056V5.15692M20.0243 5.15692L20.0243 5.15625L20.0243 5.15692ZM7.63108 7.45592L7.40119 8.01091L7.63108 7.45592C7.27006 7.30638 6.87281 7.26725 6.48956 7.34349C6.1063 7.41972 5.75426 7.60789 5.47795 7.8842C5.20164 8.16051 5.01347 8.51255 4.93724 8.8958C4.861 9.27906 4.90013 9.67631 5.04967 10.0373C5.19921 10.3983 5.45244 10.7069 5.77735 10.924C6.10225 11.1411 6.48424 11.257 6.875 11.257C7.39899 11.257 7.90153 11.0488 8.27205 10.6783C8.64257 10.3078 8.85072 9.80524 8.85072 9.28125C8.85072 8.89049 8.73485 8.5085 8.51775 8.1836C8.30066 7.85869 7.99209 7.60546 7.63108 7.45592ZM9.90234 10.924L10.2361 10.4245L9.90235 10.924C10.2273 11.1411 10.6092 11.257 11 11.257C11.524 11.257 12.0265 11.0488 12.397 10.6783C12.7676 10.3078 12.9757 9.80524 12.9757 9.28125C12.9757 8.89049 12.8598 8.5085 12.6428 8.1836C12.4257 7.85869 12.1171 7.60546 11.7561 7.45592C11.3951 7.30638 10.9978 7.26725 10.6146 7.34349C10.2313 7.41972 9.87926 7.60789 9.60295 7.8842L10.0277 8.30898L9.60295 7.8842C9.32664 8.16051 9.13847 8.51255 9.06224 8.8958C8.986 9.27906 9.02513 9.67631 9.17467 10.0373C9.32421 10.3983 9.57744 10.7069 9.90234 10.924ZM13.728 7.8842L14.1527 8.30898L13.728 7.8842C13.4516 8.16051 13.2635 8.51255 13.1872 8.8958C13.111 9.27906 13.1501 9.67631 13.2997 10.0373C13.4492 10.3983 13.7024 10.7069 14.0273 10.924C14.3523 11.1411 14.7342 11.257 15.125 11.257C15.649 11.257 16.1515 11.0488 16.522 10.6783C16.8926 10.3078 17.1007 9.80524 17.1007 9.28125C17.1007 8.89049 16.9848 8.5085 16.7678 8.1836C16.5507 7.85869 16.2421 7.60546 15.8811 7.45592C15.5201 7.30638 15.1228 7.26725 14.7396 7.34349C14.3563 7.41972 14.0043 7.60789 13.728 7.8842Z" stroke="#0074D9" stroke-width="1.20145"/>
</svg>