<svg width="16" height="15" viewBox="0 0 16 15" fill="none" xmlns="http://www.w3.org/2000/svg">
<path d="M12.75 1H3.25C2.65347 1.00066 2.08155 1.23793 1.65974 1.65974C1.23793 2.08155 1.00066 2.65347 1 3.25V9.25C1.00066 9.84653 1.23793 10.4184 1.65974 10.8403C2.08155 11.2621 2.65347 11.4993 3.25 11.5H4V13.5C3.99997 13.5951 4.02705 13.6882 4.07806 13.7684C4.12907 13.8486 4.20189 13.9126 4.28799 13.953C4.37409 13.9933 4.4699 14.0082 4.56418 13.996C4.65846 13.9838 4.74731 13.945 4.82031 13.8841L7.67938 11.5H12.75C13.3465 11.4993 13.9184 11.2621 14.3403 10.8403C14.7621 10.4184 14.9993 9.84653 15 9.25V3.25C14.9993 2.65347 14.7621 2.08155 14.3403 1.65974C13.9184 1.23793 13.3465 1.00066 12.75 1ZM5 7.25C4.80222 7.25 4.60888 7.19135 4.44443 7.08147C4.27998 6.97159 4.15181 6.81541 4.07612 6.63268C4.00043 6.44996 3.98063 6.24889 4.01921 6.05491C4.0578 5.86093 4.15304 5.68274 4.29289 5.54289C4.43275 5.40304 4.61093 5.3078 4.80491 5.26921C4.99889 5.23063 5.19996 5.25043 5.38268 5.32612C5.56541 5.40181 5.72159 5.52998 5.83147 5.69443C5.94135 5.85888 6 6.05222 6 6.25C6 6.51522 5.89464 6.76957 5.70711 6.95711C5.51957 7.14464 5.26522 7.25 5 7.25ZM8 7.25C7.80222 7.25 7.60888 7.19135 7.44443 7.08147C7.27998 6.97159 7.15181 6.81541 7.07612 6.63268C7.00043 6.44996 6.98063 6.24889 7.01921 6.05491C7.0578 5.86093 7.15304 5.68274 7.29289 5.54289C7.43275 5.40304 7.61093 5.3078 7.80491 5.26921C7.99889 5.23063 8.19996 5.25043 8.38268 5.32612C8.56541 5.40181 8.72159 5.52998 8.83147 5.69443C8.94135 5.85888 9 6.05222 9 6.25C9 6.51522 8.89464 6.76957 8.70711 6.95711C8.51957 7.14464 8.26522 7.25 8 7.25ZM11 7.25C10.8022 7.25 10.6089 7.19135 10.4444 7.08147C10.28 6.97159 10.1518 6.81541 10.0761 6.63268C10.0004 6.44996 9.98063 6.24889 10.0192 6.05491C10.0578 5.86093 10.153 5.68274 10.2929 5.54289C10.4327 5.40304 10.6109 5.3078 10.8049 5.26921C10.9989 5.23063 11.2 5.25043 11.3827 5.32612C11.5654 5.40181 11.7216 5.52998 11.8315 5.69443C11.9414 5.85888 12 6.05222 12 6.25C12 6.51522 11.8946 6.76957 11.7071 6.95711C11.5196 7.14464 11.2652 7.25 11 7.25Z" fill="#0064BA"/>
</svg>
