<svg xmlns="http://www.w3.org/2000/svg" width="20" height="19" viewBox="0 0 20 19" fill="none">
  <path d="M5.10072 14.0194V14.6201V17.3701V17.3703C5.10072 17.3868 5.10542 17.4029 5.11427 17.4169C5.12313 17.4308 5.13577 17.4419 5.1507 17.4489C5.16565 17.4559 5.18227 17.4585 5.19864 17.4564C5.215 17.4542 5.23042 17.4475 5.24309 17.4369L5.24321 17.4368L9.17442 14.1587L9.34154 14.0194H9.55914H16.5306C17.1917 14.0187 17.8256 13.7557 18.2931 13.2882C18.7604 12.8209 19.0234 12.1873 19.0243 11.5264M5.10072 14.0194L19.0243 11.5257M5.10072 14.0194H4.5H3.46942H5.10072ZM19.0243 11.5264C19.0243 11.5261 19.0243 11.5259 19.0243 11.5257M19.0243 11.5264L19.0243 11.5257M19.0243 11.5264L19.0243 3.27703M19.0243 11.5257V3.27703M19.0243 3.27703L19.0243 3.27637L19.0243 3.27703ZM4.77735 9.04412C5.10225 9.26122 5.48424 9.37709 5.875 9.37709C6.399 9.37709 6.90153 9.16893 7.27205 8.79841C7.64257 8.42789 7.85072 7.92536 7.85072 7.40137C7.85072 7.0106 7.73485 6.62862 7.51775 6.30371C7.30066 5.97881 6.99209 5.72557 6.63108 5.57603C6.27006 5.4265 5.87281 5.38737 5.48956 5.4636C5.1063 5.53984 4.75426 5.72801 4.47795 6.00432C4.20164 6.28063 4.01347 6.63267 3.93724 7.01592C3.861 7.39917 3.90013 7.79643 4.04967 8.15744C4.19921 8.51846 4.45244 8.82703 4.77735 9.04412ZM8.90235 9.04412C9.22725 9.26122 9.60924 9.37709 10 9.37709C10.524 9.37709 11.0265 9.16893 11.397 8.79841C11.7676 8.42789 11.9757 7.92536 11.9757 7.40137C11.9757 7.0106 11.8598 6.62862 11.6428 6.30371C11.4257 5.97881 11.1171 5.72557 10.7561 5.57603C10.3951 5.4265 9.99781 5.38737 9.61455 5.4636C9.2313 5.53984 8.87926 5.72801 8.60295 6.00432C8.32664 6.28063 8.13847 6.63267 8.06224 7.01592C7.986 7.39917 8.02513 7.79643 8.17467 8.15744C8.32421 8.51846 8.57744 8.82703 8.90235 9.04412ZM13.0273 9.04412C13.3523 9.26122 13.7342 9.37709 14.125 9.37709C14.649 9.37709 15.1515 9.16893 15.522 8.79841C15.8926 8.42789 16.1007 7.92536 16.1007 7.40137C16.1007 7.0106 15.9848 6.62862 15.7678 6.30371C15.5507 5.97881 15.2421 5.72557 14.8811 5.57603C14.5201 5.4265 14.1228 5.38737 13.7396 5.4636C13.3563 5.53984 13.0043 5.72801 12.728 6.00432C12.4516 6.28063 12.2635 6.63267 12.1872 7.01592C12.111 7.39917 12.1501 7.79643 12.2997 8.15744C12.4492 8.51846 12.7024 8.82703 13.0273 9.04412Z" stroke="#0074D9" stroke-width="1.20145"/>
</svg>