<svg xmlns="http://www.w3.org/2000/svg" width="33" height="36" viewBox="0 0 33 36" fill="none">
  <path fill-rule="evenodd" clip-rule="evenodd" d="M3.57617 10.0005C3.57617 8.98085 4.33384 8.1543 5.26848 8.1543H28.9608C29.8954 8.1543 30.6531 8.98085 30.6531 10.0005C30.6531 11.0201 29.8954 11.8466 28.9608 11.8466H5.26848C4.33384 11.8466 3.57617 11.0201 3.57617 10.0005Z" fill="#0074D9"/>
  <path fill-rule="evenodd" clip-rule="evenodd" d="M3.57617 18.0005C3.57617 16.9808 4.33384 16.1543 5.26848 16.1543H28.9608C29.8954 16.1543 30.6531 16.9808 30.6531 18.0005C30.6531 19.0201 29.8954 19.8466 28.9608 19.8466H5.26848C4.33384 19.8466 3.57617 19.0201 3.57617 18.0005Z" fill="#0074D9"/>
  <path fill-rule="evenodd" clip-rule="evenodd" d="M3.57617 26.0005C3.57617 24.9808 4.33384 24.1543 5.26848 24.1543H28.9608C29.8954 24.1543 30.6531 24.9808 30.6531 26.0005C30.6531 27.0201 29.8954 27.8466 28.9608 27.8466H5.26848C4.33384 27.8466 3.57617 27.0201 3.57617 26.0005Z" fill="#0074D9"/>
</svg>