<svg xmlns="http://www.w3.org/2000/svg" width="75" height="40" viewBox="0 0 75 40" fill="none">
  <g clip-path="url(#clip0_3392_9610)">
    <path d="M63.3234 25.1739C63.3033 25.1074 63.2704 25.0456 63.2263 24.992C63.1822 24.9383 63.128 24.8939 63.0667 24.8614C62.9186 24.767 62.7392 24.735 62.5676 24.7724C62.0195 24.9289 61.4567 25.0282 60.8881 25.0687C60.7665 25.0759 60.6475 25.1074 60.5383 25.1614C60.3869 25.2368 60.2168 25.2666 60.0488 25.247C59.6233 25.2054 59.1952 25.197 58.7683 25.2217C58.6191 25.2337 58.469 25.219 58.3249 25.1782C58.221 25.1318 58.1049 25.1204 57.994 25.1457C57.8056 25.1909 57.6075 25.1715 57.4315 25.0906C57.2925 25.0178 57.1599 24.9332 57.0353 24.8379C56.9883 24.814 56.9512 24.7744 56.9303 24.726C56.9094 24.6776 56.9061 24.6234 56.921 24.5728C56.9333 24.447 56.9379 24.4007 56.7961 24.3467L56.7432 24.3415C56.6707 24.3271 56.6021 24.2975 56.5418 24.2548C56.4815 24.212 56.4309 24.157 56.3933 24.0934C56.3164 23.9923 56.2381 23.9044 56.1539 23.8093C56.09 23.7361 56.0027 23.6874 55.9069 23.6715C55.8341 23.6644 55.7877 23.6598 55.7846 23.7597C55.7748 23.7941 55.7713 23.83 55.7742 23.8656C55.7767 24.0783 55.7018 24.2847 55.5636 24.4464C55.5419 24.4791 55.5092 24.5032 55.4714 24.5141C55.4336 24.5251 55.3932 24.5223 55.3573 24.5063L55.2845 24.4992C54.9764 24.3726 54.6783 24.2227 54.393 24.0509C53.7309 23.6223 53.1078 23.1364 52.5308 22.5988C52.0516 22.1709 51.5935 21.7318 51.1434 21.28C50.6932 20.8283 50.1113 20.3569 49.5732 19.9166L48.3352 18.9132C48.2697 18.8565 48.2087 18.7946 48.1529 18.7283C47.9798 18.5176 47.7994 18.3128 47.6111 18.1206C47.4192 17.9111 47.2155 17.7127 47.0012 17.5262C46.6987 17.2557 46.3038 17.1117 45.8981 17.124C45.5302 17.1281 45.1629 17.1255 44.7937 17.1427C44.3739 17.1517 43.9557 17.1979 43.5441 17.2808C43.484 17.2813 43.4241 17.2755 43.3654 17.2632C42.8566 17.2488 42.3516 17.355 41.8917 17.5731C41.8917 17.5731 41.7939 17.6169 41.7687 17.6011C41.7435 17.5853 41.5701 17.5816 41.4723 17.6255L41.3757 17.6561C41.2865 17.6808 41.2368 17.6425 41.2458 17.5498C41.2478 17.4277 41.2597 17.306 41.2815 17.1858C41.3352 16.945 41.3725 16.7009 41.3933 16.4551C41.4011 16.3757 41.4082 16.3029 41.416 16.2235C41.4235 16.1227 41.4515 16.0245 41.4982 15.9349C41.5449 15.8453 41.6094 15.7661 41.6876 15.7022C41.7874 15.6271 41.8715 15.5332 41.9352 15.4258C42.0052 15.3257 42.0685 15.225 42.1325 15.1177C42.1965 15.0104 42.2123 14.9852 42.2459 14.915C42.2692 14.8748 42.2869 14.8316 42.2986 14.7866C42.3045 14.756 42.3076 14.725 42.3077 14.6939C42.4129 14.3701 42.5898 13.7928 42.5977 13.7802C42.6066 13.7479 42.6099 13.7143 42.6075 13.6809C42.6932 13.4311 42.7304 13.1671 42.7171 12.9032C42.7146 12.8254 42.7222 12.7475 42.7399 12.6716C42.7558 12.4694 42.7443 12.266 42.7056 12.0669C42.5863 11.4915 42.4181 10.9273 42.2028 10.3805L38.1233 18.5934L40.4299 17.1491L38.3575 19.9527L36.3115 22.6921L36.522 19.2515L36.7416 15.7851L37.4507 18.0931L39.0233 11.051L34.8882 12.336L35.8672 8.00859C35.8376 8.02672 35.8107 8.04881 35.7872 8.07425C35.3436 8.47231 34.9626 8.93503 34.657 9.44678C34.5509 9.64351 34.452 9.83427 34.3524 10.0316C34.1949 10.3436 34.0493 10.6701 33.8864 10.9682C33.5272 11.6198 33.2173 12.2974 32.9593 12.9954C32.8672 13.2536 32.7366 13.4947 32.6385 13.7457C32.4759 14.1256 32.2519 14.4761 31.9755 14.7832C31.9318 14.8263 31.8832 14.8641 31.8308 14.896C31.6305 15.0218 31.4575 15.1866 31.3222 15.3806C31.2184 15.5346 31.1246 15.695 31.0413 15.8609C30.9164 16.1209 30.7623 16.3658 30.5821 16.591C30.4937 16.6834 30.4338 16.7994 30.4096 16.925C30.3854 17.0507 30.398 17.1806 30.4458 17.2993C30.454 17.3331 30.4665 17.3658 30.4831 17.3965C30.4999 17.4418 30.5062 17.4904 30.5015 17.5386C30.4967 17.5867 30.4811 17.6332 30.4558 17.6744C30.4048 17.7863 30.3664 17.9036 30.3414 18.024C30.328 18.0737 30.3076 18.1212 30.2808 18.1651C30.2634 18.2157 30.2316 18.2602 30.1892 18.2929C30.1467 18.3255 30.0956 18.345 30.0422 18.3488C29.9723 18.3513 29.9047 18.375 29.8485 18.4167C29.6922 18.5299 29.567 18.6808 29.4847 18.8554C29.4245 18.9931 29.3769 19.1361 29.3426 19.2825C29.2816 19.5287 29.191 19.7666 29.0727 19.991C28.9213 20.228 28.8625 20.5124 28.9075 20.79C28.9237 20.8274 28.9301 20.8682 28.9262 20.9088C28.9222 20.9493 28.9079 20.9881 28.8848 21.0216C28.7315 21.2106 28.5601 21.384 28.3729 21.5394C28.2621 21.6073 28.1674 21.6987 28.0956 21.8071C28.0238 21.9155 27.9766 22.0383 27.9573 22.1668C27.9439 22.2452 27.9138 22.3197 27.869 22.3854C27.7496 22.5808 27.6369 22.7769 27.5055 22.9578C27.3834 23.12 27.2809 23.2961 27.2002 23.4824C27.1606 23.6081 27.0846 23.7193 26.9818 23.8018C26.9486 23.8234 26.9206 23.8522 26.9 23.886C26.8793 23.9198 26.8665 23.9578 26.8624 23.9972C26.8414 24.0957 26.801 24.189 26.7436 24.2717C26.6861 24.3544 26.6128 24.4248 26.5278 24.4789C26.4271 24.5499 26.3499 24.6493 26.306 24.7645C26.2667 24.8633 26.2365 24.9654 26.216 25.0697C26.205 25.1299 26.179 25.1864 26.1405 25.234C26.102 25.2816 26.0521 25.3188 25.9955 25.3421L25.9043 25.3866C25.8648 25.4045 25.8306 25.4322 25.8049 25.4672C25.7793 25.5021 25.763 25.543 25.7577 25.5861C25.7525 25.6702 25.7228 25.751 25.6723 25.8184C25.6217 25.8859 25.5526 25.9371 25.4733 25.9657C25.3758 25.9946 25.2877 26.0489 25.2182 26.1232C25.1486 26.1974 25.1002 26.2888 25.0777 26.388C25.0352 26.5225 24.9589 26.6439 24.8561 26.7405C24.7669 26.8319 24.6837 26.9307 24.5939 27.0288C24.441 27.2209 24.2737 27.401 24.0934 27.5677C23.9637 27.6982 23.7963 27.7846 23.6148 27.8148C23.3773 27.8516 23.1458 27.8957 22.9361 27.922C22.4909 27.9652 22.0463 28.0017 21.5872 28.0503C21.121 28.0933 20.6809 28.2843 20.331 28.5953C20.2365 28.6729 20.148 28.7577 20.0595 28.8426C19.9294 28.9859 19.789 29.1195 19.6395 29.2424C19.3461 29.463 19.0643 29.6986 18.7952 29.9481C18.445 30.2478 18.0684 30.545 17.7495 30.8678C17.1417 31.4096 16.54 31.9587 15.9263 32.4932C15.5319 32.8353 15.6569 32.7875 15.1856 32.6878C15.1296 32.6624 15.0667 32.6563 15.0069 32.6703C14.6281 32.8047 14.2381 32.9051 13.8415 32.9703C13.6177 33.0134 13.4046 33.1005 13.2145 33.2263C13.0244 33.3521 12.8611 33.5143 12.734 33.7036C12.6125 33.8949 12.5037 34.0941 12.4082 34.2997C12.3416 34.4335 12.2685 34.5666 12.1959 34.6932C11.9633 35.0752 11.6726 35.4186 11.3344 35.7112C11.1539 35.8769 11.011 36.0793 10.9153 36.3049C10.6798 36.8269 10.5976 37.4051 10.6783 37.9721C10.7137 38.3388 10.8219 38.6947 10.9966 39.019C11.1358 39.2668 11.3507 39.4635 11.6098 39.5802C11.7065 39.6232 11.8112 39.6454 11.9171 39.6454C12.023 39.6454 12.1277 39.6233 12.2245 39.5804C12.3566 39.5287 12.4746 39.4463 12.5688 39.3402C12.8083 39.0746 13.0183 38.7838 13.195 38.4728C13.3981 38.1053 13.6269 37.7526 13.8799 37.4174L14.0343 37.2054C14.1651 37.0122 14.3082 36.8276 14.4627 36.6527C14.7505 36.3068 15.0967 36.0467 15.4044 35.7027C15.475 35.6234 15.5609 35.5591 15.6568 35.5136C15.9814 35.3383 16.2648 35.1055 16.6086 34.9388C16.7357 34.878 16.8504 34.7941 16.9469 34.6913C16.9994 34.6507 17.0353 34.5923 17.0479 34.5271C17.0604 34.4619 17.0487 34.3944 17.015 34.3372C16.9838 34.2649 16.9483 34.1944 16.9087 34.1263C16.898 34.1065 16.8935 34.084 16.8957 34.0616C16.8979 34.0392 16.9067 34.0179 16.9211 34.0006C16.9569 33.9631 16.996 33.9289 17.038 33.8984C17.1959 33.787 17.3539 33.6755 17.5058 33.5568C17.8352 33.2945 18.1957 33.074 18.5792 32.9003C19.153 32.6358 19.7255 32.3846 20.31 32.1479C20.7484 31.9704 21.1808 31.7856 21.6059 31.6068C22.031 31.428 22.3721 31.2209 22.7496 31.0508C22.9185 30.9584 23.1007 30.8929 23.2898 30.8566L23.9698 30.7361C24.4303 30.6653 24.8861 30.5672 25.335 30.4424C25.7799 30.3402 26.1843 30.1077 26.4963 29.7745C26.5768 29.6931 26.677 29.6339 26.7871 29.6025C27.2775 29.435 27.7315 29.1757 28.1249 28.8384C28.5879 28.4849 29.0069 28.0773 29.3732 27.6244C29.4526 27.5195 29.5662 27.4455 29.6944 27.4154C29.8379 27.3827 29.9814 27.35 30.1262 27.304C30.2551 27.2784 30.3887 27.2915 30.5101 27.3417C30.727 27.3918 30.9494 27.4136 31.1719 27.4066C31.2829 27.4211 31.3957 27.3989 31.4929 27.3432C31.59 27.2876 31.6663 27.2016 31.71 27.0985C31.8134 26.8614 31.9936 26.6586 32.1037 26.4222C32.1406 26.3519 32.1898 26.2889 32.2489 26.236C32.4896 26.0078 32.7068 25.756 32.8972 25.4844C32.9966 25.3196 33.1216 25.1717 33.2676 25.0463C33.6218 24.7736 33.9885 24.5089 34.3592 24.2713C34.485 24.1888 34.6303 24.1408 34.7805 24.1322L36.066 24.0378C36.6433 23.9936 37.2159 23.9 37.7772 23.7579L37.934 23.7265C38.0399 23.7369 38.0664 23.7395 38.1109 23.8307C38.2192 24.0886 38.3137 24.3517 38.4148 24.6156C38.4349 24.6722 38.4449 24.732 38.4442 24.7922C38.4562 24.963 38.431 25.1345 38.3703 25.2946C38.3096 25.4548 38.2149 25.5999 38.0927 25.7199C38.0193 25.7862 37.9586 25.8604 37.8912 25.934C37.478 26.4141 37.2215 27.0092 37.1561 27.6393C37.1064 28.1993 37.1669 28.7636 37.3339 29.3004C37.4548 29.7341 37.697 30.1241 38.0322 30.4246C38.4267 30.7871 38.8943 31.0607 39.4035 31.2273C39.7764 31.3272 40.1632 31.3651 40.5484 31.3396C41.0193 31.3256 41.4832 31.2213 41.9149 31.0326C42.2554 30.8681 42.5693 30.6534 42.846 30.3956C42.9664 30.2965 43.0722 30.1809 43.1603 30.0522C43.3455 29.8058 43.4898 29.5312 43.5875 29.2388C43.605 29.0601 43.6887 28.8879 43.7334 28.7052C43.9318 27.96 43.8577 27.1685 43.5246 26.4731C43.3864 26.1867 43.1818 25.9375 42.9277 25.7463C42.7283 25.5886 42.5194 25.4432 42.3022 25.3108C42.184 25.253 42.0914 25.1535 42.0423 25.0314C42.0226 24.977 41.9899 24.9282 41.9472 24.8891C41.9045 24.85 41.853 24.8218 41.7971 24.8069C41.6216 24.7563 41.4475 24.6924 41.2641 24.6544C41.1773 24.6452 41.0966 24.6053 41.0366 24.5418C40.9767 24.4784 40.9414 24.3955 40.9372 24.3083C40.9043 24.0311 40.8581 23.7526 40.8185 23.4748C40.7789 23.197 40.7749 23.1699 41.0659 23.0647C41.541 22.8929 42.0065 22.6954 42.4602 22.4732C42.8781 22.2352 43.3137 22.0299 43.7633 21.8593L43.8551 21.8081C43.9862 21.7186 44.1359 21.6602 44.2929 21.6372C44.4082 21.6245 44.5142 21.5679 44.589 21.4792C44.6467 21.4136 44.7179 21.3614 44.7978 21.3259C44.9979 21.2375 45.2061 21.1684 45.4194 21.1196C45.5056 21.0875 45.5997 21.0833 45.6885 21.1076C45.7772 21.1319 45.8561 21.1834 45.9139 21.255C46.2861 21.6389 46.6633 22.0167 47.0456 22.3883C47.3127 22.679 47.6039 22.9468 47.916 23.1886C48.5072 23.631 49.1792 23.9534 49.8943 24.1376C50.0554 24.176 50.2113 24.2339 50.3584 24.3101C50.6638 24.467 50.946 24.655 51.2362 24.8305C51.7211 25.132 52.2146 25.4142 52.7081 25.6965C53.156 25.9524 53.5903 26.2314 54.0093 26.5323C54.166 26.6318 54.2911 26.7739 54.3701 26.9419C54.4505 27.1436 54.5237 27.3512 54.5969 27.5588C54.6234 27.6151 54.6401 27.6755 54.6462 27.7374C54.672 28.06 54.7591 28.3746 54.9027 28.6646C54.9381 28.7145 54.9622 28.7716 54.9732 28.8319C55.0121 29.0493 55.1046 29.2535 55.2423 29.4262C55.2616 29.4655 55.2932 29.4973 55.3323 29.5169C55.3715 29.5364 55.4159 29.5425 55.4589 29.5343C55.6073 29.5205 55.7538 29.49 55.8954 29.4435C56.2206 29.3365 56.5342 29.1971 56.8316 29.0275C57.7587 28.5186 58.7177 28.0702 59.7028 27.6853C60.44 27.3901 61.1533 27.0659 61.8626 26.7145C62.3354 26.4671 62.7743 26.1598 63.1684 25.8001C63.2575 25.7258 63.3206 25.625 63.3484 25.5124C63.3763 25.3998 63.3675 25.2812 63.3234 25.1739Z" fill="white"/>
    <path d="M42.3973 7.51298C42.4539 7.3677 42.4977 7.21772 42.5281 7.06477C42.5544 6.92483 42.6309 6.79929 42.7431 6.71167C42.8376 6.63407 42.938 6.56374 43.0385 6.49341C43.1389 6.42307 43.1819 6.39388 43.2539 6.3408C43.3723 6.2576 43.4667 6.14471 43.5277 6.01346C43.5887 5.88221 43.614 5.73723 43.6012 5.59308C43.5832 5.40154 43.6021 5.20832 43.657 5.02392C43.7651 4.76245 43.7818 4.47216 43.7044 4.20002C43.6862 4.16551 43.6786 4.12642 43.6824 4.08761C43.6862 4.04879 43.7013 4.01194 43.7258 3.98162L43.803 3.8756C43.8429 3.8337 43.8676 3.77968 43.8733 3.72212C43.8789 3.66456 43.8651 3.60677 43.8342 3.55792C43.7808 3.47779 43.7158 3.4061 43.6412 3.34523C43.6052 3.31968 43.5748 3.28693 43.5521 3.24905C43.5293 3.21116 43.5147 3.16897 43.5091 3.12514C43.4882 2.93188 43.4022 2.75146 43.2653 2.61345C43.1036 2.44036 42.9844 2.23192 42.9174 2.0047C42.88 1.88451 42.8208 1.77225 42.7427 1.67353L39.2954 8.2779L42.3973 7.51298Z" fill="white"/>
  </g>
  <defs>
    <clipPath id="clip0_3392_9610">
      <rect width="75" height="38.8158" fill="white" transform="translate(0 0.623047)"/>
    </clipPath>
  </defs>
</svg>