<svg xmlns="http://www.w3.org/2000/svg" width="69" height="69" viewBox="0 0 69 69" fill="none">
  <path d="M4.38013 55.0079C4.38013 55.0187 4.38013 55.0387 4.36781 55.0664C4.37243 55.0479 4.37551 55.0279 4.38013 55.0079Z" fill="#93A3B1"/>
  <path d="M62.8209 57.5383C62.3138 57.5273 61.8131 57.4229 61.3439 57.2303L52.5992 54.13L52.5345 54.1039C52.3438 54.0244 52.139 53.9845 51.9324 53.9868C51.7419 53.987 51.5531 54.0214 51.3748 54.0885C51.1623 54.1685 49.248 54.8878 47.2397 55.4391C46.1508 55.7379 42.3606 56.7128 39.3189 56.7128C31.5445 56.7128 24.2752 53.725 18.8525 48.2992C16.2034 45.6663 14.1028 42.5342 12.6723 39.084C11.2419 35.6339 10.51 31.9342 10.519 28.1993C10.5189 26.2532 10.7286 24.3128 11.1443 22.4116C12.498 16.1557 16.0834 10.465 21.2396 6.39452C26.5289 2.24554 33.0586 -0.00640838 39.7809 1.36978e-05C47.8218 1.36978e-05 55.3144 3.08022 60.8804 8.65232C66.1414 13.9303 69.0244 20.87 69.0013 28.1916C68.9968 33.6321 67.3723 38.9481 64.3348 43.4617L64.3056 43.5049L64.1916 43.6589C64.1654 43.6943 64.1392 43.7282 64.1146 43.7636L64.0915 43.8052C64.0302 43.9094 63.9747 44.0168 63.9252 44.1271L66.3493 52.7424C66.4565 53.0978 66.5145 53.4663 66.5218 53.8374C66.5224 54.3236 66.4271 54.8051 66.2413 55.2544C66.0555 55.7037 65.7829 56.1119 65.4392 56.4557C65.0954 56.7995 64.6872 57.072 64.2379 57.2578C63.7886 57.4436 63.3071 57.5389 62.8209 57.5383Z" fill="#93A3B1"/>
  <path d="M41.2548 60.5862C41.0957 60.2766 40.8718 60.005 40.5983 59.7898C40.3249 59.5745 40.0083 59.4207 39.6701 59.3387C38.7799 59.103 37.7419 59.1431 36.9487 59.0845C29.4597 58.5638 22.4123 55.3498 17.1091 50.0364C12.3944 45.3482 9.33038 39.2552 8.37824 32.6749C8.16262 31.1748 8.16262 30.8021 8.16262 30.8021C8.16253 30.3016 8.01004 29.813 7.72544 29.4013C7.44085 28.9896 7.03763 28.6744 6.56946 28.4974C6.10128 28.3205 5.59033 28.2904 5.1046 28.411C4.61887 28.5316 4.18138 28.7973 3.85033 29.1727C3.85033 29.1727 2.63673 30.4941 2.06382 31.8201C0.456996 35.5223 -0.228247 39.5589 0.0668064 43.584C0.36186 47.609 1.62841 51.5026 3.75793 54.9309C4.15836 55.5978 4.15836 55.9058 4.06903 56.5988C3.64858 58.7719 2.91241 62.6052 2.52893 64.5935C2.40195 65.2383 2.44918 65.9053 2.66575 66.5257C2.88231 67.1462 3.26038 67.6977 3.76101 68.1234L3.83185 68.1835C4.49411 68.7095 5.31477 68.996 6.16049 68.9967C6.63618 68.9971 7.10725 68.9034 7.54658 68.721L15.7877 65.5407C16.0714 65.4328 16.3849 65.4328 16.6686 65.5407C19.9136 66.7481 23.2911 67.3888 26.4914 67.3888C30.4789 67.3925 34.4182 66.5164 38.0283 64.823C38.8692 64.4287 40.1845 64.0006 40.9545 63.1104C41.2459 62.7651 41.4297 62.3419 41.4831 61.8933C41.5365 61.4446 41.4571 60.9902 41.2548 60.5862Z" fill="#93A3B1"/>
</svg>