<svg xmlns="http://www.w3.org/2000/svg" width="30" height="32" viewBox="0 0 30 32" fill="none">
  <path d="M25.0836 22.9643H4.3125C5.13883 22.9643 5.93131 22.6086 6.51561 21.9756C7.09991 21.3427 7.42817 20.4841 7.42817 19.5889V13.9634C7.42817 11.8747 8.1941 9.87144 9.55747 8.39445C10.9208 6.91747 12.77 6.08771 14.6981 6.08771C16.6262 6.08771 18.4753 6.91747 19.8387 8.39445C21.202 9.87144 21.968 11.8747 21.968 13.9634V19.5889C21.968 20.4841 22.2962 21.3427 22.8805 21.9756C23.4648 22.6086 24.2573 22.9643 25.0836 22.9643ZM16.4948 27.4647C16.3122 27.8057 16.0501 28.0887 15.7348 28.2855C15.4195 28.4822 15.062 28.5858 14.6981 28.5858C14.3342 28.5858 13.9767 28.4822 13.6613 28.2855C13.346 28.0887 13.084 27.8057 12.9014 27.4647" fill="#293137"/>
  <path d="M14.6981 6.08771C12.77 6.08771 10.9208 6.91747 9.55747 8.39445C8.1941 9.87144 7.42817 11.8747 7.42817 13.9634V19.5889C7.42817 20.4841 7.09991 21.3427 6.51561 21.9756C5.93131 22.6086 5.13883 22.9642 4.3125 22.9642H25.0836C24.2573 22.9642 23.4648 22.6086 22.8805 21.9756C22.2962 21.3427 21.968 20.4841 21.968 19.5889V13.9634C21.968 11.8747 21.202 9.87144 19.8387 8.39445C18.4753 6.91747 16.6262 6.08771 14.6981 6.08771ZM14.6981 6.08771V2.7124M16.4948 27.4647C16.3122 27.8057 16.0501 28.0887 15.7348 28.2855C15.4195 28.4822 15.062 28.5858 14.6981 28.5858C14.3342 28.5858 13.9767 28.4822 13.6613 28.2855C13.346 28.0887 13.084 27.8057 12.9014 27.4647" stroke="#293137" stroke-width="1.70286" stroke-linecap="round" stroke-linejoin="round"/>
</svg>