<svg width="508" height="38" viewBox="0 0 508 38" fill="none" xmlns="http://www.w3.org/2000/svg">
<rect x="270.747" y="15.8169" width="203.758" height="5" fill="#CBCBCB"/>
<rect x="28.8425" y="15.8169" width="213.062" height="5" fill="#CBCBCB"/>
<path fill-rule="evenodd" clip-rule="evenodd" d="M15.3516 33.4946C23.8301 33.4946 30.7033 26.6214 30.7033 18.1429C30.7033 9.66443 23.8301 2.79126 15.3516 2.79126C6.87317 2.79126 0 9.66443 0 18.1429C0 26.6214 6.87317 33.4946 15.3516 33.4946ZM15 29C21.0751 29 26 24.0751 26 18C26 11.9249 21.0751 7 15 7C8.92487 7 4 11.9249 4 18C4 24.0751 8.92487 29 15 29Z" fill="#00B127"/>
<path d="M20.8103 14.3282C19.8984 12.9884 18.51 12.0021 16.8921 11.6006C16.3759 11.4736 15.8403 11.3975 15.286 11.3975C14.5678 11.3975 13.8771 11.5145 13.2285 11.7252C11.661 12.2339 10.3505 13.3086 9.5281 14.7057C9.07622 15.4755 8.77243 16.3417 8.66005 17.2683C8.62727 17.5341 8.6062 17.8027 8.6062 18.0767C8.6062 19.5546 9.09437 20.9178 9.90973 22.0253C10.7175 23.1216 11.8478 23.9633 13.1636 24.4052C13.832 24.63 14.5432 24.7576 15.286 24.7576C16.2892 24.7576 17.2381 24.5282 18.0921 24.1313C19.021 23.6982 19.8358 23.0643 20.4726 22.2776C21.405 21.128 21.9658 19.6682 21.9658 18.0767C21.9658 17.959 21.9541 17.8431 21.9476 17.7249C21.8826 16.4711 21.4764 15.3063 20.8103 14.3282ZM20.5932 17.7255L19.2188 20.1031L20.1231 21.6712C19.515 22.4883 18.7072 23.1468 17.7695 23.5729L17.0806 22.3788H14.3337L13.4896 23.8404C12.1779 23.4313 11.057 22.5843 10.299 21.4722L11.3532 19.6465L9.97938 17.2683H9.30977C9.43678 16.3294 9.77335 15.4567 10.2808 14.7069H12.2019L13.5756 12.3275L13.5587 12.2959C14.106 12.132 14.6848 12.0407 15.2854 12.0407C15.7221 12.0407 16.147 12.0899 16.5573 12.1783L16.4719 12.327L17.845 14.7046H20.2911C20.8794 15.5761 21.2388 16.6116 21.3032 17.7243L20.5932 17.7255Z" fill="#00B127"/>
<path d="M13.9116 15.6182L12.5384 17.9969L13.9116 20.3757H16.6585L18.0323 17.9969L16.6585 15.6182H13.9116Z" fill="#00B127"/>
<path fill-rule="evenodd" clip-rule="evenodd" d="M250.82 12.9512H262.766C264.155 12.9512 265.28 14.0768 265.28 15.4654V16.2125L261.805 16.9841C260.793 17.0266 259.976 17.8732 259.976 18.892C259.976 19.911 260.793 20.7576 261.805 20.8L265.28 21.5716V22.319C265.28 23.7076 264.155 24.8332 262.766 24.8332H257.43V20.6924C258.171 20.4296 258.703 19.7221 258.703 18.8923C258.703 18.0624 258.171 17.3549 257.43 17.0921V12.9512H256.157V17.0921C255.416 17.3549 254.884 18.0624 254.884 18.8923C254.884 19.7221 255.416 20.4296 256.157 20.6924V24.8332H250.82C249.432 24.8332 248.306 23.7076 248.306 22.319V15.4654C248.306 14.0768 249.432 12.9512 250.82 12.9512ZM265.28 20.2675V17.5166L262.052 18.2334C261.994 18.247 261.934 18.2545 261.874 18.2556C261.529 18.2619 261.249 18.5474 261.249 18.892C261.249 19.2367 261.529 19.5222 261.874 19.5285C261.934 19.5296 261.994 19.537 262.052 19.5507L265.28 20.2675ZM248.306 16.2124L251.781 16.9841C252.794 17.0265 253.611 17.8731 253.611 18.892C253.611 19.9109 252.794 20.7575 251.781 20.8L248.306 21.5717V20.2676L251.535 19.5506C251.592 19.537 251.652 19.5296 251.713 19.5285C252.057 19.5222 252.337 19.2367 252.337 18.892C252.337 18.5474 252.057 18.2619 251.713 18.2556C251.652 18.2545 251.592 18.247 251.534 18.2334L248.306 17.5165V16.2124ZM256.793 19.5288C256.442 19.5288 256.157 19.2432 256.157 18.8923C256.157 18.5413 256.442 18.2557 256.793 18.2557C257.144 18.2557 257.43 18.5413 257.43 18.8923C257.43 19.2432 257.144 19.5288 256.793 19.5288Z" fill="#CBCBCB"/>
<path fill-rule="evenodd" clip-rule="evenodd" d="M256.791 37.2161C267.068 37.2161 275.399 28.885 275.399 18.6081C275.399 8.33111 267.068 0 256.791 0C246.514 0 238.183 8.33111 238.183 18.6081C238.183 28.885 246.514 37.2161 256.791 37.2161ZM256.5 32C263.956 32 270 25.9558 270 18.5C270 11.0442 263.956 5 256.5 5C249.044 5 243 11.0442 243 18.5C243 25.9558 249.044 32 256.5 32Z" fill="#CBCBCB"/>
<path d="M491 24.6703L491.761 21.2797V17.1279L497.165 13.5645C497.269 13.5175 497.357 13.4417 497.418 13.3461C497.48 13.2505 497.513 13.1392 497.513 13.0254C497.513 12.9117 497.48 12.8004 497.418 12.7048C497.357 12.6091 497.269 12.5333 497.165 12.4863L490.653 9.5262C490.563 9.48521 490.464 9.46751 490.365 9.47471C490.266 9.48192 490.171 9.51381 490.087 9.56746C490.004 9.6211 489.936 9.69479 489.888 9.78177C489.841 9.86875 489.816 9.96624 489.816 10.0653V15.973C489.816 15.9815 489.816 15.9903 489.816 15.9989V24.6703C490.013 24.6592 490.211 24.6535 490.408 24.6533C490.605 24.653 490.803 24.6587 491 24.6703Z" fill="#CBCBCB"/>
<path d="M498.079 25.8094C497.763 24.2239 496.78 22.8959 495.239 21.9687C494.036 21.2453 492.55 20.8105 491 20.7217V23.6726C491 23.8296 490.938 23.9802 490.827 24.0912C490.716 24.2022 490.565 24.2646 490.408 24.2646C490.251 24.2646 490.1 24.2022 489.989 24.0912C489.878 23.9802 489.816 23.8296 489.816 23.6726V20.7217C488.266 20.8105 486.78 21.2453 485.577 21.9687C484.036 22.8959 483.053 24.2239 482.736 25.8094C482.699 25.9837 482.702 26.1639 482.743 26.3372C482.784 26.5105 482.863 26.6725 482.975 26.8114C483.198 27.086 483.526 27.234 483.896 27.234H496.92C497.29 27.234 497.619 27.0841 497.842 26.8114C497.953 26.6724 498.032 26.5105 498.073 26.3372C498.114 26.1639 498.117 25.9836 498.079 25.8094Z" fill="#CBCBCB"/>
<path fill-rule="evenodd" clip-rule="evenodd" d="M490.322 36.2857C500.085 36.2857 508 28.3712 508 18.6081C508 8.84498 500.085 0.93042 490.322 0.93042C480.559 0.93042 472.645 8.84498 472.645 18.6081C472.645 28.3712 480.559 36.2857 490.322 36.2857ZM490.5 32C497.956 32 504 25.9558 504 18.5C504 11.0442 497.956 5 490.5 5C483.044 5 477 11.0442 477 18.5C477 25.9558 483.044 32 490.5 32Z" fill="#CBCBCB"/>
</svg>
