<svg width="19" height="19" viewBox="0 0 19 19" fill="none" xmlns="http://www.w3.org/2000/svg">
<path d="M15.7938 8.02439C14.776 7.05742 13.9108 4.71635 13.6054 1.81546C13.5545 1.56099 13.351 1.35742 13.0965 1.35742H11.8751H11.8242C11.7733 1.35742 11.7733 1.35742 11.7224 1.35742C11.6715 1.35742 11.6206 1.40831 11.6206 1.40831C11.6206 1.40831 11.6206 1.40831 11.5697 1.40831C10.2465 2.47706 8.41436 2.47706 7.09114 1.40831C7.09114 1.40831 7.09114 1.40831 7.04025 1.40831C6.98936 1.35742 6.93846 1.35742 6.93846 1.35742C6.88757 1.35742 6.88757 1.35742 6.83668 1.35742H6.78578H5.61525C5.36078 1.35742 5.15721 1.56099 5.10632 1.81546C4.75007 4.71635 3.93578 7.05742 2.86703 8.02439C2.76525 8.12617 2.71436 8.27885 2.71436 8.38064V17.1342C2.71436 17.4396 2.91793 17.6431 3.22328 17.6431H15.4376C15.7429 17.6431 15.9465 17.4396 15.9465 17.1342V8.38064C15.9465 8.27885 15.8956 8.12617 15.7938 8.02439ZM8.8215 12.5539C8.8215 13.419 8.15989 14.0806 7.29471 14.0806C6.42953 14.0806 5.76793 13.419 5.76793 12.5539C5.76793 12.2485 5.9715 12.0449 6.27686 12.0449C6.58221 12.0449 6.78578 12.2485 6.78578 12.5539C6.78578 12.8592 6.98936 13.0628 7.29471 13.0628C7.60007 13.0628 7.80364 12.8592 7.80364 12.5539C7.80364 12.2485 7.60007 12.0449 7.29471 12.0449C6.98936 12.0449 6.78578 11.8413 6.78578 11.536C6.78578 11.2306 6.98936 11.0271 7.29471 11.0271C7.60007 11.0271 7.80364 10.8235 7.80364 10.5181C7.80364 10.2128 7.60007 10.0092 7.29471 10.0092C6.98936 10.0092 6.78578 10.2128 6.78578 10.5181C6.78578 10.8235 6.58221 11.0271 6.27686 11.0271C5.9715 11.0271 5.76793 10.8235 5.76793 10.5181C5.76793 9.65296 6.42953 8.99135 7.29471 8.99135C8.15989 8.99135 8.8215 9.65296 8.8215 10.5181C8.8215 10.9253 8.66882 11.2815 8.41435 11.536C8.66882 11.7905 8.8215 12.1467 8.8215 12.5539ZM7.34561 2.78242C7.95632 3.08778 8.66882 3.24046 9.33043 3.24046C9.99203 3.24046 10.7045 3.08778 11.3152 2.78242C11.1626 4.56367 10.2974 5.93778 9.33043 5.93778C8.36346 5.93778 7.49828 4.56367 7.34561 2.78242ZM12.8929 10.9253C12.8929 11.4851 12.5876 12.0449 12.0277 12.2994L11.4679 12.5539C11.2644 12.6556 11.0608 12.8592 10.959 13.0628H12.384C12.6894 13.0628 12.8929 13.2663 12.8929 13.5717C12.8929 13.8771 12.6894 14.0806 12.384 14.0806H10.3483C10.0429 14.0806 9.83935 13.8771 9.83935 13.5717C9.83935 12.7574 10.2974 11.994 11.0099 11.6378L11.5697 11.3324C11.7224 11.2306 11.8751 11.078 11.8751 10.8744V10.5181C11.8751 10.2128 11.6715 10.0092 11.3661 10.0092C11.0608 10.0092 10.8572 10.2128 10.8572 10.5181C10.8572 10.8235 10.6536 11.0271 10.3483 11.0271C10.0429 11.0271 9.83935 10.8235 9.83935 10.5181C9.83935 9.65296 10.501 8.99135 11.3661 8.99135C12.2313 8.99135 12.8929 9.65296 12.8929 10.5181V10.9253ZM12.384 7.97349H11.3661C11.0608 7.97349 10.8572 7.76992 10.8572 7.46456C10.8572 7.15921 11.0608 6.95564 11.3661 6.95564H12.384C12.6894 6.95564 12.8929 7.15921 12.8929 7.46456C12.8929 7.76992 12.6894 7.97349 12.384 7.97349Z" fill="#0074D9"/>
</svg>
