<svg xmlns="http://www.w3.org/2000/svg" width="22" height="23" viewBox="0 0 22 23" fill="none">
  <path fill-rule="evenodd" clip-rule="evenodd" d="M11 3.16667C9.067 3.16667 7.5 4.73367 7.5 6.66667C7.5 8.59966 9.067 10.1667 11 10.1667C12.933 10.1667 14.5 8.59966 14.5 6.66667C14.5 4.73367 12.933 3.16667 11 3.16667ZM6.33333 6.66667C6.33333 4.08934 8.42267 2 11 2C13.5773 2 15.6667 4.08934 15.6667 6.66667C15.6667 9.244 13.5773 11.3333 11 11.3333C8.42267 11.3333 6.33333 9.244 6.33333 6.66667ZM4 18.9167C4 15.3728 6.87284 12.5 10.4167 12.5H11.5833C15.1272 12.5 18 15.3728 18 18.9167V20.6667H16.8333V18.9167C16.8333 16.0172 14.4828 13.6667 11.5833 13.6667H10.4167C7.51717 13.6667 5.16667 16.0172 5.16667 18.9167V20.6667H4V18.9167Z" fill="#0074D9"/>
</svg>