<svg xmlns="http://www.w3.org/2000/svg" width="17" height="21" viewBox="0 0 17 21" fill="none">
  <path d="M16.3794 8.71836C15.1521 7.5085 14.1089 4.57937 13.7407 0.9498C13.6793 0.631416 13.4338 0.376709 13.127 0.376709H11.6542H11.5929C11.5315 0.376709 11.5315 0.376709 11.4701 0.376709C11.4088 0.376709 11.3474 0.440386 11.3474 0.440386C11.3474 0.440386 11.3474 0.440386 11.286 0.440386C9.69052 1.7776 7.48136 1.7776 5.88585 0.440386C5.88585 0.440386 5.88585 0.440386 5.82448 0.440386C5.76312 0.376709 5.70175 0.376709 5.70175 0.376709C5.64039 0.376709 5.64039 0.376709 5.57902 0.376709H5.51765H4.10624C3.79941 0.376709 3.55395 0.631416 3.49259 0.9498C3.06303 4.57937 2.08117 7.5085 0.792495 8.71836C0.669764 8.84572 0.608398 9.03675 0.608398 9.1641V20.1165C0.608398 20.4986 0.853861 20.7533 1.22206 20.7533H15.9498C16.318 20.7533 16.5635 20.4986 16.5635 20.1165V9.1641C16.5635 9.03675 16.5021 8.84572 16.3794 8.71836ZM7.97228 14.3856C7.97228 15.4681 7.17453 16.2959 6.13131 16.2959C5.08809 16.2959 4.29034 15.4681 4.29034 14.3856C4.29034 14.0035 4.5358 13.7488 4.904 13.7488C5.27219 13.7488 5.51765 14.0035 5.51765 14.3856C5.51765 14.7677 5.76312 15.0224 6.13131 15.0224C6.49951 15.0224 6.74497 14.7677 6.74497 14.3856C6.74497 14.0035 6.49951 13.7488 6.13131 13.7488C5.76312 13.7488 5.51765 13.4941 5.51765 13.1121C5.51765 12.73 5.76312 12.4753 6.13131 12.4753C6.49951 12.4753 6.74497 12.2206 6.74497 11.8385C6.74497 11.4565 6.49951 11.2018 6.13131 11.2018C5.76312 11.2018 5.51765 11.4565 5.51765 11.8385C5.51765 12.2206 5.27219 12.4753 4.904 12.4753C4.5358 12.4753 4.29034 12.2206 4.29034 11.8385C4.29034 10.756 5.08809 9.92822 6.13131 9.92822C7.17453 9.92822 7.97228 10.756 7.97228 11.8385C7.97228 12.3479 7.78818 12.7937 7.48136 13.1121C7.78818 13.4304 7.97228 13.8762 7.97228 14.3856ZM6.19268 2.15966C6.92907 2.54172 7.78818 2.73275 8.58594 2.73275C9.38369 2.73275 10.2428 2.54172 10.9792 2.15966C10.7951 4.38834 9.75189 6.10762 8.58594 6.10762C7.41999 6.10762 6.37677 4.38834 6.19268 2.15966ZM12.8815 12.3479C12.8815 13.0484 12.5133 13.7488 11.8383 14.0672L11.1633 14.3856C10.9178 14.5129 10.6724 14.7677 10.5496 15.0224H12.2679C12.6361 15.0224 12.8815 15.2771 12.8815 15.6591C12.8815 16.0412 12.6361 16.2959 12.2679 16.2959H9.81325C9.44506 16.2959 9.1996 16.0412 9.1996 15.6591C9.1996 14.6403 9.75189 13.6851 10.611 13.2394L11.286 12.8574C11.4701 12.73 11.6542 12.539 11.6542 12.2843V11.8385C11.6542 11.4565 11.4088 11.2018 11.0406 11.2018C10.6724 11.2018 10.4269 11.4565 10.4269 11.8385C10.4269 12.2206 10.1814 12.4753 9.81325 12.4753C9.44506 12.4753 9.1996 12.2206 9.1996 11.8385C9.1996 10.756 9.99735 9.92822 11.0406 9.92822C12.0838 9.92822 12.8815 10.756 12.8815 11.8385V12.3479ZM12.2679 8.65469H11.0406C10.6724 8.65469 10.4269 8.39998 10.4269 8.01792C10.4269 7.63586 10.6724 7.38115 11.0406 7.38115H12.2679C12.6361 7.38115 12.8815 7.63586 12.8815 8.01792C12.8815 8.39998 12.6361 8.65469 12.2679 8.65469Z" fill="#00B127"/>
</svg>