<svg xmlns="http://www.w3.org/2000/svg" width="19" height="19" viewBox="0 0 19 19" fill="none">
  <path d="M15.7933 8.02414C14.7755 7.05718 13.9103 4.71611 13.6049 1.81521C13.554 1.56075 13.3505 1.35718 13.096 1.35718H11.8746H11.8237C11.7728 1.35718 11.7728 1.35718 11.7219 1.35718C11.671 1.35718 11.6201 1.40807 11.6201 1.40807C11.6201 1.40807 11.6201 1.40807 11.5692 1.40807C10.246 2.47682 8.41387 2.47682 7.09065 1.40807C7.09065 1.40807 7.09065 1.40807 7.03976 1.40807C6.98887 1.35718 6.93797 1.35718 6.93797 1.35718C6.88708 1.35718 6.88708 1.35718 6.83619 1.35718H6.7853H5.61476C5.3603 1.35718 5.15672 1.56075 5.10583 1.81521C4.74958 4.71611 3.9353 7.05718 2.86655 8.02414C2.76476 8.12593 2.71387 8.27861 2.71387 8.38039V17.134C2.71387 17.4393 2.91744 17.6429 3.2228 17.6429H15.4371C15.7424 17.6429 15.946 17.4393 15.946 17.134V8.38039C15.946 8.27861 15.8951 8.12593 15.7933 8.02414ZM8.82101 12.5536C8.82101 13.4188 8.1594 14.0804 7.29422 14.0804C6.42905 14.0804 5.76744 13.4188 5.76744 12.5536C5.76744 12.2482 5.97101 12.0447 6.27637 12.0447C6.58172 12.0447 6.7853 12.2482 6.7853 12.5536C6.7853 12.859 6.98887 13.0625 7.29422 13.0625C7.59958 13.0625 7.80315 12.859 7.80315 12.5536C7.80315 12.2482 7.59958 12.0447 7.29422 12.0447C6.98887 12.0447 6.7853 11.8411 6.7853 11.5357C6.7853 11.2304 6.98887 11.0268 7.29422 11.0268C7.59958 11.0268 7.80315 10.8232 7.80315 10.5179C7.80315 10.2125 7.59958 10.009 7.29422 10.009C6.98887 10.009 6.7853 10.2125 6.7853 10.5179C6.7853 10.8232 6.58172 11.0268 6.27637 11.0268C5.97101 11.0268 5.76744 10.8232 5.76744 10.5179C5.76744 9.65271 6.42905 8.99111 7.29422 8.99111C8.1594 8.99111 8.82101 9.65271 8.82101 10.5179C8.82101 10.925 8.66833 11.2813 8.41387 11.5357C8.66833 11.7902 8.82101 12.1465 8.82101 12.5536ZM7.34512 2.78218C7.95583 3.08753 8.66833 3.24021 9.32994 3.24021C9.99155 3.24021 10.704 3.08753 11.3148 2.78218C11.1621 4.56343 10.2969 5.93753 9.32994 5.93753C8.36297 5.93753 7.4978 4.56343 7.34512 2.78218ZM12.8924 10.925C12.8924 11.4849 12.5871 12.0447 12.0273 12.2991L11.4674 12.5536C11.2639 12.6554 11.0603 12.859 10.9585 13.0625H12.3835C12.6889 13.0625 12.8924 13.2661 12.8924 13.5715C12.8924 13.8768 12.6889 14.0804 12.3835 14.0804H10.3478C10.0424 14.0804 9.83887 13.8768 9.83887 13.5715C9.83887 12.7572 10.2969 11.9938 11.0094 11.6375L11.5692 11.3322C11.7219 11.2304 11.8746 11.0777 11.8746 10.8741V10.5179C11.8746 10.2125 11.671 10.009 11.3657 10.009C11.0603 10.009 10.8567 10.2125 10.8567 10.5179C10.8567 10.8232 10.6532 11.0268 10.3478 11.0268C10.0424 11.0268 9.83887 10.8232 9.83887 10.5179C9.83887 9.65271 10.5005 8.99111 11.3657 8.99111C12.2308 8.99111 12.8924 9.65271 12.8924 10.5179V10.925ZM12.3835 7.97325H11.3657C11.0603 7.97325 10.8567 7.76968 10.8567 7.46432C10.8567 7.15896 11.0603 6.95539 11.3657 6.95539H12.3835C12.6889 6.95539 12.8924 7.15896 12.8924 7.46432C12.8924 7.76968 12.6889 7.97325 12.3835 7.97325Z" fill="#003D72"/>
</svg>