<svg xmlns="http://www.w3.org/2000/svg" width="25" height="25" viewBox="0 0 25 25" fill="none">
  <path d="M21.4054 10.4157C19.9679 9.05007 18.746 5.74384 18.3147 1.64699C18.2429 1.28762 17.9554 1.00012 17.596 1.00012H15.871H15.7991C15.7273 1.00012 15.7273 1.00012 15.6554 1.00012C15.5835 1.00012 15.5116 1.072 15.5116 1.072C15.5116 1.072 15.5116 1.072 15.4398 1.072C13.571 2.58136 10.9835 2.58136 9.11481 1.072C9.11481 1.072 9.11481 1.072 9.04293 1.072C8.97106 1.00012 8.89918 1.00012 8.89918 1.00012C8.82731 1.00012 8.82731 1.00012 8.75543 1.00012H8.68356H7.03044C6.67107 1.00012 6.38357 1.28762 6.3117 1.64699C5.80858 5.74384 4.65858 9.05007 3.14922 10.4157C3.00547 10.5594 2.93359 10.7751 2.93359 10.9188V23.2812C2.93359 23.7125 3.22109 24 3.65234 24H20.9022C21.3335 24 21.621 23.7125 21.621 23.2812V10.9188C21.621 10.7751 21.5491 10.5594 21.4054 10.4157ZM11.5585 16.8125C11.5585 18.0344 10.6242 18.9688 9.4023 18.9688C8.18044 18.9688 7.24607 18.0344 7.24607 16.8125C7.24607 16.3813 7.53357 16.0938 7.96481 16.0938C8.39606 16.0938 8.68356 16.3813 8.68356 16.8125C8.68356 17.2438 8.97106 17.5313 9.4023 17.5313C9.83355 17.5313 10.121 17.2438 10.121 16.8125C10.121 16.3813 9.83355 16.0938 9.4023 16.0938C8.97106 16.0938 8.68356 15.8063 8.68356 15.375C8.68356 14.9438 8.97106 14.6563 9.4023 14.6563C9.83355 14.6563 10.121 14.3688 10.121 13.9375C10.121 13.5063 9.83355 13.2188 9.4023 13.2188C8.97106 13.2188 8.68356 13.5063 8.68356 13.9375C8.68356 14.3688 8.39606 14.6563 7.96481 14.6563C7.53357 14.6563 7.24607 14.3688 7.24607 13.9375C7.24607 12.7157 8.18044 11.7813 9.4023 11.7813C10.6242 11.7813 11.5585 12.7157 11.5585 13.9375C11.5585 14.5125 11.3429 15.0157 10.9835 15.375C11.3429 15.7344 11.5585 16.2375 11.5585 16.8125ZM9.47418 3.01261C10.3367 3.44386 11.3429 3.65948 12.2773 3.65948C13.2117 3.65948 14.2179 3.44386 15.0804 3.01261C14.8648 5.52822 13.6429 7.46883 12.2773 7.46883C10.9117 7.46883 9.6898 5.52822 9.47418 3.01261ZM17.3085 14.5125C17.3085 15.3032 16.8773 16.0938 16.0866 16.4532L15.296 16.8125C15.0085 16.9563 14.721 17.2438 14.5773 17.5313H16.5898C17.021 17.5313 17.3085 17.8188 17.3085 18.25C17.3085 18.6813 17.021 18.9688 16.5898 18.9688H13.7148C13.2835 18.9688 12.996 18.6813 12.996 18.25C12.996 17.1 13.6429 16.0219 14.6491 15.5188L15.4398 15.0875C15.6554 14.9438 15.871 14.7282 15.871 14.4407V13.9375C15.871 13.5063 15.5835 13.2188 15.1523 13.2188C14.721 13.2188 14.4335 13.5063 14.4335 13.9375C14.4335 14.3688 14.146 14.6563 13.7148 14.6563C13.2835 14.6563 12.996 14.3688 12.996 13.9375C12.996 12.7157 13.9304 11.7813 15.1523 11.7813C16.3741 11.7813 17.3085 12.7157 17.3085 13.9375V14.5125Z" fill="black"/>
</svg>