<svg width="14" height="13" viewBox="0 0 14 13" fill="none" xmlns="http://www.w3.org/2000/svg">
<path d="M12.25 6.5C12.5432 6.49998 12.8359 6.47547 13.125 6.42672C13.106 4.82761 12.4623 3.29936 11.3315 2.16854C10.2006 1.03772 8.67239 0.39402 7.07328 0.375C7.02453 0.664117 7.00002 0.956802 7 1.25C7 4.14488 9.35512 6.5 12.25 6.5Z" fill="#0064BA"/>
<path d="M6.92754 12.625C6.95324 12.47 6.97266 12.3133 6.98469 12.1552C6.9948 12.0218 7 11.8856 7 11.7508C7 8.85594 4.64488 6.50082 1.75 6.50082C1.4568 6.50084 1.16412 6.52535 0.875 6.5741C0.894237 8.17321 1.53814 9.70137 2.66911 10.832C3.80009 11.9627 5.32843 12.6062 6.92754 12.625Z" fill="#0064BA"/>
<path d="M7.91902 5.58098C7.34847 5.01356 6.89613 4.3386 6.58819 3.59519C6.28025 2.85178 6.12281 2.05467 6.125 1.25C6.12501 0.975652 6.14328 0.701608 6.17969 0.429688C4.85066 0.609664 3.61738 1.22069 2.66903 2.16903C1.72069 3.11738 1.10966 4.35066 0.929688 5.67969C1.20161 5.64328 1.47565 5.62501 1.75 5.625C2.55467 5.62281 3.35178 5.78025 4.09519 6.08819C4.8386 6.39613 5.51356 6.84847 6.08098 7.41902C6.65153 7.98644 7.10387 8.6614 7.41181 9.40481C7.71975 10.1482 7.87719 10.9453 7.875 11.75C7.875 11.907 7.86898 12.0653 7.85723 12.2209C7.84811 12.3379 7.83572 12.4545 7.82004 12.5706C9.14912 12.3906 10.3824 11.7795 11.3308 10.8311C12.2792 9.88272 12.8903 8.6494 13.0703 7.32031C12.7984 7.35672 12.5243 7.37499 12.25 7.375C11.4453 7.37719 10.6482 7.21975 9.90481 6.91181C9.1614 6.60387 8.48644 6.15153 7.91902 5.58098Z" fill="#0064BA"/>
</svg>
