<svg xmlns="http://www.w3.org/2000/svg" width="21" height="24" viewBox="0 0 21 24" fill="none">
  <g clip-path="url(#clip0_3445_283)">
    <path d="M5.79461 7.12463L5.79461 7.12468C5.88306 8.37709 6.38399 9.54042 7.18706 10.4032C8.01417 11.2885 9.03171 11.7389 10.0438 11.7389C11.0567 11.7389 12.0732 11.2884 12.8974 10.4033L5.79461 7.12463ZM5.79461 7.12463C5.70115 5.80228 6.10475 4.63416 6.88231 3.79943C7.66301 2.96133 8.76617 2.49167 10.0438 2.49167C11.3065 2.49167 12.4148 2.96838 13.1951 3.80669L13.1951 3.80671M5.79461 7.12463L13.1951 3.80671M13.1951 3.80671C13.981 4.65111 14.3836 5.81763 14.2906 7.12315M13.1951 3.80671L14.2906 7.12315M14.2906 7.12315C14.1997 8.37888 13.6987 9.54187 12.8976 10.403L14.2906 7.12315ZM18.3232 22.786H18.3186L1.76974 22.786L1.76492 22.7861C1.63653 22.7867 1.5097 22.758 1.39417 22.7019C1.28003 22.6466 1.17995 22.5661 1.10142 22.4665C1.01179 22.3479 0.949834 22.2106 0.920108 22.0649L0.0382628 22.2447L0.920108 22.0649C0.890061 21.9176 0.893729 21.7654 0.930851 21.6197L0.932006 21.615C1.40088 19.7323 2.55923 18.1635 4.31868 17.0735C5.8897 16.1006 7.92304 15.5474 10.0438 15.5474C12.2133 15.5474 14.1889 16.0774 15.768 17.0491L15.7682 17.0492C17.5277 18.1311 18.6881 19.7069 19.1554 21.6154L19.1554 21.6154L19.1568 21.6207C19.1935 21.7668 19.1968 21.9192 19.1663 22.0667C19.1362 22.2125 19.0739 22.3498 18.984 22.4685C18.9057 22.5674 18.806 22.6474 18.6923 22.7024C18.5773 22.7581 18.451 22.7867 18.3232 22.786ZM18.3186 23.686H1.76974H18.3186Z" stroke="black" stroke-width="1.8"/>
  </g>
  <defs>
    <clipPath id="clip0_3445_283">
      <rect width="21" height="23.7391" fill="white" transform="translate(0 0.222168)"/>
    </clipPath>
  </defs>
</svg>