<svg width="16" height="19" viewBox="0 0 16 19" fill="none" xmlns="http://www.w3.org/2000/svg">
<path d="M7.00025 10.5567C6.1008 10.5567 5.2311 10.1551 4.55039 9.4263C3.88849 8.7154 3.48426 7.76739 3.41295 6.7577C3.33683 5.68064 3.66538 4.6902 4.33778 3.96836C5.01017 3.24653 5.95031 2.85718 7.00025 2.85718C8.04275 2.85718 8.98551 3.25353 9.65572 3.97361C10.3325 4.7007 10.6619 5.68939 10.5858 6.75726C10.5127 7.76827 10.1089 8.71584 9.44835 9.42586C8.76939 10.1551 7.90013 10.5567 7.00025 10.5567Z" fill="#0064BA"/>
<path d="M12.7675 18.2563H1.23345C1.04801 18.2573 0.864817 18.2157 0.697963 18.1348C0.531108 18.0539 0.385044 17.9357 0.27101 17.7895C0.150049 17.631 0.0665178 17.4471 0.026668 17.2517C-0.0131817 17.0564 -0.00831711 16.8545 0.0408984 16.6613C0.409252 15.1822 1.32182 13.9555 2.67975 13.1142C3.88499 12.3679 5.41921 11.9567 7.00025 11.9567C8.61234 11.9567 10.1063 12.3504 11.3186 13.0963C12.6795 13.9332 13.5934 15.1668 13.96 16.6639C14.0087 16.8573 14.013 17.0591 13.9727 17.2544C13.9324 17.4497 13.8485 17.6334 13.7273 17.7917C13.6134 17.9372 13.4676 18.0548 13.3013 18.1353C13.1349 18.2159 12.9523 18.2572 12.7675 18.2563Z" fill="#0064BA"/>
<circle cx="12.1686" cy="4.06262" r="2.77865" fill="#00B127" stroke="white" stroke-width="1.08064"/>
</svg>
