<svg xmlns="http://www.w3.org/2000/svg" width="18" height="19" viewBox="0 0 18 19" fill="none">
  <path d="M9.00032 9.50004C7.84388 9.50004 6.7257 9.02182 5.8505 8.15393C4.99948 7.30741 4.47976 6.17854 4.38808 4.97622C4.29021 3.69367 4.71263 2.51427 5.57714 1.65472C6.44165 0.795177 7.65039 0.331543 9.00032 0.331543C10.3407 0.331543 11.5528 0.803512 12.4145 1.66097C13.2846 2.52677 13.7082 3.70409 13.6103 4.9757C13.5164 6.17958 12.9972 7.30793 12.1479 8.15341C11.2749 9.02182 10.1573 9.50004 9.00032 9.50004Z" fill="#003D72"/>
  <path d="M16.4153 18.6685H1.58587C1.34744 18.6697 1.11191 18.6202 0.897381 18.5238C0.682854 18.4275 0.495056 18.2868 0.348441 18.1127C0.19292 17.9239 0.0855229 17.705 0.0342875 17.4723C-0.0169479 17.2397 -0.0106934 16.9993 0.0525836 16.7692C0.526181 15.0079 1.69949 13.5472 3.44539 12.5454C4.99499 11.6567 6.96756 11.167 9.00032 11.167C11.073 11.167 12.9938 11.6359 14.5524 12.5241C16.3023 13.5206 17.4773 14.9897 17.9486 16.7723C18.0111 17.0026 18.0167 17.243 17.9649 17.4755C17.9131 17.708 17.8052 17.9268 17.6494 18.1153C17.5029 18.2886 17.3155 18.4286 17.1016 18.5245C16.8877 18.6204 16.653 18.6697 16.4153 18.6685Z" fill="#003D72"/>
</svg>