<svg xmlns="http://www.w3.org/2000/svg" width="18" height="18" viewBox="0 0 18 18" fill="none">
  <path d="M5.13583 4.50119L5.13583 4.50123C5.21332 5.49882 5.65267 6.43704 6.37407 7.14163C7.11805 7.86562 8.05152 8.24999 9.00032 8.24999C9.94984 8.24999 10.8824 7.86551 11.6237 7.1417L5.13583 4.50119ZM5.13583 4.50119C5.0543 3.45249 5.4036 2.51624 6.10099 1.8356C6.80695 1.14659 7.81875 0.75 9.00032 0.75C10.1689 0.75 11.1852 1.15264 11.8904 1.84152L11.8904 1.84154M5.13583 4.50119L11.8904 1.84154M11.8904 1.84154C12.5956 2.53026 12.9437 3.46534 12.8626 4.50018M11.8904 1.84154L12.8626 4.50018M16.4153 17.25H16.4188C16.5531 17.2506 16.6836 17.2232 16.7995 17.1721C16.914 17.1218 17.0081 17.0513 17.0783 16.9707C17.1582 16.8748 17.2093 16.7692 17.2335 16.6629C17.2578 16.5557 17.2553 16.4454 17.2257 16.3385L17.2244 16.3337L17.2244 16.3337C16.8116 14.8009 15.7807 13.5143 14.1865 12.6231L14.1863 12.623C12.7566 11.8232 10.9658 11.3864 9.00032 11.3864C7.0779 11.3864 5.23554 11.8423 3.81345 12.6429L16.4153 17.25ZM16.4153 17.25L1.58587 17.25L1.58222 17.25M16.4153 17.25L1.58222 17.25M1.58222 17.25C1.44738 17.2506 1.31637 17.223 1.19997 17.1717C1.08509 17.1211 0.990644 17.0501 0.9203 16.9691C0.840724 16.8733 0.789917 16.7678 0.766099 16.6616C0.742087 16.5546 0.7449 16.4445 0.774792 16.3379L0.775936 16.3337M1.58222 17.25L0.775936 16.3337M0.775936 16.3337C1.19017 14.8215 2.21946 13.5407 3.81332 12.643L0.775936 16.3337ZM16.4153 18H1.58587H16.4153ZM16.4153 18C16.653 18.0011 16.8877 17.9527 17.1016 17.8586M16.4153 18L17.1016 17.8586M12.8626 4.50018C12.7829 5.5005 12.3434 6.43835 11.6239 7.14152L12.8626 4.50018ZM17.1016 17.8586C17.3155 17.7645 17.5029 17.6271 17.6494 17.4569L17.1016 17.8586Z" stroke="#0074D9" stroke-width="1.5"/>
</svg>