<svg xmlns="http://www.w3.org/2000/svg" width="21" height="25" viewBox="0 0 21 25" fill="none">
  <g clip-path="url(#clip0_3257_79643)">
    <path d="M5.79461 7.53296L5.79461 7.533C5.88306 8.78541 6.38399 9.94874 7.18706 10.8115C8.01417 11.6968 9.03171 12.1472 10.0438 12.1472C11.0567 12.1472 12.0732 11.6967 12.8974 10.8116L5.79461 7.53296ZM5.79461 7.53296C5.70115 6.21061 6.10475 5.04248 6.88231 4.20776C7.66301 3.36966 8.76617 2.9 10.0438 2.9C11.3065 2.9 12.4148 3.37671 13.1951 4.21502L13.1951 4.21504M5.79461 7.53296L13.1951 4.21504M13.1951 4.21504C13.981 5.05944 14.3836 6.22595 14.2906 7.53147M13.1951 4.21504L14.2906 7.53147M14.2906 7.53147C14.1997 8.7872 13.6987 9.9502 12.8976 10.8114L14.2906 7.53147ZM18.3232 23.1944H18.3186L1.76974 23.1944L1.76492 23.1944C1.63653 23.1951 1.5097 23.1663 1.39417 23.1103C1.28003 23.0549 1.17995 22.9744 1.10142 22.8748C1.01179 22.7562 0.949834 22.619 0.920108 22.4732L0.0382628 22.6531L0.920108 22.4732C0.890061 22.3259 0.893729 22.1737 0.930851 22.028L0.932006 22.0233C1.40088 20.1406 2.55923 18.5718 4.31868 17.4818C5.8897 16.5089 7.92304 15.9558 10.0438 15.9558C12.2133 15.9558 14.1889 16.4858 15.768 17.4574L15.7682 17.4575C17.5277 18.5394 18.6881 20.1152 19.1554 22.0237L19.1554 22.0237L19.1568 22.0291C19.1935 22.1751 19.1968 22.3275 19.1663 22.475C19.1362 22.6209 19.0739 22.7581 18.984 22.8768C18.9057 22.9758 18.806 23.0557 18.6923 23.1107C18.5773 23.1664 18.451 23.195 18.3232 23.1944ZM18.3186 24.0944H1.76974H18.3186Z" fill="black" stroke="black" stroke-width="1.8"/>
  </g>
  <defs>
    <clipPath id="clip0_3257_79643">
      <rect width="21" height="23.7391" fill="white" transform="translate(0 0.630493)"/>
    </clipPath>
  </defs>
</svg>