<svg xmlns="http://www.w3.org/2000/svg" width="19" height="27" viewBox="0 0 19 27" fill="none">
  <path fill-rule="evenodd" clip-rule="evenodd" d="M1.34833 9.5481C1.89398 9.5481 2.33631 9.99043 2.33631 10.5361V12.512C2.33631 16.3135 5.4507 19.4279 9.25217 19.4279C13.0536 19.4279 16.168 16.3135 16.168 12.512V10.5361C16.168 9.99043 16.6104 9.5481 17.156 9.5481C17.7016 9.5481 18.144 9.99043 18.144 10.5361V12.512C18.144 17.071 14.672 20.854 10.2401 21.349V24.3678H13.2041C13.7497 24.3678 14.1921 24.8101 14.1921 25.3558C14.1921 25.9014 13.7497 26.3438 13.2041 26.3438H5.30025C4.7546 26.3438 4.31227 25.9014 4.31227 25.3558C4.31227 24.8101 4.7546 24.3678 5.30025 24.3678H8.26419V21.349C3.83234 20.854 0.360352 17.071 0.360352 12.512V10.5361C0.360352 9.99043 0.802685 9.5481 1.34833 9.5481Z" fill="#93A3B1"/>
  <path d="M9.25217 17.4519C8.60012 17.4504 7.95503 17.3179 7.35519 17.0623C6.75534 16.8066 6.21297 16.4331 5.76028 15.9638C4.83353 15.0292 4.31316 13.7665 4.31227 12.4503V5.59618C4.30974 4.94676 4.43578 4.30326 4.68314 3.70278C4.9305 3.1023 5.29427 2.55672 5.75349 2.09751C6.2127 1.63829 6.75828 1.27452 7.35876 1.02716C7.95924 0.779802 8.60274 0.653756 9.25217 0.656287C12.0222 0.656287 14.1921 2.82614 14.1921 5.59618V12.4503C14.1921 15.208 11.9759 17.4519 9.25217 17.4519Z" fill="#93A3B1"/>
</svg>