<svg width="25" height="25" viewBox="0 0 25 25" fill="none" xmlns="http://www.w3.org/2000/svg">
<g id="send">
<path id="Vector" d="M17.9377 7.4633L17.932 7.4644L2.91359 10.6564C2.78702 10.6829 2.66898 10.7403 2.57003 10.8236C2.47109 10.9069 2.39433 11.0133 2.34661 11.1335C2.29525 11.2591 2.27593 11.3955 2.29037 11.5305C2.30482 11.6654 2.35259 11.7946 2.42937 11.9065L4.56167 15.006C4.66687 15.1588 4.82208 15.2701 5.00055 15.3208C5.17901 15.3714 5.36956 15.3582 5.53934 15.2834L12.7226 12.0777C12.751 12.0652 12.7827 12.063 12.8125 12.0714C12.8423 12.0799 12.8681 12.0984 12.8857 12.1239C12.9032 12.1494 12.9113 12.1802 12.9085 12.211C12.9058 12.2418 12.8924 12.2707 12.8706 12.2927L7.30884 17.855C7.17831 17.9867 7.0978 18.1598 7.08117 18.3445C7.06455 18.5292 7.11286 18.7139 7.21778 18.8668L9.35045 21.9669C9.42382 22.0737 9.52257 22.1606 9.63782 22.2198C9.75307 22.2791 9.88122 22.3087 10.0108 22.3062C10.167 22.3037 10.3189 22.2552 10.4477 22.1668C10.5372 22.1052 10.6134 22.0263 10.6719 21.9349L19.0409 9.07803L19.0444 9.072C19.1552 8.8962 19.212 8.69179 19.2078 8.48405C19.2036 8.27631 19.1386 8.07435 19.0209 7.90317C18.9031 7.73198 18.7377 7.59908 18.5452 7.5209C18.3527 7.44272 18.1415 7.4227 17.9377 7.4633Z" fill="#293137"/>
</g>
</svg>
