<svg width="24" height="24" viewBox="0 0 24 24" fill="none" xmlns="http://www.w3.org/2000/svg">
<path fill-rule="evenodd" clip-rule="evenodd" d="M18 3.75C17.1716 3.75 16.5 4.42157 16.5 5.25C16.5 5.50864 16.5655 5.752 16.6807 5.9644C16.6849 5.97127 16.6889 5.97823 16.6929 5.98528C16.6967 5.99204 16.7004 5.99885 16.704 6.00568C16.9641 6.4509 17.4471 6.75 18 6.75C18.8284 6.75 19.5 6.07843 19.5 5.25C19.5 4.42157 18.8284 3.75 18 3.75ZM15.836 7.32778C16.3819 7.8962 17.1496 8.25 18 8.25C19.6569 8.25 21 6.90685 21 5.25C21 3.59315 19.6569 2.25 18 2.25C16.3431 2.25 15 3.59315 15 5.25C15 5.51647 15.0347 5.77483 15.0999 6.0208L8.16399 9.92222C7.61807 9.3538 6.85035 9 6 9C4.34315 9 3 10.3431 3 12C3 13.6569 4.34315 15 6 15C6.85035 15 7.61807 14.6462 8.16399 14.0778L15.0999 17.9792C15.0347 18.2252 15 18.4835 15 18.75C15 20.4069 16.3431 21.75 18 21.75C19.6569 21.75 21 20.4069 21 18.75C21 17.0931 19.6569 15.75 18 15.75C17.1496 15.75 16.3819 16.1038 15.836 16.6722L8.90005 12.7708C8.96526 12.5248 9 12.2665 9 12C9 11.7335 8.96526 11.4752 8.90005 11.2292L15.836 7.32778ZM7.29603 11.2443C7.2996 11.2512 7.30329 11.258 7.3071 11.2647C7.31106 11.2718 7.31512 11.2787 7.31927 11.2856C7.43454 11.498 7.5 11.7414 7.5 12C7.5 12.2586 7.43454 12.502 7.31927 12.7144C7.31512 12.7213 7.31106 12.7282 7.3071 12.7353C7.30329 12.742 7.2996 12.7488 7.29603 12.7557C7.03588 13.2009 6.55287 13.5 6 13.5C5.17157 13.5 4.5 12.8284 4.5 12C4.5 11.1716 5.17157 10.5 6 10.5C6.55287 10.5 7.03588 10.7991 7.29603 11.2443ZM16.6807 18.0356C16.6849 18.0287 16.6889 18.0218 16.6929 18.0147C16.6967 18.008 16.7004 18.0011 16.704 17.9943C16.9641 17.5491 17.4471 17.25 18 17.25C18.8284 17.25 19.5 17.9216 19.5 18.75C19.5 19.5784 18.8284 20.25 18 20.25C17.1716 20.25 16.5 19.5784 16.5 18.75C16.5 18.4914 16.5655 18.248 16.6807 18.0356Z" fill="#0074D9" stroke="#0074D9" stroke-linecap="round" stroke-linejoin="round"/>
</svg>
