<svg xmlns="http://www.w3.org/2000/svg" width="27" height="28" viewBox="0 0 27 28" fill="none">
  <rect y="0.5" width="27" height="27" rx="7.2" fill="#EAF0F2"/>
  <path fill-rule="evenodd" clip-rule="evenodd" d="M20.25 4.71875C19.318 4.71875 18.5625 5.47427 18.5625 6.40625C18.5625 6.69723 18.6361 6.971 18.7658 7.20995C18.7705 7.21768 18.7751 7.22551 18.7795 7.23344C18.7838 7.24105 18.788 7.2487 18.792 7.25639C19.0846 7.75726 19.628 8.09375 20.25 8.09375C21.182 8.09375 21.9375 7.33823 21.9375 6.40625C21.9375 5.47427 21.182 4.71875 20.25 4.71875ZM17.8155 8.74375C18.4297 9.38323 19.2934 9.78125 20.25 9.78125C22.114 9.78125 23.625 8.27021 23.625 6.40625C23.625 4.54229 22.114 3.03125 20.25 3.03125C18.386 3.03125 16.875 4.54229 16.875 6.40625C16.875 6.70603 16.9141 6.99669 16.9874 7.27339L9.18449 11.6625C8.57033 11.023 7.70665 10.625 6.75 10.625C4.88604 10.625 3.375 12.136 3.375 14C3.375 15.864 4.88604 17.375 6.75 17.375C7.70665 17.375 8.57033 16.977 9.18449 16.3375L16.9874 20.7266C16.9141 21.0033 16.875 21.294 16.875 21.5937C16.875 23.4577 18.386 24.9687 20.25 24.9687C22.114 24.9687 23.625 23.4577 23.625 21.5937C23.625 19.7298 22.114 18.2187 20.25 18.2187C19.2934 18.2187 18.4297 18.6168 17.8155 19.2562L10.0126 14.8671C10.0859 14.5904 10.125 14.2998 10.125 14C10.125 13.7002 10.0859 13.4096 10.0126 13.1329L17.8155 8.74375ZM8.20804 13.1499C8.21206 13.1576 8.2162 13.1652 8.22048 13.1728C8.22494 13.1807 8.22951 13.1886 8.23418 13.1963C8.36385 13.4352 8.4375 13.709 8.4375 14C8.4375 14.291 8.36385 14.5648 8.23418 14.8037C8.22951 14.8114 8.22494 14.8193 8.22048 14.8272C8.2162 14.8348 8.21206 14.8424 8.20804 14.8501C7.91536 15.351 7.37198 15.6875 6.75 15.6875C5.81802 15.6875 5.0625 14.932 5.0625 14C5.0625 13.068 5.81802 12.3125 6.75 12.3125C7.37198 12.3125 7.91536 12.649 8.20804 13.1499ZM18.7658 20.7901C18.7705 20.7823 18.7751 20.7745 18.7795 20.7666C18.7838 20.7589 18.788 20.7513 18.792 20.7436C19.0847 20.2427 19.628 19.9062 20.25 19.9062C21.182 19.9062 21.9375 20.6618 21.9375 21.5937C21.9375 22.5257 21.182 23.2812 20.25 23.2812C19.318 23.2812 18.5625 22.5257 18.5625 21.5937C18.5625 21.3028 18.6361 21.029 18.7658 20.7901Z" fill="#343D45" stroke="#343D45" stroke-linecap="round" stroke-linejoin="round"/>
</svg>