<svg xmlns="http://www.w3.org/2000/svg" width="31" height="32" viewBox="0 0 31 32" fill="none">
  <rect x="0.263672" y="0.791016" width="30.2411" height="30.2411" rx="15.1206" fill="#EAF2EA"/>
  <path d="M22.9448 21.2074H22.9451C23.6154 21.2073 24.269 21.4171 24.814 21.8074C25.359 22.1977 25.7681 22.7488 25.984 23.3834C26.1998 24.018 26.2115 24.7043 26.0175 25.3459C25.8235 25.9876 25.4334 26.5523 24.9021 26.961C24.3707 27.3697 23.7248 27.6017 23.0548 27.6246C22.3849 27.6475 21.7246 27.46 21.1666 27.0885C20.6087 26.717 20.181 26.1801 19.9437 25.5532C19.7064 24.9263 19.6713 24.2408 19.8434 23.593L19.9568 23.1659L19.5717 22.9492L10.8301 18.0309L10.4447 17.814L10.1385 18.1332C9.69518 18.5955 9.12367 18.9145 8.49751 19.0493C7.87135 19.1841 7.21919 19.1284 6.62492 18.8895C6.03065 18.6506 5.52145 18.2393 5.16283 17.7086C4.80421 17.1779 4.61258 16.5521 4.61258 15.9116C4.61258 15.2711 4.80421 14.6452 5.16283 14.1145C5.52145 13.5839 6.03065 13.1726 6.62492 12.9337C7.21919 12.6948 7.87135 12.6391 8.49751 12.7739C9.12367 12.9087 9.69518 13.2277 10.1385 13.69L10.4447 14.0092L10.8301 13.7923L19.5717 8.87398L19.9571 8.65715L19.8433 8.22984C19.643 7.47797 19.7237 6.67888 20.0703 5.98227C20.4169 5.28566 21.0056 4.73932 21.7262 4.4456C22.4467 4.15189 23.2496 4.13095 23.9844 4.38671C24.7192 4.64248 25.3356 5.15739 25.7181 5.835C26.1005 6.5126 26.2228 7.3064 26.062 8.06768C25.9011 8.82896 25.4683 9.50548 24.8445 9.97052C24.2206 10.4356 23.4487 10.6572 22.6732 10.5939C21.8977 10.5306 21.1718 10.1867 20.6317 9.62672L20.3255 9.30932L19.9412 9.52556L11.1996 14.4439L10.8143 14.6607L10.928 15.088C11.0718 15.6277 11.0718 16.1955 10.928 16.7352L10.8143 17.1625L11.1996 17.3793L19.9412 22.2976L20.3272 22.5148L20.6334 22.1947C20.9319 21.8825 21.2907 21.634 21.688 21.4643C22.0853 21.2946 22.5128 21.2072 22.9448 21.2074Z" fill="#293137" stroke="#293137" stroke-width="1.14117"/>
</svg>