<svg xmlns="http://www.w3.org/2000/svg" width="17" height="17" viewBox="0 0 17 17" fill="none">
  <g clip-path="url(#clip0_1020_25018)">
    <path d="M6.27121 3.40771C7.15401 3.76116 8.15691 3.33178 8.51003 2.44901C8.86381 1.56617 8.43412 0.563267 7.55129 0.210118C6.66818 -0.143628 5.66595 0.285755 5.31213 1.16889C4.95905 2.0517 5.38777 3.05397 6.27121 3.40771Z" fill="#0E396C"/>
    <path d="M16.6902 4.3308L14.3807 0.458819C14.2048 0.131038 13.8491 -0.0374346 13.5008 0.00702434C13.4927 0.00768841 13.4846 0.00961419 13.4768 0.0102783C13.4511 0.014495 13.4252 0.02004 13.3996 0.0261825C13.3843 0.0303993 13.3687 0.0336532 13.3538 0.0385009C13.3006 0.0551025 13.2483 0.0764853 13.1977 0.103745C13.1036 0.154413 12.9975 0.223874 12.9306 0.299809L10.3903 2.26729L8.54193 3.68756C7.76557 4.18965 7.16413 4.16532 6.46407 4.00498L1.01564 2.45874C0.661563 2.35196 0.287331 2.55254 0.180881 2.90695C0.0744321 3.26103 0.274979 3.63526 0.629422 3.74204L5.82206 5.75495C6.05056 5.82182 6.43449 6.36775 6.69736 6.65917C7.08132 7.0863 8.54412 9.26538 12.0065 9.34328C12.2191 9.34816 12.272 9.40171 12.2983 9.54778L12.9517 16.2136C12.9517 16.6478 13.3038 17 13.7381 17C14.172 17 14.5245 16.6478 14.5245 16.2136C14.5245 16.2136 14.602 7.68023 14.6118 7.53484C14.6235 7.356 14.7358 7.25444 14.8948 7.11292C14.8948 7.11292 16.231 5.79778 16.2544 5.78254C16.9275 5.33692 16.9593 4.77287 16.6902 4.3308ZM12.3571 6.01788C12.1948 6.13536 11.607 6.24865 11.3655 6.2444C9.9498 6.22169 9.82841 5.07439 10.2565 4.64626L11.4489 3.52656L13.1629 1.95147L14.3645 4.44021L12.3571 6.01788Z" fill="#0E396C"/>
  </g>
  <defs>
    <clipPath id="clip0_1020_25018">
      <rect width="17" height="17" fill="white"/>
    </clipPath>
  </defs>
</svg>