<svg xmlns="http://www.w3.org/2000/svg" width="25" height="27" viewBox="0 0 25 27" fill="none">
  <g clip-path="url(#clip0_3257_73364)">
    <path d="M9.03838 6.03633C10.1924 6.49835 11.5034 5.93707 11.9649 4.78312C12.4274 3.62908 11.8657 2.3181 10.7117 1.85647C9.5573 1.39405 8.24719 1.95534 7.78469 3.10977C7.32315 4.26376 7.88356 5.57391 9.03838 6.03633Z" fill="black" stroke="black" stroke-width="1.4"/>
    <path d="M22.6592 8.632L19.6402 3.57059C19.4102 3.14212 18.9452 2.92189 18.49 2.98001C18.4794 2.98088 18.4688 2.98339 18.4586 2.98426C18.4251 2.98977 18.3911 2.99702 18.3577 3.00505C18.3377 3.01056 18.3173 3.01482 18.2978 3.02115C18.2282 3.04285 18.16 3.07081 18.0938 3.10644C17.9707 3.17267 17.832 3.26347 17.7446 3.36273L14.4239 5.93461L12.0078 7.79116C10.9929 8.4475 10.2067 8.41568 9.29164 8.20609L2.16951 6.18487C1.70666 6.04529 1.21747 6.30748 1.07832 6.77076C0.93917 7.23361 1.20132 7.7228 1.66465 7.86239L8.45241 10.4936C8.75111 10.581 9.25297 11.2947 9.59659 11.6756C10.0985 12.234 12.0107 15.0824 16.5367 15.1843C16.8146 15.1906 16.8837 15.2606 16.9181 15.4516L17.7722 24.165C17.7722 24.7327 18.2325 25.193 18.8002 25.193C19.3674 25.193 19.8281 24.7327 19.8281 24.165C19.8281 24.165 19.9295 13.0103 19.9423 12.8203C19.9575 12.5865 20.1043 12.4537 20.3122 12.2688C20.3122 12.2688 22.0589 10.5496 22.0894 10.5297C22.9693 9.94719 23.0109 9.20987 22.6592 8.632ZM16.9949 10.8373C16.7828 10.9909 16.0144 11.139 15.6988 11.1334C13.8482 11.1037 13.6895 9.60401 14.2491 9.04437L15.8078 7.5807L18.0483 5.52176L19.619 8.77502L16.9949 10.8373Z" fill="black" stroke="black" stroke-width="1.4"/>
  </g>
  <defs>
    <clipPath id="clip0_3257_73364">
      <rect width="25" height="26.3889" fill="white" transform="translate(0 0.305542)"/>
    </clipPath>
  </defs>
</svg>