<svg width="17" height="17" viewBox="0 0 17 17" fill="none" xmlns="http://www.w3.org/2000/svg">
<g clip-path="url(#clip0_204_788)">
<path d="M6.27047 3.40771C7.15328 3.76116 8.15618 3.33178 8.50929 2.44901C8.86307 1.56617 8.43339 0.563267 7.55055 0.210118C6.66745 -0.143628 5.66521 0.285755 5.3114 1.16889C4.95832 2.0517 5.38704 3.05397 6.27047 3.40771Z" fill="#003D72"/>
<path d="M16.6897 4.3308L14.3802 0.458819C14.2043 0.131038 13.8486 -0.0374346 13.5003 0.00702434C13.4922 0.00768841 13.4841 0.00961419 13.4763 0.0102783C13.4507 0.014495 13.4247 0.02004 13.3991 0.0261825C13.3838 0.0303993 13.3682 0.0336532 13.3533 0.0385009C13.3001 0.0551025 13.2478 0.0764853 13.1972 0.103745C13.1031 0.154413 12.997 0.223874 12.9301 0.299809L10.3898 2.26729L8.54144 3.68756C7.76508 4.18965 7.16364 4.16532 6.46359 4.00498L1.01515 2.45874C0.661075 2.35196 0.286842 2.55254 0.180393 2.90695C0.0739438 3.26103 0.274491 3.63526 0.628934 3.74204L5.82157 5.75495C6.05007 5.82182 6.434 6.36775 6.69687 6.65917C7.08083 7.0863 8.54363 9.26538 12.0061 9.34328C12.2186 9.34816 12.2715 9.40171 12.2978 9.54778L12.9512 16.2136C12.9512 16.6478 13.3033 17 13.7376 17C14.1715 17 14.524 16.6478 14.524 16.2136C14.524 16.2136 14.6015 7.68023 14.6113 7.53484C14.623 7.356 14.7353 7.25444 14.8943 7.11292C14.8943 7.11292 16.2305 5.79778 16.2539 5.78254C16.927 5.33692 16.9588 4.77287 16.6897 4.3308ZM12.3566 6.01788C12.1943 6.13536 11.6065 6.24865 11.365 6.2444C9.94932 6.22169 9.82792 5.07439 10.256 4.64626L11.4484 3.52656L13.1624 1.95147L14.364 4.44021L12.3566 6.01788Z" fill="#003D72"/>
</g>
<defs>
<clipPath id="clip0_204_788">
<rect width="17" height="17" fill="white"/>
</clipPath>
</defs>
</svg>
