<svg width="19" height="17" viewBox="0 0 19 17" fill="none" xmlns="http://www.w3.org/2000/svg">
<path fill-rule="evenodd" clip-rule="evenodd" d="M16.9542 5.07806C16.9542 4.91729 16.9542 4.75652 16.9467 4.59574C17.6963 4.06957 18.3484 3.40455 18.8655 2.65183C18.176 2.95146 17.4339 3.14877 16.6544 3.24378C17.4489 2.78338 18.056 2.04528 18.3484 1.16833C17.6063 1.59949 16.7818 1.90643 15.9049 2.07451C15.2003 1.34372 14.1828 0.890625 12.6219 0.890625C10.7488 0.890625 9.25655 2.57145 9.25655 4.63959C9.25655 4.93191 9.29403 5.21692 9.35399 5.49462C6.16099 5.34115 3.32777 3.84303 1.43145 1.57757C1.10166 2.13297 0.914277 2.77607 0.914277 3.46301C0.914277 4.76382 1.59635 5.91117 2.62321 6.5835C1.9936 6.56157 1.40147 6.39349 0.884296 6.11579C0.884296 6.13041 0.884296 6.14502 0.884296 6.16695C0.884296 7.97931 2.21097 9.49936 3.96487 9.84283C3.64257 9.93053 3.30528 9.97437 2.953 9.97437C2.70566 9.97437 2.46581 9.95245 2.23345 9.9086C2.72065 11.3994 4.14475 12.481 5.8237 12.5102C4.50453 13.5187 2.84807 14.118 1.04919 14.118C0.741885 14.118 0.434578 14.1034 0.134766 14.0668C1.8287 15.1192 4.21221 16.1094 6.37836 16.1094C13.4464 16.1094 16.9542 10.0255 16.9542 5.07806Z" fill="#0074D9"/>
</svg>
