<svg width="80" height="80" viewBox="0 0 80 80" fill="none" xmlns="http://www.w3.org/2000/svg">
<g clip-path="url(#clip0_2314_25091)">
<rect width="80" height="80" rx="40" fill="#E5EFF8"/>
<path d="M50.3798 25.3248C47.8713 22.6164 44.3676 21.125 40.5004 21.125C36.6126 21.125 33.0973 22.6074 30.6004 25.299C28.0764 28.0202 26.8467 31.7185 27.1354 35.712C27.7077 43.5908 33.7032 50 40.5004 50C47.2976 50 53.2827 43.5921 53.8641 35.7146C54.1567 31.7572 52.9192 28.0666 50.3798 25.3248Z" fill="#BFCBD6"/>
<path d="M63.1879 78.875H17.8129C17.219 78.8827 16.6308 78.758 16.0912 78.5098C15.5516 78.2616 15.074 77.8962 14.6934 77.4403C13.8555 76.4387 13.5177 75.071 13.7678 73.6878C14.8558 67.6524 18.2512 62.5825 23.5879 59.0234C28.3291 55.8639 34.3348 54.125 40.5004 54.125C46.666 54.125 52.6717 55.8652 57.4129 59.0234C62.7496 62.5812 66.145 67.6511 67.233 73.6865C67.4831 75.0697 67.1453 76.4374 66.3074 77.439C65.9269 77.8952 65.4494 78.2608 64.9098 78.5092C64.3702 78.7576 63.7819 78.8826 63.1879 78.875Z" fill="#BFCBD6"/>
</g>
<rect x="1" y="1" width="78" height="78" rx="39" stroke="white" stroke-width="2"/>
<defs>
<clipPath id="clip0_2314_25091">
<rect width="80" height="80" rx="40" fill="white"/>
</clipPath>
</defs>
</svg>
