<svg width="44" height="38" viewBox="0 0 44 38" fill="none" xmlns="http://www.w3.org/2000/svg">
<g clip-path="url(#clip0_383_4565)">
<path fill-rule="evenodd" clip-rule="evenodd" d="M-0.111328 7.34356C-0.111328 5.4259 1.44324 3.87134 3.36089 3.87134H13.0831C15.0008 3.87134 16.5553 5.4259 16.5553 7.34356V8.038L19.8887 5.538C20.8043 4.8513 22.1109 5.50461 22.1109 6.64912V17.7602C22.1109 18.9047 20.8043 19.558 19.8887 18.8713L16.5553 16.3713V17.0658C16.5553 18.9834 15.0008 20.538 13.0831 20.538H3.36089C1.44324 20.538 -0.111328 18.9834 -0.111328 17.0658V7.34356ZM3.36089 5.26023C2.2103 5.26023 1.27756 6.19297 1.27756 7.34356V17.0658C1.27756 18.2164 2.2103 19.1491 3.36089 19.1491H13.0831C14.2337 19.1491 15.1664 18.2164 15.1664 17.0658V15.2602C15.1664 14.5735 15.9504 14.1815 16.4998 14.5936L20.722 17.7602V6.64912L16.4998 9.81578C15.9504 10.2278 15.1664 9.83582 15.1664 9.14912V7.34356C15.1664 6.19297 14.2337 5.26023 13.0831 5.26023H3.36089ZM5.44423 9.44058C5.44423 8.59337 6.35435 8.05786 7.09494 8.46929L12.0703 11.2334C12.8323 11.6567 12.8323 12.7526 12.0703 13.176L7.09494 15.94C6.35435 16.3515 5.44423 15.816 5.44423 14.9688V9.44058ZM6.83312 9.91267V14.4967L10.9587 12.2047L6.83312 9.91267Z" fill="#737070" stroke="#737070"/>
</g>
<defs>
<clipPath id="clip0_383_4565">
<rect width="44" height="38" fill="white" transform="translate(0 0.205078)"/>
</clipPath>
</defs>
</svg>
