<svg xmlns="http://www.w3.org/2000/svg" width="31" height="31" viewBox="0 0 31 31" fill="none">
  <circle cx="15.1807" cy="15.1807" r="14.6747" fill="#F7F7F7" stroke="#93A3B1" stroke-width="1.01205"/>
  <path fill-rule="evenodd" clip-rule="evenodd" d="M21.5 11.6127C21.6624 11.5405 21.8403 11.51 22.0174 11.524C22.1946 11.538 22.3655 11.5961 22.5145 11.6929C22.6635 11.7897 22.786 11.9223 22.8708 12.0785C22.9556 12.2347 23 12.4096 23 12.5873V19.0127C23 19.1904 22.9556 19.3653 22.8708 19.5215C22.786 19.6777 22.6635 19.8103 22.5145 19.9071C22.3655 20.0039 22.1946 20.062 22.0174 20.076C21.8403 20.09 21.6624 20.0595 21.5 19.9873C21.4683 19.9732 21.438 19.9561 21.4097 19.9361L18.6527 17.9955C18.5129 17.897 18.3987 17.7664 18.32 17.6147C18.2412 17.4629 18.2 17.2944 18.2 17.1234V14.4766C18.2 14.3056 18.2412 14.1371 18.32 13.9853C18.3987 13.8336 18.5128 13.703 18.6527 13.6046L21.4097 11.6639C21.438 11.6439 21.4683 11.6268 21.5 11.6127ZM21.9333 12.5997V19.0003L19.2667 17.1232V14.4768L21.9333 12.5997Z" fill="#343D45"/>
  <path fill-rule="evenodd" clip-rule="evenodd" d="M9.2659 11H15.4168L15.4176 11C16.0136 11.0018 16.5845 11.2394 17.0059 11.6608C17.4273 12.0821 17.6648 12.6531 17.6667 13.249L17.6667 13.2498V18.3341L17.6667 18.3349C17.6649 18.9351 17.4257 19.5102 17.0013 19.9347C16.5769 20.3591 16.0018 20.5983 15.4015 20.6L15.4008 20.6H9.2659L9.26513 20.6C8.66491 20.5983 8.08977 20.3591 7.66535 19.9347C7.24093 19.5102 7.00173 18.9351 7 18.3349L7 18.3341V13.2659L7 13.2651C7.00173 12.6649 7.24093 12.0898 7.66535 11.6653C8.08977 11.2409 8.66491 11.0017 9.26513 11L9.2659 11ZM9.2675 12.0667C8.94937 12.0678 8.64457 12.1946 8.4196 12.4196C8.19463 12.6446 8.06776 12.9494 8.06667 13.2675V18.3325C8.06776 18.6506 8.19463 18.9554 8.4196 19.1804C8.64458 19.4054 8.9494 19.5322 9.26755 19.5333H15.3991C15.7173 19.5322 16.0221 19.4054 16.2471 19.1804C16.4721 18.9554 16.5989 18.6506 16.6 18.3324V13.2514C16.5988 12.9376 16.4736 12.6369 16.2517 12.415C16.0297 12.193 15.729 12.0678 15.4151 12.0667H9.2675Z" fill="#343D45"/>
  <path d="M22.0174 11.524L22.0097 11.6222L22.0174 11.524ZM21.5 11.6127L21.46 11.5227V11.5227L21.5 11.6127ZM22.5145 11.6929L22.5682 11.6103V11.6103L22.5145 11.6929ZM22.8708 12.0785L22.9573 12.0315L22.8708 12.0785ZM23 12.5873H23.0985V12.5873L23 12.5873ZM23 19.0127L23.0985 19.0127V19.0127H23ZM22.8708 19.5215L22.9573 19.5685L22.8708 19.5215ZM22.0174 20.076L22.0252 20.1742L22.0174 20.076ZM21.5 19.9873L21.54 19.8974V19.8974L21.5 19.9873ZM21.4097 19.9361L21.4664 19.8556L21.4097 19.9361ZM18.6527 17.9955L18.596 18.076L18.596 18.076L18.6527 17.9955ZM18.32 17.6147L18.2326 17.66V17.66L18.32 17.6147ZM18.2 17.1234H18.1015V17.1235L18.2 17.1234ZM18.2 14.4766L18.1015 14.4765V14.4766H18.2ZM18.32 13.9853L18.4074 14.0307L18.32 13.9853ZM18.6527 13.6046L18.596 13.524L18.596 13.524L18.6527 13.6046ZM21.4097 11.6639L21.4664 11.7444V11.7444L21.4097 11.6639ZM21.9333 12.5997H22.0318C22.0318 12.5629 22.0113 12.5292 21.9787 12.5123C21.9461 12.4954 21.9067 12.498 21.8767 12.5192L21.9333 12.5997ZM21.9333 19.0003L21.8767 19.0808C21.9067 19.102 21.9461 19.1046 21.9787 19.0877C22.0113 19.0708 22.0318 19.0371 22.0318 19.0003H21.9333ZM19.2667 17.1232H19.1682C19.1682 17.1553 19.1838 17.1853 19.21 17.2037L19.2667 17.1232ZM19.2667 14.4768L19.21 14.3963C19.1838 14.4147 19.1682 14.4447 19.1682 14.4768H19.2667ZM9.2659 11V10.9015L9.26562 10.9015L9.2659 11ZM15.4168 11L15.4171 10.9015H15.4168V11ZM15.4176 11L15.418 10.9015L15.4176 11ZM17.0059 11.6608L17.0755 11.5911L17.0059 11.6608ZM17.6667 13.249L17.5682 13.2493V13.2494L17.6667 13.249ZM17.6667 13.2498H17.7651L17.7651 13.2495L17.6667 13.2498ZM17.6667 18.3341L17.7651 18.3344V18.3341H17.6667ZM17.6667 18.3349L17.7651 18.3351V18.3351L17.6667 18.3349ZM17.0013 19.9347L17.0709 20.0043L17.0013 19.9347ZM15.4015 20.6L15.4018 20.6985H15.4018L15.4015 20.6ZM15.4008 20.6V20.6985L15.401 20.6985L15.4008 20.6ZM9.2659 20.6L9.26564 20.6985H9.2659V20.6ZM9.26513 20.6L9.26485 20.6985H9.26487L9.26513 20.6ZM7.66535 19.9347L7.73498 19.865L7.66535 19.9347ZM7 18.3349L6.90153 18.3351V18.3351L7 18.3349ZM7 18.3341H6.90153L6.90153 18.3344L7 18.3341ZM7 13.2659L6.90153 13.2656V13.2659H7ZM7 13.2651L6.90153 13.2649V13.2649L7 13.2651ZM7.66535 11.6653L7.73498 11.735L7.66535 11.6653ZM9.26513 11L9.26485 10.9015H9.26485L9.26513 11ZM8.4196 12.4196L8.48923 12.4892L8.4196 12.4196ZM9.2675 12.0667V11.9682L9.26716 11.9682L9.2675 12.0667ZM8.06667 13.2675L7.9682 13.2672V13.2675H8.06667ZM8.06667 18.3325H7.96819L7.9682 18.3328L8.06667 18.3325ZM8.4196 19.1804L8.34997 19.25H8.34997L8.4196 19.1804ZM9.26755 19.5333L9.26722 19.6318H9.26755V19.5333ZM15.3991 19.5333V19.6318L15.3995 19.6318L15.3991 19.5333ZM16.2471 19.1804L16.1774 19.1108L16.2471 19.1804ZM16.6 18.3324L16.6985 18.3328V18.3324H16.6ZM16.6 13.2514H16.6985L16.6985 13.2511L16.6 13.2514ZM16.2517 12.415L16.182 12.4846V12.4846L16.2517 12.415ZM15.4151 12.0667L15.4155 11.9682H15.4151V12.0667ZM22.0252 11.4258C21.8317 11.4105 21.6374 11.4438 21.46 11.5227L21.54 11.7026C21.6874 11.6371 21.8489 11.6094 22.0097 11.6222L22.0252 11.4258ZM22.5682 11.6103C22.4054 11.5046 22.2187 11.4411 22.0252 11.4258L22.0097 11.6222C22.1705 11.6349 22.3256 11.6876 22.4609 11.7755L22.5682 11.6103ZM22.9573 12.0315C22.8647 11.8609 22.731 11.7161 22.5682 11.6103L22.4609 11.7755C22.5961 11.8634 22.7073 11.9837 22.7843 12.1255L22.9573 12.0315ZM23.0985 12.5873C23.0985 12.3932 23.05 12.2021 22.9573 12.0315L22.7843 12.1255C22.8612 12.2672 22.9015 12.426 22.9015 12.5873L23.0985 12.5873ZM23.0985 19.0127V12.5873H22.9015V19.0127H23.0985ZM22.9573 19.5685C23.05 19.3979 23.0985 19.2068 23.0985 19.0127L22.9015 19.0127C22.9015 19.174 22.8612 19.3328 22.7843 19.4745L22.9573 19.5685ZM22.5682 19.9897C22.731 19.8839 22.8647 19.7391 22.9573 19.5685L22.7843 19.4745C22.7073 19.6163 22.5961 19.7366 22.4609 19.8245L22.5682 19.9897ZM22.0252 20.1742C22.2187 20.1589 22.4054 20.0954 22.5682 19.9897L22.4609 19.8245C22.3256 19.9124 22.1705 19.9651 22.0097 19.9778L22.0252 20.1742ZM21.46 20.0773C21.6374 20.1562 21.8317 20.1895 22.0252 20.1742L22.0097 19.9778C21.8489 19.9906 21.6874 19.9629 21.54 19.8974L21.46 20.0773ZM21.353 20.0166C21.3866 20.0403 21.4224 20.0606 21.46 20.0773L21.54 19.8974C21.5142 19.8859 21.4895 19.8719 21.4664 19.8556L21.353 20.0166ZM18.596 18.076L21.353 20.0166L21.4664 19.8556L18.7094 17.9149L18.596 18.076ZM18.2326 17.66C18.3186 17.8258 18.4433 17.9685 18.596 18.076L18.7094 17.9149C18.5824 17.8256 18.4789 17.707 18.4074 17.5693L18.2326 17.66ZM18.1015 17.1235C18.1016 17.3102 18.1465 17.4943 18.2326 17.66L18.4074 17.5693C18.3358 17.4316 18.2985 17.2786 18.2985 17.1234L18.1015 17.1235ZM18.2326 13.94C18.1465 14.1057 18.1016 14.2898 18.1015 14.4765L18.2985 14.4766C18.2985 14.3214 18.3358 14.1685 18.4074 14.0307L18.2326 13.94ZM18.596 13.524C18.4433 13.6315 18.3186 13.7742 18.2326 13.94L18.4074 14.0307C18.4789 13.893 18.5824 13.7744 18.7094 13.6851L18.596 13.524ZM21.46 11.5227C21.4224 11.5394 21.3866 11.5597 21.353 11.5834L21.4664 11.7444C21.4895 11.7281 21.5142 11.7141 21.54 11.7026L21.46 11.5227ZM21.8349 12.5997V19.0003H22.0318V12.5997H21.8349ZM21.99 18.9198L19.3233 17.0427L19.21 17.2037L21.8767 19.0808L21.99 18.9198ZM19.3651 17.1232V14.4768H19.1682V17.1232H19.3651ZM19.3233 14.5573L21.99 12.6802L21.8767 12.5192L19.21 14.3963L19.3233 14.5573ZM18.1015 14.4766V17.1234H18.2985V14.4766H18.1015ZM21.353 11.5834L18.596 13.524L18.7093 13.6851L21.4664 11.7444L21.353 11.5834ZM15.418 10.9015L15.4171 10.9015L15.4165 11.0985L15.4173 11.0985L15.418 10.9015ZM17.0755 11.5911C16.6358 11.1514 16.0399 10.9035 15.418 10.9015L15.4173 11.0985C15.9872 11.1002 16.5333 11.3274 16.9363 11.7304L17.0755 11.5911ZM17.7651 13.2487C17.7632 12.6268 17.5153 12.0309 17.0755 11.5911L16.9363 11.7304C17.3393 12.1334 17.5664 12.6794 17.5682 13.2493L17.7651 13.2487ZM17.7651 13.2495L17.7651 13.2487L17.5682 13.2494L17.5682 13.2502L17.7651 13.2495ZM17.7651 18.3351L17.7651 18.3344L17.5682 18.3338L17.5682 18.3346L17.7651 18.3351ZM17.0709 20.0043C17.5138 19.5615 17.7633 18.9614 17.7651 18.3351L17.5682 18.3346C17.5665 18.9088 17.3377 19.459 16.9317 19.865L17.0709 20.0043ZM15.4018 20.6985C16.0281 20.6967 16.6281 20.4471 17.0709 20.0043L16.9317 19.865C16.5257 20.271 15.9755 20.4999 15.4012 20.5015L15.4018 20.6985ZM15.401 20.6985L15.4018 20.6985L15.4013 20.5015L15.4005 20.5015L15.401 20.6985ZM9.26487 20.6985L9.26564 20.6985L9.26616 20.5015L9.2654 20.5015L9.26487 20.6985ZM7.59572 20.0043C8.03854 20.4471 8.63861 20.6967 9.26485 20.6985L9.26542 20.5015C8.69122 20.4999 8.141 20.271 7.73498 19.865L7.59572 20.0043ZM6.90153 18.3351C6.90333 18.9614 7.1529 19.5615 7.59572 20.0043L7.73498 19.865C7.32895 19.459 7.10012 18.9088 7.09847 18.3346L6.90153 18.3351ZM6.90153 18.3344L6.90153 18.3351L7.09847 18.3346L7.09847 18.3338L6.90153 18.3344ZM6.90153 13.2649L6.90153 13.2656L7.09847 13.2662L7.09847 13.2654L6.90153 13.2649ZM7.59572 11.5957C7.1529 12.0385 6.90333 12.6386 6.90153 13.2649L7.09847 13.2654C7.10012 12.6912 7.32895 12.141 7.73498 11.735L7.59572 11.5957ZM9.26485 10.9015C8.63861 10.9033 8.03854 11.1529 7.59572 11.5957L7.73498 11.735C8.141 11.329 8.69122 11.1001 9.26542 11.0985L9.26485 10.9015ZM9.26562 10.9015L9.26485 10.9015L9.26542 11.0985L9.26618 11.0985L9.26562 10.9015ZM8.48923 12.4892C8.69581 12.2826 8.97571 12.1661 9.26784 12.1651L9.26716 11.9682C8.92303 11.9694 8.59332 12.1066 8.34997 12.35L8.48923 12.4892ZM8.16514 13.2678C8.16614 12.9757 8.28264 12.6958 8.48923 12.4892L8.34997 12.35C8.10661 12.5933 7.96938 12.923 7.9682 13.2672L8.16514 13.2678ZM8.16514 18.3325V13.2675H7.9682V18.3325H8.16514ZM8.48923 19.1108C8.28264 18.9042 8.16614 18.6243 8.16514 18.3322L7.9682 18.3328C7.96938 18.677 8.10661 19.0067 8.34997 19.25L8.48923 19.1108ZM9.26789 19.4349C8.97573 19.4339 8.69582 19.3174 8.48923 19.1108L8.34997 19.25C8.59333 19.4934 8.92306 19.6306 9.26722 19.6318L9.26789 19.4349ZM15.3991 19.4349H9.26755V19.6318H15.3991V19.4349ZM16.1774 19.1108C15.9708 19.3174 15.6909 19.4339 15.3988 19.4349L15.3995 19.6318C15.7436 19.6306 16.0733 19.4934 16.3167 19.25L16.1774 19.1108ZM16.5015 18.3321C16.5005 18.6243 16.384 18.9042 16.1774 19.1108L16.3167 19.25C16.5601 19.0067 16.6973 18.6769 16.6985 18.3328L16.5015 18.3321ZM16.5015 13.2514V18.3324H16.6985V13.2514H16.5015ZM16.182 12.4846C16.3856 12.6882 16.5004 12.964 16.5015 13.2518L16.6985 13.2511C16.6972 12.9112 16.5616 12.5857 16.3213 12.3454L16.182 12.4846ZM15.4147 12.1651C15.7026 12.1662 15.9784 12.281 16.182 12.4846L16.3213 12.3454C16.0809 12.105 15.7553 11.9695 15.4155 11.9682L15.4147 12.1651ZM9.2675 12.1651H15.4151V11.9682H9.2675V12.1651ZM15.4168 10.9015H9.2659V11.0985H15.4168V10.9015ZM17.7651 18.3341V13.2498H17.5682V18.3341H17.7651ZM9.2659 20.6985H15.4008V20.5015H9.2659V20.6985ZM6.90153 13.2659V18.3341H7.09847V13.2659H6.90153Z" fill="#343D45"/>
</svg>