<svg width="324" height="145" viewBox="0 0 324 145" fill="none" xmlns="http://www.w3.org/2000/svg">
<rect width="324" height="145" rx="4" fill="white"/>
<path d="M202.551 37.0938H190.46C190.247 37.0938 190.042 37.009 189.891 36.8581C189.74 36.7072 189.656 36.5025 189.656 36.2891C189.656 35.3053 189.656 34.4785 189.656 33.8589C189.651 32.1544 188.971 30.5211 187.764 29.3173C186.558 28.1135 184.923 27.4375 183.218 27.4375L138.198 27.4898C136.495 27.493 134.863 28.1707 133.659 29.3746C132.454 30.5785 131.776 32.2104 131.772 33.9132C131.772 34.563 131.772 35.3657 131.772 36.2891C131.772 36.5025 131.688 36.7072 131.537 36.8581C131.386 37.009 131.181 37.0938 130.968 37.0938H118.863C118.01 37.0938 117.191 37.4329 116.587 38.0365C115.984 38.6401 115.645 39.4588 115.645 40.3125V43.5312C115.645 54.5012 121.68 66.153 131.038 68.7481C131.315 68.8252 131.565 68.9765 131.762 69.1858C131.959 69.395 132.095 69.6541 132.155 69.9351C133.315 75.3446 136.886 80.4966 142.497 84.7433C146.703 87.9279 151.721 90.2755 156.231 91.2774C156.588 91.3573 156.906 91.5562 157.135 91.8414C157.363 92.1266 157.488 92.4811 157.488 92.8465V110.32C157.488 110.534 157.404 110.738 157.253 110.889C157.102 111.04 156.897 111.125 156.684 111.125H144.704C142.972 111.125 141.485 112.457 141.399 114.189C141.378 114.624 141.445 115.059 141.597 115.467C141.749 115.876 141.983 116.249 142.283 116.564C142.584 116.88 142.945 117.131 143.346 117.302C143.746 117.474 144.178 117.562 144.613 117.562H176.71C178.442 117.562 179.929 116.231 180.016 114.499C180.036 114.063 179.969 113.629 179.817 113.22C179.665 112.812 179.431 112.439 179.131 112.123C178.83 111.808 178.469 111.557 178.068 111.385C177.668 111.214 177.236 111.125 176.801 111.125H164.73C164.517 111.125 164.312 111.04 164.161 110.889C164.011 110.738 163.926 110.534 163.926 110.32V92.8465C163.926 92.4811 164.051 92.1266 164.279 91.8414C164.508 91.5562 164.827 91.3573 165.183 91.2774C169.693 90.2715 174.711 87.9279 178.917 84.7433C184.528 80.4966 188.099 75.3446 189.259 69.9351C189.319 69.6541 189.455 69.395 189.652 69.1858C189.849 68.9765 190.099 68.8252 190.376 68.7481C199.734 66.153 205.77 54.5012 205.77 43.5312V40.3125C205.77 39.4588 205.43 38.6401 204.827 38.0365C204.223 37.4329 203.404 37.0938 202.551 37.0938ZM131.738 60.8763C131.738 61.0173 131.7 61.1557 131.629 61.2776C131.559 61.3996 131.457 61.5008 131.335 61.571C131.212 61.6413 131.074 61.6783 130.933 61.6781C130.792 61.678 130.653 61.6408 130.531 61.5703C128.467 60.3412 126.96 58.4783 126.077 57.1667C123.681 53.6079 122.255 48.985 122.096 44.3661C122.092 44.2579 122.11 44.15 122.148 44.0489C122.187 43.9478 122.246 43.8555 122.321 43.7775C122.396 43.6996 122.486 43.6376 122.586 43.5953C122.685 43.5529 122.793 43.5312 122.901 43.5312H130.948C131.161 43.5312 131.366 43.616 131.517 43.7669C131.668 43.9178 131.752 44.1225 131.752 44.3359C131.748 49.8581 131.738 56.1789 131.738 60.8763ZM195.335 57.1667C194.452 58.4783 192.947 60.3412 190.883 61.5703C190.761 61.6409 190.622 61.6781 190.481 61.6781C190.339 61.6782 190.201 61.6411 190.078 61.5705C189.956 61.5 189.855 61.3985 189.784 61.2763C189.713 61.1541 189.676 61.0155 189.676 60.8743C189.676 55.5412 189.676 49.4819 189.666 44.3359C189.666 44.1225 189.751 43.9178 189.901 43.7669C190.052 43.616 190.257 43.5312 190.47 43.5312H198.517C198.626 43.5312 198.733 43.5529 198.832 43.5953C198.932 43.6376 199.022 43.6996 199.097 43.7775C199.172 43.8555 199.231 43.9478 199.27 44.0489C199.308 44.15 199.326 44.2579 199.322 44.3661C199.163 48.985 197.733 53.6079 195.337 57.1667H195.335Z" fill="#94AEC5"/>
<path d="M77.0995 104.155C79.0396 104.155 80.6124 102.582 80.6124 100.642C80.6124 98.7017 79.0396 97.1289 77.0995 97.1289C75.1594 97.1289 73.5866 98.7017 73.5866 100.642C73.5866 102.582 75.1594 104.155 77.0995 104.155Z" fill="#94AEC5"/>
<path d="M59.9499 65.5127C58.9713 65.5125 58.0119 65.7849 57.1793 66.2993C56.3467 66.8137 55.6738 67.5498 55.236 68.4251L51.8329 75.2314C51.5004 75.9007 51.3132 76.6328 51.2837 77.3795C51.2542 78.1263 51.383 78.8709 51.6617 79.5643H82.202C82.2764 79.5644 82.3495 79.5456 82.4146 79.5097C82.4797 79.4738 82.5346 79.422 82.5742 79.359L90.8624 66.1856C90.9042 66.1193 90.9274 66.0431 90.9297 65.9647C90.932 65.8864 90.9133 65.8089 90.8756 65.7403C90.8378 65.6716 90.7824 65.6143 90.715 65.5743C90.6477 65.5343 90.5708 65.513 90.4925 65.5127H59.9499Z" fill="#94AEC5"/>
<path d="M102.367 75.2347L98.9641 68.4284C98.6135 67.7214 98.1076 67.1028 97.4843 66.6188C96.8609 66.1348 96.1363 65.798 95.3644 65.6335L86.5953 79.5643L81.7102 87.3674C78.7239 86.3301 75.4751 86.3301 72.4888 87.3674L69.9288 83.2836C69.8893 83.2205 69.8345 83.1684 69.7694 83.1323C69.7043 83.0962 69.6311 83.0773 69.5566 83.0772H54.6103C54.5315 83.0774 54.4543 83.0987 54.3866 83.1389C54.3189 83.1792 54.2633 83.2369 54.2255 83.3061C54.1878 83.3752 54.1694 83.4532 54.1722 83.532C54.175 83.6107 54.1989 83.6872 54.2415 83.7535L63.3201 97.8853C62.9111 99.9243 62.9598 102.029 63.4627 104.047C63.9655 106.065 64.91 107.946 66.2281 109.554C67.5461 111.163 69.2047 112.459 71.0843 113.349C72.964 114.239 75.0177 114.7 77.0973 114.7C79.177 114.7 81.2307 114.239 83.1103 113.349C84.9899 112.459 86.6486 111.163 87.9666 109.554C89.2846 107.946 90.2291 106.065 90.732 104.047C91.2348 102.029 91.2835 99.9243 90.8745 97.8853L102.087 80.4426C102.58 79.6725 102.864 78.7881 102.913 77.8755C102.962 76.9628 102.774 76.0531 102.367 75.2347ZM77.5573 107.653C76.1317 107.746 74.7115 107.403 73.4863 106.668C72.261 105.934 71.2888 104.843 70.6993 103.541C70.1098 102.24 69.931 100.79 70.1868 99.3844C70.4427 97.9788 71.1209 96.6847 72.1311 95.6745C73.1413 94.6643 74.4355 93.986 75.841 93.7302C77.2466 93.4744 78.6967 93.6531 79.9981 94.2426C81.2995 94.8321 82.3902 95.8043 83.1248 97.0296C83.8595 98.2549 84.2031 99.675 84.11 101.101C83.997 102.801 83.2705 104.403 82.0655 105.608C80.8605 106.813 79.2589 107.54 77.5584 107.653H77.5573Z" fill="#94AEC5"/>
<path d="M247.323 98.8215C246.835 98.8577 246.342 98.8758 245.845 98.8758C245.24 98.8758 244.642 98.8481 244.051 98.796C241.126 98.5368 238.293 97.6486 235.744 96.1924C233.195 94.7361 230.991 92.7461 229.282 90.3587C229.237 90.2945 229.177 90.2428 229.106 90.2084C229.036 90.1741 228.958 90.1582 228.88 90.1622C228.801 90.1662 228.725 90.1901 228.659 90.2316C228.592 90.273 228.537 90.3307 228.499 90.3992L220.171 105.368C219.854 105.946 219.804 106.64 220.138 107.204C220.312 107.484 220.555 107.715 220.843 107.876C221.131 108.036 221.455 108.12 221.784 108.121H230.807C231.121 108.109 231.433 108.181 231.71 108.33C231.987 108.48 232.219 108.7 232.382 108.968L236.854 116.449C237.018 116.727 237.25 116.958 237.529 117.12C237.807 117.282 238.123 117.369 238.445 117.375C239.132 117.336 239.843 116.89 240.129 116.264L247.776 99.4739C247.809 99.4009 247.823 99.3207 247.816 99.2409C247.808 99.1612 247.781 99.0847 247.735 99.019C247.689 98.9532 247.627 98.9005 247.555 98.8659C247.483 98.8312 247.403 98.8159 247.323 98.8215Z" fill="#94AEC5"/>
<path d="M271.457 105.33L263.183 90.3888C263.145 90.3209 263.09 90.2639 263.024 90.2228C262.958 90.1818 262.882 90.1581 262.805 90.1539C262.727 90.1498 262.649 90.1653 262.579 90.1991C262.509 90.2328 262.449 90.2838 262.403 90.3471C260.128 93.5353 256.983 96.0016 253.345 97.4519C252.898 97.6279 252.537 97.9699 252.336 98.4062L248.073 107.787C248.018 107.907 247.989 108.037 247.989 108.169C247.989 108.301 248.018 108.431 248.073 108.551L251.574 116.254C251.857 116.879 252.568 117.336 253.254 117.375C253.576 117.367 253.891 117.276 254.168 117.112C254.446 116.947 254.677 116.714 254.838 116.435L259.295 108.965C259.63 108.404 260.236 108.117 260.889 108.121H270.001C270.773 108.121 271.357 107.718 271.62 106.964C271.713 106.696 271.747 106.411 271.718 106.129C271.69 105.847 271.601 105.575 271.457 105.33Z" fill="#94AEC5"/>
<path d="M245.849 84.0602C248.916 84.0602 251.403 81.5743 251.403 78.5078C251.403 75.4413 248.916 72.9554 245.849 72.9554C242.782 72.9554 240.296 75.4413 240.296 78.5078C240.296 81.5743 242.782 84.0602 245.849 84.0602Z" fill="#94AEC5"/>
<path d="M245.849 61.8506C236.662 61.8506 229.192 69.322 229.192 78.5078C229.192 87.6935 236.666 95.165 245.849 95.165C255.033 95.165 262.506 87.6924 262.506 78.5078C262.506 69.3232 255.035 61.8506 245.849 61.8506ZM245.849 87.7618C244.019 87.7618 242.23 87.219 240.708 86.2022C239.186 85.1854 238 83.7401 237.3 82.0491C236.599 80.3582 236.416 78.4975 236.773 76.7024C237.13 74.9073 238.011 73.2584 239.306 71.9642C240.6 70.67 242.249 69.7887 244.044 69.4316C245.839 69.0745 247.7 69.2578 249.391 69.9582C251.082 70.6586 252.527 71.8447 253.544 73.3665C254.561 74.8883 255.103 76.6775 255.103 78.5078C255.1 80.9612 254.124 83.3132 252.389 85.048C250.655 86.7828 248.303 87.7587 245.849 87.7618Z" fill="#94AEC5"/>
</svg>
