<svg xmlns="http://www.w3.org/2000/svg" width="28" height="27" viewBox="0 0 28 27" fill="none">
  <path d="M3.03125 9.28201V9.31682C3.03 9.53424 2.9515 9.74414 2.80977 9.90902V9.91166C2.525 10.2481 2.1875 10.8503 2.1875 11.8133C2.1875 12.686 2.46699 13.302 2.80344 13.707C2.95105 13.8866 3.03159 14.112 3.03125 14.3445C3.03125 14.7921 3.20904 15.2213 3.52551 15.5378C3.84197 15.8542 4.2712 16.032 4.71875 16.032H5.14063C5.25251 16.032 5.35982 15.9876 5.43894 15.9084C5.51805 15.8293 5.5625 15.722 5.5625 15.6101V8.01639C5.5625 7.9045 5.51805 7.79719 5.43894 7.71808C5.35982 7.63896 5.25251 7.59451 5.14063 7.59451H4.71875C4.2712 7.59451 3.84197 7.7723 3.52551 8.08877C3.20904 8.40524 3.03125 8.83446 3.03125 9.28201Z" fill="#293137"/>
  <path d="M24.3454 9.83836L24.2964 9.82939C24.2482 9.82019 24.2047 9.79446 24.1734 9.75663C24.1421 9.71879 24.125 9.67124 24.125 9.62215V3.27029C24.125 2.60373 23.6826 2.00467 23.0234 1.77685C22.3948 1.56012 21.7398 1.73678 21.3528 2.22668C20.5293 3.20998 19.6241 4.12184 18.647 4.95252C17.4008 6.00721 16.2085 6.75867 15.1138 7.18371C15.0339 7.21415 14.9652 7.26811 14.9167 7.33845C14.8682 7.40879 14.8422 7.4922 14.8422 7.57764V15.7683C14.8423 15.9333 14.8908 16.0946 14.9816 16.2322C15.0724 16.3699 15.2016 16.478 15.3532 16.543C16.373 16.9802 17.4752 17.6942 18.6227 18.6671C19.6072 19.5053 20.519 20.4255 21.348 21.4178C21.4808 21.5844 21.6504 21.7181 21.8434 21.8084C22.0364 21.8987 22.2477 21.9431 22.4607 21.9383C22.648 21.9374 22.8339 21.9065 23.0113 21.8465C23.6878 21.6219 24.125 21.0444 24.125 20.3773V14.0033C24.125 13.9535 24.1427 13.9054 24.1748 13.8673C24.207 13.8293 24.2515 13.8039 24.3006 13.7955L24.3454 13.7882C24.8527 13.6505 25.8125 13.0615 25.8125 11.8133C25.8125 10.565 24.8527 9.976 24.3454 9.83836Z" fill="#293137"/>
  <path d="M13.1563 16.8758V8.01639C13.1563 7.9045 13.1118 7.79719 13.0327 7.71808C12.9536 7.63896 12.8463 7.59451 12.7344 7.59451H7.67188C7.55999 7.59451 7.45268 7.63896 7.37356 7.71808C7.29445 7.79719 7.25 7.9045 7.25 8.01639V24.0476C7.25 24.3833 7.38334 24.7052 7.62069 24.9426C7.85804 25.1799 8.17996 25.3133 8.51563 25.3133H11.2815C11.5445 25.3155 11.8044 25.2574 12.0414 25.1436C12.2784 25.0298 12.4863 24.8633 12.6489 24.6567C12.8158 24.4429 12.9279 24.1917 12.9758 23.9247C13.0237 23.6578 13.0058 23.3832 12.9237 23.1248C12.8383 22.8516 12.7323 22.5447 12.6194 22.2183C12.2023 21.0107 11.6523 20.2634 11.5057 18.5627C11.9467 18.5531 12.3664 18.3711 12.6749 18.0558C12.9834 17.7405 13.1562 17.3169 13.1563 16.8758Z" fill="#293137"/>
</svg>