<svg xmlns="http://www.w3.org/2000/svg" width="102" height="102" viewBox="0 0 102 102" fill="none">
  <path d="M84.8556 17.0036C89.0282 15.4141 93.5 18.4958 93.5 22.961V67.3583C93.5 71.5937 89.4461 74.6516 85.3737 73.488L51.87 63.9155C51.4903 63.8071 51.0973 63.752 50.7024 63.752H46.75V68.002H50.7024L84.2061 77.5745C90.9935 79.5138 97.75 74.4173 97.75 67.3583V22.961C97.75 15.519 90.297 10.3828 83.3426 13.0321L50.609 25.502H25.5C19.8642 25.502 14.4591 27.7409 10.474 31.7261C6.48883 35.7112 4.25 41.1163 4.25 46.7521C4.25 52.388 6.48883 57.793 10.474 61.7781C14.4591 65.7633 19.8642 68.0021 25.5 68.0021L28.5944 68.002L43.1018 90.407L46.6692 88.097L30.9056 63.752H25.5C20.9913 63.752 16.6673 61.961 13.4792 58.7729C10.2911 55.5848 8.5 51.2608 8.5 46.7521C8.5 42.2434 10.2911 37.9194 13.4792 34.7313C16.6673 31.5432 20.9913 29.7521 25.5 29.7521L50.609 29.752C51.126 29.752 51.6387 29.6577 52.1219 29.4736L84.8556 17.0036Z" fill="#C7D3DE"/>
</svg>