<svg xmlns="http://www.w3.org/2000/svg" width="29" height="29" viewBox="0 0 29 29" fill="none">
  <path d="M20.8438 1.8125H8.15625C7.19516 1.81355 6.27374 2.1958 5.59415 2.8754C4.91456 3.55499 4.5323 4.47641 4.53125 5.4375V23.5625C4.5323 24.5236 4.91456 25.445 5.59415 26.1246C6.27374 26.8042 7.19516 27.1864 8.15625 27.1875H20.8438C21.8048 27.1864 22.7263 26.8042 23.4059 26.1246C24.0854 25.445 24.4677 24.5236 24.4688 23.5625V5.4375C24.4677 4.47641 24.0854 3.55499 23.4059 2.8754C22.7263 2.1958 21.8048 1.81355 20.8438 1.8125ZM14.5 17.2187H9.96875C9.7284 17.2187 9.49789 17.1233 9.32793 16.9533C9.15798 16.7834 9.0625 16.5529 9.0625 16.3125C9.0625 16.0721 9.15798 15.8416 9.32793 15.6717C9.49789 15.5017 9.7284 15.4062 9.96875 15.4062H14.5C14.7404 15.4062 14.9709 15.5017 15.1408 15.6717C15.3108 15.8416 15.4062 16.0721 15.4062 16.3125C15.4062 16.5529 15.3108 16.7834 15.1408 16.9533C14.9709 17.1233 14.7404 17.2187 14.5 17.2187ZM19.0312 12.6875H9.96875C9.7284 12.6875 9.49789 12.592 9.32793 12.4221C9.15798 12.2521 9.0625 12.0216 9.0625 11.7812C9.0625 11.5409 9.15798 11.3104 9.32793 11.1404C9.49789 10.9705 9.7284 10.875 9.96875 10.875H19.0312C19.2716 10.875 19.5021 10.9705 19.6721 11.1404C19.842 11.3104 19.9375 11.5409 19.9375 11.7812C19.9375 12.0216 19.842 12.2521 19.6721 12.4221C19.5021 12.592 19.2716 12.6875 19.0312 12.6875ZM19.0312 8.15625H9.96875C9.7284 8.15625 9.49789 8.06077 9.32793 7.89081C9.15798 7.72086 9.0625 7.49035 9.0625 7.25C9.0625 7.00965 9.15798 6.77914 9.32793 6.60918C9.49789 6.43923 9.7284 6.34375 9.96875 6.34375H19.0312C19.2716 6.34375 19.5021 6.43923 19.6721 6.60918C19.842 6.77914 19.9375 7.00965 19.9375 7.25C19.9375 7.49035 19.842 7.72086 19.6721 7.89081C19.5021 8.06077 19.2716 8.15625 19.0312 8.15625Z" fill="#293137"/>
</svg>