<svg xmlns="http://www.w3.org/2000/svg" width="95" height="95" viewBox="0 0 95 95" fill="none">
  <path fill-rule="evenodd" clip-rule="evenodd" d="M46.9994 7.41406C39.0271 7.41406 31.3966 10.699 25.7821 16.5215C20.1699 22.3415 17.0292 30.2202 17.0292 38.421V52.6567C17.0292 53.1692 16.8304 53.6617 16.4747 54.0305L11.0587 59.6472C9.99156 60.7538 9.39526 62.2313 9.39526 63.7686V68.7682C9.39526 72.0474 12.0536 74.7057 15.3328 74.7057H78.6661C81.9453 74.7057 84.6036 72.0474 84.6036 68.7682V63.7686C84.6036 62.2313 84.0073 60.7538 82.9402 59.6472L77.5241 54.0305C77.1684 53.6617 76.9697 53.1692 76.9697 52.6567V38.421C76.9697 30.2202 73.8289 22.3415 68.2168 16.5215C62.6023 10.699 54.9717 7.41406 46.9994 7.41406ZM28.6314 19.2691C33.5156 14.204 40.1243 11.3724 46.9994 11.3724C53.8745 11.3724 60.4832 14.204 65.3674 19.2691C70.254 24.3366 73.0113 31.2245 73.0113 38.421V52.6567C73.0113 54.1941 73.6076 55.6715 74.6748 56.7782L80.0908 62.3948C80.4465 62.7637 80.6453 63.2562 80.6453 63.7686V68.7682C80.6453 69.8613 79.7592 70.7474 78.6661 70.7474H15.3328C14.2397 70.7474 13.3536 69.8613 13.3536 68.7682V63.7686C13.3536 63.2562 13.5524 62.7637 13.9081 62.3948L19.3241 56.7782C20.3912 55.6715 20.9875 54.1941 20.9875 52.6567V38.421C20.9875 31.2245 23.7449 24.3366 28.6314 19.2691Z" fill="#C7D3DE"/>
  <path d="M54.9161 78.6641C54.9161 80.7637 54.082 82.7773 52.5974 84.262C51.1127 85.7466 49.0991 86.5807 46.9994 86.5807C44.8998 86.5807 42.8862 85.7467 41.4015 84.262C39.9168 82.7773 39.0828 80.7637 39.0828 78.6641H35.1244C35.1244 81.8135 36.3755 84.834 38.6025 87.061C40.8295 89.2879 43.85 90.5391 46.9994 90.5391C50.1489 90.5391 53.1693 89.2879 55.3963 87.061C57.6233 84.834 58.8744 81.8135 58.8744 78.6641H54.9161Z" fill="#C7D3DE"/>
</svg>