<svg width="30" height="30" viewBox="0 0 30 30" fill="none" xmlns="http://www.w3.org/2000/svg">
<g id="chatbox-ellipses">
<g id="Vector">
<path fill-rule="evenodd" clip-rule="evenodd" d="M6.09108 2.8125L6.09375 2.8125H23.9062V3.75L23.9089 2.8125C25.0261 2.81568 26.0966 3.2609 26.8866 4.05088C27.6766 4.84086 28.1218 5.91139 28.125 7.02858L28.125 7.03125V18.2812L28.125 18.2839C28.1218 19.4011 27.6766 20.4716 26.8866 21.2616C26.0966 22.0516 25.0261 22.4968 23.9089 22.5L23.9062 22.5H14.3992L9.03785 26.9701C8.75843 27.203 8.36944 27.2533 8.03996 27.099C7.71048 26.9448 7.5 26.6138 7.5 26.25V22.5H6.09375L6.09108 22.5C4.97389 22.4968 3.90336 22.0516 3.11338 21.2616C2.3234 20.4716 1.87818 19.4011 1.875 18.2839L1.875 18.2812V7.03125L1.875 7.02858C1.87818 5.91139 2.3234 4.84086 3.11338 4.05088C3.90336 3.2609 4.97389 2.81568 6.09108 2.8125ZM14.5299 22.391C14.5297 22.3912 14.5295 22.3914 14.5293 22.3915L14.5299 22.391ZM23.9048 4.6875H6.09519C5.47387 4.68959 4.87857 4.93733 4.4392 5.3767C3.99983 5.81607 3.75209 6.41137 3.75 7.03269V18.2798C3.75209 18.9011 3.99983 19.4964 4.4392 19.9358C4.87858 20.3752 5.47391 20.6229 6.09526 20.625H8.4375C8.95527 20.625 9.375 21.0447 9.375 21.5625V24.2477L13.3279 20.952C13.3281 20.9518 13.3283 20.9516 13.3286 20.9514C13.5814 20.7405 13.9002 20.625 14.2295 20.625H23.9047C24.5261 20.6229 25.1214 20.3752 25.5608 19.9358C26.0002 19.4964 26.2479 18.9011 26.25 18.2797V7.03276C26.2479 6.41141 26.0002 5.81608 25.5608 5.3767C25.1214 4.93733 24.5261 4.68959 23.9048 4.6875Z" fill="#343D45"/>
<path d="M9.375 14.5312C10.4105 14.5312 11.25 13.6918 11.25 12.6562C11.25 11.6207 10.4105 10.7812 9.375 10.7812C8.33947 10.7812 7.5 11.6207 7.5 12.6562C7.5 13.6918 8.33947 14.5312 9.375 14.5312Z" fill="#343D45"/>
<path d="M15 14.5312C16.0355 14.5312 16.875 13.6918 16.875 12.6562C16.875 11.6207 16.0355 10.7812 15 10.7812C13.9645 10.7812 13.125 11.6207 13.125 12.6562C13.125 13.6918 13.9645 14.5312 15 14.5312Z" fill="#343D45"/>
<path d="M20.625 14.5312C21.6605 14.5312 22.5 13.6918 22.5 12.6562C22.5 11.6207 21.6605 10.7812 20.625 10.7812C19.5895 10.7812 18.75 11.6207 18.75 12.6562C18.75 13.6918 19.5895 14.5312 20.625 14.5312Z" fill="#343D45"/>
</g>
</g>
</svg>
