<svg xmlns="http://www.w3.org/2000/svg" width="36" height="35" viewBox="0 0 36 35" fill="none">
  <path fill-rule="evenodd" clip-rule="evenodd" d="M18.0363 1.51367C18.5865 1.5151 19.1136 1.73427 19.5026 2.12327C19.8916 2.51227 20.1108 3.03945 20.1122 3.58957V4.58817C23.5488 5.01609 26.7504 6.5583 29.2272 8.97876C30.6436 10.3468 31.771 11.9853 32.5425 13.7971C33.3139 15.609 33.7137 17.5573 33.7182 19.5265C33.7182 19.6025 33.7182 19.73 33.7182 19.9118L33.5852 24.9645C33.5997 25.0185 33.6061 25.0742 33.6042 25.13L34.6706 32.8394C34.6829 32.9105 34.6808 32.9834 34.6645 33.0538C34.6482 33.1242 34.618 33.1906 34.5757 33.2491C34.5337 33.3091 34.4803 33.3601 34.4185 33.3994C34.3568 33.4387 34.2879 33.4654 34.2158 33.478C34.1437 33.4906 34.0698 33.4889 33.9984 33.4729C33.927 33.4569 33.8594 33.4269 33.7996 33.3848C30.0006 30.7092 23.9872 29.3741 17.9794 29.3741C11.9715 29.3741 5.95543 30.7119 2.2161 33.3739C2.09829 33.4608 1.95147 33.4987 1.80635 33.4798C1.6596 33.4602 1.52662 33.3832 1.43657 33.2657C1.34653 33.1482 1.30678 32.9997 1.32605 32.8529L2.41148 25.0948C2.40868 25.0614 2.40868 25.0278 2.41148 24.9944L2.1157 20.1669C2.09671 19.8575 2.08585 19.5618 2.08585 19.2795C2.08585 15.3014 3.80084 11.7303 6.51172 9.0873C9.08657 6.59669 12.4043 5.015 15.9604 4.58274V3.58957C15.9626 3.03967 16.182 2.5129 16.5708 2.12406C16.9597 1.73521 17.4864 1.51582 18.0363 1.51367Z" fill="white" stroke="white" stroke-width="1.72622"/>
  <path d="M31.3779 23.0569C26.9783 21.275 22.2619 20.3966 17.51 20.4773L17.5083 20.4773C13.0579 20.566 8.75164 21.5237 4.56755 23.1146L4.36877 19.8642L4.36808 19.8528L4.36693 19.8415C4.34605 19.635 4.34543 19.3951 4.34543 19.1174C4.35838 17.5027 4.69673 15.9072 5.34027 14.4262C5.98411 12.9445 6.92018 11.608 8.09249 10.4964L8.09251 10.4964L8.09615 10.4929C10.5123 8.16131 13.6772 6.76229 17.0279 6.54469L17.0353 6.54421L17.0427 6.54354C17.3107 6.51918 17.5907 6.51877 17.916 6.51877H18.5084C21.9323 6.60652 25.1965 7.98545 27.6464 10.3792L27.6485 10.3812C28.8519 11.5451 29.8097 12.9385 30.4652 14.479C31.1206 16.0192 31.4605 17.6753 31.4648 19.3492V19.3495L31.4648 19.3499L31.4648 19.3504V19.3514V19.3524V19.3533V19.3543V19.3553V19.3562V19.3572V19.3581V19.3591V19.36V19.361V19.362V19.3629V19.3639V19.3648V19.3658V19.3667V19.3677V19.3686V19.3695V19.3705V19.3714V19.3724V19.3733V19.3743V19.3752V19.3761V19.3771V19.378V19.3789V19.3799V19.3808V19.3817V19.3826V19.3836V19.3845V19.3854V19.3863V19.3873V19.3882V19.3891V19.39V19.3909V19.3919V19.3928V19.3937V19.3946V19.3955V19.3964V19.3973V19.3982V19.3992V19.4001V19.401V19.4019V19.4028V19.4037V19.4046V19.4055V19.4064V19.4073V19.4082V19.4091V19.4099V19.4108V19.4117V19.4126V19.4135V19.4144V19.4153V19.4162V19.417V19.4179V19.4188V19.4197V19.4206V19.4214V19.4223V19.4232V19.4241V19.4249V19.4258V19.4267V19.4276V19.4284V19.4293V19.4302V19.431V19.4319V19.4327V19.4336V19.4345V19.4353V19.4362V19.437V19.4379V19.4388V19.4396V19.4405V19.4413V19.4422V19.443V19.4439V19.4447V19.4455V19.4464V19.4472V19.4481V19.4489V19.4498V19.4506V19.4514V19.4523V19.4531V19.4539V19.4548V19.4556V19.4564V19.4572V19.4581V19.4589V19.4597V19.4606V19.4614V19.4622V19.463V19.4638V19.4647V19.4655V19.4663V19.4671V19.4679V19.4687V19.4695V19.4703V19.4712V19.472V19.4728V19.4736V19.4744V19.4752V19.476V19.4768V19.4776V19.4784V19.4792V19.48V19.4808V19.4816V19.4824V19.4831V19.4839V19.4847V19.4855V19.4863V19.4871V19.4879V19.4887V19.4894V19.4902V19.491V19.4918V19.4926V19.4933V19.4941V19.4949V19.4957V19.4964V19.4972V19.498V19.4987V19.4995V19.5003V19.501V19.5018V19.5026V19.5033V19.5041V19.5048V19.5056V19.5064V19.5071V19.5079V19.5086V19.5094V19.5101V19.5109V19.5116V19.5124V19.5131V19.5139V19.5146V19.5153V19.5161V19.5168V19.5176V19.5183V19.519V19.5198V19.5205V19.5212V19.522V19.5227V19.5234V19.5242V19.5249V19.5256V19.5263V19.5271V19.5278V19.5285V19.5292V19.5299V19.5307V19.5314V19.5321V19.5328V19.5335V19.5342V19.535V19.5357V19.5364V19.5371V19.5378V19.5385V19.5392V19.5399V19.5406V19.5413V19.542V19.5427V19.5434V19.5441V19.5448V19.5455V19.5462V19.5469V19.5476V19.5483V19.5489V19.5496V19.5503V19.551V19.5517V19.5524V19.553V19.5537V19.5544V19.5551V19.5558V19.5564V19.5571V19.5578V19.5585V19.5591V19.5598V19.5605V19.5611V19.5618V19.5625V19.5631V19.5638V19.5645V19.5651V19.5658V19.5664V19.5671V19.5678V19.5684V19.5691V19.5697V19.5704V19.571V19.5717V19.5723V19.573V19.5736V19.5743V19.5749V19.5755V19.5762V19.5768V19.5775V19.5781V19.5787V19.5794V19.58V19.5806V19.5813V19.5819V19.5825V19.5832V19.5838V19.5844V19.585V19.5857V19.5863V19.5869V19.5875V19.5881V19.5888V19.5894V19.59V19.5906V19.5912V19.5918V19.5925V19.5931V19.5937V19.5943V19.5949V19.5955V19.5961V19.5967V19.5973V19.5979V19.5985V19.5991V19.5997V19.6003V19.6009V19.6015V19.6021V19.6027V19.6033V19.6039V19.6044V19.605V19.6056V19.6062V19.6068V19.6074V19.608V19.6085V19.6091V19.6097V19.6103V19.6108V19.6114V19.612V19.6126V19.6131V19.6137V19.6143V19.6148V19.6154V19.616V19.6165V19.6171V19.6177V19.6182V19.6188V19.6194V19.6199V19.6205V19.621V19.6216V19.6221V19.6227V19.6232V19.6238V19.6243V19.6249V19.6254V19.626V19.6265V19.6271V19.6276V19.6281V19.6287V19.6292V19.6298V19.6303V19.6308V19.6314V19.6319V19.6324V19.633V19.6335V19.634V19.6345V19.6351V19.6356V19.6361V19.6366V19.6372V19.6377V19.6382V19.6387V19.6392V19.6398V19.6403V19.6408V19.6413V19.6418V19.6423V19.6428V19.6433V19.6438V19.6444V19.6449V19.6454V19.6459V19.6464V19.6469V19.6474V19.6479V19.6484V19.6489V19.6494V19.6498V19.6503V19.6508V19.6513V19.6518V19.6523V19.6528V19.6533V19.6538V19.6542V19.6547V19.6552V19.6557V19.6562V19.6566V19.6571V19.6576V19.6581V19.6585V19.659V19.6595V19.6599V19.6604V19.6609V19.6613V19.6618V19.6623V19.6627V19.6632V19.6637V19.6641V19.6646V19.665V19.6655V19.6659V19.6664V19.6669V19.6673V19.6678V19.6682V19.6687V19.6691V19.6695V19.67V19.6704V19.6709V19.6713V19.6718V19.6722V19.6726V19.6731V19.6735V19.6739V19.6744V19.6748V19.6752V19.6757V19.6761V19.6765V19.677V19.6774V19.6778V19.6782V19.6787V19.6791V19.6795V19.6799V19.6803V19.6808V19.6812V19.6816V19.682V19.6824V19.6828V19.6832V19.6836V19.684V19.6845V19.6849V19.6853V19.6857V19.6861V19.6865L31.3779 23.0569Z" fill="white" stroke="white" stroke-width="1.15081"/>
  <path d="M17.5511 23.1652C22.0317 23.066 26.6413 23.9121 31.4409 25.9586L32.0782 30.5763C28.2126 28.6013 23.0664 27.6398 17.9753 27.6398C12.8881 27.6398 7.76019 28.6043 3.92326 30.5599L4.56494 25.9694C8.78464 24.2702 13.0819 23.2641 17.5511 23.1652Z" fill="#0074D9" stroke="#0074D9" stroke-width="1.15081"/>
  <path d="M17.7053 9.87673L17.9022 9.87714C18.5389 9.91354 19.1556 10.1195 19.6876 10.4754C20.2757 10.8687 20.7341 11.4274 21.0047 12.0811C21.2754 12.7348 21.3463 13.454 21.2084 14.1479C21.0712 14.8383 20.7335 15.4728 20.2377 15.9722L20.173 16.0321L20.1729 16.0321L20.1657 16.039C19.492 16.6847 18.5918 17.0404 17.6587 17.0294C16.7255 17.0185 15.8339 16.6419 15.1754 15.9805L15.1743 15.9794C14.8424 15.6478 14.579 15.254 14.3993 14.8205C14.2196 14.387 14.1272 13.9224 14.1272 13.4531C14.1272 12.9839 14.2196 12.5192 14.3993 12.0857C14.579 11.6523 14.8424 11.2584 15.1743 10.9268L15.1743 10.9268L15.1756 10.9255C15.5071 10.5922 15.9013 10.328 16.3355 10.1479C16.7697 9.96794 17.2353 9.87576 17.7053 9.87673Z" fill="#0074D9" stroke="#0074D9" stroke-width="1.15081"/>
</svg>