<svg xmlns="http://www.w3.org/2000/svg" width="36" height="35" viewBox="0 0 36 35" fill="none">
  <path fill-rule="evenodd" clip-rule="evenodd" d="M18.0363 1.51758C18.5865 1.51901 19.1136 1.73818 19.5026 2.12718C19.8916 2.51617 20.1108 3.04335 20.1122 3.59347V4.59208C23.5488 5.01999 26.7504 6.5622 29.2272 8.98267C30.6436 10.3507 31.771 11.9892 32.5425 13.801C33.3139 15.6129 33.7137 17.5612 33.7182 19.5304C33.7182 19.6064 33.7182 19.7339 33.7182 19.9157L33.5852 24.9684C33.5997 25.0224 33.6061 25.0781 33.6042 25.134L34.6706 32.8433C34.6829 32.9144 34.6808 32.9874 34.6645 33.0577C34.6482 33.1281 34.618 33.1945 34.5757 33.253C34.5337 33.313 34.4803 33.364 34.4185 33.4033C34.3568 33.4426 34.2879 33.4693 34.2158 33.4819C34.1437 33.4945 34.0698 33.4928 33.9984 33.4768C33.927 33.4608 33.8594 33.4308 33.7996 33.3887C30.0006 30.7131 23.9872 29.378 17.9794 29.378C11.9715 29.378 5.95543 30.7158 2.2161 33.3778C2.09829 33.4647 1.95147 33.5026 1.80635 33.4837C1.6596 33.4641 1.52662 33.3871 1.43657 33.2696C1.34653 33.1521 1.30678 33.0036 1.32605 32.8568L2.41148 25.0987C2.40868 25.0653 2.40868 25.0317 2.41148 24.9983L2.1157 20.1708C2.09671 19.8614 2.08585 19.5657 2.08585 19.2835C2.08585 15.3053 3.80084 11.7342 6.51172 9.09121C9.08657 6.60059 12.4043 5.01891 15.9604 4.58665V3.59347C15.9626 3.04357 16.182 2.51681 16.5708 2.12796C16.9597 1.73912 17.4864 1.51972 18.0363 1.51758Z" fill="#293137" stroke="#293137" stroke-width="1.72622"/>
  <path d="M31.3779 23.0608C26.9783 21.279 22.2619 20.4005 17.51 20.4812L17.5083 20.4812C13.0579 20.5699 8.75164 21.5276 4.56755 23.1185L4.36877 19.8681L4.36808 19.8567L4.36693 19.8454C4.34605 19.6389 4.34543 19.399 4.34543 19.1213C4.35838 17.5066 4.69673 15.9111 5.34027 14.4301C5.98411 12.9485 6.92018 11.6119 8.09249 10.5003L8.09251 10.5003L8.09615 10.4968C10.5123 8.16522 13.6772 6.76619 17.0279 6.5486L17.0353 6.54812L17.0427 6.54744C17.3107 6.52309 17.5907 6.52267 17.916 6.52267H18.5084C21.9323 6.61043 25.1965 7.98936 27.6464 10.3831L27.6485 10.3851C28.8519 11.549 29.8097 12.9424 30.4652 14.4829C31.1206 16.0231 31.4605 17.6792 31.4648 19.3531V19.3534L31.4648 19.3538L31.4648 19.3543V19.3553V19.3563V19.3572V19.3582V19.3592V19.3601V19.3611V19.362V19.363V19.364V19.3649V19.3659V19.3668V19.3678V19.3687V19.3697V19.3706V19.3716V19.3725V19.3735V19.3744V19.3753V19.3763V19.3772V19.3782V19.3791V19.38V19.381V19.3819V19.3828V19.3838V19.3847V19.3856V19.3866V19.3875V19.3884V19.3893V19.3903V19.3912V19.3921V19.393V19.3939V19.3949V19.3958V19.3967V19.3976V19.3985V19.3994V19.4003V19.4012V19.4022V19.4031V19.404V19.4049V19.4058V19.4067V19.4076V19.4085V19.4094V19.4103V19.4112V19.4121V19.413V19.4139V19.4147V19.4156V19.4165V19.4174V19.4183V19.4192V19.4201V19.421V19.4218V19.4227V19.4236V19.4245V19.4254V19.4262V19.4271V19.428V19.4289V19.4297V19.4306V19.4315V19.4323V19.4332V19.4341V19.4349V19.4358V19.4367V19.4375V19.4384V19.4392V19.4401V19.4409V19.4418V19.4427V19.4435V19.4444V19.4452V19.4461V19.4469V19.4478V19.4486V19.4495V19.4503V19.4511V19.452V19.4528V19.4537V19.4545V19.4553V19.4562V19.457V19.4578V19.4587V19.4595V19.4603V19.4612V19.462V19.4628V19.4636V19.4645V19.4653V19.4661V19.4669V19.4677V19.4686V19.4694V19.4702V19.471V19.4718V19.4726V19.4734V19.4743V19.4751V19.4759V19.4767V19.4775V19.4783V19.4791V19.4799V19.4807V19.4815V19.4823V19.4831V19.4839V19.4847V19.4855V19.4863V19.4871V19.4878V19.4886V19.4894V19.4902V19.491V19.4918V19.4926V19.4933V19.4941V19.4949V19.4957V19.4965V19.4972V19.498V19.4988V19.4996V19.5003V19.5011V19.5019V19.5026V19.5034V19.5042V19.5049V19.5057V19.5065V19.5072V19.508V19.5087V19.5095V19.5103V19.511V19.5118V19.5125V19.5133V19.514V19.5148V19.5155V19.5163V19.517V19.5178V19.5185V19.5192V19.52V19.5207V19.5215V19.5222V19.5229V19.5237V19.5244V19.5251V19.5259V19.5266V19.5273V19.5281V19.5288V19.5295V19.5302V19.531V19.5317V19.5324V19.5331V19.5339V19.5346V19.5353V19.536V19.5367V19.5374V19.5381V19.5389V19.5396V19.5403V19.541V19.5417V19.5424V19.5431V19.5438V19.5445V19.5452V19.5459V19.5466V19.5473V19.548V19.5487V19.5494V19.5501V19.5508V19.5515V19.5522V19.5528V19.5535V19.5542V19.5549V19.5556V19.5563V19.557V19.5576V19.5583V19.559V19.5597V19.5603V19.561V19.5617V19.5624V19.563V19.5637V19.5644V19.565V19.5657V19.5664V19.567V19.5677V19.5684V19.569V19.5697V19.5703V19.571V19.5717V19.5723V19.573V19.5736V19.5743V19.5749V19.5756V19.5762V19.5769V19.5775V19.5782V19.5788V19.5794V19.5801V19.5807V19.5814V19.582V19.5826V19.5833V19.5839V19.5845V19.5852V19.5858V19.5864V19.5871V19.5877V19.5883V19.5889V19.5896V19.5902V19.5908V19.5914V19.5921V19.5927V19.5933V19.5939V19.5945V19.5951V19.5957V19.5964V19.597V19.5976V19.5982V19.5988V19.5994V19.6V19.6006V19.6012V19.6018V19.6024V19.603V19.6036V19.6042V19.6048V19.6054V19.606V19.6066V19.6072V19.6078V19.6084V19.6089V19.6095V19.6101V19.6107V19.6113V19.6119V19.6124V19.613V19.6136V19.6142V19.6148V19.6153V19.6159V19.6165V19.617V19.6176V19.6182V19.6188V19.6193V19.6199V19.6205V19.621V19.6216V19.6221V19.6227V19.6233V19.6238V19.6244V19.6249V19.6255V19.626V19.6266V19.6271V19.6277V19.6282V19.6288V19.6293V19.6299V19.6304V19.631V19.6315V19.6321V19.6326V19.6331V19.6337V19.6342V19.6347V19.6353V19.6358V19.6363V19.6369V19.6374V19.6379V19.6385V19.639V19.6395V19.64V19.6406V19.6411V19.6416V19.6421V19.6426V19.6432V19.6437V19.6442V19.6447V19.6452V19.6457V19.6462V19.6467V19.6472V19.6478V19.6483V19.6488V19.6493V19.6498V19.6503V19.6508V19.6513V19.6518V19.6523V19.6528V19.6533V19.6538V19.6542V19.6547V19.6552V19.6557V19.6562V19.6567V19.6572V19.6577V19.6581V19.6586V19.6591V19.6596V19.6601V19.6605V19.661V19.6615V19.662V19.6624V19.6629V19.6634V19.6639V19.6643V19.6648V19.6653V19.6657V19.6662V19.6666V19.6671V19.6676V19.668V19.6685V19.6689V19.6694V19.6699V19.6703V19.6708V19.6712V19.6717V19.6721V19.6726V19.673V19.6735V19.6739V19.6743V19.6748V19.6752V19.6757V19.6761V19.6765V19.677V19.6774V19.6779V19.6783V19.6787V19.6792V19.6796V19.68V19.6804V19.6809V19.6813V19.6817V19.6821V19.6826V19.683V19.6834V19.6838V19.6842V19.6847V19.6851V19.6855V19.6859V19.6863V19.6867V19.6871V19.6875V19.688V19.6884V19.6888V19.6892V19.6896V19.69V19.6904L31.3779 23.0608Z" fill="#293137" stroke="#293137" stroke-width="1.15081"/>
  <path d="M17.5511 23.1691C22.0317 23.0699 26.6413 23.916 31.4409 25.9625L32.0782 30.5802C28.2126 28.6052 23.0664 27.6437 17.9753 27.6437C12.8881 27.6437 7.76019 28.6082 3.92326 30.5638L4.56494 25.9733C8.78464 24.2741 13.0819 23.268 17.5511 23.1691Z" fill="white" stroke="#293137" stroke-width="1.15081"/>
  <path d="M17.7053 9.88064L17.9022 9.88104C18.5389 9.91744 19.1556 10.1234 19.6876 10.4793C20.2757 10.8726 20.7341 11.4314 21.0047 12.085C21.2754 12.7387 21.3463 13.4579 21.2084 14.1518C21.0712 14.8422 20.7335 15.4767 20.2377 15.9761L20.173 16.036L20.1729 16.036L20.1657 16.0429C19.492 16.6886 18.5918 17.0443 17.6587 17.0334C16.7255 17.0224 15.8339 16.6458 15.1754 15.9845L15.1743 15.9833C14.8424 15.6517 14.579 15.2579 14.3993 14.8244C14.2196 14.3909 14.1272 13.9263 14.1272 13.457C14.1272 12.9878 14.2196 12.5231 14.3993 12.0897C14.579 11.6562 14.8424 11.2624 15.1743 10.9307L15.1743 10.9307L15.1756 10.9294C15.5071 10.5961 15.9013 10.3319 16.3355 10.1519C16.7697 9.97184 17.2353 9.87966 17.7053 9.88064Z" fill="white" stroke="white" stroke-width="1.15081"/>
</svg>