<svg width="28" height="37" viewBox="0 0 28 37" fill="none" xmlns="http://www.w3.org/2000/svg">
<path d="M14.4018 17.9557C14.4031 16.2941 14.4039 14.5089 14.404 12.6026V12.6026C14.404 12.0037 13.913 11.5418 13.3365 11.5414H13.3362C12.7816 11.5411 12.2586 11.9817 12.2586 12.6023C12.2586 12.5989 12.2587 12.5975 12.2586 12.6014L12.2581 12.6218C12.2579 12.635 12.2576 12.6573 12.2586 12.6847C12.2428 15.7685 12.2436 17.1788 12.248 17.8991C12.2504 18.2918 12.2536 18.4732 12.256 18.603L14.4018 17.9557ZM14.4018 17.9557L17.0764 15.3329C16.6369 13.2639 16.4718 12.4872 16.4118 12.2049C16.3959 12.1303 16.3874 12.0902 16.3831 12.0699M14.4018 17.9557L12.2586 18.9546C12.2546 19.7242 11.3457 20.2522 10.6238 19.8125L10.6104 19.8044L10.5967 19.7968L5.87407 17.2028C5.4114 16.913 5.26623 16.3342 5.51475 15.8757L5.78546 15.3762L6.36574 15.3323C6.58689 15.3156 6.81001 15.364 7.00723 15.4841L7.03874 15.5033L7.07208 15.5191L9.14738 16.5004L10.141 16.9703L10.1466 15.8712L10.163 12.656C10.163 12.656 10.163 12.6559 10.163 12.6559C10.1724 10.8213 11.7083 9.30355 13.6126 9.30355H16.5247C16.5293 9.31236 16.534 9.32112 16.5389 9.32985L16.539 9.33008L17.017 10.1826L16.5256 11.059L16.5255 11.0591C16.3586 11.3571 16.3051 11.7057 16.3769 12.041L16.3773 12.0439L16.381 12.0601L16.3809 12.0601L16.3818 12.0637C16.3822 12.0657 16.3826 12.0678 16.3831 12.0699M16.3831 12.0699C16.3829 12.0691 16.3827 12.0682 16.3826 12.0674L16.3826 12.0674M16.3831 12.0699C16.3835 12.0719 16.384 12.0739 16.3844 12.076C16.3883 12.0931 16.3946 12.1181 16.4046 12.1476L17.0617 11.924L17.0449 11.9269L17.0418 11.9275M16.3826 12.0674L16.3832 12.0698C16.3869 12.0864 16.3905 12.0996 16.3925 12.1066L16.3955 12.1171L16.3967 12.1212L16.3972 12.123L16.3975 12.1238L16.3976 12.1242L16.3977 12.1244L16.3977 12.1245L16.3977 12.1245L17.0418 11.9275M16.3826 12.0674L16.3827 12.0674L16.382 12.0645M16.3826 12.0674L16.382 12.0645M17.0418 11.9275L16.7159 11.9967L16.9244 11.9473L17.0428 11.9272L17.0418 11.9275ZM16.382 12.0645L16.3817 12.0632L16.382 12.0645ZM14.3846 28.5385C14.3889 26.8599 14.3933 24.8055 14.3969 22.3872L17.172 25.1089C17.1722 26.511 17.1727 28.258 17.1733 29.8944C17.1738 31.5379 17.1743 33.0699 17.1743 34.029C17.1743 34.7692 16.5586 35.3924 15.7702 35.3924C14.9817 35.3924 14.3659 34.7691 14.3659 34.029C14.3659 34.0299 14.366 34.0028 14.3663 33.9414L14.3675 33.6773C14.3685 33.4439 14.3699 33.0961 14.3717 32.6357C14.3752 31.7151 14.3799 30.3443 14.3846 28.5385ZM5.79125 14.1676L5.33957 14.6724L4.69168 14.8737C4.45802 14.9463 4.20873 14.9858 3.94908 14.9858C2.59122 14.9858 1.50469 13.9095 1.50469 12.6023V12.6023C1.50462 11.2988 2.58599 10.2188 3.94899 10.2188C5.31199 10.2188 6.39338 11.2988 6.39338 12.6023C6.39338 13.155 6.19562 13.7156 5.79125 14.1676ZM17.0673 11.9221L17.0673 11.9221L17.0672 11.9221L17.0673 11.9221Z" fill="white" stroke="white" stroke-width="1.4"/>
</svg>
