<svg width="28" height="37" viewBox="0 0 28 37" fill="none" xmlns="http://www.w3.org/2000/svg">
<path d="M14.3063 17.9557C14.3076 16.2941 14.3084 14.5089 14.3085 12.6026V12.6026C14.3085 12.0037 13.8175 11.5418 13.2411 11.5414H13.2408C12.6861 11.5411 12.1632 11.9817 12.1632 12.6023C12.1632 12.5989 12.1632 12.5975 12.1631 12.6014L12.1627 12.6218C12.1624 12.635 12.1621 12.6573 12.1631 12.6847C12.1473 15.7685 12.1481 17.1788 12.1525 17.8991C12.1549 18.2918 12.1582 18.4732 12.1605 18.603L14.3063 17.9557ZM14.3063 17.9557L16.9809 15.3329C16.5415 13.2639 16.3763 12.4872 16.3163 12.2049C16.3005 12.1303 16.2919 12.0902 16.2876 12.0699M14.3063 17.9557L12.1632 18.9546C12.1592 19.7242 11.2503 20.2522 10.5283 19.8125L10.5149 19.8044L10.5012 19.7968L5.77861 17.2028C5.31594 16.913 5.17077 16.3342 5.41929 15.8757L5.69 15.3762L6.27028 15.3323C6.49143 15.3156 6.71455 15.364 6.91177 15.4841L6.94328 15.5033L6.97663 15.5191L9.05192 16.5004L10.0456 16.9703L10.0512 15.8712L10.0675 12.656C10.0675 12.656 10.0675 12.6559 10.0675 12.6559C10.077 10.8213 11.6129 9.30355 13.5171 9.30355H16.4292C16.4338 9.31236 16.4386 9.32112 16.4434 9.32985L16.4436 9.33008L16.9215 10.1826L16.4302 11.059L16.4301 11.0591C16.2632 11.3571 16.2096 11.7057 16.2814 12.041L16.2818 12.0439L16.2855 12.0601L16.2855 12.0601L16.2863 12.0637C16.2867 12.0657 16.2872 12.0678 16.2876 12.0699M16.2876 12.0699C16.2875 12.0691 16.2873 12.0682 16.2871 12.0674L16.2872 12.0674M16.2876 12.0699C16.2881 12.0719 16.2885 12.0739 16.289 12.076C16.2928 12.0931 16.2991 12.1181 16.3092 12.1476L16.9662 11.924L16.9494 11.9269L16.9463 11.9275M16.2872 12.0674L16.2877 12.0698C16.2915 12.0864 16.2951 12.0996 16.297 12.1066L16.3 12.1171L16.3012 12.1212L16.3018 12.123L16.302 12.1238L16.3022 12.1242L16.3022 12.1244L16.3022 12.1245L16.3023 12.1245L16.9463 11.9275M16.2872 12.0674L16.2872 12.0674L16.2865 12.0645M16.2872 12.0674L16.2865 12.0645M16.9463 11.9275L16.6204 11.9967L16.8289 11.9473L16.9473 11.9272L16.9463 11.9275ZM16.2865 12.0645L16.2862 12.0632L16.2865 12.0645ZM14.2891 28.5385C14.2935 26.8599 14.2979 24.8055 14.3014 22.3872L17.0766 25.1089C17.0767 26.511 17.0773 28.258 17.0778 29.8944C17.0783 31.5379 17.0788 33.0699 17.0788 34.029C17.0788 34.7692 16.4631 35.3924 15.6747 35.3924C14.8862 35.3924 14.2704 34.7691 14.2704 34.029C14.2704 34.0299 14.2705 34.0028 14.2708 33.9414L14.272 33.6773C14.273 33.4439 14.2745 33.0961 14.2762 32.6357C14.2797 31.7151 14.2844 30.3443 14.2891 28.5385ZM5.69579 14.1676L5.24411 14.6724L4.59622 14.8737C4.36256 14.9463 4.11327 14.9858 3.85362 14.9858C2.49576 14.9858 1.40923 13.9095 1.40923 12.6023V12.6023C1.40916 11.2988 2.49053 10.2188 3.85353 10.2188C5.21653 10.2188 6.29792 11.2988 6.29792 12.6023C6.29792 13.155 6.10016 13.7156 5.69579 14.1676ZM16.9719 11.9221L16.9718 11.9221L16.9718 11.9221L16.9719 11.9221Z" stroke="#0074D9" stroke-width="1.4"/>
</svg>
