<svg width="28" height="37" viewBox="0 0 28 37" fill="none" xmlns="http://www.w3.org/2000/svg">
<path d="M16.3831 12.07C16.3827 12.0679 16.3822 12.0658 16.3818 12.0637L16.3809 12.0599L16.3809 12.0599L16.3772 12.0433L16.3767 12.0402C16.3051 11.7051 16.3588 11.3569 16.5255 11.0591L16.5256 11.059L17.017 10.1825L16.539 9.33008L16.5389 9.32985C16.534 9.32112 16.5293 9.31236 16.5247 9.30355H13.6126C11.7083 9.30355 10.1724 10.8213 10.163 12.6559C10.163 12.6559 10.163 12.656 10.163 12.656L10.1466 15.8712L10.141 16.9703L9.14738 16.5004L7.07208 15.5191L7.03874 15.5033L7.00723 15.4841C6.81001 15.364 6.58689 15.3156 6.36574 15.3323L5.78546 15.3762L5.51475 15.8757C5.26623 16.3342 5.41139 16.913 5.87405 17.2027L10.5967 19.7968L10.6104 19.8044L10.6238 19.8125C11.3457 20.2522 12.2547 19.7242 12.2587 18.9545C12.2594 18.7982 12.2581 18.7224 12.256 18.6031C12.2536 18.4732 12.2504 18.2918 12.248 17.8991C12.2436 17.1788 12.2428 15.7685 12.2586 12.6847C12.2576 12.6573 12.2579 12.635 12.2581 12.6218L12.2586 12.6014C12.2586 12.6008 12.2586 12.6003 12.2586 12.6C12.26 11.9806 12.7823 11.5411 13.3362 11.5414H13.3365C13.913 11.5418 14.404 12.0037 14.404 12.6026V12.6026C14.4039 14.5089 14.4031 16.2941 14.4018 17.9557L17.0764 15.3329M16.3831 12.07C16.3829 12.0691 16.3827 12.0683 16.3826 12.0674L16.3826 12.0674M16.3831 12.07C16.3835 12.0719 16.384 12.0738 16.3844 12.0758C16.3882 12.0929 16.3945 12.1179 16.4046 12.1474L17.0616 11.9241L17.0445 11.927L17.0417 11.9276M16.3831 12.07C16.3874 12.0902 16.3959 12.13 16.4116 12.2039C16.4714 12.4854 16.6364 13.2615 17.0764 15.3329M16.3826 12.0674L16.3832 12.07C16.3869 12.0865 16.3905 12.0997 16.3925 12.1067L16.3955 12.1171L16.3967 12.1211L16.3972 12.1229L16.3975 12.1237L16.3976 12.1241L16.3977 12.1243L16.3977 12.1244L16.3977 12.1245L17.0417 11.9276M16.3826 12.0674L16.3827 12.0674L16.3819 12.0643M16.3826 12.0674L16.3819 12.0643M17.0417 11.9276L16.8034 11.9781L16.5187 12.0202L16.5188 12.0201L16.6311 11.9972L16.7112 11.9836L16.7755 11.9727L16.8543 11.9593L16.8976 11.9519L16.8693 11.9598L16.8669 11.9605L16.8763 11.9582L16.9143 11.9491L16.9233 11.9476L17.0426 11.9273L17.0417 11.9276ZM17.0764 15.3329L17.3509 15.0637L17.841 15.5635L17.1562 15.7089C17.1287 15.5791 17.1021 15.4538 17.0764 15.3329ZM16.3819 12.0643L16.3817 12.0633L16.3819 12.0643ZM14.3846 28.5385C14.3889 26.8599 14.3933 24.8055 14.3969 22.3872L17.172 25.1089C17.1722 26.512 17.1727 28.2605 17.1733 29.898C17.1738 31.5401 17.1743 33.0706 17.1743 34.029C17.1743 34.7692 16.5586 35.3924 15.7702 35.3924C14.9817 35.3924 14.3659 34.7691 14.3659 34.029C14.3659 34.0299 14.366 34.0028 14.3663 33.9414L14.3675 33.6773C14.3685 33.4439 14.3699 33.0961 14.3717 32.6357C14.3752 31.7151 14.3799 30.3443 14.3846 28.5385ZM16.9939 11.9232L17.0197 11.918L17.0084 11.9211L16.9939 11.9232ZM16.7301 11.9794L16.6595 11.9914L16.9065 11.9495L16.868 11.956L16.7945 11.9685L16.7301 11.9794ZM16.9403 11.9437L16.928 11.9458L16.982 11.9343L17.0671 11.9198L17.0497 11.9251L16.9403 11.9437ZM5.79125 14.1676L5.33957 14.6724L4.69168 14.8737C4.45802 14.9463 4.20873 14.9858 3.94908 14.9858C2.59122 14.9858 1.50469 13.9095 1.50469 12.6023V12.6023C1.50462 11.2988 2.58599 10.2188 3.94899 10.2188C5.31199 10.2188 6.39338 11.2988 6.39338 12.6023C6.39338 13.155 6.19562 13.7156 5.79125 14.1676Z" stroke="white" stroke-width="1.4"/>
</svg>
