<svg width="34" height="34" viewBox="0 0 34 34" fill="none" xmlns="http://www.w3.org/2000/svg">
<path d="M30.0071 22.4558H12.8027C12.3567 22.4558 11.9289 22.2786 11.6136 21.9632C11.2982 21.6479 11.121 21.2201 11.121 20.7741V3.56966C11.121 3.19227 10.9711 2.83034 10.7043 2.56349C10.4374 2.29664 10.0755 2.14673 9.69809 2.14673C9.32071 2.14673 8.95878 2.29664 8.69193 2.56349C8.42508 2.83034 8.27517 3.19227 8.27517 3.56966V7.96779H3.87703C3.49964 7.96779 3.13772 8.11771 2.87087 8.38456C2.60402 8.65141 2.4541 9.01334 2.4541 9.39072C2.4541 9.7681 2.60402 10.13 2.87087 10.3969C3.13772 10.6637 3.49964 10.8136 3.87703 10.8136H8.27517V20.7741C8.27654 21.9745 8.75398 23.1253 9.60275 23.974C10.4515 24.8228 11.6023 25.3003 12.8027 25.3016H22.7631V29.6998C22.7631 30.0772 22.9131 30.4391 23.1799 30.7059C23.4468 30.9728 23.8087 31.1227 24.1861 31.1227C24.5635 31.1227 24.9254 30.9728 25.1922 30.7059C25.4591 30.4391 25.609 30.0772 25.609 29.6998V25.3016H30.0071C30.3845 25.3016 30.7465 25.1517 31.0133 24.8849C31.2802 24.618 31.4301 24.2561 31.4301 23.8787C31.4301 23.5013 31.2802 23.1394 31.0133 22.8725C30.7465 22.6057 30.3845 22.4558 30.0071 22.4558Z" fill="#0074D9"/>
<path d="M14.2256 10.8136H21.0815C21.5275 10.8136 21.9552 10.9908 22.2706 11.3062C22.586 11.6216 22.7631 12.0493 22.7631 12.4953V19.3512C22.7631 19.7286 22.9131 20.0905 23.1799 20.3574C23.4468 20.6242 23.8087 20.7741 24.1861 20.7741C24.5635 20.7741 24.9254 20.6242 25.1922 20.3574C25.4591 20.0905 25.609 19.7286 25.609 19.3512V12.4953C25.6076 11.2949 25.1302 10.1442 24.2814 9.29538C23.4326 8.44661 22.2819 7.96916 21.0815 7.96779H14.2256C13.8482 7.96779 13.4863 8.11771 13.2194 8.38456C12.9526 8.65141 12.8027 9.01334 12.8027 9.39072C12.8027 9.7681 12.9526 10.13 13.2194 10.3969C13.4863 10.6637 13.8482 10.8136 14.2256 10.8136Z" fill="#0074D9"/>
</svg>
