<svg width="102" height="27" viewBox="0 0 102 27" fill="none" xmlns="http://www.w3.org/2000/svg">
<circle cx="13.0588" cy="13.0588" r="13.0588" fill="#D9D9D9"/>
<circle cx="27.3047" cy="13.0588" r="13.0588" fill="#D9D9D9" fill-opacity="0.68"/>
<path d="M48.19 15V9.57H46.15V8.15H51.78V9.57H49.74V15H48.19ZM54.1554 9.77L53.2654 12.45H55.0454L54.1554 9.77ZM55.5054 13.82H52.8154L52.4254 15H50.8354L53.2554 8.15H55.1554L57.5654 15H55.8954L55.5054 13.82ZM58.0411 8.15H59.5911V13.58H62.7711V15H58.0411V8.15ZM65.7752 15.13C64.9019 15.13 64.2319 14.93 63.7652 14.53C63.3052 14.1233 63.0519 13.5667 63.0052 12.86H64.5552C64.5619 12.9933 64.5886 13.1233 64.6352 13.25C64.6819 13.37 64.7519 13.48 64.8452 13.58C64.9452 13.6733 65.0719 13.75 65.2252 13.81C65.3852 13.87 65.5819 13.9 65.8152 13.9C66.2086 13.9 66.5019 13.83 66.6952 13.69C66.8952 13.55 66.9952 13.3733 66.9952 13.16C66.9952 13.0267 66.9552 12.9167 66.8752 12.83C66.8019 12.7433 66.6986 12.67 66.5652 12.61C66.4319 12.5433 66.2752 12.49 66.0952 12.45C65.9219 12.4033 65.7386 12.36 65.5452 12.32C65.2719 12.2533 64.9919 12.18 64.7052 12.1C64.4186 12.0133 64.1586 11.89 63.9252 11.73C63.6919 11.57 63.4986 11.3633 63.3452 11.11C63.1986 10.85 63.1252 10.5167 63.1252 10.11C63.1252 9.81 63.1819 9.53333 63.2952 9.28C63.4086 9.02 63.5752 8.8 63.7952 8.62C64.0152 8.43333 64.2819 8.28667 64.5952 8.18C64.9152 8.07333 65.2819 8.02 65.6952 8.02C66.1152 8.02 66.4852 8.07667 66.8052 8.19C67.1319 8.29667 67.4052 8.45 67.6252 8.65C67.8519 8.84333 68.0286 9.08 68.1552 9.36C68.2819 9.63333 68.3586 9.93667 68.3852 10.27H66.8252C66.8119 9.99667 66.7186 9.76333 66.5452 9.57C66.3719 9.37667 66.0752 9.28 65.6552 9.28C65.3419 9.28 65.0919 9.34 64.9052 9.46C64.7186 9.58 64.6252 9.75333 64.6252 9.98C64.6252 10.1267 64.6652 10.25 64.7452 10.35C64.8252 10.4433 64.9319 10.5233 65.0652 10.59C65.1986 10.6567 65.3519 10.7133 65.5252 10.76C65.7052 10.8067 65.8919 10.8533 66.0852 10.9C66.3652 10.96 66.6486 11.03 66.9352 11.11C67.2286 11.19 67.4952 11.3033 67.7352 11.45C67.9752 11.5967 68.1686 11.79 68.3152 12.03C68.4686 12.27 68.5452 12.5833 68.5452 12.97C68.5452 13.2833 68.4852 13.5733 68.3652 13.84C68.2452 14.1 68.0652 14.3267 67.8252 14.52C67.5919 14.7133 67.3019 14.8633 66.9552 14.97C66.6152 15.0767 66.2219 15.13 65.7752 15.13ZM70.7388 15V9.57H68.6988V8.15H74.3288V9.57H72.2888V15H70.7388ZM76.4466 9.57V11.4H77.5366C77.8766 11.4 78.1399 11.3167 78.3266 11.15C78.5199 10.9767 78.6166 10.7567 78.6166 10.49C78.6166 10.2233 78.5299 10.0033 78.3566 9.83C78.1899 9.65667 77.9332 9.57 77.5866 9.57H76.4466ZM76.4466 15H74.8966V8.15H77.8166C78.1832 8.15 78.5099 8.20667 78.7966 8.32C79.0899 8.43333 79.3366 8.59 79.5366 8.79C79.7432 8.99 79.8999 9.23 80.0066 9.51C80.1199 9.79 80.1766 10.0967 80.1766 10.43C80.1766 10.6967 80.1332 10.95 80.0466 11.19C79.9599 11.43 79.8366 11.6467 79.6766 11.84C79.5166 12.0333 79.3199 12.1967 79.0866 12.33C78.8532 12.4633 78.5932 12.56 78.3066 12.62L80.4866 15H78.4666L76.4466 12.67V15ZM81.0489 15V8.15H82.5989V15H81.0489ZM87.4217 8.15H89.2317L86.5117 11.57L89.3117 15H87.3017L84.9817 12.08V15H83.4317V8.15H84.9817V11.34L87.4217 8.15ZM89.7013 8.15H94.7113V9.55H91.2513V10.84H94.4513V12.2H91.2513V13.6H94.7213V15H89.7013V8.15Z" fill="black"/>
</svg>
