<svg width="18" height="13" viewBox="0 0 18 13" fill="none" xmlns="http://www.w3.org/2000/svg">
<path fill-rule="evenodd" clip-rule="evenodd" d="M2.8201 0.951172H14.766C16.1546 0.951172 17.2802 2.07683 17.2802 3.46539V4.21248L13.8054 4.98408C12.7926 5.02658 11.9761 5.87318 11.9761 6.89204C11.9761 7.91096 12.7926 8.75759 13.8054 8.79999L17.2802 9.57159V10.319C17.2802 11.7076 16.1546 12.8332 14.766 12.8332H9.42998V8.6924C10.1709 8.42963 10.7031 7.72207 10.7031 6.89225C10.7031 6.06243 10.1709 5.35488 9.42998 5.09211V0.951232H8.1569V5.09211C7.416 5.35488 6.88382 6.0624 6.88382 6.89225C6.88382 7.72211 7.416 8.42963 8.1569 8.6924V12.8332H2.8201C1.43153 12.8332 0.305878 11.7076 0.305878 10.319V3.46539C0.305878 2.07682 1.43153 0.951172 2.8201 0.951172ZM17.2802 8.26749V5.51659L14.0523 6.23335C13.9944 6.24701 13.9344 6.25451 13.8736 6.2556C13.5292 6.2619 13.2491 6.54741 13.2491 6.89204C13.2491 7.23666 13.5292 7.52218 13.8735 7.52851C13.9342 7.52957 13.9941 7.53703 14.0519 7.55066L17.2802 8.26749ZM0.306039 4.21241L3.7812 4.98408C4.79396 5.02648 5.61052 5.87311 5.61052 6.89204C5.61052 7.9109 4.79393 8.75749 3.7812 8.79999L0.306039 9.57166V8.26756L3.53465 7.55062C3.5925 7.537 3.65241 7.52957 3.71298 7.52848C4.05734 7.52218 4.33745 7.23666 4.33745 6.89204C4.33745 6.54745 4.05734 6.26193 3.71304 6.2556C3.65221 6.25447 3.59217 6.24701 3.53431 6.23335L0.306039 5.51652V4.21241ZM8.79344 7.52879C8.44245 7.52879 8.1569 7.24324 8.1569 6.89225C8.1569 6.54126 8.44245 6.25572 8.79344 6.25572C9.14443 6.25572 9.42998 6.54126 9.42998 6.89225C9.42998 7.24324 9.14443 7.52879 8.79344 7.52879Z" fill="#CBCBCB"/>
</svg>
