<svg width="28" height="28" viewBox="0 0 28 28" fill="none" xmlns="http://www.w3.org/2000/svg">
<g id="Facebook">
<circle id="whiteColor" cx="14" cy="14.0001" r="12.8333" fill="white"/>
<path id="Circle" fill-rule="evenodd" clip-rule="evenodd" d="M26.8333 14.0001C26.8333 6.91242 21.0876 1.16675 14 1.16675C6.9123 1.16675 1.16663 6.91242 1.16663 14.0001C1.16663 20.4056 5.85959 25.7148 11.9948 26.6774V17.7097H8.73629V14.0001H11.9948V11.1727C11.9948 7.95638 13.9107 6.17977 16.8421 6.17977C18.2462 6.17977 19.7148 6.43042 19.7148 6.43042V9.58862H18.0966C16.5023 9.58862 16.0052 10.5779 16.0052 11.5928V14.0001H19.5644L18.9954 17.7097H16.0052V26.6774C22.1403 25.7148 26.8333 20.4056 26.8333 14.0001" fill="#1877F2"/>
</g>
</svg>
