<svg width="27" height="26" viewBox="0 0 27 26" fill="none" xmlns="http://www.w3.org/2000/svg">
<circle cx="13.9797" cy="12.9959" r="11.9129" fill="white"/>
<path fill-rule="evenodd" clip-rule="evenodd" d="M25.8967 12.9999C25.8967 6.42052 20.5631 1.08691 13.9837 1.08691C7.4044 1.08691 2.0708 6.42052 2.0708 12.9999C2.0708 18.9459 6.42719 23.8744 12.1223 24.768V16.4434H9.09758V12.9999H12.1223V10.3753C12.1223 7.3896 13.9009 5.74041 16.622 5.74041C17.9254 5.74041 19.2887 5.97308 19.2887 5.97308V8.90478H17.7865C16.3067 8.90478 15.8451 9.82308 15.8451 10.7652V12.9999H19.1491L18.6209 16.4434H15.8451V24.768C21.5403 23.8744 25.8967 18.9459 25.8967 12.9999Z" fill="#1877F2"/>
</svg>
