<svg xmlns="http://www.w3.org/2000/svg" width="47" height="47" viewBox="0 0 47 47" fill="none">
  <circle cx="23.9363" cy="23.062" r="21.0541" fill="white"/>
  <path fill-rule="evenodd" clip-rule="evenodd" d="M45.0224 23.0932C45.0224 11.4653 35.5961 2.03906 23.9682 2.03906C12.3403 2.03906 2.91406 11.4653 2.91406 23.0932C2.91406 33.6019 10.6133 42.3121 20.6785 43.8915V29.1792H15.3327V23.0932H20.6785V18.4547C20.6785 13.178 23.8217 10.2633 28.631 10.2633C30.9345 10.2633 33.3439 10.6746 33.3439 10.6746V15.8558H30.689C28.0736 15.8558 27.2579 17.4788 27.2579 19.1438V23.0932H33.0972L32.1637 29.1792H27.2579V43.8915C37.3232 42.3121 45.0224 33.6019 45.0224 23.0932Z" fill="#0074D9"/>
</svg>