<svg xmlns="http://www.w3.org/2000/svg" width="102" height="101" viewBox="0 0 102 101" fill="none">
  <path fill-rule="evenodd" clip-rule="evenodd" d="M26.2493 8.91016C19.2768 8.91016 13.6243 14.5626 13.6243 21.5352C13.6243 28.5078 19.2768 34.1602 26.2493 34.1602C33.2219 34.1602 38.8743 28.5078 38.8743 21.5352C38.8743 14.5626 33.2219 8.91016 26.2493 8.91016ZM17.8327 21.5352C17.8327 16.8868 21.601 13.1185 26.2493 13.1185C30.8977 13.1185 34.666 16.8868 34.666 21.5352C34.666 26.1836 30.8977 29.9518 26.2493 29.9518C21.601 29.9518 17.8327 26.1836 17.8327 21.5352Z" fill="#C7D3DE"/>
  <path fill-rule="evenodd" clip-rule="evenodd" d="M70.4369 29.9518C62.3022 29.9518 55.7077 36.5463 55.7077 44.681C55.7077 52.8157 62.3022 59.4102 70.4369 59.4102C78.5715 59.4102 85.166 52.8157 85.166 44.681C85.166 36.5463 78.5715 29.9518 70.4369 29.9518ZM59.916 44.681C59.916 38.8705 64.6264 34.1602 70.4369 34.1602C76.2474 34.1602 80.9577 38.8705 80.9577 44.681C80.9577 50.4915 76.2474 55.2018 70.4369 55.2018C64.6264 55.2018 59.916 50.4915 59.916 44.681Z" fill="#C7D3DE"/>
  <path d="M9.41602 53.0977C9.41602 44.963 16.0105 38.3685 24.1452 38.3685H28.3535C36.4882 38.3685 43.0827 44.963 43.0827 53.0977V59.4102H38.8743V53.0977C38.8743 47.2872 34.164 42.5768 28.3535 42.5768H24.1452C18.3347 42.5768 13.6243 47.2872 13.6243 53.0977V59.4102H9.41602V53.0977Z" fill="#C7D3DE"/>
  <path d="M66.2285 63.6185C55.7696 63.6185 47.291 72.0971 47.291 82.556V93.0768H51.4994V82.556C51.4994 74.4213 58.0938 67.8268 66.2285 67.8268H74.6452C82.7799 67.8268 89.3744 74.4213 89.3744 82.556V93.0768H93.5827V82.556C93.5827 72.0971 85.1041 63.6185 74.6452 63.6185H66.2285Z" fill="#C7D3DE"/>
</svg>