<svg width="14" height="14" viewBox="0 0 14 14" fill="none" xmlns="http://www.w3.org/2000/svg">
<path d="M12.8103 3.3287C11.8984 1.98888 10.51 1.00259 8.89213 0.601059C8.37587 0.474042 7.84029 0.397949 7.28598 0.397949C6.56778 0.397949 5.87709 0.515015 5.22855 0.725734C3.66104 1.23439 2.35048 2.30905 1.5281 3.70623C1.07622 4.47594 0.772435 5.34223 0.660051 6.26881C0.627273 6.53455 0.606201 6.80321 0.606201 7.07715C0.606201 8.55511 1.09437 9.91834 1.90973 11.0258C2.71749 12.1221 3.84776 12.9638 5.16358 13.4057C5.83202 13.6305 6.5432 13.7581 7.28598 13.7581C8.28924 13.7581 9.23806 13.5287 10.0921 13.1318C11.021 12.6987 11.8358 12.0647 12.4726 11.2781C13.405 10.1285 13.9658 8.66866 13.9658 7.07715C13.9658 6.9595 13.9541 6.8436 13.9476 6.72536C13.8826 5.47159 13.4764 4.30678 12.8103 3.3287ZM12.5932 6.72595L11.2188 9.10356L12.1231 10.6717C11.515 11.4888 10.7072 12.1473 9.76954 12.5734L9.0806 11.3793H6.33365L5.48961 12.8409C4.17788 12.4317 3.05698 11.5848 2.29897 10.4726L3.35315 8.647L1.97938 6.26881H1.30977C1.43678 5.32994 1.77335 4.45721 2.28083 3.7074H4.20188L5.57565 1.32804L5.55868 1.29643C6.10596 1.13254 6.68485 1.04123 7.2854 1.04123C7.72205 1.04123 8.147 1.09039 8.55732 1.17878L8.47186 1.32745L9.84505 3.70506H12.2911C12.8794 4.57662 13.2388 5.61207 13.3032 6.72478L12.5932 6.72595Z" fill="#00B127"/>
<path d="M5.91157 4.61865L4.53839 6.99743L5.91157 9.37621H8.65853L10.0323 6.99743L8.65853 4.61865H5.91157Z" fill="#00B127"/>
</svg>
