<svg width="25" height="25" viewBox="0 0 25 25" fill="none" xmlns="http://www.w3.org/2000/svg">
<g clip-path="url(#clip0_1181_6146)">
<path d="M23.3938 12.3925C23.3938 11.6179 23.3297 10.8392 23.193 10.0771H12.2284V14.465H18.5073C18.2468 15.8802 17.4096 17.132 16.1837 17.9275V20.7746H19.9297C22.1295 18.79 23.3938 15.8592 23.3938 12.3925Z" fill="#4285F4"/>
<path d="M12.2298 23.5246C15.365 23.5246 18.009 22.5156 19.9354 20.7738L16.1894 17.9268C15.1472 18.6218 13.8017 19.0153 12.2341 19.0153C9.20139 19.0153 6.63002 17.0098 5.7074 14.3135H1.8418V17.2485C3.81518 21.0962 7.83455 23.5246 12.2298 23.5246Z" fill="#34A853"/>
<path d="M5.70312 14.3134C5.21618 12.8982 5.21618 11.3658 5.70312 9.95063V7.01562H1.84179C0.193036 10.2353 0.193036 14.0286 1.84179 17.2484L5.70312 14.3134Z" fill="#FBBC04"/>
<path d="M12.2298 5.24441C13.8871 5.21929 15.4889 5.83057 16.6891 6.95265L20.008 3.69945C17.9065 1.76511 15.1173 0.701648 12.2298 0.735143C7.83455 0.735143 3.81518 3.16353 1.8418 7.01546L5.70313 9.95046C6.62148 7.24992 9.19712 5.24441 12.2298 5.24441Z" fill="#EA4335"/>
</g>
<defs>
<clipPath id="clip0_1181_6146">
<rect width="24.8618" height="24.8618" fill="white" transform="translate(0 0.129883)"/>
</clipPath>
</defs>
</svg>
