<svg xmlns="http://www.w3.org/2000/svg" width="42" height="42" viewBox="0 0 42 42" fill="none">
  <path d="M41.2321 21.5559C41.2321 20.1869 41.1188 18.8106 40.8773 17.4639H21.4991V25.2187H32.5961C32.1356 27.7197 30.656 29.9322 28.4894 31.3381V36.3699H35.1099C38.9976 32.8625 41.2321 27.6827 41.2321 21.5559Z" fill="#4285F4"/>
  <path d="M21.5018 41.2313C27.0428 41.2313 31.7156 39.448 35.1202 36.3697L28.4997 31.338C26.6578 32.5663 24.2799 33.2619 21.5094 33.2619C16.1496 33.2619 11.6051 29.7175 9.97457 24.9521H3.14276V30.1393C6.63038 36.9395 13.734 41.2313 21.5018 41.2313Z" fill="#34A853"/>
  <path d="M9.96696 24.9512C9.10638 22.4502 9.10638 19.7419 9.96696 17.2408V12.0537H3.1427C0.228801 17.744 0.228801 24.4481 3.1427 30.1384L9.96696 24.9512Z" fill="#FBBC04"/>
  <path d="M21.5018 8.92386C24.4308 8.87946 27.2617 9.95981 29.3829 11.9429L35.2485 6.19341C31.5344 2.77479 26.6049 0.895285 21.5018 0.954482C13.734 0.954482 6.63038 5.24626 3.14276 12.0539L9.96702 17.241C11.59 12.4683 16.1421 8.92386 21.5018 8.92386Z" fill="#EA4335"/>
</svg>