<svg width="17" height="19" viewBox="0 0 17 19" fill="none" xmlns="http://www.w3.org/2000/svg">
<path d="M9.00001 15.6703L9.76125 12.2797V8.12789L15.1652 4.56453C15.2688 4.51753 15.3566 4.44169 15.4182 4.34609C15.4798 4.25048 15.5126 4.13915 15.5126 4.02542C15.5126 3.91169 15.4798 3.80036 15.4182 3.70475C15.3566 3.60915 15.2688 3.53331 15.1652 3.48631L8.65294 0.526196C8.56275 0.485206 8.46372 0.467505 8.36491 0.474714C8.26611 0.481923 8.17069 0.513811 8.08741 0.567457C8.00412 0.621103 7.93563 0.694791 7.88821 0.78177C7.84078 0.86875 7.81595 0.966239 7.81597 1.06531V6.97295C7.81597 6.98146 7.81597 6.99035 7.81597 6.99886V15.6703C8.01331 15.6592 8.21065 15.6535 8.40799 15.6533C8.60533 15.653 8.80267 15.6587 9.00001 15.6703Z" fill="#CBCBCB"/>
<path d="M16.0795 16.8094C15.7628 15.2239 14.7804 13.8959 13.2385 12.9687C12.036 12.2453 10.5496 11.8105 9.00001 11.7217V14.6726C9.00001 14.8296 8.93764 14.9802 8.82662 15.0912C8.71559 15.2022 8.56501 15.2646 8.40799 15.2646C8.25098 15.2646 8.10039 15.2022 7.98937 15.0912C7.87834 14.9802 7.81597 14.8296 7.81597 14.6726V11.7217C6.26635 11.8105 4.78 12.2453 3.57746 12.9687C2.03561 13.8959 1.05322 15.2239 0.736486 16.8094C0.699493 16.9837 0.701681 17.1639 0.742891 17.3372C0.784102 17.5105 0.863306 17.6725 0.974775 17.8114C1.19752 18.086 1.52573 18.234 1.89574 18.234H14.9202C15.2903 18.234 15.6188 18.0841 15.8416 17.8114C15.953 17.6724 16.0321 17.5105 16.0733 17.3372C16.1144 17.1639 16.1165 16.9836 16.0795 16.8094Z" fill="#CBCBCB"/>
</svg>
