<svg xmlns="http://www.w3.org/2000/svg" width="28" height="24" viewBox="0 0 28 24" fill="none">
  <g clip-path="url(#clip0_3761_37489)">
    <path d="M14.2804 22.4703C13.9183 22.4698 13.5647 22.3604 13.2656 22.1563C8.83509 19.1487 6.91664 17.0865 5.85848 15.7972C3.60348 13.0489 2.52389 10.2273 2.55434 7.17179C2.58985 3.67034 5.39902 0.822266 8.81648 0.822266C11.3015 0.822266 13.0226 2.22206 14.025 3.3879C14.0567 3.42446 14.096 3.45377 14.14 3.47386C14.1841 3.49395 14.2319 3.50435 14.2804 3.50435C14.3288 3.50435 14.3766 3.49395 14.4207 3.47386C14.4648 3.45377 14.504 3.42446 14.5357 3.3879C15.5381 2.22093 17.2592 0.822266 19.7442 0.822266C23.1617 0.822266 25.9709 3.67034 26.0064 7.17236C26.0368 10.2285 24.9561 13.05 22.7022 15.7977C21.6441 17.087 19.7256 19.1492 15.2951 22.1569C14.996 22.3608 14.6424 22.47 14.2804 22.4703Z" fill="#FF0F00"/>
  </g>
  <defs>
    <clipPath id="clip0_3761_37489">
      <rect width="26.1348" height="22.8679" fill="white" transform="translate(0.919922 0.822266)"/>
    </clipPath>
  </defs>
</svg>