<svg xmlns="http://www.w3.org/2000/svg" width="31" height="31" viewBox="0 0 31 31" fill="none">
  <path d="M15.5 20.3438C17.6401 20.3438 19.375 18.6089 19.375 16.4688C19.375 14.3286 17.6401 12.5938 15.5 12.5938C13.3599 12.5938 11.625 14.3286 11.625 16.4688C11.625 18.6089 13.3599 20.3438 15.5 20.3438Z" fill="#293137"/>
  <path d="M26.1562 8.71875H22.584C22.4023 8.71875 22.1771 8.60129 22.0015 8.41602L20.4309 5.93723C20.4061 5.89789 20.3784 5.86045 20.348 5.82521C19.8055 5.1925 19.0723 4.84375 18.2852 4.84375H12.7148C11.9277 4.84375 11.1945 5.1925 10.652 5.82521C10.6216 5.86045 10.5939 5.89789 10.5691 5.93723L8.99848 8.41965C8.86406 8.56617 8.67516 8.72238 8.47656 8.72238V8.23801C8.47656 7.98108 8.3745 7.73467 8.19282 7.553C8.01115 7.37132 7.76474 7.26926 7.50781 7.26926H6.05469C5.79776 7.26926 5.55135 7.37132 5.36968 7.553C5.188 7.73467 5.08594 7.98108 5.08594 8.23801V8.72238H4.84375C4.07321 8.72318 3.33446 9.02964 2.78961 9.57449C2.24475 10.1193 1.9383 10.8581 1.9375 11.6286V23.25C1.9383 24.0205 2.24475 24.7593 2.78961 25.3041C3.33446 25.849 4.07321 26.1554 4.84375 26.1562H26.1562C26.9268 26.1554 27.6655 25.849 28.2104 25.3041C28.7552 24.7593 29.0617 24.0205 29.0625 23.25V11.625C29.0617 10.8545 28.7552 10.1157 28.2104 9.57086C27.6655 9.026 26.9268 8.71955 26.1562 8.71875ZM15.5 22.2812C14.3504 22.2812 13.2266 21.9404 12.2707 21.3017C11.3149 20.663 10.5699 19.7552 10.13 18.6931C9.69002 17.631 9.57491 16.4623 9.79919 15.3348C10.0235 14.2073 10.577 13.1716 11.3899 12.3587C12.2028 11.5458 13.2385 10.9922 14.366 10.7679C15.4936 10.5437 16.6623 10.6588 17.7243 11.0987C18.7864 11.5386 19.6942 12.2836 20.3329 13.2395C20.9716 14.1954 21.3125 15.3191 21.3125 16.4688C21.3107 18.0098 20.6978 19.4872 19.6081 20.5769C18.5184 21.6665 17.041 22.2795 15.5 22.2812Z" fill="#293137"/>
</svg>