<svg width="30" height="30" viewBox="0 0 30 30" fill="none" xmlns="http://www.w3.org/2000/svg">
<g id="Instagram">
<g id="Logo">
<path fill-rule="evenodd" clip-rule="evenodd" d="M14.9998 10.8036C12.6822 10.8036 10.8034 12.6824 10.8034 15C10.8034 17.3176 12.6822 19.1964 14.9998 19.1964C17.3174 19.1964 19.1963 17.3176 19.1963 15C19.1963 12.6824 17.3174 10.8036 14.9998 10.8036ZM8.48197 15C8.48197 11.4003 11.4001 8.48214 14.9998 8.48214C18.5995 8.48214 21.5177 11.4003 21.5177 15C21.5177 18.5997 18.5995 21.5179 14.9998 21.5179C11.4001 21.5179 8.48197 18.5997 8.48197 15Z" fill="url(#paint0_linear_2191_25038)"/>
<path fill-rule="evenodd" clip-rule="evenodd" d="M21.6642 9.96233C22.5518 9.96233 23.2713 9.24279 23.2713 8.35519C23.2713 7.46759 22.5518 6.74805 21.6642 6.74805C20.7766 6.74805 20.057 7.46759 20.057 8.35519C20.057 9.24279 20.7766 9.96233 21.6642 9.96233Z" fill="url(#paint1_linear_2191_25038)"/>
<path fill-rule="evenodd" clip-rule="evenodd" d="M2.5 9.28572C2.5 5.53807 5.53807 2.5 9.28571 2.5H20.7143C24.4619 2.5 27.5 5.53807 27.5 9.28571V20.7143C27.5 24.4619 24.4619 27.5 20.7143 27.5H9.28572C5.53807 27.5 2.5 24.4619 2.5 20.7143V9.28572ZM9.28571 4.64286C6.72154 4.64286 4.64286 6.72154 4.64286 9.28572V20.7143C4.64286 23.2785 6.72154 25.3571 9.28572 25.3571H20.7143C23.2785 25.3571 25.3571 23.2785 25.3571 20.7143V9.28571C25.3571 6.72154 23.2785 4.64286 20.7143 4.64286H9.28571Z" fill="url(#paint2_linear_2191_25038)"/>
</g>
</g>
<defs>
<linearGradient id="paint0_linear_2191_25038" x1="18.7798" y1="46.1409" x2="54.2732" y2="11.1613" gradientUnits="userSpaceOnUse">
<stop stop-color="white"/>
<stop offset="0.147864" stop-color="#F6640E"/>
<stop offset="0.443974" stop-color="#BA03A7"/>
<stop offset="0.733337" stop-color="#6A01B9"/>
<stop offset="1" stop-color="#6B01B9"/>
</linearGradient>
<linearGradient id="paint1_linear_2191_25038" x1="18.7798" y1="46.1409" x2="54.2732" y2="11.1613" gradientUnits="userSpaceOnUse">
<stop stop-color="white"/>
<stop offset="0.147864" stop-color="#F6640E"/>
<stop offset="0.443974" stop-color="#BA03A7"/>
<stop offset="0.733337" stop-color="#6A01B9"/>
<stop offset="1" stop-color="#6B01B9"/>
</linearGradient>
<linearGradient id="paint2_linear_2191_25038" x1="18.7798" y1="46.1409" x2="54.2732" y2="11.1613" gradientUnits="userSpaceOnUse">
<stop stop-color="white"/>
<stop offset="0.147864" stop-color="#F6640E"/>
<stop offset="0.443974" stop-color="#BA03A7"/>
<stop offset="0.733337" stop-color="#6A01B9"/>
<stop offset="1" stop-color="#6B01B9"/>
</linearGradient>
</defs>
</svg>
