<svg xmlns="http://www.w3.org/2000/svg" width="48" height="49" viewBox="0 0 48 49" fill="none">
  <path fill-rule="evenodd" clip-rule="evenodd" d="M7.3911 4.12207C5.5527 4.12207 4.06238 5.61239 4.06238 7.45079V40.738C4.06238 42.5764 5.5527 44.0667 7.3911 44.0667H40.6783C42.5167 44.0667 44.007 42.5764 44.007 40.738V7.45079C44.007 5.61239 42.5167 4.12207 40.6783 4.12207H7.3911Z" fill="white"/>
  <path fill-rule="evenodd" clip-rule="evenodd" d="M4.06238 7.45079C4.06238 5.61239 5.55269 4.12207 7.3911 4.12207H40.6783C42.5167 4.12207 44.007 5.61239 44.007 7.45079V40.738C44.007 42.5764 42.5167 44.0667 40.6783 44.0667H7.3911C5.5527 44.0667 4.06238 42.5764 4.06238 40.738V7.45079ZM25.3083 19.0983H19.6295V38.1597H25.5469V28.7305C25.5469 26.2429 26.0173 23.8362 29.1008 23.8362C32.1366 23.8362 32.1799 26.6801 32.1799 28.8903V38.1597H38.0984V27.7042C38.0984 22.5702 36.9899 18.6235 30.9949 18.6235C28.1133 18.6235 26.1804 20.2035 25.3904 21.7025H25.3083V19.0983ZM12.9471 9.62156C14.8433 9.62156 16.3801 11.1616 16.3801 13.0557C16.3801 14.9519 14.8433 16.4909 12.9471 16.4909C11.0442 16.4909 9.50963 14.9519 9.50963 13.0557C9.50963 11.1616 11.0442 9.62156 12.9471 9.62156ZM15.9112 38.1592H9.98051V19.0978H15.9112V38.1592Z" fill="#0074D9"/>
</svg>