<svg width="28" height="28" viewBox="0 0 28 28" fill="none" xmlns="http://www.w3.org/2000/svg">
<path fill-rule="evenodd" clip-rule="evenodd" d="M5.4445 2.69922C4.40429 2.69922 3.56104 3.54248 3.56104 4.58269V23.4174C3.56104 24.4576 4.40429 25.3008 5.4445 25.3008H24.2792C25.3194 25.3008 26.1627 24.4576 26.1627 23.4174V4.58269C26.1627 3.54248 25.3194 2.69922 24.2792 2.69922H5.4445Z" fill="white"/>
<path fill-rule="evenodd" clip-rule="evenodd" d="M3.56104 4.58269C3.56104 3.54248 4.40429 2.69922 5.4445 2.69922H24.2792C25.3194 2.69922 26.1627 3.54248 26.1627 4.58269V23.4174C26.1627 24.4576 25.3194 25.3008 24.2792 25.3008H5.4445C4.40429 25.3008 3.56104 24.4576 3.56104 23.4174V4.58269ZM15.5825 11.1732H12.3693V21.9585H15.7175V16.6233C15.7175 15.2157 15.9837 13.854 17.7284 13.854C19.4461 13.854 19.4706 15.4631 19.4706 16.7137V21.9585H22.8194V16.0426C22.8194 13.1376 22.1922 10.9044 18.8001 10.9044C17.1696 10.9044 16.076 11.7985 15.629 12.6467H15.5825V11.1732ZM8.58821 5.81096C9.66116 5.81096 10.5307 6.68238 10.5307 7.75407C10.5307 8.82702 9.66116 9.69781 8.58821 9.69781C7.5115 9.69781 6.64322 8.82702 6.64322 7.75407C6.64322 6.68238 7.5115 5.81096 8.58821 5.81096ZM10.2654 21.9582H6.90966V11.1729H10.2654V21.9582Z" fill="#1078B3"/>
</svg>
