<svg width="26" height="26" viewBox="0 0 26 26" fill="none" xmlns="http://www.w3.org/2000/svg">
<g id="LinkedIn">
<path id="whiteColor" fill-rule="evenodd" clip-rule="evenodd" d="M3.97218 2.16675C2.975 2.16675 2.16663 2.97512 2.16663 3.9723V22.0279C2.16663 23.025 2.975 23.8334 3.97218 23.8334H22.0277C23.0249 23.8334 23.8333 23.025 23.8333 22.0279V3.9723C23.8333 2.97512 23.0249 2.16675 22.0277 2.16675H3.97218Z" fill="white"/>
<g id="Logo">
<path fill-rule="evenodd" clip-rule="evenodd" d="M2.16663 3.9723C2.16663 2.97512 2.975 2.16675 3.97218 2.16675H22.0277C23.0249 2.16675 23.8333 2.97512 23.8333 3.9723V22.0279C23.8333 23.025 23.0249 23.8334 22.0277 23.8334H3.97218C2.975 23.8334 2.16663 23.025 2.16663 22.0279V3.9723ZM13.6908 10.2901H10.6105V20.6294H13.8202V15.5148C13.8202 14.1655 14.0754 12.8601 15.7479 12.8601C17.3946 12.8601 17.4181 14.4026 17.4181 15.6015V20.6294H20.6283V14.9581C20.6283 12.1733 20.0271 10.0326 16.7753 10.0326C15.2123 10.0326 14.1639 10.8896 13.7353 11.7027H13.6908V10.2901ZM6.98585 5.14977C8.01441 5.14977 8.84798 5.98514 8.84798 7.0125C8.84798 8.04107 8.01441 8.87583 6.98585 8.87583C5.95367 8.87583 5.12131 8.04107 5.12131 7.0125C5.12131 5.98514 5.95367 5.14977 6.98585 5.14977ZM8.59363 20.6291H5.37673V10.2899H8.59363V20.6291Z" fill="#1078B3"/>
</g>
</g>
</svg>
