<svg xmlns="http://www.w3.org/2000/svg" width="120" height="120" viewBox="0 0 120 120" fill="none">
  <path d="M96.247 28.2458C94.1526 26.0836 91.6659 24.3685 88.929 23.1983C86.192 22.0281 83.2585 21.4258 80.2959 21.4258C77.3333 21.4258 74.3997 22.0281 71.6627 23.1983C68.9258 24.3685 66.4391 26.0836 64.3447 28.2458L59.9981 32.7309L55.6515 28.2458C51.421 23.8805 45.6832 21.428 39.7004 21.428C33.7176 21.428 27.9798 23.8805 23.7493 28.2458C19.5188 32.6111 17.1421 38.5317 17.1421 44.7052C17.1421 50.8787 19.5188 56.7993 23.7493 61.1647L28.0959 65.6498L59.9981 98.5686L91.9004 65.6498L96.247 61.1647C98.3424 59.0035 100.005 56.4376 101.139 53.6134C102.273 50.7893 102.856 47.7622 102.856 44.7052C102.856 41.6482 102.273 38.6212 101.139 35.797C100.005 32.9728 98.3424 30.4069 96.247 28.2458V28.2458Z" stroke="#C7D3DE" stroke-width="5" stroke-linecap="round" stroke-linejoin="round"/>
</svg>