<svg xmlns="http://www.w3.org/2000/svg" width="88" height="88" viewBox="0 0 88 88" fill="none">
  <path fill-rule="evenodd" clip-rule="evenodd" d="M7.33342 43.9994C7.33342 23.7489 23.7496 7.33268 44.0001 7.33268C64.2505 7.33268 80.6668 23.7489 80.6668 43.9994V49.6072C80.6668 56.8595 75.5314 62.3327 69.6668 62.3327C63.8021 62.3327 58.6668 56.8595 58.6668 49.6072V21.9994H55.0001V26.404C52.2727 23.6739 48.2931 21.9994 44.0001 21.9994C36.1417 21.9994 29.3334 27.6103 29.3334 35.0364V52.3803C29.3334 60.0457 36.05 65.9994 44.0001 65.9994C49.7395 65.9994 54.8361 62.8964 57.2267 58.2865C59.7834 62.8696 64.3206 65.9994 69.6668 65.9994C77.9774 65.9994 84.3334 58.4362 84.3334 49.6072V43.9994C84.3334 21.7239 66.2756 3.66602 44.0001 3.66602C21.7246 3.66602 3.66675 21.7239 3.66675 43.9994C3.66675 57.2044 7.63658 67.3369 14.4704 74.1707C21.2987 80.999 30.7856 84.3327 41.4334 84.3327H59.4001V80.666H41.4334C31.5479 80.666 23.0682 77.583 17.0631 71.578C11.0636 65.5785 7.33342 56.461 7.33342 43.9994ZM55.0001 35.0364C55.0001 30.0872 50.317 25.666 44.0001 25.666C37.6832 25.666 33.0001 30.0872 33.0001 35.0364V52.3803C33.0001 57.733 37.7749 62.3327 44.0001 62.3327C50.2253 62.3327 55.0001 57.733 55.0001 52.3803V35.0364Z" fill="#C7D3DE"/>
</svg>