<svg width="49" height="49" viewBox="0 0 49 49" fill="none" xmlns="http://www.w3.org/2000/svg">
<circle cx="24.5" cy="24.5" r="24.5" fill="#BF2942"/>
<g clip-path="url(#clip0_4435:3770)">
<path fill-rule="evenodd" clip-rule="evenodd" d="M15 35.0002V20.4092L28.1936 30.4092L24.3582 33.2852L19.9604 29.9079V35.0002H15Z" fill="white"/>
<path fill-rule="evenodd" clip-rule="evenodd" d="M34.1 35.0002V20.4092L25.3555 27.0319L29.1141 29.9079V35.0002H34.1Z" fill="white"/>
<path fill-rule="evenodd" clip-rule="evenodd" d="M17.455 15C18.7846 15 19.8585 16.1082 19.8585 17.4802C19.8585 18.8522 18.7846 19.9604 17.455 19.9604C16.1254 19.9604 15.0515 18.8522 15.0515 17.4802C15.0515 16.1082 16.1254 15 17.455 15Z" fill="white"/>
<path fill-rule="evenodd" clip-rule="evenodd" d="M31.6457 15C32.9753 15 34.0491 16.1082 34.0491 17.4802C34.0491 18.8522 32.9753 19.9604 31.6457 19.9604C30.3161 19.9604 29.2422 18.8522 29.2422 17.4802C29.2422 16.1082 30.3161 15 31.6457 15Z" fill="white"/>
</g>
<defs>
<clipPath id="clip0_4435:3770">
<rect width="19" height="20" fill="white" transform="translate(15 15)"/>
</clipPath>
</defs>
</svg>
