<svg xmlns="http://www.w3.org/2000/svg" width="24" height="29" viewBox="0 0 24 29" fill="none">
  <path d="M11.618 4.71139C9.67946 4.71139 7.82031 5.55367 6.44955 7.05294C5.07879 8.55221 4.30871 10.5857 4.30871 12.7059V18.4163C4.30871 19.325 3.97867 20.1965 3.3912 20.8391C2.80373 21.4816 2.00695 21.8426 1.17615 21.8426H22.0599C21.2291 21.8426 20.4323 21.4816 19.8448 20.8391C19.2574 20.1965 18.9273 19.325 18.9273 18.4163V12.7059C18.9273 10.5857 18.1572 8.55221 16.7865 7.05294C15.4157 5.55367 13.5566 4.71139 11.618 4.71139ZM11.618 4.71139V1.28516M13.4245 26.4109C13.2409 26.757 12.9774 27.0443 12.6603 27.2441C12.3433 27.4438 11.9839 27.5489 11.618 27.5489C11.2521 27.5489 10.8927 27.4438 10.5757 27.2441C10.2586 27.0443 9.99515 26.757 9.81157 26.4109" stroke="white" stroke-width="2.22868" stroke-linecap="round" stroke-linejoin="round"/>
</svg>