<svg xmlns="http://www.w3.org/2000/svg" width="28" height="28" viewBox="0 0 28 28" fill="none">
  <path d="M27.125 9.625C27.124 8.69705 26.7549 7.8074 26.0988 7.15125C25.4426 6.49509 24.5529 6.12601 23.625 6.125H21V5.25C20.9993 4.55403 20.7225 3.88677 20.2304 3.39464C19.7382 2.90252 19.071 2.62572 18.375 2.625H9.625C8.92903 2.62572 8.26177 2.90252 7.76964 3.39464C7.27752 3.88677 7.00072 4.55403 7 5.25V6.125H4.375C3.44705 6.12601 2.5574 6.49509 1.90125 7.15125C1.24509 7.8074 0.876013 8.69705 0.875 9.625V12.25H27.125V9.625ZM19.25 6.125H8.75V5.25C8.75 5.01794 8.84219 4.79538 9.00628 4.63128C9.17038 4.46719 9.39294 4.375 9.625 4.375H18.375C18.6071 4.375 18.8296 4.46719 18.9937 4.63128C19.1578 4.79538 19.25 5.01794 19.25 5.25V6.125Z" fill="#293137"/>
  <path d="M18.375 14.4375C18.375 14.7856 18.2367 15.1194 17.9906 15.3656C17.7444 15.6117 17.4106 15.75 17.0625 15.75H10.9375C10.5894 15.75 10.2556 15.6117 10.0094 15.3656C9.76328 15.1194 9.625 14.7856 9.625 14.4375V14.2188C9.625 14.1607 9.60195 14.1051 9.56093 14.0641C9.51991 14.023 9.46427 14 9.40625 14H0.875V21.875C0.875 22.8033 1.24375 23.6935 1.90013 24.3499C2.5565 25.0062 3.44674 25.375 4.375 25.375H23.625C24.5533 25.375 25.4435 25.0062 26.0999 24.3499C26.7563 23.6935 27.125 22.8033 27.125 21.875V14H18.5938C18.5357 14 18.4801 14.023 18.4391 14.0641C18.398 14.1051 18.375 14.1607 18.375 14.2188V14.4375Z" fill="#293137"/>
</svg>