<svg width="19" height="19" viewBox="0 0 19 19" fill="none" xmlns="http://www.w3.org/2000/svg">
<g id="people">
<g id="Vector">
<path d="M12.4679 9.5C11.7049 9.5 10.9672 9.15934 10.3898 8.54109C9.82832 7.93807 9.48543 7.13391 9.42495 6.27742C9.36038 5.36379 9.63907 4.52363 10.2094 3.91133C10.7798 3.29902 11.5773 2.96875 12.4679 2.96875C13.3522 2.96875 14.1519 3.30496 14.7205 3.91578C15.2945 4.53254 15.574 5.37121 15.5094 6.27705C15.4474 7.13465 15.1049 7.93844 14.5446 8.54072C13.9686 9.15934 13.2313 9.5 12.4679 9.5Z" fill="white"/>
<path d="M17.36 16.0312H7.57616C7.41885 16.0321 7.26346 15.9968 7.12192 15.9282C6.98038 15.8595 6.85648 15.7593 6.75975 15.6353C6.65714 15.5008 6.58629 15.3449 6.55248 15.1791C6.51868 15.0134 6.52281 14.8422 6.56456 14.6782C6.87702 13.4236 7.65112 12.383 8.80299 11.6694C9.82536 11.0363 11.1268 10.6875 12.4679 10.6875C13.8354 10.6875 15.1027 11.0215 16.131 11.6542C17.2855 12.3641 18.0607 13.4106 18.3716 14.6805C18.4129 14.8445 18.4166 15.0157 18.3824 15.1814C18.3482 15.347 18.277 15.5028 18.1742 15.6371C18.0776 15.7606 17.954 15.8603 17.8128 15.9286C17.6717 15.997 17.5168 16.0321 17.36 16.0312Z" fill="white"/>
<path d="M5.45424 9.64844C4.14836 9.64844 3.0002 8.43422 2.8937 6.94205C2.841 6.1776 3.07924 5.47066 3.56166 4.95225C4.03889 4.43902 4.71205 4.15625 5.45424 4.15625C6.19643 4.15625 6.8644 4.44051 7.34422 4.9567C7.83036 5.4792 8.06786 6.18465 8.01219 6.94279C7.90569 8.43459 6.75789 9.64844 5.45424 9.64844Z" fill="white"/>
<path d="M7.89084 10.8155C7.23809 10.4964 6.39088 10.3368 5.45461 10.3368C4.36137 10.3368 3.29967 10.6218 2.46471 11.1391C1.51805 11.7266 0.881254 12.5819 0.624086 13.6147C0.586452 13.7632 0.582892 13.9184 0.613674 14.0685C0.644455 14.2186 0.708781 14.3598 0.80184 14.4816C0.890141 14.5949 1.00326 14.6865 1.13251 14.7493C1.26175 14.8121 1.40368 14.8444 1.54737 14.8438H5.66651C5.73603 14.8437 5.80335 14.8193 5.85672 14.7748C5.91009 14.7302 5.94613 14.6683 5.95856 14.5999C5.96264 14.5766 5.96784 14.5532 5.97377 14.5302C6.28846 13.2662 7.02582 12.1982 8.11536 11.4197C8.15543 11.3908 8.18766 11.3524 8.20913 11.3079C8.2306 11.2634 8.24063 11.2142 8.23831 11.1649C8.23598 11.1155 8.22139 11.0676 8.19583 11.0253C8.17028 10.983 8.13458 10.9478 8.09198 10.9228C8.03371 10.8886 7.96692 10.8526 7.89084 10.8155Z" fill="white"/>
</g>
</g>
</svg>
