<svg xmlns="http://www.w3.org/2000/svg" width="29" height="29" viewBox="0 0 29 29" fill="none">
  <path d="M23.5625 3.625H5.4375C4.47641 3.62605 3.55499 4.00831 2.8754 4.6879C2.1958 5.36749 1.81355 6.28891 1.8125 7.25V21.75C1.81355 22.7111 2.1958 23.6325 2.8754 24.3121C3.55499 24.9917 4.47641 25.374 5.4375 25.375H23.5625C24.5236 25.374 25.445 24.9917 26.1246 24.3121C26.8042 23.6325 27.1865 22.7111 27.1875 21.75V7.25C27.1865 6.28891 26.8042 5.36749 26.1246 4.6879C25.445 4.00831 24.5236 3.62605 23.5625 3.625ZM19.0313 7.25C19.569 7.25 20.0946 7.40945 20.5417 7.70819C20.9888 8.00693 21.3373 8.43154 21.543 8.92833C21.7488 9.42512 21.8027 9.97177 21.6978 10.4992C21.5929 11.0265 21.3339 11.511 20.9537 11.8912C20.5735 12.2714 20.089 12.5304 19.5617 12.6353C19.0343 12.7402 18.4876 12.6863 17.9908 12.4805C17.494 12.2748 17.0694 11.9263 16.7707 11.4792C16.472 11.0321 16.3125 10.5065 16.3125 9.96875C16.3133 9.24792 16.5999 8.55683 17.1096 8.04713C17.6193 7.53743 18.3104 7.25075 19.0313 7.25ZM5.4375 23.5625C4.9568 23.5625 4.49578 23.3715 4.15587 23.0316C3.81596 22.6917 3.625 22.2307 3.625 21.75V17.9194L8.9968 13.1446C9.51508 12.6849 10.1891 12.4402 10.8816 12.4602C11.5741 12.4802 12.2329 12.7634 12.7238 13.2522L16.4026 16.9231L9.76314 23.5625H5.4375ZM25.375 21.75C25.375 22.2307 25.184 22.6917 24.8441 23.0316C24.5042 23.3715 24.0432 23.5625 23.5625 23.5625H12.3267L19.204 16.6852C19.6909 16.2711 20.3088 16.043 20.948 16.0413C21.5872 16.0397 22.2063 16.2646 22.6953 16.6761L25.375 18.9089V21.75Z" fill="#293137"/>
</svg>