<svg xmlns="http://www.w3.org/2000/svg" width="31" height="37" viewBox="0 0 31 37" fill="none">
  <path d="M11.4043 3.26886L11.7397 2.59803L10.5427 1.99956L10.657 3.33291L11.4043 3.26886ZM11.4043 3.26886C11.7505 7.30732 13.712 10.4227 15.9043 10.4227C18.0966 10.4227 20.0581 7.30732 20.4043 3.26886M11.4043 3.26886C12.7889 3.96116 14.4043 4.30732 15.9043 4.30732C17.4043 4.30732 19.0197 3.96116 20.4043 3.26886M20.4043 3.26886L20.0689 2.59803L21.2658 1.99956L21.1516 3.33291L20.4043 3.26886ZM10.2856 0.788086H10.2859L10.4013 0.903471H10.5686C13.7541 3.32655 18.0545 3.32655 21.24 0.903471H21.4073L21.5226 0.788086H21.523H21.5236H21.5241H21.5247H21.5252H21.5258H21.5263H21.5269H21.5274H21.528H21.5285H21.5291H21.5297H21.5302H21.5308H21.5314H21.5319H21.5325H21.5331H21.5337H21.5343H21.5348H21.5354H21.536H21.5366H21.5372H21.5378H21.5384H21.539H21.5396H21.5402H21.5408H21.5414H21.542H21.5427H21.5433H21.5439H21.5445H21.5451H21.5458H21.5464H21.547H21.5477H21.5483H21.5489H21.5496H21.5502H21.5509H21.5515H21.5522H21.5528H21.5535H21.5541H21.5548H21.5555H21.5561H21.5568H21.5575H21.5581H21.6735H24.4428C24.581 0.788086 24.7864 0.908347 24.855 1.19548C25.2075 4.5174 25.8804 7.53369 26.7653 10.0115C27.6456 12.4763 28.7591 14.4742 30.032 15.6881C30.0612 15.7188 30.0949 15.7697 30.1214 15.8359C30.1345 15.8687 30.1434 15.8993 30.1488 15.9246C30.1539 15.9488 30.1543 15.9614 30.1543 15.9614L30.1543 35.8073C30.1543 35.983 30.099 36.0712 30.0567 36.1135C30.0143 36.1559 29.9262 36.2112 29.7505 36.2112H2.05814C1.88243 36.2112 1.79427 36.1559 1.75194 36.1135C1.7096 36.0712 1.6543 35.983 1.6543 35.8073V15.9612C1.6543 15.9614 1.6543 15.9614 1.6543 15.9614C1.65433 15.9614 1.65474 15.9488 1.65984 15.9246C1.66516 15.8993 1.67407 15.8687 1.68719 15.8359C1.71247 15.7727 1.74436 15.7234 1.77255 15.6924C3.11012 14.473 4.22317 12.4694 5.10099 10.0115C5.98631 7.53258 6.65852 4.51692 7.06775 1.20071C7.13506 0.909801 7.34211 0.788086 7.48122 0.788086H10.1351H10.2505H10.2511H10.2518H10.2525H10.2531H10.2538H10.2545H10.2551H10.2558H10.2564H10.2571H10.2577H10.2584H10.259H10.2597H10.2603H10.2609H10.2616H10.2622H10.2628H10.2635H10.2641H10.2647H10.2653H10.2659H10.2666H10.2672H10.2678H10.2684H10.269H10.2696H10.2702H10.2708H10.2714H10.272H10.2726H10.2732H10.2737H10.2743H10.2749H10.2755H10.2761H10.2766H10.2772H10.2778H10.2784H10.2789H10.2795H10.2801H10.2806H10.2812H10.2817H10.2823H10.2828H10.2834H10.2839H10.2845H10.285H10.2856Z" fill="#293137" stroke="#293137" stroke-width="1.5"/>
</svg>