<svg xmlns="http://www.w3.org/2000/svg" width="30" height="37" viewBox="0 0 30 37" fill="none">
  <path d="M10.5 3.26886L10.8354 2.59803L9.63845 1.99956L9.75274 3.33291L10.5 3.26886ZM10.5 3.26886C10.8462 7.30732 12.8077 10.4227 15 10.4227C17.1923 10.4227 19.1538 7.30732 19.5 3.26886M10.5 3.26886C11.8846 3.96116 13.5 4.30732 15 4.30732C16.5 4.30732 18.1154 3.96116 19.5 3.26886M19.5 3.26886L19.1646 2.59803L20.3615 1.99956L20.2473 3.33291L19.5 3.26886ZM9.38126 0.788086H9.38165L9.49703 0.903471H9.66427C12.8498 3.32655 17.1502 3.32655 20.3357 0.903471H20.503L20.6184 0.788086H20.6187H20.6193H20.6198H20.6204H20.6209H20.6215H20.622H20.6226H20.6231H20.6237H20.6242H20.6248H20.6254H20.6259H20.6265H20.6271H20.6277H20.6282H20.6288H20.6294H20.63H20.6306H20.6311H20.6317H20.6323H20.6329H20.6335H20.6341H20.6347H20.6353H20.6359H20.6365H20.6371H20.6377H20.6384H20.639H20.6396H20.6402H20.6408H20.6415H20.6421H20.6427H20.6434H20.644H20.6446H20.6453H20.6459H20.6466H20.6472H20.6479H20.6485H20.6492H20.6498H20.6505H20.6512H20.6518H20.6525H20.6532H20.6538H20.7692H23.5385C23.6767 0.788086 23.8821 0.908347 23.9507 1.19548C24.3032 4.5174 24.9761 7.53369 25.861 10.0115C26.7413 12.4763 27.8548 14.4742 29.1278 15.6881C29.1569 15.7188 29.1906 15.7697 29.2171 15.8359C29.2302 15.8687 29.2391 15.8993 29.2445 15.9246C29.2496 15.9488 29.25 15.9614 29.25 15.9614L29.25 35.8073C29.25 35.983 29.1947 36.0712 29.1524 36.1135C29.11 36.1559 29.0219 36.2112 28.8462 36.2112H1.15385C0.978129 36.2112 0.889977 36.1559 0.847638 36.1135C0.805299 36.0712 0.75 35.983 0.75 35.8073V15.9612C0.75 15.9614 0.75 15.9614 0.750003 15.9614C0.750035 15.9614 0.75044 15.9488 0.755547 15.9246C0.760862 15.8993 0.769773 15.8687 0.782896 15.8359C0.808173 15.7727 0.84006 15.7234 0.868257 15.6924C2.20582 14.473 3.31887 12.4694 4.19669 10.0115C5.08202 7.53258 5.75423 4.51692 6.16345 1.20071C6.23076 0.909801 6.43781 0.788086 6.57692 0.788086H9.23077H9.34615H9.34683H9.3475H9.34817H9.34884H9.3495H9.35016H9.35082H9.35148H9.35213H9.35279H9.35343H9.35408H9.35472H9.35537H9.356H9.35664H9.35727H9.35791H9.35853H9.35916H9.35979H9.36041H9.36103H9.36164H9.36226H9.36287H9.36348H9.36409H9.36469H9.36529H9.3659H9.36649H9.36709H9.36768H9.36827H9.36886H9.36945H9.37003H9.37062H9.37119H9.37177H9.37235H9.37292H9.37349H9.37406H9.37463H9.37519H9.37575H9.37631H9.37687H9.37743H9.37798H9.37853H9.37908H9.37963H9.38018H9.38072H9.38126Z" fill="white" stroke="white" stroke-width="1.5"/>
</svg>