<svg xmlns="http://www.w3.org/2000/svg" width="31" height="31" viewBox="0 0 31 31" fill="none">
  <path fill-rule="evenodd" clip-rule="evenodd" d="M25.1768 15.5885C25.1768 16.118 24.7475 16.5473 24.2179 16.5473L16.5471 16.5473L16.5471 24.2181C16.5471 24.7477 16.1178 25.1769 15.5883 25.1769C15.0587 25.1769 14.6294 24.7477 14.6294 24.2181L14.6294 16.5473L6.95866 16.5473C6.4291 16.5473 5.99981 16.118 5.99981 15.5885C5.99981 15.0589 6.4291 14.6296 6.95866 14.6296L14.6294 14.6296L14.6294 6.95885C14.6294 6.42929 15.0587 6 15.5883 6C16.1178 6 16.5471 6.42929 16.5471 6.95885L16.5471 14.6296L24.2179 14.6296C24.7475 14.6296 25.1768 15.0589 25.1768 15.5885Z" fill="white"/>
</svg>