<svg xmlns="http://www.w3.org/2000/svg" width="27" height="27" viewBox="0 0 27 27" fill="none">
  <path d="M16.5625 1.65625H9.9375C9.49823 1.65625 9.07696 1.83075 8.76635 2.14135C8.45575 2.45196 8.28125 2.87324 8.28125 3.3125V24.6367C8.28125 24.6916 8.30306 24.7443 8.34189 24.7831C8.38071 24.8219 8.43337 24.8438 8.48828 24.8438H18.0117C18.0666 24.8438 18.1193 24.8219 18.1581 24.7831C18.1969 24.7443 18.2188 24.6916 18.2188 24.6367V3.3125C18.2188 2.87324 18.0443 2.45196 17.7336 2.14135C17.423 1.83075 17.0018 1.65625 16.5625 1.65625Z" fill="#293137"/>
  <path d="M24.0156 9.9375H20.2891C20.1792 9.9375 20.0739 9.98112 19.9963 10.0588C19.9186 10.1364 19.875 10.2417 19.875 10.3516V24.4297C19.875 24.5395 19.9186 24.6448 19.9963 24.7225C20.0739 24.8001 20.1792 24.8438 20.2891 24.8438H24.4297C24.7591 24.8438 25.0751 24.7129 25.308 24.4799C25.541 24.247 25.6719 23.931 25.6719 23.6016V11.5938C25.6719 11.1545 25.4974 10.7332 25.1868 10.4226C24.8762 10.112 24.4549 9.9375 24.0156 9.9375Z" fill="#293137"/>
  <path d="M2.48438 6.625C2.04511 6.625 1.62384 6.7995 1.31323 7.1101C1.00262 7.42071 0.828125 7.84199 0.828125 8.28125V23.6016C0.828125 23.931 0.958998 24.247 1.19195 24.4799C1.42491 24.7129 1.74086 24.8438 2.07031 24.8438H6.21094C6.32075 24.8438 6.42607 24.8001 6.50372 24.7225C6.58138 24.6448 6.625 24.5395 6.625 24.4297V7.03906C6.625 6.92925 6.58138 6.82393 6.50372 6.74628C6.42607 6.66862 6.32075 6.625 6.21094 6.625H2.48438Z" fill="#293137"/>
</svg>