<svg xmlns="http://www.w3.org/2000/svg" width="100" height="101" viewBox="0 0 100 101" fill="none">
  <path d="M18.7498 17.166C10.6957 17.166 4.1665 23.6952 4.1665 31.7493V69.2493C4.1665 77.3035 10.6957 83.8327 18.7498 83.8327H51.2202L65.1934 97.8058L68.1396 94.8595L52.9461 79.666H18.7498C12.9969 79.666 8.33317 75.0023 8.33317 69.2493V31.7493C8.33317 25.9964 12.9969 21.3327 18.7498 21.3327H81.2498C87.0028 21.3327 91.6665 25.9964 91.6665 31.7493V69.2493C91.6665 75.0023 87.0028 79.666 81.2498 79.666H74.9998V83.8327H81.2498C89.304 83.8327 95.8332 77.3035 95.8332 69.2493V31.7493C95.8332 23.6952 89.304 17.166 81.2498 17.166H18.7498Z" fill="#C1CEDA"/>
  <path d="M20.8332 37.9993H79.1665V33.8327H20.8332V37.9993Z" fill="#C1CEDA"/>
  <path d="M79.1665 50.4993H20.8332V46.3327H79.1665V50.4993Z" fill="#C1CEDA"/>
  <path d="M20.8332 62.9993H54.1665V58.8327H20.8332V62.9993Z" fill="#C1CEDA"/>
</svg>