<svg width="59" height="53" viewBox="0 0 59 53" fill="none" xmlns="http://www.w3.org/2000/svg">
<path fill-rule="evenodd" clip-rule="evenodd" d="M30.7302 11.3863C30.3268 10.9829 29.6727 10.9829 29.2693 11.3863L24.1042 16.5514C23.7008 16.9548 23.7008 17.6089 24.1042 18.0123L29.2693 23.1775C29.6727 23.5809 30.3268 23.5809 30.7302 23.1775C31.1336 22.774 31.1336 22.12 30.7302 21.7165L27.1733 18.1596C27.7758 18.0991 28.676 18.0567 29.9998 18.0567C31.8386 18.0567 33.6361 18.6019 35.165 19.6235C36.6939 20.6451 37.8856 22.0971 38.5893 23.796C39.293 25.4948 39.4771 27.3642 39.1183 29.1677C38.7596 30.9711 37.8741 32.6278 36.5739 33.928C35.2737 35.2282 33.617 36.1137 31.8136 36.4724C30.0101 36.8312 28.1407 36.6471 26.4419 35.9434C24.743 35.2397 23.291 34.048 22.2694 32.5191C21.2478 30.9902 20.7026 29.1927 20.7026 27.3539C20.7026 26.7833 20.2401 26.3208 19.6695 26.3208C19.099 26.3208 18.6365 26.7833 18.6365 27.3539C18.6365 29.6013 19.303 31.7983 20.5516 33.667C21.8002 35.5356 23.5749 36.9921 25.6512 37.8522C27.7276 38.7122 30.0124 38.9372 32.2166 38.4988C34.4209 38.0603 36.4456 36.9781 38.0348 35.3889C39.624 33.7997 40.7062 31.775 41.1447 29.5707C41.5831 27.3665 41.3581 25.0817 40.4981 23.0053C39.638 20.929 38.1815 19.1543 36.3129 17.9057C34.4442 16.657 32.2472 15.9906 29.9998 15.9906C28.9687 15.9906 28.157 16.0155 27.5192 16.0583L30.7302 12.8472C31.1336 12.4438 31.1336 11.7897 30.7302 11.3863Z" fill="#0074D9" stroke="#0074D9" stroke-width="0.661135" stroke-linecap="round" stroke-linejoin="round"/>
<rect x="-0.661135" y="0.661135" width="57.4545" height="50.9237" rx="2.64454" transform="matrix(-1 0 0 1 57.6777 0.553467)" stroke="#0074D9" stroke-width="1.32227"/>
</svg>
