<svg width="59" height="53" viewBox="0 0 59 53" fill="none" xmlns="http://www.w3.org/2000/svg">
<path fill-rule="evenodd" clip-rule="evenodd" d="M28.269 11.3863C28.6725 10.9829 29.3265 10.9829 29.73 11.3863L34.8951 16.5514C35.2985 16.9548 35.2985 17.6089 34.8951 18.0123L29.73 23.1775C29.3265 23.5809 28.6725 23.5809 28.269 23.1775C27.8656 22.774 27.8656 22.12 28.269 21.7165L31.826 18.1596C31.2235 18.0991 30.3233 18.0567 28.9995 18.0567C27.1607 18.0567 25.3632 18.6019 23.8342 19.6235C22.3053 20.6451 21.1137 22.0971 20.41 23.796C19.7063 25.4948 19.5222 27.3642 19.8809 29.1677C20.2397 30.9711 21.1251 32.6278 22.4254 33.928C23.7256 35.2282 25.3822 36.1137 27.1857 36.4724C28.9892 36.8312 30.8585 36.6471 32.5574 35.9434C34.2562 35.2397 35.7083 34.048 36.7298 32.5191C37.7514 30.9902 38.2967 29.1927 38.2967 27.3539C38.2967 26.7833 38.7592 26.3208 39.3297 26.3208C39.9003 26.3208 40.3628 26.7833 40.3628 27.3539C40.3628 29.6013 39.6963 31.7983 38.4477 33.667C37.1991 35.5356 35.4244 36.9921 33.348 37.8522C31.2717 38.7122 28.9869 38.9372 26.7826 38.4988C24.5784 38.0603 22.5536 36.9781 20.9645 35.3889C19.3753 33.7997 18.293 31.775 17.8546 29.5707C17.4161 27.3665 17.6412 25.0817 18.5012 23.0053C19.3613 20.929 20.8177 19.1543 22.6864 17.9057C24.5551 16.657 26.7521 15.9906 28.9995 15.9906C30.0305 15.9906 30.8423 16.0155 31.4801 16.0583L28.269 12.8472C27.8656 12.4438 27.8656 11.7897 28.269 11.3863Z" fill="#0074D9" stroke="#0074D9" stroke-width="0.661135" stroke-linecap="round" stroke-linejoin="round"/>
<rect x="0.661135" y="1.2146" width="57.4545" height="50.9237" rx="2.64454" stroke="#0074D9" stroke-width="1.32227"/>
</svg>
