<svg width="15" height="16" viewBox="0 0 15 16" fill="none" xmlns="http://www.w3.org/2000/svg">
<path d="M13.9626 7.15245L13.9579 7.1504L1.4458 1.96075C1.34056 1.9167 1.22604 1.89942 1.11249 1.91047C0.998941 1.92151 0.889898 1.96053 0.795117 2.02403C0.694979 2.08965 0.612724 2.17913 0.555754 2.28442C0.498784 2.38972 0.468886 2.50753 0.46875 2.62725V5.9463C0.468806 6.10996 0.525955 6.26848 0.630347 6.39453C0.73474 6.52059 0.879835 6.60627 1.04063 6.63682L7.86475 7.89864C7.89156 7.90372 7.91576 7.91801 7.93317 7.93903C7.95058 7.96005 7.96011 7.98648 7.96011 8.01378C7.96011 8.04107 7.95058 8.06751 7.93317 8.08853C7.91576 8.10955 7.89156 8.12383 7.86475 8.12891L1.04092 9.39073C0.880173 9.4212 0.735086 9.50677 0.630647 9.63271C0.526208 9.75865 0.468955 9.91706 0.46875 10.0807V13.4003C0.468672 13.5146 0.496979 13.6272 0.551129 13.7279C0.60528 13.8285 0.68358 13.9142 0.779004 13.9772C0.893789 14.0534 1.0285 14.0942 1.16631 14.0943C1.26212 14.0943 1.35694 14.075 1.44521 14.0378L13.957 8.87774L13.9626 8.8751C14.131 8.80272 14.2745 8.68256 14.3754 8.52947C14.4762 8.37638 14.5299 8.19709 14.5299 8.01378C14.5299 7.83046 14.4762 7.65117 14.3754 7.49808C14.2745 7.34499 14.131 7.22483 13.9626 7.15245Z" fill="#94AEC5"/>
</svg>
