<svg xmlns="http://www.w3.org/2000/svg" width="33" height="34" viewBox="0 0 33 34" fill="none">
  <g clip-path="url(#clip0_3966_1163)">
    <path fill-rule="evenodd" clip-rule="evenodd" d="M13.2209 3.61378C13.4118 2.87849 14.0799 2.375 14.8331 2.375H19.1748C19.9312 2.375 20.6014 2.8828 20.7892 3.62236L21.6667 7.079C21.686 7.1551 21.7477 7.23894 21.8582 7.28997C22.4469 7.56188 23.0112 7.88282 23.5447 8.24935C23.643 8.31688 23.7519 8.33143 23.8378 8.30771L27.3027 7.35128C28.0284 7.15097 28.8057 7.45847 29.1888 8.11186L31.3596 11.8151C31.7461 12.4745 31.6257 13.308 31.0736 13.8338L28.473 16.3107C28.4126 16.3682 28.3734 16.4611 28.3831 16.5723C28.4382 17.2087 28.4384 17.8485 28.3836 18.485C28.3739 18.5974 28.4141 18.6913 28.4758 18.7489L31.0583 21.1617C31.6197 21.6862 31.7454 22.5267 31.3558 23.1913L29.1848 26.8949C28.8048 27.543 28.0363 27.8514 27.3145 27.6597L23.7413 26.7109C23.6568 26.6885 23.5506 26.7029 23.4539 26.7683C22.9195 27.1294 22.3551 27.445 21.7667 27.7118C21.6519 27.7638 21.5888 27.8514 21.5706 27.9302L20.7808 31.3438C20.6058 32.1001 19.9274 32.625 19.1581 32.625L14.8252 32.625C14.078 32.625 13.4139 32.1294 13.2172 31.4021L12.2649 27.8798C12.2449 27.8058 12.1845 27.7248 12.0775 27.6745C11.493 27.3994 10.9333 27.0758 10.4043 26.7071C10.3023 26.6361 10.1885 26.6222 10.1001 26.6491L6.70357 27.6823C5.96797 27.906 5.16692 27.6012 4.77571 26.9338L2.60926 23.238C2.22755 22.5868 2.33977 21.7644 2.87707 21.2368L5.49802 18.6634C5.55587 18.6066 5.59344 18.5162 5.58488 18.4081C5.5342 17.7673 5.53919 17.1234 5.59978 16.4835C5.61049 16.3705 5.57059 16.2758 5.50883 16.2177L2.91091 13.7732C2.35298 13.2482 2.22923 12.4103 2.61767 11.7477L4.78402 8.05201C5.16869 7.39579 5.95085 7.08879 6.6786 7.2938L10.1567 8.27362C10.243 8.29792 10.3526 8.28362 10.4516 8.21568C10.9852 7.84932 11.5496 7.52854 12.1384 7.25681C12.2482 7.20613 12.3098 7.12303 12.3294 7.04744L13.2209 3.61378ZM14.8331 3.75C14.6934 3.75 14.5821 3.84256 14.5518 3.95932L13.6603 7.39297C13.5274 7.9047 13.1621 8.29873 12.7145 8.50527C12.196 8.74456 11.6993 9.02693 11.2298 9.34927C10.8208 9.63004 10.2929 9.7405 9.7839 9.5971L6.30576 8.61728C6.17126 8.57939 6.03398 8.63862 5.97024 8.74736L3.80389 12.443C3.74173 12.5491 3.75946 12.6837 3.85316 12.7718L6.45108 15.2163C6.84438 15.5864 7.0164 16.109 6.96866 16.6132C6.91556 17.1739 6.91119 17.7381 6.9556 18.2997C6.99386 18.7833 6.83033 19.2822 6.46136 19.6445L3.84041 22.218C3.75044 22.3063 3.73432 22.4383 3.79548 22.5426L5.96193 26.2385C6.02679 26.3491 6.16753 26.4081 6.30343 26.3668L9.69991 25.3337C10.2226 25.1747 10.7701 25.2862 11.1904 25.579C11.6558 25.9033 12.1485 26.1882 12.6631 26.4305C13.1 26.6361 13.4571 27.0212 13.5922 27.5209L14.5445 31.0432C14.5758 31.1589 14.6866 31.25 14.8252 31.25L19.1581 31.25C19.3009 31.25 19.4135 31.1536 19.4411 31.0339L20.231 27.6202C20.3549 27.0848 20.7326 26.6709 21.1989 26.4595C21.717 26.2246 22.2138 25.9467 22.684 25.629C23.0843 25.3585 23.5966 25.2498 24.0941 25.382L27.6674 26.3308C27.8008 26.3662 27.9356 26.3069 27.9986 26.1995L30.1696 22.496C30.2319 22.3896 30.2139 22.2546 30.1196 22.1664L27.5371 19.7536C27.1447 19.387 26.9705 18.8688 27.0137 18.3671C27.0617 17.8094 27.0615 17.2487 27.0132 16.691C26.9702 16.1945 27.14 15.6814 27.5247 15.315L30.1253 12.8381C30.218 12.7499 30.2352 12.6161 30.1734 12.5105L28.0025 8.80721C27.9391 8.69896 27.8027 8.63969 27.6685 8.67671L24.2036 9.63314C23.6969 9.77302 23.1727 9.66196 22.7662 9.3827C22.2967 9.06022 21.8001 8.7777 21.2817 8.53826C20.8316 8.33037 20.4648 7.93286 20.334 7.41734L19.4564 3.96069C19.4267 3.84334 19.3151 3.75 19.1748 3.75H14.8331ZM17.0063 13.375C14.6776 13.375 12.8076 15.2316 12.8076 17.5C12.8076 19.7684 14.6776 21.625 17.0063 21.625C19.3351 21.625 21.205 19.7684 21.205 17.5C21.205 15.2316 19.3351 13.375 17.0063 13.375ZM11.4326 17.5C11.4326 14.4526 13.9379 12 17.0063 12C20.0747 12 22.58 14.4526 22.58 17.5C22.58 20.5474 20.0747 23 17.0063 23C13.9379 23 11.4326 20.5474 11.4326 17.5Z" fill="#293137"/>
    <path d="M12.0775 27.6745C12.1845 27.7248 12.2449 27.8058 12.2649 27.8798L13.2172 31.4021C13.4139 32.1294 14.078 32.625 14.8252 32.625L19.1581 32.625C19.9274 32.625 20.6058 32.1001 20.7808 31.3438L21.5706 27.9302C21.5888 27.8514 21.6519 27.7638 21.7667 27.7118C22.3551 27.445 22.9195 27.1294 23.4539 26.7683C23.5506 26.7029 23.6568 26.6885 23.7413 26.7109L27.3145 27.6597C28.0363 27.8514 28.8048 27.543 29.1848 26.8949L31.3558 23.1913C31.7454 22.5267 31.6197 21.6862 31.0583 21.1617L28.4758 18.7489C28.4141 18.6913 28.3739 18.5974 28.3836 18.485C28.4384 17.8485 28.4382 17.2087 28.3831 16.5723C28.3734 16.4611 28.4126 16.3682 28.473 16.3107L31.0736 13.8338C31.6257 13.308 31.7461 12.4745 31.3596 11.8151L29.1888 8.11186C28.8057 7.45847 28.0284 7.15097 27.3027 7.35128L23.8378 8.30771C23.7519 8.33143 23.643 8.31688 23.5447 8.24935C23.0112 7.88282 22.4469 7.56188 21.8582 7.28997C21.7477 7.23894 21.686 7.1551 21.6667 7.079L20.7892 3.62236C20.6014 2.8828 19.9312 2.375 19.1748 2.375H14.8331C14.0799 2.375 13.4118 2.87849 13.2209 3.61378L12.3294 7.04744C12.3098 7.12303 12.2482 7.20613 12.1384 7.25681C11.5496 7.52854 10.9852 7.84932 10.4516 8.21568C10.3526 8.28362 10.243 8.29792 10.1567 8.27362L6.6786 7.2938C5.95085 7.08879 5.16869 7.39579 4.78402 8.05201L2.61767 11.7477C2.22923 12.4103 2.35298 13.2482 2.91091 13.7732L5.50883 16.2177C5.57059 16.2758 5.61049 16.3705 5.59978 16.4835C5.53919 17.1234 5.5342 17.7673 5.58488 18.4081C5.59344 18.5162 5.55587 18.6066 5.49802 18.6634L2.87707 21.2368C2.33977 21.7644 2.22755 22.5868 2.60926 23.238L4.77571 26.9338C5.16692 27.6012 5.96797 27.906 6.70357 27.6823L10.1001 26.6491C10.1885 26.6222 10.3023 26.6361 10.4043 26.7071C10.9333 27.0758 11.493 27.3994 12.0775 27.6745ZM12.0775 27.6745L12.3474 27.1012M3.80389 12.443L5.97024 8.74736C6.03398 8.63862 6.17126 8.57939 6.30576 8.61728L9.7839 9.5971C10.2929 9.7405 10.8208 9.63004 11.2298 9.34927C11.6993 9.02693 12.196 8.74456 12.7145 8.50527C13.1621 8.29873 13.5274 7.9047 13.6603 7.39297L14.5518 3.95932C14.5821 3.84256 14.6934 3.75 14.8331 3.75H19.1748C19.3151 3.75 19.4267 3.84334 19.4564 3.96069L20.334 7.41734C20.4648 7.93286 20.8316 8.33037 21.2817 8.53826C21.8001 8.7777 22.2967 9.06022 22.7662 9.3827C23.1727 9.66196 23.6969 9.77302 24.2036 9.63314L27.6685 8.67671C27.8027 8.63969 27.9391 8.69896 28.0025 8.80721L30.1734 12.5105C30.2352 12.6161 30.218 12.7499 30.1253 12.8381L27.5247 15.315C27.14 15.6814 26.9702 16.1945 27.0132 16.691C27.0615 17.2487 27.0617 17.8094 27.0137 18.3671C26.9705 18.8688 27.1447 19.387 27.5371 19.7536L30.1196 22.1664C30.2139 22.2546 30.2319 22.3896 30.1696 22.496L27.9986 26.1995C27.9356 26.3069 27.8008 26.3662 27.6674 26.3308L24.0941 25.382C23.5966 25.2498 23.0843 25.3585 22.684 25.629C22.2138 25.9467 21.717 26.2246 21.1989 26.4595C20.7326 26.6709 20.3549 27.0848 20.231 27.6202L19.4411 31.0339C19.4135 31.1536 19.3009 31.25 19.1581 31.25L14.8252 31.25C14.6866 31.25 14.5758 31.1589 14.5445 31.0432L13.5922 27.5209C13.4571 27.0212 13.1 26.6361 12.6631 26.4305C12.1485 26.1882 11.6558 25.9033 11.1904 25.579C10.7701 25.2862 10.2226 25.1747 9.69991 25.3337L6.30343 26.3668C6.16753 26.4081 6.02679 26.3491 5.96193 26.2385L3.79548 22.5426C3.73432 22.4383 3.75044 22.3063 3.84041 22.218L6.46136 19.6445C6.83033 19.2822 6.99386 18.7833 6.9556 18.2997C6.91119 17.7381 6.91556 17.1739 6.96866 16.6132C7.0164 16.109 6.84438 15.5864 6.45108 15.2163L3.85316 12.7718C3.75946 12.6837 3.74173 12.5491 3.80389 12.443ZM3.80389 12.443L3.21078 12.0953M12.8076 17.5C12.8076 15.2316 14.6776 13.375 17.0063 13.375C19.3351 13.375 21.205 15.2316 21.205 17.5C21.205 19.7684 19.3351 21.625 17.0063 21.625C14.6776 21.625 12.8076 19.7684 12.8076 17.5ZM17.0063 12C13.9379 12 11.4326 14.4526 11.4326 17.5C11.4326 20.5474 13.9379 23 17.0063 23C20.0747 23 22.58 20.5474 22.58 17.5C22.58 14.4526 20.0747 12 17.0063 12Z" stroke="#293137"/>
  </g>
  <defs>
    <clipPath id="clip0_3966_1163">
      <rect width="33" height="33" fill="white" transform="translate(0 0.5)"/>
    </clipPath>
  </defs>
</svg>