<svg width="8" height="8" viewBox="0 0 8 8" fill="none" xmlns="http://www.w3.org/2000/svg">
<path d="M3.04894 0.927051C3.3483 0.00574071 4.6517 0.00574034 4.95106 0.927051L5.12257 1.45491C5.25644 1.86694 5.6404 2.1459 6.07363 2.1459H6.62865C7.59738 2.1459 8.00015 3.38551 7.21644 3.95491L6.76741 4.28115C6.41693 4.5358 6.27027 4.98716 6.40414 5.39919L6.57565 5.92705C6.87501 6.84836 5.82053 7.61449 5.03681 7.04508L4.58779 6.71885C4.2373 6.4642 3.7627 6.4642 3.41221 6.71885L2.96319 7.04508C2.17947 7.61449 1.12499 6.84836 1.42435 5.92705L1.59586 5.39919C1.72973 4.98716 1.58307 4.5358 1.23259 4.28115L0.78356 3.95492C-0.000154034 3.38551 0.402622 2.1459 1.37135 2.1459H1.92637C2.3596 2.1459 2.74356 1.86694 2.87743 1.45491L3.04894 0.927051Z" fill="white"/>
</svg>
