<svg xmlns="http://www.w3.org/2000/svg" width="19" height="19" viewBox="0 0 19 19" fill="none">
  <path d="M14.621 17.8128C14.496 17.8133 14.3741 17.7744 14.2725 17.7015L9.4999 14.2414L4.72727 17.7015C4.6253 17.7754 4.50246 17.8151 4.3765 17.8146C4.25054 17.8141 4.12799 17.7736 4.02657 17.6989C3.92514 17.6243 3.8501 17.5192 3.81229 17.3991C3.77448 17.2789 3.77586 17.1499 3.81623 17.0306L5.67764 11.5172L0.85342 8.20892C0.748924 8.13734 0.670057 8.03422 0.628341 7.91462C0.586625 7.79503 0.584248 7.66523 0.621555 7.54418C0.658863 7.42314 0.7339 7.3172 0.835704 7.24184C0.937509 7.16648 1.06074 7.12565 1.1874 7.12532H7.13901L8.9351 1.59788C8.97379 1.47855 9.04929 1.37453 9.15076 1.30076C9.25222 1.22699 9.37445 1.18726 9.4999 1.18726C9.62535 1.18726 9.74758 1.22699 9.84905 1.30076C9.95052 1.37453 10.026 1.47855 10.0647 1.59788L11.8608 7.12718H17.8124C17.9392 7.12712 18.0627 7.16766 18.1648 7.24287C18.2669 7.31809 18.3423 7.42402 18.3798 7.54515C18.4174 7.66629 18.4151 7.79626 18.3735 7.91604C18.3318 8.03582 18.2529 8.1391 18.1482 8.21077L13.3222 11.5172L15.1825 17.0291C15.2126 17.1183 15.2211 17.2134 15.2072 17.3066C15.1933 17.3998 15.1575 17.4883 15.1026 17.5649C15.0478 17.6414 14.9755 17.7038 14.8917 17.747C14.808 17.7901 14.7152 17.8127 14.621 17.8128Z" fill="#343D45"/>
</svg>