<svg width="74" height="48" viewBox="0 0 74 48" fill="none" xmlns="http://www.w3.org/2000/svg">
<circle cx="23.9118" cy="23.9118" r="23.9118" fill="#D9D9D9"/>
<circle cx="49.9973" cy="23.9118" r="23.9118" fill="#D9D9D9" fill-opacity="0.68"/>
<path d="M9.628 29V22.484H7.18V20.78H13.936V22.484H11.488V29H9.628ZM16.7865 22.724L15.7185 25.94H17.8545L16.7865 22.724ZM18.4065 27.584H15.1785L14.7105 29H12.8025L15.7065 20.78H17.9865L20.8785 29H18.8745L18.4065 27.584ZM21.4493 20.78H23.3093V27.296H27.1253V29H21.4493V20.78ZM30.7303 29.156C29.6823 29.156 28.8783 28.916 28.3183 28.436C27.7663 27.948 27.4623 27.28 27.4063 26.432H29.2663C29.2743 26.592 29.3063 26.748 29.3623 26.9C29.4183 27.044 29.5023 27.176 29.6143 27.296C29.7343 27.408 29.8863 27.5 30.0703 27.572C30.2623 27.644 30.4983 27.68 30.7783 27.68C31.2503 27.68 31.6023 27.596 31.8343 27.428C32.0743 27.26 32.1943 27.048 32.1943 26.792C32.1943 26.632 32.1463 26.5 32.0503 26.396C31.9623 26.292 31.8383 26.204 31.6783 26.132C31.5183 26.052 31.3303 25.988 31.1143 25.94C30.9063 25.884 30.6863 25.832 30.4543 25.784C30.1263 25.704 29.7903 25.616 29.4463 25.52C29.1023 25.416 28.7903 25.268 28.5103 25.076C28.2303 24.884 27.9983 24.636 27.8143 24.332C27.6383 24.02 27.5503 23.62 27.5503 23.132C27.5503 22.772 27.6183 22.44 27.7543 22.136C27.8903 21.824 28.0903 21.56 28.3543 21.344C28.6183 21.12 28.9383 20.944 29.3143 20.816C29.6983 20.688 30.1383 20.624 30.6343 20.624C31.1383 20.624 31.5823 20.692 31.9663 20.828C32.3583 20.956 32.6863 21.14 32.9503 21.38C33.2223 21.612 33.4343 21.896 33.5863 22.232C33.7383 22.56 33.8303 22.924 33.8623 23.324H31.9903C31.9743 22.996 31.8623 22.716 31.6543 22.484C31.4463 22.252 31.0903 22.136 30.5863 22.136C30.2103 22.136 29.9103 22.208 29.6863 22.352C29.4623 22.496 29.3503 22.704 29.3503 22.976C29.3503 23.152 29.3983 23.3 29.4943 23.42C29.5903 23.532 29.7183 23.628 29.8783 23.708C30.0383 23.788 30.2223 23.856 30.4303 23.912C30.6463 23.968 30.8703 24.024 31.1023 24.08C31.4383 24.152 31.7783 24.236 32.1223 24.332C32.4743 24.428 32.7943 24.564 33.0823 24.74C33.3703 24.916 33.6023 25.148 33.7783 25.436C33.9623 25.724 34.0543 26.1 34.0543 26.564C34.0543 26.94 33.9823 27.288 33.8383 27.608C33.6943 27.92 33.4783 28.192 33.1903 28.424C32.9103 28.656 32.5623 28.836 32.1463 28.964C31.7383 29.092 31.2663 29.156 30.7303 29.156ZM36.6866 29V22.484H34.2386V20.78H40.9946V22.484H38.5466V29H36.6866ZM43.5359 22.484V24.68H44.8439C45.2519 24.68 45.5679 24.58 45.7919 24.38C46.0239 24.172 46.1399 23.908 46.1399 23.588C46.1399 23.268 46.0359 23.004 45.8279 22.796C45.6279 22.588 45.3199 22.484 44.9039 22.484H43.5359ZM43.5359 29H41.6759V20.78H45.1799C45.6199 20.78 46.0119 20.848 46.3559 20.984C46.7079 21.12 47.0039 21.308 47.2439 21.548C47.4919 21.788 47.6799 22.076 47.8079 22.412C47.9439 22.748 48.0119 23.116 48.0119 23.516C48.0119 23.836 47.9599 24.14 47.8559 24.428C47.7519 24.716 47.6039 24.976 47.4119 25.208C47.2199 25.44 46.9839 25.636 46.7039 25.796C46.4239 25.956 46.1119 26.072 45.7679 26.144L48.3839 29H45.9599L43.5359 26.204V29ZM49.0587 29V20.78H50.9187V29H49.0587ZM56.7061 20.78H58.8781L55.6141 24.884L58.9741 29H56.5621L53.7781 25.496V29H51.9181V20.78H53.7781V24.608L56.7061 20.78ZM59.4415 20.78H65.4535V22.46H61.3015V24.008H65.1415V25.64H61.3015V27.32H65.4655V29H59.4415V20.78Z" fill="black"/>
</svg>
