<svg xmlns="http://www.w3.org/2000/svg" width="174" height="59" viewBox="0 0 174 59" fill="none">
  <g clip-path="url(#clip0_2657_6850)">
    <path d="M126.251 37.3167C126.221 37.2156 126.171 37.1216 126.104 37.0401C126.037 36.9586 125.955 36.8911 125.861 36.8417C125.636 36.6982 125.364 36.6495 125.103 36.7063C124.27 36.9442 123.414 37.0952 122.55 37.1568C122.365 37.1677 122.184 37.2156 122.018 37.2976C121.788 37.4123 121.529 37.4576 121.274 37.4278C120.627 37.3646 119.977 37.3517 119.328 37.3893C119.101 37.4076 118.873 37.3852 118.654 37.3232C118.496 37.2527 118.319 37.2354 118.151 37.2739C117.865 37.3425 117.563 37.313 117.296 37.19C117.085 37.0793 116.883 36.9509 116.694 36.8059C116.622 36.7696 116.566 36.7094 116.534 36.6358C116.502 36.5622 116.497 36.4799 116.52 36.403C116.539 36.2118 116.546 36.1414 116.33 36.0594L116.25 36.0515C116.139 36.0295 116.035 35.9846 115.944 35.9196C115.852 35.8546 115.775 35.771 115.718 35.6743C115.601 35.5206 115.482 35.3871 115.354 35.2425C115.257 35.1313 115.124 35.0572 114.978 35.033C114.868 35.0222 114.797 35.0153 114.793 35.1672C114.778 35.2194 114.772 35.274 114.777 35.3281C114.781 35.6514 114.667 35.9651 114.457 36.2108C114.424 36.2606 114.374 36.2971 114.317 36.3138C114.259 36.3305 114.198 36.3263 114.143 36.3019L114.032 36.2911C113.564 36.0986 113.111 35.8709 112.677 35.6097C111.671 34.9582 110.724 34.2196 109.847 33.4025C109.118 32.7521 108.422 32.0846 107.738 31.398C107.054 30.7113 106.169 29.9949 105.351 29.3256L103.469 27.8004C103.37 27.7142 103.277 27.6202 103.192 27.5194C102.929 27.199 102.655 26.8878 102.369 26.5956C102.077 26.2773 101.768 25.9757 101.442 25.6922C100.982 25.281 100.382 25.0621 99.765 25.0809C99.2058 25.087 98.6476 25.083 98.0864 25.1093C97.4483 25.1229 96.8127 25.1931 96.1869 25.3191C96.0957 25.32 96.0047 25.311 95.9153 25.2924C95.142 25.2705 94.3744 25.4319 93.6754 25.7634C93.6754 25.7634 93.5266 25.8301 93.4884 25.806C93.4501 25.782 93.1866 25.7764 93.0379 25.8431L92.8911 25.8896C92.7554 25.9271 92.6798 25.8689 92.6937 25.7281C92.6966 25.5425 92.7148 25.3575 92.7479 25.1748C92.8294 24.8088 92.8862 24.4377 92.9178 24.0641C92.9296 23.9434 92.9405 23.8327 92.9523 23.712C92.9638 23.5589 93.0063 23.4096 93.0773 23.2734C93.1482 23.1372 93.2462 23.0168 93.3652 22.9197C93.5168 22.8055 93.6447 22.6628 93.7415 22.4996C93.8478 22.3475 93.9441 22.1944 94.0413 22.0313C94.1386 21.8682 94.1627 21.8299 94.2138 21.7232C94.2492 21.662 94.2761 21.5963 94.2938 21.5279C94.3029 21.4815 94.3075 21.4344 94.3076 21.3871C94.4676 20.895 94.7365 20.0174 94.7485 19.9983C94.7621 19.9492 94.7671 19.8981 94.7633 19.8474C94.8937 19.4675 94.9502 19.0663 94.93 18.6653C94.9261 18.5469 94.9377 18.4285 94.9646 18.3132C94.9888 18.0058 94.9713 17.6966 94.9125 17.394C94.7312 16.5194 94.4755 15.6618 94.1482 14.8307L87.9474 27.3143L91.4534 25.119L88.3034 29.3804L85.1935 33.5443L85.5134 28.3146L85.8472 23.0457L86.9251 26.5538L89.3154 15.8498L83.03 17.803L84.5181 11.2254C84.4732 11.253 84.4323 11.2865 84.3965 11.3252C83.7222 11.9303 83.1431 12.6336 82.6787 13.4115C82.5173 13.7105 82.367 14.0004 82.2157 14.3004C81.9762 14.7746 81.7549 15.2709 81.5073 15.724C80.9613 16.7144 80.4902 17.7445 80.0981 18.8054C79.9581 19.1979 79.7596 19.5644 79.6105 19.9458C79.3634 20.5232 79.0229 21.056 78.6027 21.5228C78.5363 21.5883 78.4625 21.6458 78.3828 21.6942C78.0783 21.8854 77.8154 22.136 77.6097 22.4309C77.452 22.6649 77.3094 22.9088 77.1827 23.1609C76.9929 23.5561 76.7587 23.9284 76.4848 24.2706C76.3504 24.4111 76.2593 24.5874 76.2226 24.7784C76.1858 24.9694 76.205 25.1669 76.2777 25.3472C76.2901 25.3987 76.3091 25.4483 76.3343 25.495C76.3598 25.5639 76.3694 25.6378 76.3622 25.711C76.355 25.7842 76.3313 25.8548 76.2928 25.9175C76.2152 26.0875 76.1568 26.2658 76.1188 26.4488C76.0985 26.5243 76.0675 26.5965 76.0267 26.6632C76.0004 26.7403 75.952 26.8078 75.8875 26.8575C75.823 26.9071 75.7454 26.9367 75.6642 26.9425C75.5578 26.9463 75.4551 26.9823 75.3697 27.0457C75.1321 27.2178 74.9419 27.4472 74.8168 27.7126C74.7252 27.9219 74.6528 28.1392 74.6008 28.3617C74.508 28.736 74.3703 29.0976 74.1905 29.4387C73.9603 29.7989 73.8709 30.2312 73.9393 30.6531C73.964 30.7099 73.9738 30.7721 73.9677 30.8337C73.9617 30.8953 73.94 30.9543 73.9048 31.0052C73.6719 31.2924 73.4113 31.556 73.1268 31.7922C72.9583 31.8955 72.8145 32.0344 72.7053 32.1991C72.5962 32.3638 72.5244 32.5505 72.495 32.7459C72.4748 32.865 72.429 32.9783 72.3609 33.0781C72.1794 33.3751 72.008 33.6732 71.8084 33.9481C71.6228 34.1947 71.467 34.4624 71.3442 34.7456C71.2841 34.9367 71.1686 35.1057 71.0123 35.231C70.9618 35.2639 70.9193 35.3076 70.8879 35.359C70.8565 35.4104 70.837 35.4682 70.8308 35.5281C70.7989 35.6778 70.7375 35.8196 70.6502 35.9453C70.5629 36.071 70.4514 36.1781 70.3223 36.2602C70.1691 36.3681 70.0518 36.5193 69.9852 36.6944C69.9254 36.8445 69.8795 36.9998 69.8483 37.1583C69.8315 37.2498 69.792 37.3357 69.7335 37.4081C69.6749 37.4804 69.5992 37.5369 69.5131 37.5723L69.3745 37.64C69.3144 37.6672 69.2624 37.7093 69.2234 37.7624C69.1844 37.8155 69.1598 37.8777 69.1517 37.9431C69.1438 38.071 69.0986 38.1938 69.0218 38.2963C68.945 38.3989 68.8399 38.4767 68.7194 38.5203C68.5711 38.5641 68.4373 38.6467 68.3316 38.7596C68.2259 38.8724 68.1522 39.0113 68.1181 39.1621C68.0535 39.3666 67.9375 39.551 67.7812 39.6978C67.6457 39.8369 67.5193 39.987 67.3828 40.1361C67.1503 40.4281 66.896 40.7019 66.622 40.9553C66.4248 41.1536 66.1704 41.2849 65.8945 41.3308C65.5335 41.3868 65.1816 41.4539 64.8629 41.4937C64.1861 41.5594 63.5104 41.615 62.8125 41.6887C62.104 41.7542 61.4349 42.0444 60.9031 42.5171C60.7595 42.6351 60.625 42.7641 60.4904 42.8931C60.2926 43.1109 60.0792 43.314 59.8519 43.5008C59.4061 43.8362 58.9778 44.1942 58.5686 44.5734C58.0364 45.029 57.464 45.4807 56.9791 45.9715C56.0554 46.795 55.1408 47.6295 54.2079 48.4419C53.6085 48.9621 53.7984 48.8893 53.082 48.7378C52.9969 48.6993 52.9014 48.6899 52.8104 48.7111C52.2347 48.9155 51.642 49.0681 51.0391 49.1671C50.6989 49.2328 50.375 49.365 50.086 49.5563C49.7971 49.7476 49.5489 49.9941 49.3556 50.2818C49.1709 50.5727 49.0055 50.8754 48.8605 51.1879C48.7593 51.3913 48.648 51.5936 48.5378 51.786C48.1842 52.3666 47.7424 52.8886 47.2282 53.3333C46.9539 53.5852 46.7367 53.8929 46.5913 54.2357C46.2332 55.0292 46.1083 55.9082 46.231 56.77C46.2847 57.3273 46.4492 57.8683 46.7148 58.3612C46.9264 58.7378 47.253 59.0368 47.6468 59.2143C47.7939 59.2796 47.953 59.3133 48.114 59.3134C48.2749 59.3134 48.4341 59.2797 48.5812 59.2145C48.782 59.1359 48.9614 59.0108 49.1045 58.8494C49.4686 58.4458 49.7878 58.0037 50.0564 57.5311C50.3651 56.9724 50.7129 56.4363 51.0974 55.9269L51.3321 55.6046C51.5309 55.3109 51.7484 55.0303 51.9832 54.7645C52.4207 54.2386 52.947 53.8434 53.4147 53.3205C53.522 53.1999 53.6525 53.1022 53.7983 53.0331C54.2917 52.7666 54.7225 52.4128 55.245 52.1593C55.4382 52.0669 55.6126 51.9393 55.7592 51.7832C55.8391 51.7214 55.8937 51.6327 55.9127 51.5336C55.9318 51.4345 55.914 51.3318 55.8628 51.2449C55.8153 51.1349 55.7614 51.0279 55.7013 50.9243C55.685 50.8942 55.6781 50.86 55.6814 50.8259C55.6848 50.7919 55.6982 50.7596 55.72 50.7332C55.7744 50.6762 55.8339 50.6242 55.8977 50.578C56.1378 50.4086 56.3778 50.2391 56.6088 50.0586C57.1094 49.6601 57.6574 49.3249 58.2403 49.0608C59.1125 48.6588 59.9828 48.277 60.8712 47.9172C61.5375 47.6474 62.1948 47.3665 62.841 47.0947C63.4871 46.8229 64.0055 46.5081 64.5793 46.2496C64.8361 46.1091 65.1131 46.0095 65.4005 45.9543L66.4341 45.7713C67.134 45.6636 67.8269 45.5145 68.5091 45.3248C69.1854 45.1695 69.8 44.816 70.2743 44.3096C70.3967 44.1858 70.549 44.0958 70.7164 44.0482C71.4618 43.7936 72.1519 43.3994 72.7498 42.8867C73.4535 42.3493 74.0905 41.7299 74.6472 41.0415C74.768 40.8819 74.9407 40.7695 75.1354 40.7237C75.3536 40.674 75.5717 40.6243 75.7919 40.5545C75.9877 40.5155 76.1908 40.5354 76.3753 40.6117C76.705 40.6878 77.0431 40.721 77.3813 40.7103C77.5501 40.7324 77.7214 40.6986 77.8691 40.6141C78.0168 40.5295 78.1327 40.3988 78.1991 40.2421C78.3563 39.8817 78.6303 39.5734 78.7976 39.214C78.8537 39.1073 78.9284 39.0114 79.0183 38.931C79.3842 38.5841 79.7144 38.2014 80.0038 37.7886C80.1548 37.5381 80.3449 37.3133 80.5667 37.1227C81.105 36.7083 81.6625 36.3059 82.226 35.9447C82.4172 35.8193 82.638 35.7464 82.8663 35.7333L84.8202 35.5897C85.6979 35.5226 86.5681 35.3803 87.4214 35.1643L87.6597 35.1166C87.8206 35.1324 87.8608 35.1363 87.9285 35.275C88.0932 35.6669 88.2368 36.067 88.3904 36.468C88.421 36.5541 88.4362 36.645 88.4352 36.7364C88.4535 36.9961 88.4151 37.2567 88.3229 37.5002C88.2306 37.7436 88.0866 37.9642 87.9008 38.1466C87.7894 38.2473 87.697 38.3602 87.5947 38.472C86.9665 39.2018 86.5766 40.1063 86.4772 41.064C86.4017 41.9153 86.4936 42.773 86.7476 43.589C86.9312 44.2481 87.2995 44.841 87.8089 45.2978C88.4086 45.8487 89.1193 46.2647 89.8932 46.5178C90.4601 46.6697 91.048 46.7273 91.6335 46.6885C92.3494 46.6672 93.0544 46.5088 93.7106 46.2219C94.2282 45.9719 94.7053 45.6455 95.1259 45.2536C95.3089 45.103 95.4697 44.9273 95.6036 44.7317C95.8851 44.3572 96.1044 43.9397 96.253 43.4953C96.2796 43.2237 96.4069 42.962 96.4747 42.6843C96.7763 41.5516 96.6638 40.3485 96.1574 39.2914C95.9473 38.8561 95.6362 38.4774 95.2501 38.1868C94.9469 37.947 94.6294 37.7259 94.2994 37.5248C94.1197 37.4369 93.9789 37.2856 93.9043 37.1001C93.8743 37.0174 93.8247 36.9431 93.7598 36.8837C93.6949 36.8243 93.6165 36.7815 93.5315 36.7588C93.2648 36.6819 93.0001 36.5849 92.7214 36.5271C92.5894 36.5131 92.4668 36.4524 92.3757 36.3559C92.2846 36.2594 92.2309 36.1335 92.2246 36.001C92.1745 35.5797 92.1043 35.1564 92.0441 34.7341C91.984 34.3117 91.9778 34.2705 92.4201 34.1108C93.1423 33.8496 93.8498 33.5494 94.5395 33.2116C95.1746 32.8498 95.8368 32.5378 96.5201 32.2784L96.6598 32.2007C96.8589 32.0647 97.0865 31.9758 97.3251 31.9409C97.5004 31.9216 97.6616 31.8356 97.7752 31.7007C97.863 31.6011 97.9712 31.5216 98.0926 31.4678C98.3968 31.3333 98.7132 31.2283 99.0374 31.1542C99.1685 31.1053 99.3116 31.0989 99.4465 31.1358C99.5814 31.1728 99.7012 31.2511 99.7891 31.3599C100.355 31.9435 100.928 32.5177 101.509 33.0825C101.915 33.5245 102.358 33.9314 102.832 34.299C103.731 34.9714 104.752 35.4615 105.839 35.7415C106.084 35.7999 106.321 35.8879 106.545 36.0037C107.009 36.2422 107.438 36.528 107.879 36.7947C108.616 37.2529 109.366 37.682 110.116 38.111C110.797 38.5 111.457 38.924 112.094 39.3815C112.332 39.5328 112.522 39.7487 112.642 40.004C112.765 40.3106 112.876 40.6262 112.987 40.9418C113.028 41.0273 113.053 41.1191 113.062 41.2132C113.101 41.7035 113.234 42.1818 113.452 42.6225C113.506 42.6984 113.543 42.7852 113.559 42.8768C113.618 43.2072 113.759 43.5177 113.968 43.7802C113.998 43.8399 114.046 43.8883 114.105 43.918C114.165 43.9477 114.232 43.957 114.297 43.9445C114.523 43.9234 114.746 43.8771 114.961 43.8065C115.455 43.6438 115.932 43.4319 116.384 43.1741C117.793 42.4006 119.251 41.7191 120.748 41.1341C121.869 40.6854 122.953 40.1925 124.031 39.6583C124.75 39.2823 125.417 38.8152 126.016 38.2686C126.151 38.1556 126.247 38.0024 126.29 37.8312C126.332 37.66 126.319 37.4797 126.251 37.3167Z" fill="#0074D9"/>
    <path d="M94.4438 10.4721C94.53 10.2513 94.5965 10.0233 94.6427 9.79079C94.6827 9.57808 94.7989 9.38726 94.9695 9.25408C95.1131 9.13613 95.2658 9.02923 95.4185 8.92232C95.5711 8.81542 95.6364 8.77104 95.7459 8.69036C95.9259 8.5639 96.0694 8.3923 96.1621 8.1928C96.2547 7.9933 96.2933 7.77293 96.2738 7.55383C96.2464 7.26268 96.2752 6.96899 96.3586 6.6887C96.5229 6.29126 96.5483 5.85002 96.4306 5.43637C96.403 5.38391 96.3914 5.32451 96.3972 5.26551C96.403 5.20651 96.4259 5.1505 96.4632 5.1044L96.5806 4.94325C96.6412 4.87957 96.6787 4.79746 96.6873 4.70997C96.6959 4.62248 96.675 4.53463 96.6279 4.46039C96.5468 4.33859 96.448 4.22961 96.3346 4.13709C96.2798 4.09826 96.2337 4.04848 96.1991 3.9909C96.1645 3.93331 96.1423 3.86918 96.1338 3.80255C96.102 3.5088 95.9713 3.23457 95.7632 3.02479C95.5174 2.76169 95.3363 2.44486 95.2344 2.09949C95.1776 1.9168 95.0876 1.74616 94.9689 1.5961L89.729 11.6347L94.4438 10.4721Z" fill="#0074D9"/>
  </g>
  <defs>
    <clipPath id="clip0_2657_6850">
      <rect width="174" height="59" fill="white"/>
    </clipPath>
  </defs>
</svg>