<svg xmlns="http://www.w3.org/2000/svg" width="267" height="103" viewBox="0 0 267 103" fill="none">
<path d="M188.194 46.0321C188.137 45.8939 188.053 45.7683 187.947 45.6626C187.842 45.5569 187.716 45.4733 187.578 45.4164C187.241 45.2452 186.85 45.2143 186.49 45.3305C185.348 45.781 184.163 46.1121 182.953 46.3184C182.694 46.3594 182.446 46.4519 182.223 46.5905C181.915 46.784 181.556 46.8835 181.192 46.8768C180.272 46.8771 179.353 46.9489 178.443 47.0916C178.126 47.1487 177.801 47.1487 177.484 47.0916C177.252 47.0141 177 47.0141 176.768 47.0916C176.374 47.228 175.945 47.228 175.551 47.0916C175.238 46.9648 174.936 46.8115 174.649 46.6334C174.543 46.592 174.455 46.515 174.4 46.4156C174.346 46.3163 174.327 46.2009 174.348 46.0893C174.348 45.8173 174.348 45.7171 174.033 45.6312H173.919C173.76 45.6155 173.607 45.5666 173.469 45.4876C173.331 45.4087 173.211 45.3015 173.117 45.173C172.931 44.9725 172.745 44.8007 172.544 44.6146C172.392 44.4712 172.195 44.3851 171.986 44.3712C171.828 44.3712 171.728 44.3712 171.742 44.586C171.729 44.6617 171.729 44.7393 171.742 44.815C171.792 45.2703 171.675 45.7282 171.413 46.1037C171.373 46.1785 171.308 46.2368 171.23 46.2683C171.151 46.2997 171.064 46.3023 170.984 46.2755H170.826C170.139 46.0689 169.469 45.8105 168.822 45.5023C167.313 44.723 165.876 43.8127 164.526 42.7819C163.409 41.9658 162.336 41.121 161.276 40.2477C160.217 39.3743 158.871 38.4866 157.625 37.6561L154.761 35.7662C154.609 35.6583 154.465 35.5386 154.332 35.4082C153.917 34.993 153.487 34.5921 153.043 34.2198C152.588 33.8114 152.11 33.429 151.612 33.0744C150.906 32.5583 150.03 32.3327 149.163 32.4444C148.376 32.5303 147.588 32.6019 146.801 32.7165C145.903 32.8239 145.017 33.0108 144.152 33.2749C144.023 33.2887 143.894 33.2887 143.765 33.2749C142.672 33.3508 141.612 33.6845 140.673 34.2485C140.673 34.2485 140.472 34.363 140.415 34.3344C140.358 34.3057 139.985 34.3344 139.785 34.4489L139.585 34.5348C139.398 34.6064 139.284 34.5348 139.284 34.3344C139.262 34.0723 139.262 33.809 139.284 33.5469C139.348 33.0197 139.377 32.4887 139.37 31.9576C139.37 31.7858 139.37 31.6283 139.37 31.4565C139.365 31.239 139.404 31.0227 139.485 30.8209C139.567 30.619 139.688 30.4358 139.842 30.2824C140.04 30.1005 140.201 29.8817 140.315 29.6381C140.444 29.409 140.558 29.18 140.673 28.9366C140.787 28.6932 140.816 28.6359 140.873 28.4784C140.915 28.3873 140.944 28.2909 140.959 28.192C140.965 28.1254 140.965 28.0582 140.959 27.9916C141.117 27.2757 141.374 26.0014 141.389 25.9728C141.401 25.9017 141.401 25.8291 141.389 25.758C141.52 25.2045 141.544 24.6311 141.46 24.0685C141.438 23.9022 141.438 23.7337 141.46 23.5674C141.452 23.1308 141.384 22.6973 141.26 22.2788C140.883 21.0708 140.404 19.8973 139.828 18.7709L132.812 37.2266L137.451 33.6471L133.6 40.0902L129.791 46.39L129.519 38.9734L129.261 31.4995L131.266 36.2959L133.156 20.8756L124.565 24.498L125.753 15.0196C125.694 15.0647 125.641 15.1177 125.596 15.1771C124.729 16.1233 124.01 17.1949 123.463 18.3557C123.277 18.7995 123.105 19.2291 122.933 19.6729C122.661 20.3745 122.417 21.1047 122.131 21.7776C121.498 23.2494 120.977 24.7666 120.57 26.3164C120.427 26.8891 120.198 27.4332 120.041 27.9916C119.772 28.8397 119.366 29.6379 118.838 30.354C118.753 30.4555 118.657 30.5468 118.552 30.6261C118.149 30.9377 117.813 31.3272 117.564 31.7715C117.374 32.1232 117.206 32.4866 117.063 32.8596C116.85 33.443 116.571 34.0002 116.232 34.5205C116.062 34.7372 115.958 34.9983 115.933 35.2726C115.907 35.5469 115.962 35.8226 116.089 36.0668C116.114 36.1377 116.147 36.2051 116.189 36.2673C116.235 36.361 116.258 36.4638 116.258 36.568C116.258 36.6721 116.235 36.775 116.189 36.8686C116.103 37.1191 116.046 37.3785 116.017 37.6418C115.999 37.7511 115.965 37.8571 115.917 37.9568C115.891 38.069 115.832 38.1709 115.748 38.2499C115.664 38.3288 115.558 38.3812 115.445 38.4007C115.295 38.4207 115.155 38.4856 115.044 38.5868C114.733 38.8622 114.496 39.2119 114.356 39.6033C114.256 39.9111 114.184 40.2275 114.142 40.5483C114.063 41.0887 113.918 41.6176 113.712 42.1233C113.438 42.6629 113.371 43.2847 113.526 43.8701C113.569 43.9467 113.591 44.0329 113.591 44.1206C113.591 44.2083 113.569 44.2946 113.526 44.3712C113.237 44.8083 112.907 45.2159 112.538 45.5882C112.315 45.7571 112.131 45.9727 112 46.2201C111.869 46.4674 111.794 46.7404 111.779 47.02C111.767 47.1907 111.718 47.3567 111.636 47.5068C111.421 47.9507 111.221 48.3945 110.977 48.8097C110.75 49.183 110.567 49.5819 110.433 49.9981C110.375 50.2759 110.236 50.53 110.033 50.7283C109.966 50.7816 109.912 50.8492 109.875 50.9259C109.838 51.0027 109.818 51.0869 109.818 51.1722C109.793 51.3876 109.727 51.5961 109.621 51.7854C109.515 51.9746 109.373 52.141 109.202 52.2746C109.001 52.4479 108.857 52.6773 108.787 52.9333C108.723 53.1531 108.68 53.3784 108.658 53.6062C108.647 53.7376 108.603 53.8641 108.531 53.9742C108.458 54.0842 108.359 54.1743 108.243 54.2362L108.057 54.3507C107.976 54.3974 107.908 54.464 107.861 54.5442C107.813 54.6245 107.787 54.7156 107.785 54.8089C107.791 54.9903 107.744 55.1696 107.65 55.3248C107.556 55.4799 107.419 55.6042 107.255 55.6823C107.052 55.7646 106.875 55.8996 106.741 56.0732C106.608 56.2469 106.523 56.453 106.496 56.6702C106.433 56.9674 106.295 57.2434 106.095 57.472C105.923 57.6868 105.766 57.9159 105.594 58.145C105.307 58.5887 104.986 59.0099 104.635 59.4049C104.384 59.7118 104.044 59.9321 103.661 60.0349C103.16 60.1638 102.673 60.3069 102.229 60.4072C101.284 60.5933 100.339 60.7651 99.3657 60.9656C98.3759 61.1557 97.4729 61.6574 96.7885 62.3974C96.6024 62.5835 96.4306 62.7839 96.2587 62.9844C96.01 63.3188 95.7372 63.6346 95.4426 63.9294C94.8605 64.4638 94.3061 65.0277 93.7818 65.6189C93.0945 66.3348 92.35 67.0507 91.7343 67.8095C90.5459 69.0981 89.3719 70.401 88.1692 71.6753C87.396 72.4914 87.6537 72.3626 86.6228 72.248C86.4975 72.2055 86.3616 72.2055 86.2363 72.248C85.4529 72.6157 84.6384 72.9128 83.8022 73.1357C83.3316 73.2753 82.8933 73.5065 82.5124 73.8161C82.1315 74.1257 81.8157 74.5076 81.5829 74.9398C81.3628 75.3754 81.1715 75.825 81.0102 76.2857C80.8957 76.5863 80.7668 76.887 80.638 77.1734C80.2198 78.0408 79.6691 78.8378 79.0057 79.5358C78.6539 79.9288 78.3902 80.3926 78.2326 80.896C77.8376 82.0641 77.7829 83.3205 78.0751 84.5184C78.2279 85.2967 78.5345 86.0366 78.9771 86.6947C79.3274 87.1965 79.8292 87.5728 80.4089 87.7686C80.6253 87.8403 80.8543 87.8658 81.0812 87.8437C81.308 87.8215 81.5277 87.752 81.7261 87.6397C81.9984 87.5011 82.2339 87.2999 82.4134 87.0527C82.871 86.4333 83.2598 85.766 83.5731 85.0625C83.931 84.2323 84.3473 83.4285 84.8188 82.6571L85.1051 82.1703C85.3448 81.7288 85.6126 81.3031 85.9069 80.896C86.451 80.0942 87.1383 79.4642 87.7253 78.6624C87.8599 78.4776 88.0303 78.3218 88.2264 78.2043C88.885 77.7604 89.4434 77.202 90.145 76.7725C90.4047 76.6154 90.6329 76.4115 90.818 76.1711C90.922 76.0731 90.9867 75.9404 90.9998 75.7981C91.013 75.6557 90.9738 75.5135 90.8895 75.398C90.8074 75.2495 90.7166 75.1061 90.6175 74.9684C90.5904 74.9282 90.576 74.8809 90.576 74.8324C90.576 74.7839 90.5904 74.7366 90.6175 74.6964C90.6864 74.6085 90.763 74.527 90.8466 74.453C91.1616 74.1809 91.4766 73.9089 91.7773 73.6225C92.4279 72.9914 93.1541 72.4432 93.9392 71.9903C95.1133 71.3031 96.2874 70.6444 97.4901 70.0145C98.3921 69.542 99.2798 69.0552 100.153 68.5827C101.027 68.1102 101.714 67.5947 102.487 67.1509C102.83 66.9174 103.206 66.7387 103.604 66.6211L105.036 66.2202C106.007 65.9716 106.964 65.6657 107.899 65.3039C108.831 64.9915 109.649 64.4083 110.247 63.6287C110.403 63.4374 110.605 63.2894 110.834 63.1992C111.85 62.7371 112.768 62.086 113.54 61.2806C114.458 60.4258 115.27 59.4645 115.96 58.417C116.108 58.1754 116.336 57.9931 116.604 57.9016C116.905 57.8013 117.206 57.7011 117.506 57.5722C117.777 57.4902 118.066 57.4902 118.337 57.5722C118.812 57.634 119.293 57.634 119.769 57.5722C120.01 57.5801 120.246 57.5087 120.443 57.3691C120.64 57.2294 120.785 57.0292 120.857 56.7991C121.029 56.2693 121.372 55.7968 121.558 55.2671C121.623 55.1088 121.715 54.9633 121.83 54.8375C122.298 54.298 122.711 53.7128 123.062 53.0908C123.24 52.7167 123.477 52.3736 123.763 52.0742C124.465 51.4156 125.195 50.7713 125.94 50.1842C126.192 49.981 126.493 49.8477 126.813 49.7977L129.548 49.3252C130.776 49.1092 131.983 48.7883 133.156 48.3659L133.485 48.2656C133.714 48.2656 133.771 48.2656 133.886 48.4518C134.172 48.9815 134.43 49.5256 134.702 50.0697C134.757 50.1869 134.791 50.3129 134.802 50.442C134.864 50.8056 134.846 51.1782 134.75 51.5342C134.653 51.8901 134.481 52.2209 134.244 52.5037C134.101 52.6612 133.986 52.833 133.857 53.0049C133.073 54.1205 132.648 55.4495 132.64 56.8134C132.652 58.0239 132.9 59.2204 133.371 60.3356C133.721 61.2394 134.322 62.0243 135.103 62.5978C136.025 63.2915 137.084 63.7797 138.21 64.0296C139.03 64.1653 139.867 64.1653 140.687 64.0296C141.693 63.9006 142.665 63.5798 143.551 63.0846C144.246 62.6607 144.873 62.1346 145.412 61.524C145.649 61.2864 145.852 61.0164 146.013 60.7222C146.358 60.1553 146.61 59.5364 146.758 58.8895C146.758 58.5029 146.901 58.1163 146.958 57.7154C147.227 56.077 146.902 54.3965 146.042 52.9762C145.686 52.3917 145.195 51.9008 144.61 51.5444C144.15 51.2484 143.671 50.9806 143.178 50.7426C142.913 50.6436 142.694 50.4498 142.563 50.1986C142.509 50.0861 142.429 49.9883 142.329 49.9135C142.229 49.8387 142.113 49.7891 141.99 49.769C141.603 49.6974 141.217 49.5972 140.816 49.5543C140.628 49.5528 140.447 49.4842 140.305 49.3608C140.163 49.2374 140.07 49.0673 140.043 48.8813C139.914 48.2943 139.756 47.7072 139.613 47.1202C139.47 46.5332 139.456 46.4759 140.057 46.1896C141.039 45.7215 141.995 45.2006 142.921 44.6289C143.766 44.0312 144.656 43.4998 145.584 43.0396L145.77 42.9108C146.032 42.6915 146.34 42.5348 146.672 42.4526C146.916 42.4011 147.132 42.2575 147.273 42.0517C147.383 41.8991 147.525 41.7721 147.688 41.6794C148.099 41.4478 148.53 41.256 148.977 41.1067C149.155 41.0198 149.356 40.991 149.551 41.0244C149.746 41.0578 149.926 41.1517 150.065 41.2929C150.943 42.0374 151.831 42.7676 152.728 43.4835C153.362 44.0504 154.042 44.5629 154.761 45.0155C156.121 45.8392 157.629 46.3888 159.2 46.6334C159.553 46.6818 159.9 46.7731 160.231 46.9054C160.918 47.1775 161.562 47.5211 162.221 47.8361C163.324 48.3802 164.44 48.8813 165.557 49.3824C166.571 49.8367 167.56 50.3433 168.521 50.9001C168.878 51.0804 169.176 51.3585 169.38 51.7019C169.595 52.1171 169.795 52.5467 169.996 52.9762C170.064 53.0912 170.113 53.2171 170.139 53.3485C170.262 54.0342 170.515 54.6902 170.883 55.2814C170.97 55.381 171.033 55.4982 171.069 55.625C171.199 56.0826 171.44 56.5009 171.771 56.842C171.821 56.9221 171.895 56.9837 171.983 57.0174C172.071 57.051 172.168 57.0548 172.258 57.0282C172.573 56.9673 172.88 56.8712 173.174 56.7418C173.848 56.4441 174.491 56.0796 175.093 55.6537C176.972 54.3683 178.933 53.2062 180.963 52.1744C182.481 51.3869 183.941 50.5422 185.387 49.6402C186.348 49.0108 187.224 48.2601 187.993 47.4066C188.168 47.2286 188.282 46.9993 188.318 46.7521C188.355 46.5049 188.311 46.2527 188.194 46.0321Z" fill="#0074D9"/>
<path d="M139.642 12.5854C139.733 12.2622 139.795 11.9316 139.828 11.5975C139.855 11.2921 139.993 11.007 140.215 10.7957C140.401 10.6095 140.601 10.4377 140.802 10.2659C141.002 10.0941 141.088 10.0225 141.231 9.89363C141.467 9.69047 141.646 9.42872 141.749 9.13467C141.852 8.84062 141.876 8.52462 141.818 8.21844C141.739 7.81178 141.739 7.39377 141.818 6.98711C141.995 6.40412 141.97 5.77857 141.747 5.2117C141.7 5.14156 141.676 5.05943 141.676 4.97545C141.676 4.89147 141.7 4.80934 141.747 4.73921L141.89 4.4958C141.966 4.39765 142.008 4.2767 142.008 4.15217C142.008 4.02765 141.966 3.9067 141.89 3.80855C141.759 3.64805 141.604 3.50809 141.432 3.39333C141.349 3.34617 141.277 3.28237 141.22 3.20596C141.164 3.12956 141.124 3.04222 141.102 2.94948C141.017 2.53976 140.795 2.17123 140.472 1.90427C140.089 1.56735 139.79 1.14573 139.599 0.672939C139.494 0.423256 139.343 0.195132 139.155 0L133.156 14.8762L139.642 12.5854Z" fill="#0074D9"/>
<path d="M0 83.215L1.13111 77.2158H23.7676L23.0231 81.0387C22.9501 81.7338 22.6053 82.372 22.0638 82.8141C21.5225 83.1443 20.8925 83.2993 20.2597 83.2579L0 83.215ZM11.1106 102.959H4.52444L8.08958 84.5752H14.6042L11.1106 102.959Z" fill="#0074D9"/>
<path d="M42.2664 82.4418C41.6604 82.3992 41.0522 82.4857 40.4821 82.6955C39.912 82.9053 39.3928 83.2336 38.9589 83.6588C38.1386 84.6113 37.594 85.7698 37.384 87.0092L34.277 102.959H27.6908L30.8694 87.0092C32.1723 80.38 35.8377 77.1299 41.8512 77.2158H48.5233L47.5067 82.4418H42.2664ZM49.7832 77.2158H56.2979L51.3296 102.988H44.7434L46.5331 93.7672H37.4842L38.2574 89.4719C38.3167 88.8008 38.6108 88.1721 39.0878 87.6964C39.544 87.3683 40.1032 87.2158 40.6628 87.2669H47.8217L49.7832 77.2158Z" fill="#0074D9"/>
<path d="M68.0956 102.96H61.5667L66.6065 77.188H73.0209L68.0956 102.96ZM70.4008 98.6647C70.4825 97.973 70.832 97.3407 71.3744 96.9036C71.9109 96.5746 72.536 96.4195 73.1641 96.4598H85.0193L84.1459 100.755C84.0685 101.449 83.7245 102.086 83.1866 102.531C82.6467 102.863 82.0144 103.014 81.3825 102.96H69.5703L70.4008 98.6647Z" fill="#0074D9"/>
<path d="M109.947 97.189L110.648 93.6955H117.234L115.803 100.396C115.687 101.082 115.417 101.733 115.015 102.301C114.799 102.535 114.531 102.716 114.233 102.831C113.935 102.945 113.615 102.989 113.297 102.959H95.3996C94.9047 102.981 94.4123 102.877 93.9678 102.658C93.7812 102.53 93.634 102.352 93.543 102.145C93.4519 101.937 93.4205 101.709 93.4524 101.484C93.4641 101.239 93.4977 100.994 93.5526 100.754V100.568L94.3974 96.3729C94.4906 95.7015 94.7354 95.0601 95.1133 94.4973C95.3145 94.2631 95.5692 94.081 95.8559 93.9663C96.1425 93.8517 96.4526 93.8079 96.7598 93.8387H100.626L100.225 95.8289L99.9814 97.2606L109.947 97.189ZM118.008 77.1441C118.501 77.125 118.991 77.2231 119.439 77.4304C119.626 77.5622 119.773 77.7428 119.864 77.9524C119.955 78.1619 119.986 78.3925 119.955 78.6188C119.949 78.8652 119.916 79.1102 119.855 79.349V79.5352L119.024 83.7303C118.927 84.4029 118.677 85.0444 118.294 85.6059C118.091 85.8382 117.836 86.0191 117.55 86.1336C117.264 86.2481 116.954 86.293 116.647 86.2645H112.81L113.225 84.3173L113.483 82.8855H103.461L102.516 87.5102H116.046C116.571 87.4821 117.094 87.5906 117.564 87.8252C117.759 87.9415 117.916 88.1112 118.018 88.3142C118.119 88.5171 118.16 88.7449 118.136 88.9706C118.128 89.2215 118.095 89.471 118.036 89.7151L117.449 92.321L101.657 92.4499H97.3612C96.8634 92.4665 96.3699 92.353 95.9294 92.1205C95.7387 91.9911 95.5872 91.812 95.4912 91.6024C95.3953 91.3929 95.3587 91.161 95.3853 90.9322C95.3855 90.6994 95.4193 90.468 95.4855 90.2449L96.0296 87.6247L97.6332 79.7929C97.7373 79.1036 98.0076 78.4501 98.4207 77.8886C98.6344 77.6498 98.9013 77.4645 99.1997 77.3476C99.4981 77.2307 99.8198 77.1855 100.139 77.2157L118.008 77.1441Z" fill="#0074D9"/>
<path d="M129.061 83.215L130.192 77.2158H152.829L152.084 81.0387C152.011 81.7338 151.666 82.372 151.125 82.8141C150.583 83.1443 149.953 83.2993 149.321 83.2579L129.061 83.215ZM140.172 102.959H133.585L137.151 84.5752H143.679L140.172 102.959Z" fill="#0074D9"/>
<path d="M182.667 77.2166C183.47 77.2047 184.274 77.2429 185.072 77.3311C185.513 77.3616 185.931 77.5379 186.261 77.8323C186.4 77.9952 186.506 78.1841 186.572 78.388C186.639 78.5919 186.664 78.8069 186.647 79.0206C186.617 79.6428 186.531 80.261 186.39 80.8676L185.101 87.2677L184.242 91.5631C184.162 92.2522 183.818 92.8836 183.283 93.3242C182.741 93.6544 182.111 93.8094 181.479 93.768H167.834L168.664 89.5443C168.747 88.8522 169.09 88.2176 169.623 87.7688C170.163 87.4364 170.796 87.2858 171.427 87.3393H179.259L180.233 82.6574H168.564L164.655 102.96H158.069L163.109 77.188H182.696L182.667 77.2166ZM173.246 94.8419H179.961L181.178 102.96H176.324C176.021 102.989 175.715 102.941 175.434 102.821C175.154 102.701 174.909 102.513 174.72 102.273C174.359 101.666 174.139 100.986 174.076 100.283L173.246 94.8419Z" fill="#0074D9"/>
<path d="M198.417 102.96H191.859L196.899 77.188H203.414L198.417 102.96Z" fill="#0074D9"/>
<path d="M215.183 102.96H208.596L213.636 77.188H220.165L215.183 102.96ZM219.478 86.5232C221.11 86.6749 222.75 86.7371 224.389 86.7093C224.804 86.7317 225.219 86.6682 225.608 86.5228C225.997 86.3775 226.353 86.1534 226.651 85.8646C227.282 85.1358 227.689 84.2412 227.825 83.2874L229.014 77.2166H235.5L234.068 84.576C233.881 86.3063 233.154 87.934 231.992 89.2293C231.507 89.6754 230.939 90.0204 230.319 90.2441C229.699 90.4679 229.042 90.5658 228.384 90.5322C230.646 90.5322 231.777 91.964 231.777 94.8275C231.768 95.7902 231.662 96.7495 231.462 97.6911L230.517 102.96H224.002L225.32 96.4168C225.378 96.1146 225.411 95.8081 225.42 95.5005C225.446 95.2321 225.406 94.9615 225.303 94.712C225.201 94.4626 225.04 94.2418 224.833 94.0687C224.241 93.6839 223.549 93.4799 222.843 93.4817L218.189 93.181L219.478 86.5232Z" fill="#0074D9"/>
<path d="M241.585 98.6926C241.666 98.0008 242.016 97.3686 242.558 96.9315C243.093 96.5988 243.72 96.4435 244.348 96.4876H262.618L261.759 100.783C261.676 101.478 261.327 102.115 260.785 102.558C260.252 102.895 259.623 103.046 258.995 102.988H240.754L241.585 98.6926ZM266.283 77.2158L264.966 83.7734H251.034L248.844 95.0558H242.258L245.794 77.2158H266.283ZM263.978 87.2383L263.262 91.5336C263.192 92.2034 262.887 92.827 262.403 93.2947C261.945 93.6211 261.388 93.778 260.828 93.7386H250.562L251.321 89.4432C251.384 88.7703 251.683 88.1414 252.166 87.6678C252.621 87.3373 253.181 87.1845 253.741 87.2383H263.978Z" fill="#0074D9"/>
</svg>
