<svg width="24" height="24" viewBox="0 0 24 24" fill="none" xmlns="http://www.w3.org/2000/svg">
<g id="TikTok">
<path id="Logo" d="M18.7499 5.40979C17.5608 4.63717 16.7024 3.40078 16.4348 1.95966C16.3768 1.64843 16.3451 1.32805 16.3451 1H12.5503L12.5441 16.1582C12.4801 17.8553 11.0785 19.2177 9.3599 19.2177C8.82591 19.2177 8.32299 19.0846 7.88016 18.8525C6.86485 18.32 6.16982 17.2591 6.16982 16.0384C6.16982 14.2851 7.60102 12.8588 9.3599 12.8588C9.68847 12.8588 10.0034 12.9131 10.3012 13.006V10.0405V9.14461C9.99307 9.10301 9.67959 9.07676 9.3599 9.07676C5.50825 9.07676 2.375 12.1997 2.375 16.0384C2.375 18.3937 3.55548 20.478 5.35699 21.7385C6.49129 22.5321 7.87158 23 9.3599 23C13.2119 23 16.3451 19.877 16.3451 16.0384V8.35221C17.8337 9.4169 19.6571 10.0441 21.625 10.0441V7.10462V6.26208C20.565 6.26208 19.5778 5.94789 18.7499 5.40979Z" fill="black"/>
</g>
</svg>
