<svg xmlns="http://www.w3.org/2000/svg" width="41" height="41" viewBox="0 0 41 41" fill="none">
  <path d="M15.3834 9.14501C17.2248 9.88225 19.3167 8.98662 20.0533 7.14529C20.7912 5.30383 19.8949 3.21192 18.0535 2.47531C16.2114 1.73745 14.1209 2.63308 13.3829 4.47517C12.6465 6.31657 13.5407 8.40715 15.3834 9.14501Z" fill="#293137" stroke="#293137" stroke-width="1.10811"/>
  <path d="M37.1162 13.2863L32.2988 5.20996C31.9319 4.52626 31.1899 4.17485 30.4635 4.26758C30.4465 4.26897 30.4296 4.27298 30.4134 4.27437C30.3599 4.28316 30.3057 4.29473 30.2524 4.30754C30.2205 4.31634 30.188 4.32313 30.1569 4.33324C30.0458 4.36787 29.9369 4.41247 29.8313 4.46933C29.6349 4.57501 29.4136 4.7199 29.2741 4.87829L23.9754 8.98217L20.12 11.9446C18.5007 12.9919 17.2461 12.9412 15.7859 12.6067L4.42131 9.3815C3.68276 9.15877 2.90217 9.57715 2.68013 10.3164C2.45809 11.055 2.8764 11.8355 3.61572 12.0583L14.4468 16.2569C14.9234 16.3964 15.7242 17.5351 16.2725 18.143C17.0734 19.0339 20.1246 23.5791 27.3467 23.7416C27.7901 23.7518 27.9005 23.8635 27.9553 24.1682L29.3181 38.072C29.3181 38.9778 30.0526 39.7123 30.9584 39.7123C31.8635 39.7123 32.5987 38.9778 32.5987 38.072C32.5987 38.072 32.7605 20.2728 32.7808 19.9695C32.8052 19.5965 33.0395 19.3846 33.3712 19.0894C33.3712 19.0894 36.1584 16.3462 36.207 16.3144C37.6111 15.385 37.6774 14.2084 37.1162 13.2863ZM28.0778 16.8053C27.7394 17.0504 26.5133 17.2867 26.0096 17.2778C23.0566 17.2304 22.8034 14.8373 23.6964 13.9443L26.1836 11.6088L29.7588 8.3234L32.265 13.5145L28.0778 16.8053Z" fill="#293137" stroke="#293137" stroke-width="1.10811"/>
</svg>