<svg width="32" height="33" viewBox="0 0 32 33" fill="none" xmlns="http://www.w3.org/2000/svg">
<path d="M12.6531 13.0828C12.7164 13.1532 12.7955 13.2493 12.8916 13.366L12.8916 13.3661C13.8776 14.5636 16.6524 17.9338 22.509 18.0656C22.9037 18.0746 23.0019 18.174 23.0507 18.4452L24.2636 30.8196C24.2636 31.6257 24.9173 32.2794 25.7235 32.2794C26.529 32.2794 27.1833 31.6257 27.1833 30.8196M12.6531 13.0828L25.2385 0.739784C25.2455 0.739182 25.2527 0.738023 25.2599 0.736851L25.2599 0.736849L25.26 0.736848C25.2676 0.735618 25.2753 0.734374 25.283 0.733743C25.9295 0.651209 26.5899 0.963962 26.9164 1.57245L31.2039 8.7604C31.7034 9.58105 31.6443 10.6282 30.3947 11.4554C30.3514 11.4837 27.8708 13.9251 27.8708 13.9251C27.5756 14.1878 27.3671 14.3764 27.3454 14.7084M12.6531 13.0828C12.5215 12.9369 12.3735 12.7566 12.2192 12.5686C11.8016 12.0598 11.338 11.4948 11.0282 11.4042M12.6531 13.0828L11.0282 11.4042M27.1833 30.8196C27.1833 30.8196 27.3273 14.9783 27.3454 14.7084M27.1833 30.8196L26.4833 30.8132V30.8196C26.4833 31.2389 26.1426 31.5794 25.7235 31.5794C25.3039 31.5794 24.9636 31.239 24.9636 30.8196V30.7853L24.9602 30.7513L23.7474 18.3769L23.7446 18.3489L23.7396 18.3212C23.7075 18.1424 23.63 17.822 23.3291 17.5967C23.0611 17.3961 22.7421 17.3707 22.5251 17.3657L22.5248 17.3657C19.4673 17.297 17.3162 16.3043 15.8463 15.2487C14.6389 14.3816 13.9011 13.4881 13.4476 12.939C13.3415 12.8105 13.251 12.7008 13.1737 12.6148L13.1729 12.6139C13.0636 12.4928 12.9378 12.3407 12.794 12.1655C12.7826 12.1516 12.7711 12.1376 12.7595 12.1235C12.6289 11.9644 12.4866 11.7909 12.3453 11.6282C12.1926 11.4524 12.0268 11.2722 11.8612 11.1229C11.7207 10.9962 11.5113 10.8265 11.2607 10.7436L1.64159 7.01475L1.61638 7.00498L1.5905 6.99719C1.30312 6.91061 1.13974 6.60652 1.22627 6.3187L1.22632 6.31853C1.31243 6.03183 1.61589 5.86858 1.90344 5.9553L1.90341 5.95539L1.91444 5.95852L12.0289 8.82895L12.0462 8.83386L12.0637 8.83788C12.7447 8.99383 13.4368 9.09831 14.1717 9.01792C14.916 8.93649 15.6582 8.67102 16.4575 8.15407L16.4813 8.13865L16.5038 8.12134L19.9351 5.48477L19.9373 5.48313L24.6531 1.83069L24.7057 1.7899L24.7498 1.7399C24.7908 1.69335 24.8998 1.61166 25.0521 1.52967L25.0521 1.52965C25.1035 1.502 25.1587 1.4791 25.2185 1.46046L25.2185 1.46051L25.2208 1.45977C25.2218 1.45951 25.223 1.45918 25.2246 1.45877L25.2334 1.45657L25.2458 1.45345C25.2517 1.45194 25.2591 1.45006 25.2673 1.44788C25.2943 1.44151 25.3181 1.43651 25.339 1.43276M27.1833 30.8196C26.4834 30.8132 26.4834 30.8131 26.4834 30.813L26.4834 30.8125L26.4834 30.8103L26.4835 30.8017L26.4838 30.7677L26.485 30.6352L26.4896 30.1319L26.5061 28.3337C26.5199 26.8443 26.5385 24.8556 26.5576 22.8585C26.5955 18.8991 26.636 14.8429 26.6469 14.6627M27.3454 14.7084L26.6469 14.6627M27.3454 14.7084L26.647 14.6615C26.647 14.6619 26.6469 14.6623 26.6469 14.6627M25.339 1.43276L26.6469 14.6627M25.339 1.43276C25.3427 1.43227 25.346 1.4318 25.3489 1.43138C25.3547 1.43055 25.3603 1.42969 25.3646 1.42901L25.3717 1.42811C25.7422 1.3808 26.1158 1.56084 26.2996 1.90347L26.3071 1.91743L26.3153 1.93104L30.6027 9.11899L30.6027 9.119L30.6059 9.12436C30.781 9.41207 30.8323 9.69292 30.7733 9.94723C30.7149 10.1992 30.5235 10.5307 30.0083 10.8717C29.9795 10.8908 29.9583 10.908 29.9531 10.9122L29.9527 10.9126C29.9438 10.9198 29.9367 10.9259 29.9325 10.9295C29.924 10.9369 29.9165 10.9437 29.9115 10.9482C29.9011 10.9577 29.8895 10.9686 29.8782 10.9793C29.8551 11.0012 29.8242 11.0308 29.7877 11.066C29.7143 11.1368 29.6128 11.2356 29.4932 11.3522C29.2538 11.5858 28.9391 11.8942 28.6262 12.2013C28.3132 12.5084 28.0016 12.8147 27.7683 13.0441L27.4866 13.3212L27.4077 13.3988L27.3927 13.4136L25.339 1.43276ZM11.0282 11.4042L1.38858 7.66743C0.73059 7.4692 0.358295 6.77448 0.555907 6.11717C0.753519 5.45924 1.44824 5.08688 2.10555 5.28511L11.0282 11.4042ZM15.3676 5.00702L15.3678 5.00662C15.8807 3.72683 15.2577 2.27264 13.9778 1.76066L13.9775 1.76054C12.6974 1.24777 11.2443 1.86989 10.731 3.15054C10.2189 4.43072 10.8406 5.88394 12.1216 6.39689L15.3676 5.00702ZM15.3676 5.00702C14.8558 6.28657 13.4017 6.90937 12.1216 6.3969L15.3676 5.00702ZM21.3073 13.0127C21.6106 13.018 22.0561 12.9546 22.4418 12.8716C22.6419 12.8286 22.8462 12.7759 23.0283 12.7156C23.1923 12.6612 23.4033 12.5802 23.5703 12.4593L23.5814 12.4512L23.5923 12.4427L27.3189 9.51387L27.7615 9.16605L27.5167 8.65916L25.2862 4.03906L24.8763 3.1901L24.1821 3.82798L21.0003 6.75198L21.0002 6.75195L20.9947 6.75711L18.7811 8.83574L18.7731 8.84328L18.7653 8.85107C18.1433 9.47312 17.9746 10.5216 18.3673 11.3979C18.7898 12.3405 19.7911 12.9882 21.3073 13.0127ZM21.3073 13.0127C21.3071 13.0127 21.3069 13.0127 21.3067 13.0127L21.3191 12.3128M21.3073 13.0127C21.3075 13.0127 21.3076 13.0127 21.3078 13.0127L21.3191 12.3128M21.3191 12.3128C18.6909 12.2706 18.4656 10.1408 19.2603 9.34603M21.3191 12.3128C21.7674 12.3207 22.8585 12.1104 23.1598 11.8923L26.8864 8.9635L19.2603 9.34603M19.2603 9.34603L21.4739 7.2674L19.2603 9.34603ZM25.218 1.46049C25.218 1.46049 25.2182 1.46045 25.2184 1.46037L25.218 1.46049Z" stroke="white" stroke-width="1.4"/>
</svg>
