<svg xmlns="http://www.w3.org/2000/svg" width="40" height="41" viewBox="0 0 40 41" fill="none">
  <path d="M14.4791 9.14501C16.3205 9.88225 18.4124 8.98662 19.149 7.14529C19.8869 5.30383 18.9906 3.21192 17.1492 2.47531C15.3071 1.73745 13.2166 2.63308 12.4786 4.47517C11.7422 6.31657 12.6364 8.40715 14.4791 9.14501Z" fill="white" stroke="white" stroke-width="1.10811"/>
  <path d="M36.2119 13.2863L31.3945 5.20996C31.0276 4.52626 30.2857 4.17485 29.5592 4.26758C29.5422 4.26897 29.5254 4.27298 29.5091 4.27437C29.4556 4.28316 29.4015 4.29473 29.3481 4.30754C29.3162 4.31634 29.2837 4.32313 29.2526 4.33324C29.1415 4.36787 29.0326 4.41247 28.927 4.46933C28.7306 4.57501 28.5093 4.7199 28.3698 4.87829L23.0711 8.98217L19.2157 11.9446C17.5964 12.9919 16.3418 12.9412 14.8816 12.6067L3.51702 9.3815C2.77846 9.15877 1.99787 9.57715 1.77583 10.3164C1.5538 11.055 1.97211 11.8355 2.71142 12.0583L13.5425 16.2569C14.0191 16.3964 14.8199 17.5351 15.3682 18.143C16.1691 19.0339 19.2203 23.5791 26.4424 23.7416C26.8858 23.7518 26.9962 23.8635 27.051 24.1682L28.4138 38.072C28.4138 38.9778 29.1483 39.7123 30.0541 39.7123C30.9592 39.7123 31.6944 38.9778 31.6944 38.072C31.6944 38.072 31.8562 20.2728 31.8766 19.9695C31.9009 19.5965 32.1352 19.3846 32.4669 19.0894C32.4669 19.0894 35.2541 16.3462 35.3027 16.3144C36.7068 15.385 36.7731 14.2084 36.2119 13.2863ZM27.1735 16.8053C26.8351 17.0504 25.609 17.2867 25.1053 17.2778C22.1523 17.2304 21.8991 14.8373 22.7921 13.9443L25.2793 11.6088L28.8545 8.3234L31.3607 13.5145L27.1735 16.8053Z" fill="white" stroke="white" stroke-width="1.10811"/>
</svg>