<svg width="32" height="33" viewBox="0 0 32 33" fill="none" xmlns="http://www.w3.org/2000/svg">
<path d="M15.2255 4.98845L15.2257 4.98802C15.7283 3.73388 15.1178 2.3088 13.8635 1.80708L13.8632 1.80695C12.6086 1.30441 11.1844 1.91422 10.6815 3.16952C10.18 4.42398 10.7893 5.84784 12.0445 6.35047L15.2255 4.98845ZM15.2255 4.98845C14.7239 6.24234 13.2989 6.85269 12.0445 6.35048L15.2255 4.98845ZM23.5159 12.4911L23.5039 12.4998C23.3303 12.6254 23.1132 12.7084 22.9483 12.763C22.764 12.8241 22.5579 12.8772 22.3566 12.9205C21.9698 13.0037 21.5203 13.068 21.2113 13.0627L23.5159 12.4911ZM23.5159 12.4911L23.5275 12.482M23.5159 12.4911L23.5275 12.482M23.5275 12.482L27.2541 9.55318L27.7283 9.18052L27.4661 8.63742L25.2355 4.01732L24.7963 3.10772L24.0526 3.79117L20.8707 6.71516L20.8707 6.71513L20.8648 6.72066L18.6512 8.79929L18.6426 8.80737M23.5275 12.482L18.6426 8.80737M18.6426 8.80737L18.6342 8.81572M18.6426 8.80737L18.6342 8.81572M18.6342 8.81572C17.9962 9.45382 17.8256 10.525 18.226 11.4184M18.6342 8.81572L18.226 11.4184M18.226 11.4184C18.6582 12.3829 19.6803 13.0381 21.2112 13.0627L18.226 11.4184ZM27.277 13.3631L27.2629 13.377L27.2497 14.7084L26.5014 14.6581C26.5014 14.6585 26.5014 14.659 26.5013 14.6595C26.4902 14.8425 26.4498 18.9009 26.4119 22.858C26.3928 24.8551 26.3742 26.8438 26.3604 28.3332L26.3439 30.1315L26.3393 30.6348L26.3381 30.7673L26.3378 30.8013L26.3377 30.8099L26.3377 30.812L26.3377 30.8126C26.3377 30.8127 26.3377 30.8127 27.0876 30.8196L26.3376 30.8127V30.8196C26.3376 31.2113 26.0193 31.5294 25.6278 31.5294C25.2358 31.5294 24.9179 31.2114 24.9179 30.8196V30.7829L24.9143 30.7464L23.7014 18.372L23.6985 18.342L23.6932 18.3123C23.6604 18.1304 23.5801 17.7938 23.2633 17.5567C22.9819 17.346 22.649 17.3208 22.4306 17.3158L22.4302 17.3157C19.3839 17.2472 17.2424 16.2584 15.7798 15.2081C14.5783 14.3453 13.8455 13.458 13.3917 12.9085C13.2849 12.7792 13.1935 12.6686 13.1152 12.5814L13.1143 12.5804C13.0059 12.4603 12.8809 12.3092 12.7369 12.1338C12.7255 12.1199 12.714 12.1058 12.7023 12.0917C12.5719 11.9327 12.4291 11.7587 12.2873 11.5954C12.1342 11.4191 11.9668 11.2371 11.799 11.0858C11.6579 10.9585 11.4425 10.7831 11.1819 10.6965L1.56395 6.96814L1.53695 6.95767L1.50922 6.94931C1.24831 6.87071 1.09985 6.59453 1.17845 6.3331L1.1785 6.33291C1.25665 6.07272 1.53216 5.92442 1.7933 6.00317L1.79327 6.00327L1.80509 6.00662L11.9196 8.87705L11.9381 8.88231L11.9569 8.88661C12.64 9.04308 13.3384 9.14889 14.0814 9.06762C14.8345 8.98524 15.584 8.71664 16.3889 8.19605L16.4145 8.17953L16.4386 8.16099L19.8699 5.52442L19.8722 5.52266L24.588 1.87022L24.6444 1.82651L24.6916 1.77294C24.7266 1.73314 24.8294 1.65483 24.9801 1.5737L24.9801 1.57368C25.0285 1.54767 25.0807 1.52596 25.1376 1.5082L25.1377 1.50825L25.1391 1.50779C25.1397 1.50763 25.1404 1.50744 25.1412 1.50723L25.1498 1.50507L25.1624 1.50192C25.1682 1.50043 25.1755 1.49856 25.1837 1.49639C25.2094 1.49036 25.2317 1.48567 25.2511 1.48216C25.2545 1.4817 25.2576 1.48127 25.2603 1.48087C25.266 1.48005 25.2716 1.4792 25.2759 1.47852L25.2823 1.47771C25.6331 1.43292 25.9862 1.60347 26.1599 1.92711L26.1679 1.94207L26.1766 1.95666L30.464 9.1446L30.464 9.14462L30.4675 9.15036C30.6373 9.42931 30.6844 9.69687 30.6289 9.93593C30.574 10.1725 30.3923 10.4942 29.885 10.83C29.8532 10.8511 29.83 10.8701 29.8255 10.8737C29.816 10.8814 29.8084 10.8879 29.8041 10.8917C29.7951 10.8995 29.7872 10.9067 29.7821 10.9113C29.7714 10.9211 29.7595 10.9322 29.7482 10.9429C29.7248 10.965 29.6938 10.9948 29.6573 11.03C29.5838 11.1009 29.4822 11.1998 29.3626 11.3164C29.1232 11.5501 28.8084 11.8585 28.4955 12.1656C28.1825 12.4728 27.8709 12.779 27.6376 13.0084L27.3558 13.2855L27.277 13.3631ZM12.1235 12.5686C12.2778 12.7566 12.4258 12.9369 12.5574 13.0828L10.9325 11.4042C11.2423 11.4948 11.7059 12.0598 12.1235 12.5686Z" stroke="#0074D9" stroke-width="1.5"/>
</svg>
