<svg width="28" height="28" viewBox="0 0 28 28" fill="none" xmlns="http://www.w3.org/2000/svg">
<g id="Twitter">
<path id="Logo" fill-rule="evenodd" clip-rule="evenodd" d="M24.2142 9.31102C24.2142 9.09072 24.2142 8.87041 24.204 8.6501C25.2311 7.92909 26.1246 7.01782 26.8333 5.98637C25.8884 6.39695 24.8716 6.66733 23.8034 6.79751C24.8921 6.16663 25.7241 5.15521 26.1246 3.95353C25.1078 4.54436 23.978 4.96494 22.7763 5.19527C21.8109 4.19387 20.4166 3.573 18.2777 3.573C15.711 3.573 13.6662 5.87622 13.6662 8.71018C13.6662 9.11074 13.7175 9.50129 13.7997 9.88182C9.42433 9.67153 5.54198 7.61866 2.94347 4.51431C2.49156 5.27538 2.23479 6.15661 2.23479 7.09793C2.23479 8.88042 3.16943 10.4526 4.57652 11.3739C3.71378 11.3439 2.90239 11.1135 2.1937 10.733C2.1937 10.753 2.1937 10.7731 2.1937 10.8031C2.1937 13.2866 4.01163 15.3695 6.41499 15.8402C5.97335 15.9603 5.51116 16.0204 5.02844 16.0204C4.6895 16.0204 4.36084 15.9904 4.04244 15.9303C4.71004 17.9731 6.66149 19.4552 8.96214 19.4953C7.15449 20.8772 4.88465 21.6983 2.41966 21.6983C1.99856 21.6983 1.57746 21.6783 1.16663 21.6283C3.48782 23.0703 6.75393 24.4272 9.72218 24.4272C19.4075 24.4272 24.2142 16.0905 24.2142 9.31102Z" fill="#3A9FE9"/>
</g>
</svg>
