<svg width="125" height="125" viewBox="0 0 125 125" fill="none" xmlns="http://www.w3.org/2000/svg">
<circle opacity="0.2" cx="62.5" cy="62.5" r="62.5" fill="#FF0F00"/>
<circle opacity="0.3" cx="62.4996" cy="62.5016" r="47.4684" fill="#FF0F00"/>
<circle cx="62.4996" cy="62.4996" r="34.8101" fill="#FF0F00"/>
<g clip-path="url(#clip0_3283_92365)">
<path fill-rule="evenodd" clip-rule="evenodd" d="M66.6277 53.4341H58.3049V51.3203H66.6277C69.911 51.3203 72.5726 53.6862 72.5726 56.6047V57.6615L78.2797 53.8568C79.8473 52.8117 82.0844 53.806 82.0844 55.5478V72.4577C82.0844 74.1995 79.8473 75.1938 78.2797 74.1487L72.5726 70.344V71.4008C72.5726 74.3193 69.911 76.6852 66.6277 76.6852H49.982C46.6987 76.6852 44.0371 74.3193 44.0371 71.4008V61.889H46.4151V71.4008C46.4151 73.1519 48.012 74.5714 49.982 74.5714H66.6277C68.5977 74.5714 70.1946 73.1519 70.1946 71.4008V68.653C70.1946 67.6079 71.5369 67.0113 72.4775 67.6384L79.7065 72.4577V55.5478L72.4775 60.3671C71.5369 60.9942 70.1946 60.3976 70.1946 59.3525V56.6047C70.1946 54.8536 68.5977 53.4341 66.6277 53.4341ZM53.5489 59.7961C53.5489 58.5067 55.1072 57.6917 56.3752 58.3179L64.8936 62.5246C66.1983 63.1688 66.1983 64.8367 64.8936 65.4809L56.3752 69.6876C55.1072 70.3138 53.5489 69.4988 53.5489 68.2094V59.7961ZM55.9269 60.5146V67.4909L62.9905 64.0027L55.9269 60.5146Z" fill="white" stroke="white" stroke-width="1.07219"/>
<circle cx="48.2646" cy="53.4365" r="4.22748" fill="white"/>
</g>
<defs>
<clipPath id="clip0_3283_92365">
<rect width="41.3558" height="41.3558" fill="white" transform="translate(40.7305 42.1348)"/>
</clipPath>
</defs>
</svg>
