<svg xmlns="http://www.w3.org/2000/svg" width="29" height="29" viewBox="0 0 29 29" fill="none">
  <path fill-rule="evenodd" clip-rule="evenodd" d="M17.4672 7.30156H11.631V5.81934H17.4672C19.7696 5.81934 21.636 7.47837 21.636 9.52489V10.266L25.638 7.598C26.7373 6.86515 28.306 7.56236 28.306 8.78378V20.6416C28.306 21.863 26.7373 22.5602 25.638 21.8273L21.636 19.1593V19.9004C21.636 21.947 19.7696 23.606 17.4672 23.606H5.79473C3.49239 23.606 1.62598 21.947 1.62598 19.9004V13.2304H3.29348V19.9004C3.29348 21.1284 4.41332 22.1238 5.79473 22.1238H17.4672C18.8486 22.1238 19.9685 21.1284 19.9685 19.9004V17.9736C19.9685 17.2407 20.9097 16.8224 21.5693 17.2621L26.6385 20.6416V8.78378L21.5693 12.1632C20.9097 12.603 19.9685 12.1846 19.9685 11.4518V9.52489C19.9685 8.29698 18.8486 7.30156 17.4672 7.30156ZM8.29598 11.7628C8.29598 10.8587 9.38867 10.2872 10.2778 10.7263L16.2512 13.6761C17.1661 14.1279 17.1661 15.2974 16.2512 15.7492L10.2778 18.6991C9.38867 19.1381 8.29598 18.5666 8.29598 17.6625V11.7628ZM9.96348 12.2666V17.1587L14.9167 14.7127L9.96348 12.2666Z" fill="url(#paint0_linear_3096_46375)" stroke="url(#paint1_linear_3096_46375)" stroke-width="0.7"/>
  <circle cx="4.59042" cy="7.30136" r="2.96444" fill="url(#paint2_linear_3096_46375)"/>
  <defs>
    <linearGradient id="paint0_linear_3096_46375" x1="1.62598" y1="14.7127" x2="28.306" y2="14.7127" gradientUnits="userSpaceOnUse">
      <stop offset="0.104167" stop-color="#E90202"/>
      <stop offset="1" stop-color="#ED024A"/>
    </linearGradient>
    <linearGradient id="paint1_linear_3096_46375" x1="1.62598" y1="14.7127" x2="28.306" y2="14.7127" gradientUnits="userSpaceOnUse">
      <stop offset="0.104167" stop-color="#E90202"/>
      <stop offset="1" stop-color="#ED024A"/>
    </linearGradient>
    <linearGradient id="paint2_linear_3096_46375" x1="1.62598" y1="7.30136" x2="7.55487" y2="7.30136" gradientUnits="userSpaceOnUse">
      <stop offset="0.104167" stop-color="#E90202"/>
      <stop offset="1" stop-color="#ED024A"/>
    </linearGradient>
  </defs>
</svg>