<svg width="26" height="21" viewBox="0 0 26 21" fill="none" xmlns="http://www.w3.org/2000/svg">
<rect x="0.875" y="0.875" width="23.6711" height="19.25" rx="2.24574" fill="#293137" stroke="#293137" stroke-width="1.75"/>
<path d="M10.4197 15.2209C10.2614 15.2207 10.1059 15.1792 9.9685 15.1005C9.65912 14.9252 9.4668 14.5849 9.4668 14.2155V6.73891C9.4668 6.36844 9.65912 6.02915 9.9685 5.85384C10.1092 5.773 10.269 5.73143 10.4312 5.73347C10.5934 5.73551 10.7521 5.78109 10.8907 5.86544L17.2806 9.69035C17.4137 9.77385 17.5235 9.88981 17.5996 10.0273C17.6757 10.1649 17.7156 10.3195 17.7156 10.4767C17.7156 10.6339 17.6757 10.7885 17.5996 10.926C17.5235 11.0635 17.4137 11.1795 17.2806 11.263L10.8897 15.0889C10.7478 15.1747 10.5854 15.2203 10.4197 15.2209Z" fill="white"/>
</svg>
