<svg width="32" height="32" viewBox="0 0 32 32" fill="none" xmlns="http://www.w3.org/2000/svg">
<g id="WhatsApp" clip-path="url(#clip0_2191_25063)">
<g id="ic--whatsapp">
<path id="Fill" d="M1.84363 30.1634L3.84358 22.8918C2.60682 20.7571 1.95754 18.3355 1.96127 15.8711C1.96477 8.13239 8.28956 1.8396 16.0611 1.8396C17.9133 1.83969 19.7473 2.20311 21.4584 2.9091C23.1695 3.61508 24.7241 4.6498 26.0334 5.95414C27.3427 7.25847 28.3811 8.80686 29.0892 10.5108C29.7973 12.2148 30.1612 14.041 30.1602 15.8851C30.1602 23.6238 23.8319 29.918 16.0611 29.918H16.0548C13.7011 29.9181 11.3849 29.3313 9.31754 28.2113L1.84363 30.1634Z" fill="url(#paint0_linear_2191_25063)"/>
<g id="Outline" filter="url(#filter0_d_2191_25063)">
<path d="M1.33337 30.6666L3.40546 23.137C2.12499 20.9271 1.45276 18.4201 1.45662 15.8688C1.45662 7.85123 8.01109 1.33325 16.0613 1.33325C17.9797 1.33344 19.8792 1.70984 21.6515 2.44097C23.4237 3.1721 25.0339 4.24364 26.3902 5.5944C27.7465 6.94515 28.8222 8.54866 29.556 10.3134C30.2897 12.0781 30.6672 13.9694 30.6667 15.8793C30.6632 23.8969 24.1108 30.4149 16.0613 30.4149H16.0529C13.6147 30.4148 11.2154 29.8064 9.07409 28.6454L1.33337 30.6666ZM9.43472 26.0136L9.87799 26.2757C11.7486 27.3784 13.8825 27.9601 16.0564 27.9601H16.0613C22.7523 27.9601 28.1976 22.5395 28.2004 15.8779C28.2015 12.6726 26.9237 9.59819 24.6482 7.33081C22.3726 5.06343 19.2856 3.78882 16.0662 3.78734C9.3703 3.78734 3.92505 9.20655 3.92225 15.8682C3.91874 18.1427 4.56212 20.3718 5.77795 22.2976L6.06715 22.7549L4.84029 27.2169L9.43472 26.0136Z" fill="url(#paint1_linear_2191_25063)"/>
</g>
<path id="Icon" fill-rule="evenodd" clip-rule="evenodd" d="M12.4114 9.79087C12.1383 9.18572 11.8512 9.17387 11.5907 9.16341C11.3806 9.15434 11.1341 9.15504 10.8904 9.15504C10.7056 9.15995 10.5237 9.20286 10.3564 9.28109C10.189 9.35932 10.0396 9.47117 9.91775 9.60961C9.58303 9.97354 8.63977 10.852 8.63977 12.6396C8.63977 14.4271 9.94786 16.1548 10.1299 16.3974C10.312 16.64 12.6544 20.425 16.3623 21.8814C19.4434 23.0918 20.0737 22.8512 20.7417 22.7878C21.4098 22.7243 22.9006 21.9086 23.2045 21.0602C23.5085 20.2117 23.5092 19.4852 23.4146 19.3332C23.3201 19.1812 23.0806 19.0906 22.7144 18.9093C22.3481 18.7281 20.5555 17.8482 20.2214 17.7276C19.8874 17.607 19.643 17.5457 19.4 17.9096C19.157 18.2735 18.4575 19.0906 18.2446 19.3332C18.0317 19.5759 17.8188 19.6065 17.454 19.4246C17.0891 19.2426 15.9134 18.8592 14.5192 17.6216C13.4345 16.6581 12.702 15.4694 12.4884 15.1055C12.2748 14.7416 12.466 14.5478 12.6488 14.3644C12.8126 14.2013 13.0136 13.9398 13.1964 13.7279C13.3792 13.5159 13.4394 13.3639 13.5605 13.122C13.6817 12.8801 13.6214 12.6675 13.5304 12.4855C13.4394 12.3035 12.7356 10.509 12.4114 9.79087Z" fill="white"/>
</g>
</g>
<defs>
<filter id="filter0_d_2191_25063" x="-0.499959" y="-0.500081" width="33" height="32.9999" filterUnits="userSpaceOnUse" color-interpolation-filters="sRGB">
<feFlood flood-opacity="0" result="BackgroundImageFix"/>
<feColorMatrix in="SourceAlpha" type="matrix" values="0 0 0 0 0 0 0 0 0 0 0 0 0 0 0 0 0 0 127 0" result="hardAlpha"/>
<feOffset/>
<feGaussianBlur stdDeviation="0.916667"/>
<feColorMatrix type="matrix" values="0 0 0 0 0 0 0 0 0 0 0 0 0 0 0 0 0 0 0.15 0"/>
<feBlend mode="normal" in2="BackgroundImageFix" result="effect1_dropShadow_2191_25063"/>
<feBlend mode="normal" in="SourceGraphic" in2="effect1_dropShadow_2191_25063" result="shape"/>
</filter>
<linearGradient id="paint0_linear_2191_25063" x1="16.0016" y1="30.1613" x2="16.0016" y2="1.84239" gradientUnits="userSpaceOnUse">
<stop stop-color="#20B038"/>
<stop offset="1" stop-color="#60D66A"/>
</linearGradient>
<linearGradient id="paint1_linear_2191_25063" x1="16.0004" y1="30.6666" x2="16.0004" y2="1.33186" gradientUnits="userSpaceOnUse">
<stop stop-color="#F9F9F9"/>
<stop offset="1" stop-color="white"/>
</linearGradient>
<clipPath id="clip0_2191_25063">
<rect width="32" height="32" fill="white"/>
</clipPath>
</defs>
</svg>
