<svg xmlns="http://www.w3.org/2000/svg" width="41" height="41" viewBox="0 0 41 41" fill="none">
  <path fill-rule="evenodd" clip-rule="evenodd" d="M26.5345 14.3811C26.8883 14.735 26.8883 15.3088 26.5345 15.6626L21.4085 20.7886L26.5345 25.9146C26.8883 26.2685 26.8883 26.8423 26.5345 27.1961C26.1806 27.55 25.6068 27.55 25.253 27.1961L20.127 22.0701L15.0009 27.1961C14.6471 27.55 14.0733 27.55 13.7194 27.1961C13.3656 26.8423 13.3656 26.2685 13.7194 25.9146L18.8455 20.7886L13.7194 15.6626C13.3656 15.3088 13.3656 14.735 13.7194 14.3811C14.0733 14.0273 14.6471 14.0273 15.0009 14.3811L20.127 19.5071L25.253 14.3811C25.6068 14.0273 26.1806 14.0273 26.5345 14.3811Z" fill="white"/>
</svg>